<svg id="Layer_1" data-name="Layer 1" xmlns="http://www.w3.org/2000/svg" viewBox="0 0 350 380"><defs><style>.cls-1{fill:#f5f5f5;}.cls-2{fill:#e1e1e1;}.cls-3{fill:#ececec;}.cls-4{fill:#fafafa;}.cls-5{fill:#fff;}.cls-6{fill:#375a64;}.cls-7{fill:#1a2e35;}.cls-8{fill:#ffc19d;}.cls-9{fill:#ff9c6a;}.cls-10{fill:#ff735d;}.cls-11{opacity:0.3;}</style></defs><path class="cls-1" d="M183,341.66l-9.33,4.1.63-56.49c.29-6.75-2.75-9.64-4.41-11.56-15-17.42-37.35-4.79-37.55,12.89l-.56,50.47-9.07-.11.91-52.81c.06-5.95,4.58-16.27,9.15-20,25.22-20.43,51,.68,50.8,23Z" transform="translate(0 0)"/><path class="cls-2" d="M183,341.66v-1c0-.67,0-1.64,0-2.93,0-2.57.05-6.36.08-11.23s.1-10.82.16-17.73c0-3.45.06-7.14.1-11.05s.34-8.08-.44-12.35A30.36,30.36,0,0,0,177.69,273c-.35-.47-.68-1-1-1.43l-1.17-1.34a30.68,30.68,0,0,0-2.55-2.55c-.44-.42-.94-.76-1.42-1.15a17.57,17.57,0,0,0-1.47-1.1,27.71,27.71,0,0,0-3.2-1.89,29.94,29.94,0,0,0-7.13-2.61l-1.91-.32-1-.16c-.32,0-.65-.05-1-.07l-2-.12c-.65,0-1.31,0-2,.06a29.33,29.33,0,0,0-15.31,5.21,32.13,32.13,0,0,0-6.26,5.81,30.83,30.83,0,0,0-6.74,16.3c-.25,3-.18,6.16-.24,9.29-.14,12.52-.28,25.49-.43,38.77,0,1.77,0,3.54,0,5.3l-.21-.22,9.07.1-.22.22c.12-10,.23-19.86.33-29.41q.09-7.16.16-14.1,0-3.46.08-6.88a24.34,24.34,0,0,1,1.1-6.7,21.8,21.8,0,0,1,7.5-10.55c.44-.31.84-.67,1.3-.93l1.35-.82a22.73,22.73,0,0,1,2.86-1.28,21.91,21.91,0,0,1,3-.86c.5-.11,1-.15,1.51-.23l.75-.11.76,0a20.76,20.76,0,0,1,6,.51,21.19,21.19,0,0,1,13.4,10,23,23,0,0,1,2.18,5,23.47,23.47,0,0,1,.83,5.2c0,.44,0,.87.05,1.29s0,.85,0,1.28c0,.84,0,1.68,0,2.5,0,1.66,0,3.28-.06,4.88-.08,6.37-.15,12.22-.22,17.5-.14,10.55-.25,18.81-.32,24.3l-.07-.07,6.84.12,1.68,0,.55,0h-2.19l-6.88,0h-.06v-.06c0-5.49.12-13.75.21-24.3.06-5.28.11-11.14.17-17.51,0-1.59,0-3.21,0-4.87,0-.83,0-1.66,0-2.51,0-.42,0-.84,0-1.27l-.05-1.27a22.69,22.69,0,0,0-.83-5.12,22.15,22.15,0,0,0-2.16-4.89,21.25,21.25,0,0,0-7.84-7.71,22.1,22.1,0,0,0-5.35-2.08,20.42,20.42,0,0,0-5.85-.49l-.74,0-.75.11c-.49.08-1,.13-1.48.23a21.07,21.07,0,0,0-2.91.85,21.36,21.36,0,0,0-2.81,1.26l-1.33.81a15.57,15.57,0,0,0-1.27.91,21.45,21.45,0,0,0-7.36,10.37,24.15,24.15,0,0,0-1.07,6.58c0,2.27-.05,4.57-.07,6.88-.05,4.62-.1,9.33-.15,14.1-.11,9.54-.21,19.36-.32,29.4v.22h-.21l-9.07-.11h-.21V341c0-1.75,0-3.52.06-5.29.15-13.29.29-26.25.43-38.78.06-3.13,0-6.23.26-9.32A31.15,31.15,0,0,1,130,271.05a32.67,32.67,0,0,1,6.35-5.88,29.62,29.62,0,0,1,15.52-5.26c.67,0,1.33-.08,2-.06l2.28.14,1.25.15,1.9.32.88.19a29.21,29.21,0,0,1,6.78,2.54,27.48,27.48,0,0,1,3.23,1.92,16,16,0,0,1,1.49,1.11c.48.39,1,.74,1.43,1.16a33.17,33.17,0,0,1,2.58,2.59c.39.45.78.91,1.18,1.36s.69,1,1,1.45a30.68,30.68,0,0,1,5.23,12.52c.78,4.33.38,8.52.41,12.44s-.1,7.63-.15,11.09c-.09,6.92-.17,12.88-.24,17.76s-.12,8.62-.16,11.19c0,1.27,0,2.24,0,2.9S183,341.66,183,341.66Z" transform="translate(0 0)"/><path class="cls-2" d="M193.93,380l-82.38-1,.79-71,82.09.95a3.21,3.21,0,0,1,3.13,3.28l-.72,64.85A2.91,2.91,0,0,1,193.93,380Z" transform="translate(0 0)"/><path class="cls-3" d="M182.55,379.85,111.21,379a3.6,3.6,0,0,1-3.51-3.68l.71-63.88a3.48,3.48,0,0,1,3.48-3.48l72.22.84a3.48,3.48,0,0,1,3.4,3.56l-.7,63.21A4.25,4.25,0,0,1,182.55,379.85Z" transform="translate(0 0)"/><path class="cls-2" d="M158.66,337.8a9.8,9.8,0,0,0-9.88-10,9.92,9.92,0,0,0-2.57,19.38l-6.48,13.61,16.72.51-4.95-14.06A9.84,9.84,0,0,0,158.66,337.8Z" transform="translate(0 0)"/><path class="cls-4" d="M186.88,373.23c-.12,0,0-12.37.21-27.62s.52-27.63.64-27.63,0,12.37-.21,27.63S187,373.23,186.88,373.23Z" transform="translate(0 0)"/><path class="cls-5" d="M169.24,310.81c0,.12-10.65.24-23.78.26s-23.78-.05-23.78-.17,10.64-.24,23.78-.26S169.24,310.69,169.24,310.81Z" transform="translate(0 0)"/><path class="cls-5" d="M138.89,342.91s-.18-.2-.4-.63a9.66,9.66,0,0,1-.72-1.88,11.49,11.49,0,0,1,.15-6.63,11.28,11.28,0,0,1,3.83-5.35,9.87,9.87,0,0,1,1.69-1.05,2,2,0,0,1,.69-.24c0,.07-.93.47-2.2,1.53a11.8,11.8,0,0,0-3.6,5.25,12,12,0,0,0-.27,6.41C138.44,342,139,342.87,138.89,342.91Z" transform="translate(0 0)"/><path class="cls-5" d="M142.67,347.65c-.06.1-.63-.14-1.27-.55s-1.11-.82-1.05-.92.63.14,1.27.55S142.73,347.55,142.67,347.65Z" transform="translate(0 0)"/><path class="cls-5" d="M150.76,262.51s-.58.08-1.63.22a27.45,27.45,0,0,0-4.38.95,26.78,26.78,0,0,0-12.27,8,28.06,28.06,0,0,0-6.57,18,15.57,15.57,0,0,1,0,1.68,1.93,1.93,0,0,1-.07-.43c0-.29-.08-.71-.09-1.25a25.38,25.38,0,0,1,.25-4.6,27.09,27.09,0,0,1,6.17-13.69,26.16,26.16,0,0,1,12.51-8,23.11,23.11,0,0,1,4.44-.83c.53-.06.94-.05,1.22-.06A1.3,1.3,0,0,1,150.76,262.51Z" transform="translate(0 0)"/><path class="cls-5" d="M125.47,299a8,8,0,0,1-.16-2.59,8,8,0,0,1,.26-2.57,7.87,7.87,0,0,1,.16,2.58A8.43,8.43,0,0,1,125.47,299Z" transform="translate(0 0)"/><rect class="cls-1" x="136.45" y="57.89" width="41.19" height="11.14"/><path class="cls-2" d="M160.23,80.76a.63.63,0,0,1,0-.2l0-.57c0-.52,0-1.26,0-2.19,0-1.93,0-4.69-.07-8.18l.13.13L119,69.84c.09-.1-.21.21.2-.22h0V80.76l-.21-.21,29.36.1,8.67.06,2.34,0h.83l-.19,0h-.59l-2.3,0-8.62.06L119,81h-.2V69.64h0c.42-.43.12-.12.22-.21l41.19.08h.13v.13c0,3.52-.06,6.31-.07,8.25,0,.93,0,1.65,0,2.17,0,.22,0,.4,0,.55A.86.86,0,0,1,160.23,80.76Z" transform="translate(0 0)"/><rect class="cls-1" x="284.57" y="250.27" width="41.19" height="11.14"/><path class="cls-2" d="M308.35,273.14a.63.63,0,0,1,0-.2l0-.57c0-.53,0-1.26,0-2.19,0-1.93,0-4.69-.07-8.18l.13.13-41.19.09c.09-.1-.21.21.2-.22h0v11.12l-.21-.21,29.36.1,8.67.06,2.34,0h.83l-.19,0h-.59l-2.3,0-8.62.06-29.5.09H267V262h0c.42-.43.12-.12.22-.21l41.19.08h.13V262c0,3.52-.06,6.31-.07,8.25,0,.93,0,1.65,0,2.17,0,.22,0,.4,0,.55A.86.86,0,0,1,308.35,273.14Z" transform="translate(0 0)"/><path class="cls-2" d="M41.4,290.08s0-.07,0-.2v-.58q0-.78,0-2.19c0-1.92,0-4.69-.07-8.17l.12.13-41.19.08c.1-.09-.21.22.21-.21h0v11.12l-.21-.21,29.36.09,8.66.06,2.34,0,.62,0h0l-.58,0-2.3,0-8.62.06-29.5.1H0V279H0l.21-.22,41.19.09h.13v.13c0,3.52-.05,6.31-.07,8.25,0,.92,0,1.65,0,2.16v.55C41.41,290,41.41,290.08,41.4,290.08Z" transform="translate(0 0)"/><path class="cls-2" d="M47,278.94a1.07,1.07,0,0,1,0-.21v-.59l0-2.24c0-1.95-.05-4.71-.08-8.1L47,268,22.24,268l.21-.21h0v5.72c0,1.86,0,3.67,0,5.4l-.2-.21,17.7.1,5.16.06,1.39,0,.5,0a3.61,3.61,0,0,1-.45,0l-1.35,0-5.11.06-17.84.09H22v-.2c0-1.73,0-3.54,0-5.4v-5.72h0c-.05,0,.4-.41.21-.22l24.75.06h.15v.16c0,3.43-.06,6.22-.08,8.2,0,.92,0,1.66,0,2.19A6.83,6.83,0,0,1,47,278.94Z" transform="translate(0 0)"/><path class="cls-2" d="M171.12,198.47a.8.8,0,0,1,0-.2v-.57c0-.52,0-1.26,0-2.19,0-1.93,0-4.69-.07-8.18l.13.13-41.2.09.21-.22h0v11.12l-.21-.21,29.36.1,8.66.06,2.35,0h.83l-.2,0h-.58l-2.3,0-8.62.06-29.5.09h-.2v-.21c0-1.79,0-3.62,0-5.48v-5.64h0l.21-.21,41.2.08h.12v.13c0,3.52-.05,6.31-.07,8.26q0,1.38,0,2.16v.55C171.12,198.42,171.12,198.48,171.12,198.47Z" transform="translate(0 0)"/><path class="cls-2" d="M176.7,187.33s0-.07,0-.21v-.59l0-2.23c0-2,0-4.71-.08-8.11l.15.16-24.75.06.21-.22h0v5.72c0,1.87,0,3.67,0,5.4l-.2-.2,17.71.1,5.15.05,1.39,0,.5,0a2.29,2.29,0,0,1-.45,0l-1.35,0-5.11.06-17.84.1h-.2v-.21c0-1.73,0-3.53,0-5.4v-5.72h0L152,176l24.75.06h.15v.15c0,3.43-.06,6.23-.08,8.2,0,.93,0,1.66,0,2.2A6.5,6.5,0,0,1,176.7,187.33Z" transform="translate(0 0)"/><path class="cls-6" d="M18.59,332.12,3.37,353.25,29,372.74c1.68-2.61-7.92-17.72-7.92-17.72l10.29-13.13Z" transform="translate(0 0)"/><path class="cls-5" d="M14,347.86a1.25,1.25,0,0,0-1,2.31,1.36,1.36,0,0,0,1.7-.72,1.33,1.33,0,0,0-.85-1.63" transform="translate(0 0)"/><path class="cls-7" d="M3.34,353.3,5,351l23.94,19.7s.76,1.38,0,2.1Z" transform="translate(0 0)"/><path class="cls-7" d="M21.58,355.2c-.1.13-.76-.29-1.68-.35s-1.63.23-1.71.1.64-.74,1.75-.65S21.69,355.11,21.58,355.2Z" transform="translate(0 0)"/><path class="cls-7" d="M23.44,358.38c-.06.15-.76,0-1.58.17s-1.36.7-1.48.6.33-.89,1.35-1.14S23.53,358.26,23.44,358.38Z" transform="translate(0 0)"/><path class="cls-7" d="M22.57,362.83c-.13-.06.16-.83,1-1.28s1.62-.29,1.6-.15-.66.25-1.34.63S22.71,362.92,22.57,362.83Z" transform="translate(0 0)"/><path class="cls-7" d="M23.6,352c-.14.07-.58-.54-1.32-1s-1.46-.68-1.45-.84.88-.21,1.74.38S23.74,351.89,23.6,352Z" transform="translate(0 0)"/><path class="cls-7" d="M80.53,243.71c.47,2.65,1.19,25.18,1.65,37.06s-.69,17.74-2,20.4S28.7,341.6,24.88,350.65L12.22,340.19S30.81,306,38.79,299.79,62,287.87,62,287.87l-4.34-65.09,20.82-1.16Z" transform="translate(0 0)"/><path class="cls-6" d="M33.94,353l-.22,26.24,31.93.45c-.14-3.12-16.58-9.62-16.58-9.62l.82-16.8Z" transform="translate(0 0)"/><path class="cls-5" d="M39.22,368.53A1.33,1.33,0,0,0,38.3,370a1.25,1.25,0,0,0,1.45.95,1.43,1.43,0,0,0,1-1.61,1.29,1.29,0,0,0-1.62-.81" transform="translate(0 0)"/><path class="cls-7" d="M33.72,379.3v-2.81l30.69,1.63s1.41.66,1.23,1.69Z" transform="translate(0 0)"/><path class="cls-7" d="M49.59,369.92c0,.16-.79.22-1.56.73s-1.19,1.16-1.33,1.1.1-1,1-1.58S49.63,369.78,49.59,369.92Z" transform="translate(0 0)"/><path class="cls-7" d="M52.92,371.39c0,.15-.64.41-1.18,1.08s-.7,1.38-.86,1.37-.24-.91.45-1.73S52.92,371.24,52.92,371.39Z" transform="translate(0 0)"/><path class="cls-7" d="M54.77,375.51c-.14,0-.35-.77.06-1.63S56,372.67,56,372.81s-.39.59-.72,1.31S54.92,375.5,54.77,375.51Z" transform="translate(0 0)"/><path class="cls-7" d="M49.36,366.07c-.06.15-.78-.08-1.66,0s-1.57.32-1.65.18.59-.7,1.63-.74S49.44,366,49.36,366.07Z" transform="translate(0 0)"/><path class="cls-7" d="M82.84,218.93c0,1.54,2.43,40.32-10,68.36,0,0-4.3,8.77-5.05,12.61S51,367.33,51,367.33l-18.54-.69s-3-31.86,0-50.3,8.5-16.29,8.5-28.2-2.77-36.6-2.77-36.6-4.05-6.75-5.43-19.82c-1.12-10.63,3.77-22,3.77-22L41.39,201l40.9-2.19Z" transform="translate(0 0)"/><path class="cls-6" d="M82.84,218.93s0-.45,0-1.32,0-2.18-.08-3.88c-.08-3.42-.21-8.46-.36-15v-.1h-.11l-40.9,2.13h-.09l0,.08c-1.51,2.72-3.16,5.69-4.85,8.75h0a57.54,57.54,0,0,0-2.92,9.59,44,44,0,0,0-1,10.55,67.09,67.09,0,0,0,1.67,11A45.38,45.38,0,0,0,38,251.65l0-.09c.7,6.46,1.35,13.16,1.9,20,.27,3.45.51,6.94.68,10.48.09,1.77.15,3.56.16,5.35,0,.89,0,1.78,0,2.68a24,24,0,0,1-.32,2.67,17.93,17.93,0,0,1-1.76,5.08c-.82,1.62-1.74,3.22-2.51,4.91a47,47,0,0,0-3.34,10.74,125.48,125.48,0,0,0-1.85,23c0,10.3.48,20.4,1.3,30.18l0,.2h.2l18.54.69h.18l0-.17c5.37-21.3,10.39-41.21,14.8-59.11.55-2.24,1.08-4.45,1.61-6.63.27-1.09.45-2.19.78-3.22s.7-2.07,1.1-3.07c.79-2,1.65-4,2.52-5.86l.66-1.41a13.91,13.91,0,0,0,.63-1.42l1.14-2.84a117.17,117.17,0,0,0,5.85-21.58,191.84,191.84,0,0,0,2.8-31.8c0-7.47-.25-11.52-.25-11.52s0,.25,0,.75,0,1.25.05,2.21c0,2,.08,4.83,0,8.56A197.07,197.07,0,0,1,80,262.19a117.79,117.79,0,0,1-5.89,21.51c-.38.93-.76,1.88-1.14,2.83a13.52,13.52,0,0,1-.63,1.41l-.66,1.41c-.88,1.9-1.74,3.85-2.55,5.87-.39,1-.77,2-1.1,3.1s-.53,2.17-.8,3.24c-.53,2.18-1.07,4.38-1.61,6.62-4.5,17.88-9.51,37.79-14.86,59.1l.22-.17-18.54-.7.21.21c-.82-9.76-1.33-19.86-1.3-30.13.08-7.78.38-15.5,1.85-22.89A46.55,46.55,0,0,1,36.51,303c.76-1.68,1.67-3.26,2.51-4.9a18.6,18.6,0,0,0,1.79-5.21,25.23,25.23,0,0,0,.33-2.72c0-.91.08-1.82,0-2.72,0-1.8-.08-3.58-.16-5.36-.17-3.55-.42-7-.69-10.49q-.84-10.35-1.92-20v0l0,0a44.86,44.86,0,0,1-3.89-10.75,66.6,66.6,0,0,1-1.67-10.91,43.37,43.37,0,0,1,1-10.45,56.51,56.51,0,0,1,2.88-9.53h0l4.83-8.75-.13.08,40.89-2.26-.1-.09c.2,6.5.35,11.53.46,15,0,1.69.1,3,.13,3.87S82.84,218.93,82.84,218.93Z" transform="translate(0 0)"/><path class="cls-6" d="M69.54,139.51s-11.05-2-10,12.49c.64,8.67,3.13,23.51,4.51,33,.47,3.28,1.52,9.15,5.76,12.59l30.4,21.51,9.59-11.73L82.68,180.93l-4.27-26.14Z" transform="translate(0 0)"/><path class="cls-7" d="M70.83,87.32A14.32,14.32,0,0,1,76,99.37c-.16,2.21-.76,4.73.65,6.42s4.13,1.62,5.46,3.34c1.57,2,.26,5,.82,7.56a5,5,0,0,0,5.32,3.8,19.28,19.28,0,0,1-9.68,4.29l-2.71-3.55a3.74,3.74,0,0,1-.24,4.5,8.24,8.24,0,0,1-4,2.46,24.35,24.35,0,0,1-21.72-3.61" transform="translate(0 0)"/><path class="cls-7" d="M30.17,106.86a51.75,51.75,0,0,0,1.81-5c.79-3.75-1-8,.78-11.35,1.27-2.4,4-3.57,6.51-4.38s5.29-1.48,7.19-3.39c1.4-1.41,2.19-3.34,3.58-4.75,2-2,4.91-2.68,7.69-2.86a16.4,16.4,0,0,1,8.39,1.39,9.33,9.33,0,0,1,5.16,6.6,27.24,27.24,0,0,0,.49,4.25c.48,1.49,1.62,2.65,2.33,4a7.63,7.63,0,0,1-1.84,9L52.64,126.32c-4.13,1.59-14.12-.33-17.3-3.45S28.8,111.14,30.17,106.86Z" transform="translate(0 0)"/><path class="cls-8" d="M71.74,97.11c-.8-5.88-5.18-12.84-10.9-11.76L43.2,91.41c-1.74.33-.5,3.23-.33,5l3.84,40.68s-2.38,1.74-3.23,1.41a.24.24,0,0,0-.29.36c2.12,3.15,12.12,16.9,22.43,12.7,2.31-.94-.24-8.35,0-11.1l-.3-7c-.23-3.59-.34-5.06-.34-5s7.3-1.84,8.09-11.81C73.49,111.67,72.64,103.65,71.74,97.11Z" transform="translate(0 0)"/><path class="cls-7" d="M70.52,106.17a1.27,1.27,0,0,1-1.1,1.37,1.19,1.19,0,0,1-1.36-1,1.26,1.26,0,0,1,1.09-1.37A1.2,1.2,0,0,1,70.52,106.17Z" transform="translate(0 0)"/><path class="cls-7" d="M58.5,106.94a1.28,1.28,0,0,1-1.1,1.37,1.2,1.2,0,0,1-1.36-1,1.26,1.26,0,0,1,1.1-1.37A1.19,1.19,0,0,1,58.5,106.94Z" transform="translate(0 0)"/><path class="cls-7" d="M71,102c-.14.23-1.29-.51-2.73-.3s-2.36,1.23-2.55,1,0-.48.42-.95a3.28,3.28,0,0,1,2-1.08,3.18,3.18,0,0,1,2.2.49C70.82,101.54,71,101.89,71,102Z" transform="translate(0 0)"/><path class="cls-7" d="M58,103.09c-.17.21-1.31-.63-2.85-.56s-2.65,1-2.83.76.08-.46.56-.88a3.69,3.69,0,0,1,2.25-.86,3.58,3.58,0,0,1,2.28.7C57.93,102.63,58.11,103,58,103.09Z" transform="translate(0 0)"/><path class="cls-7" d="M62.88,112.41a9.52,9.52,0,0,1,2.13-.56c.34-.07.66-.16.7-.4a1.77,1.77,0,0,0-.31-1l-1.2-2.57a47,47,0,0,1-2.78-6.74c.15-.07,1.62,2.84,3.3,6.5.41.9.8,1.76,1.16,2.58a2,2,0,0,1,.28,1.35.84.84,0,0,1-.52.55,1.92,1.92,0,0,1-.57.13A8.16,8.16,0,0,1,62.88,112.41Z" transform="translate(0 0)"/><path class="cls-9" d="M65,128.44a24.2,24.2,0,0,1-13.18-2.51s3.77,6.66,13.35,5Z" transform="translate(0 0)"/><path class="cls-9" d="M58.82,116.38a2.23,2.23,0,0,1,.69-.83,1.62,1.62,0,0,1,1.15-.11,2.61,2.61,0,0,1,1.5.78,1.66,1.66,0,0,1,.38,1.63h0c-.14.57-1,.88-1.54,1a2.5,2.5,0,0,1-1.66-.36,1.49,1.49,0,0,1-.85-1.12A1.91,1.91,0,0,1,58.82,116.38Z" transform="translate(0 0)"/><path class="cls-7" d="M59.1,114.47c.21,0,.32,1.44,1.64,2.4s2.84.66,2.87.87-.32.31-1,.38a3.56,3.56,0,0,1-2.39-.64,3.29,3.29,0,0,1-1.29-2C58.86,114.85,59,114.47,59.1,114.47Z" transform="translate(0 0)"/><path class="cls-7" d="M57.91,97.77c-.1.38-1.45.31-3,.62s-2.78.85-3,.54.09-.52.57-.92a5,5,0,0,1,2.19-1,4.94,4.94,0,0,1,2.38.1C57.64,97.32,58,97.59,57.91,97.77Z" transform="translate(0 0)"/><path class="cls-7" d="M70.14,97c-.24.33-1.32.09-2.58.18s-2.31.39-2.58.08c-.12-.14,0-.47.47-.8a4,4,0,0,1,2.06-.67,3.92,3.92,0,0,1,2.1.46C70.08,96.56,70.25,96.86,70.14,97Z" transform="translate(0 0)"/><path class="cls-7" d="M39.3,92.83a7.89,7.89,0,0,1,4-2.72,86.68,86.68,0,0,1,20.44-5.32c.87,1.46.06,3.46-1.25,4.53a16.09,16.09,0,0,1-4.57,2.09,6.29,6.29,0,0,0-3.83,3.1c-.69,1.69-.11,3.68-.71,5.4-1,3-5.07,3.9-6.1,6.86-.77,2.24.49,4.62.81,7a8.75,8.75,0,0,1-2.51,7.33A8.39,8.39,0,0,1,40,123.39q-.71-12.7-1.43-25.41C38.42,96.21,38.35,94.31,39.3,92.83Z" transform="translate(0 0)"/><path class="cls-7" d="M22.6,114.23c1.31-1.2,2.95-2.23,3.47-4,.76-2.5-1.2-5.44.06-7.71,1.16-2.08,4.55-2,5.62-4.09.84-1.66-.12-3.12.2-4.58a3.88,3.88,0,0,1,3.78-2.55l11.32,16.76c1.05,5.63,2.11,8.62.93,11.91a27,27,0,0,0-1.75,5.47c-.25,1.91.22,4.07,1.75,5.19-6.77.54-13.11-3.08-19-6.58l-6.2-3.7A4.64,4.64,0,0,1,21.1,119C20.19,117.41,21.29,115.43,22.6,114.23Z" transform="translate(0 0)"/><path class="cls-6" d="M28.84,122.41a3.21,3.21,0,0,0,.72.14,6.12,6.12,0,0,0,2.11-.15,6.5,6.5,0,0,0,2.94-1.62,6.61,6.61,0,0,0,1.94-4,7,7,0,0,0-.23-2.66,11.09,11.09,0,0,0-1.25-2.57,10.27,10.27,0,0,1-1.3-2.66,3.52,3.52,0,0,1,.36-2.94c.62-.84,1.76-1,2.82-1.48a3.1,3.1,0,0,0,1.45-1.1,3.2,3.2,0,0,0,.46-1.81,19.35,19.35,0,0,0-.77-3.6,4.07,4.07,0,0,1,0-1.77,2.4,2.4,0,0,1,1-1.4,6.58,6.58,0,0,1,3.42-.94,7.26,7.26,0,0,0,3.49-1,6.64,6.64,0,0,0,2.38-2.64,11.3,11.3,0,0,0,.89-3.32,15.86,15.86,0,0,1,.66-3.11,6.83,6.83,0,0,1,1.59-2.45,7.75,7.75,0,0,1,4.68-2.17,7.65,7.65,0,0,1,4.19.9A9.21,9.21,0,0,1,63,82a12.25,12.25,0,0,1,1.61,2.36s0-.07-.06-.18-.12-.3-.24-.51a8.73,8.73,0,0,0-1.2-1.78,9,9,0,0,0-2.62-2.12,7.74,7.74,0,0,0-4.31-1A8,8,0,0,0,51.26,81a7.28,7.28,0,0,0-1.69,2.57,16.55,16.55,0,0,0-.69,3.17,11.07,11.07,0,0,1-.86,3.2,6.22,6.22,0,0,1-2.26,2.49,6.79,6.79,0,0,1-3.32,1,6.93,6.93,0,0,0-3.61,1,2.87,2.87,0,0,0-1.13,1.63,4.38,4.38,0,0,0,0,1.94,20.08,20.08,0,0,1,.76,3.54,2.65,2.65,0,0,1-.39,1.58,2.72,2.72,0,0,1-1.27,1c-.51.22-1.05.37-1.57.6a3.15,3.15,0,0,0-1.4,1,3.87,3.87,0,0,0-.4,3.25,10.67,10.67,0,0,0,1.35,2.75A10.65,10.65,0,0,1,36,114.17a6.59,6.59,0,0,1-1.57,6.45,6.46,6.46,0,0,1-2.83,1.63A7,7,0,0,1,28.84,122.41Z" transform="translate(0 0)"/><path class="cls-7" d="M19.81,110.49a1.57,1.57,0,0,0-.22.56,2.53,2.53,0,0,0,.29,1.72,2.53,2.53,0,0,0,2.31,1.32,3.38,3.38,0,0,0,3-1.92,4.74,4.74,0,0,0,.48-2.11,6.66,6.66,0,0,0-.48-2.29c-.53-1.49-1.51-3-1.53-4.7a3.27,3.27,0,0,1,.78-2.38,3.37,3.37,0,0,1,2.46-.78,8.29,8.29,0,0,0,2.93-.31,2.6,2.6,0,0,0,1.21-1A3.82,3.82,0,0,0,31.5,97,12.3,12.3,0,0,0,31.26,94a6.81,6.81,0,0,1,.16-2.85,7.19,7.19,0,0,1,3.14-4.23,9.81,9.81,0,0,1,4.7-1.09,14,14,0,0,0,4.28-.69A9.16,9.16,0,0,0,48.23,81a6.68,6.68,0,0,0,.81-2.2,12.71,12.71,0,0,1-.94,2.12A9.42,9.42,0,0,1,46.42,83a8.81,8.81,0,0,1-3,1.85,13.54,13.54,0,0,1-4.2.62,10,10,0,0,0-4.86,1.11A7.57,7.57,0,0,0,31,91a7.43,7.43,0,0,0-.17,3,12,12,0,0,1,.24,3,2.58,2.58,0,0,1-1.46,2.25,8,8,0,0,1-2.78.28,3.73,3.73,0,0,0-2.72.91,3.58,3.58,0,0,0-.88,2.66,6.7,6.7,0,0,0,.62,2.58c.32.78.69,1.51,1,2.23a6.15,6.15,0,0,1,.47,2.17,4.45,4.45,0,0,1-.42,2,3.16,3.16,0,0,1-2.72,1.83A2.39,2.39,0,0,1,20,112.69a2.55,2.55,0,0,1-.34-1.62C19.73,110.68,19.83,110.5,19.81,110.49Z" transform="translate(0 0)"/><path class="cls-7" d="M91.13,114.62a2.83,2.83,0,0,1,0,1.81,2.25,2.25,0,0,1-3.89.76,2.32,2.32,0,0,1-.59-1.45,5.2,5.2,0,0,1,.26-1.75c.36-1.17,1.1-2.44,1-4a5.63,5.63,0,0,0-2.05-4,6.42,6.42,0,0,0-2.11-1.13,9.44,9.44,0,0,0-2.41-.36,11.73,11.73,0,0,1-2.34-.25,3.08,3.08,0,0,1-1.82-1.15,3.93,3.93,0,0,1-.66-2A7.94,7.94,0,0,1,76.65,99a16.71,16.71,0,0,0,.61-4,6.27,6.27,0,0,0-1.21-3.36,7.79,7.79,0,0,0-2.2-1.91,13.86,13.86,0,0,1-1.77-1.24A4.72,4.72,0,0,1,71,86.93l0,.12a1.89,1.89,0,0,0,.14.34A3.66,3.66,0,0,0,72,88.51a13.69,13.69,0,0,0,1.75,1.31,8,8,0,0,1,2.1,1.89,6,6,0,0,1,1.1,3.21,16.76,16.76,0,0,1-.63,4,8.24,8.24,0,0,0-.2,2.24,4.37,4.37,0,0,0,.72,2.25,3.49,3.49,0,0,0,2,1.31,13.19,13.19,0,0,0,2.42.27,8.77,8.77,0,0,1,2.31.33,5.91,5.91,0,0,1,2,1.06A5.25,5.25,0,0,1,87.51,110c.12,1.4-.56,2.62-.93,3.85a5.08,5.08,0,0,0-.25,1.88,2.7,2.7,0,0,0,.68,1.62,2.63,2.63,0,0,0,2.76.71,2.5,2.5,0,0,0,1.48-1.62,2.69,2.69,0,0,0,.07-1.41A1.61,1.61,0,0,0,91.13,114.62Z" transform="translate(0 0)"/><path class="cls-6" d="M83,182.42v-9.58a27.25,27.25,0,0,0-1.89-16.65,91.39,91.39,0,0,0-5.88-9.14l-9.32-12.36c-5.13,3.82-13.17,1.06-20.06-1.51,0,0-6.81,3.85-10,7.48-3.33,3.8,8.05,51.45,8.05,51.45C38.8,202.65,32.15,212,31.14,221.62L85,223.74,82.7,198.5Z" transform="translate(0 0)"/><path class="cls-7" d="M82.29,198.77a5.35,5.35,0,0,1,0-1.08c0-.78,0-1.76,0-2.93,0-2.57.1-5.95.16-9.68s.16-7.2.28-9.68c.06-1.23.12-2.23.17-2.93A5.6,5.6,0,0,1,83,171.4a4.61,4.61,0,0,1,0,1.08c0,.79,0,1.77,0,2.93,0,2.58-.09,6-.15,9.68s-.17,7.2-.29,9.68c0,1.24-.11,2.24-.17,2.93A4.73,4.73,0,0,1,82.29,198.77Z" transform="translate(0 0)"/><path class="cls-8" d="M106.89,207.48s5.24.29,8.5,2.38,8.47,5.31,10.62,9.32c1,1.84-1.83,2.23-3.22,1.16s-3.53-3.08-4.58-3.33l-1.06-.25a71.91,71.91,0,0,0,3.22,6.54c1.1,1.7,2,4.61-1.24,4.74,0,0-2.21,2.94-4.45.76,0,0-1.74,2.67-4.55-1,0,0-1.64,2.12-2.32,1.31s-2.92-2.1-3.58-4.74a93.52,93.52,0,0,0-3.4-9.08Z" transform="translate(0 0)"/><path class="cls-10" d="M347.79,28.24l.93,1.71A10.48,10.48,0,0,1,344.79,44L140.43,160.33l-10.79-19.81L334,24.23A10,10,0,0,1,347.79,28.24Z" transform="translate(0 0)"/><path class="cls-10" d="M301.56,1l25,46-14.79,8.41-25-46a2,2,0,0,1,.74-2.63L299,.24A1.88,1.88,0,0,1,301.56,1Z" transform="translate(0 0)"/><path class="cls-10" d="M277.36,25.56l18.23,33.49a2.85,2.85,0,0,1-1.06,3.82l-10,5.68a2.71,2.71,0,0,1-3.74-1.09L262.56,34a2.84,2.84,0,0,1,1.07-3.82l10-5.69A2.72,2.72,0,0,1,277.36,25.56Z" transform="translate(0 0)"/><polygon class="cls-10" points="301.64 18.94 312.93 39.68 289.96 52.75 278.67 32.02 301.64 18.94"/><path class="cls-7" d="M331,25.94c.06.11-40.05,23-89.57,51.22s-89.73,51-89.79,50.84,40-23,89.58-51.23S330.94,25.83,331,25.94Z" transform="translate(0 0)"/><path class="cls-10" d="M57.66,198.66c15.07,27.67,46.85,39,71,25.23s31.49-47.3,16.43-75-46.85-39-71-25.23S42.6,171,57.66,198.66ZM132,156.37c10.55,19.39,5.4,42.9-11.51,52.53s-39.18,1.71-49.74-17.68-5.4-42.91,11.51-52.53S121.43,137,132,156.37Z" transform="translate(0 0)"/><path class="cls-10" d="M174.57,114.66l11.15,20.48a5.72,5.72,0,0,1-2.14,7.68l-.9.51a5.45,5.45,0,0,1-7.51-2.18L164,120.66a5.7,5.7,0,0,1,2.13-7.67l.91-.52A5.47,5.47,0,0,1,174.57,114.66Z" transform="translate(0 0)"/><path class="cls-10" d="M196,102.47,207.14,123a5.71,5.71,0,0,1-2.14,7.67l-.91.51a5.45,5.45,0,0,1-7.5-2.18l-11.15-20.48a5.71,5.71,0,0,1,2.13-7.68l.91-.51A5.46,5.46,0,0,1,196,102.47Z" transform="translate(0 0)"/><path class="cls-7" d="M174.33,114.31c.11-.06,2.7,4.58,5.79,10.37s5.5,10.53,5.39,10.59-2.69-4.58-5.78-10.37S174.23,114.37,174.33,114.31Z" transform="translate(0 0)"/><path class="cls-7" d="M164.51,121.49c.1-.06,2.63,4.37,5.64,9.9s5.36,10.06,5.26,10.12-2.64-4.37-5.65-9.9S164.4,121.55,164.51,121.49Z" transform="translate(0 0)"/><path class="cls-7" d="M195.88,102.29c.11-.06,2.74,4.56,5.88,10.33s5.6,10.49,5.5,10.55-2.74-4.56-5.88-10.33S195.78,102.35,195.88,102.29Z" transform="translate(0 0)"/><path class="cls-7" d="M185.54,108.67c.11-.06,2.69,4.54,5.76,10.27s5.47,10.42,5.36,10.48-2.68-4.54-5.75-10.27S185.43,108.73,185.54,108.67Z" transform="translate(0 0)"/><path class="cls-7" d="M247,77.45a4.16,4.16,0,0,0,4.37-3.19,4.25,4.25,0,0,0-2.66-4.76,4.45,4.45,0,0,0,.72-4.93,4.24,4.24,0,0,0-4.34-2.25,5.22,5.22,0,0,0-2.59-4.27,5,5,0,0,0-4.92.08,5.51,5.51,0,0,0-6.89-.16,4.1,4.1,0,0,0-4.27,2.12,4.27,4.27,0,0,0,.74,4.79" transform="translate(0 0)"/><path class="cls-8" d="M229.78,62h.88a17.15,17.15,0,0,1,16.88,16c.63,8.38,1.23,17.66,1.16,22.16-.14,9.31-9.26,10.73-9.26,10.73l.74,11.2-22.11-.77-1.84-40.6C215.45,71.08,220.3,62.55,229.78,62Z" transform="translate(0 0)"/><path class="cls-9" d="M239.52,110.91a21.73,21.73,0,0,1-11.93-3.61s2.93,7,12,6.24Z" transform="translate(0 0)"/><path class="cls-7" d="M242.53,86.78a1.3,1.3,0,0,1-1.25,1.33,1.25,1.25,0,0,1-1.34-1.2,1.32,1.32,0,0,1,1.26-1.34A1.25,1.25,0,0,1,242.53,86.78Z" transform="translate(0 0)"/><path class="cls-7" d="M245.56,82.58c-.16.17-1.14-.58-2.54-.58s-2.43.71-2.58.54.09-.39.54-.73a3.48,3.48,0,0,1,2.06-.64,3.37,3.37,0,0,1,2,.68C245.5,82.19,245.64,82.5,245.56,82.58Z" transform="translate(0 0)"/><path class="cls-7" d="M229.9,86.16a1.32,1.32,0,0,1-1.26,1.34,1.27,1.27,0,0,1-1.34-1.21A1.33,1.33,0,0,1,228.56,85,1.26,1.26,0,0,1,229.9,86.16Z" transform="translate(0 0)"/><path class="cls-7" d="M231.8,82.8c-.16.17-1.15-.57-2.55-.57s-2.43.71-2.58.53.09-.39.54-.72a3.51,3.51,0,0,1,2.07-.64,3.3,3.3,0,0,1,2,.67C231.73,82.41,231.88,82.72,231.8,82.8Z" transform="translate(0 0)"/><path class="cls-7" d="M236.85,93.43a9.12,9.12,0,0,1,2.27-.41c.36,0,.7-.11.76-.36a1.86,1.86,0,0,0-.23-1.08c-.34-.89-.69-1.81-1.05-2.79a49.67,49.67,0,0,1-2.36-7.29c.16,0,1.47,3.11,2.93,7.08l1,2.8a2.16,2.16,0,0,1,.18,1.44.91.91,0,0,1-.59.53,2.43,2.43,0,0,1-.61.09A8.92,8.92,0,0,1,236.85,93.43Z" transform="translate(0 0)"/><path class="cls-7" d="M233,77.3c-.19.36-1.39,0-2.86-.09s-2.72.19-2.86-.19c-.06-.18.21-.5.74-.79a4.36,4.36,0,0,1,2.22-.47,4.2,4.2,0,0,1,2.14.68C232.9,76.78,233.11,77.12,233,77.3Z" transform="translate(0 0)"/><path class="cls-7" d="M245.65,76.67c-.3.33-1.45,0-2.84,0s-2.57.21-2.84-.13c-.12-.17.07-.49.58-.8a4.5,4.5,0,0,1,2.32-.53,4.42,4.42,0,0,1,2.26.66C245.62,76.18,245.78,76.52,245.65,76.67Z" transform="translate(0 0)"/><path class="cls-7" d="M246.67,73.75s-2.38-5.84-5.13-7.21c-3.33-1.66-4.77,2.07-7.94,1.16s-6.35-2.51-9.6,0c-3.56,2.73-1.91,4.66-2.14,8.8-.94,16.75-3.94,21.48-4.77,13.59-.09-.87-2.44-1.56-2.78-5.22-.43-4.74-.59-10.49.45-13.85.88-2.83,2.47-4.78,5.31-6.93,4.48-3.4,10.63-3.45,14.8-3S247.07,66.45,246.67,73.75Z" transform="translate(0 0)"/><path class="cls-8" d="M217.67,89.82A2.49,2.49,0,0,0,215,87.38c-1.7.16-3.6,1.14-3.5,4.73.18,6.37,6.4,4.87,6.41,4.69S217.77,92.49,217.67,89.82Z" transform="translate(0 0)"/><path class="cls-9" d="M216.49,94.44s-.1.08-.28.17a1,1,0,0,1-.81,0,2.74,2.74,0,0,1-1.32-2.42,3.74,3.74,0,0,1,.26-1.6,1.27,1.27,0,0,1,.79-.87.54.54,0,0,1,.65.28c.09.18.06.3.09.31s.13-.11.07-.37a.72.72,0,0,0-.25-.39.79.79,0,0,0-.61-.14,1.5,1.5,0,0,0-1.1,1,3.68,3.68,0,0,0-.33,1.78A2.89,2.89,0,0,0,215.31,95a1.19,1.19,0,0,0,1-.2C216.49,94.6,216.52,94.45,216.49,94.44Z" transform="translate(0 0)"/><path class="cls-7" d="M217.83,77.49a5.93,5.93,0,0,0,2.63,1.25,2,2,0,0,0,2.26-1.46c.08-.44,0-1,.26-1.29s1-.28,1.49-.22c1.81.2,3.93-1.84,4.4-3.64a1.61,1.61,0,0,0,2.17.47,5.92,5.92,0,0,0,1.51-1.36,2.53,2.53,0,0,1,2.14-1.09,6,6,0,0,0,1.35.31c.82-.07,1.22-1,1.35-1.88s.22-1.8.92-2.25a3.21,3.21,0,0,1,2.23,0c.75.11,1.72-.07,1.92-.82a1.55,1.55,0,0,0-.28-1.15,4,4,0,0,0-4.76-1.58,5.63,5.63,0,0,0-4.66-4,5.58,5.58,0,0,0-5.38,2.88,5.56,5.56,0,0,0-5-1.35,5.66,5.66,0,0,0-3.92,3.39,4.07,4.07,0,0,0-4.21,1.44,4.29,4.29,0,0,0-.34,4.52,3.89,3.89,0,0,0-2.11,3.11c0,1.32,1.22,2.63,2.47,2.29a2.39,2.39,0,0,0,.87,3,2.28,2.28,0,0,0,3-.72" transform="translate(0 0)"/><path class="cls-6" d="M237.88,64.61s0,0,0,.11,0,.19,0,.34a4.16,4.16,0,0,1-.46,1.23,4.54,4.54,0,0,1-1.38,1.5,4.19,4.19,0,0,1-2.56.74l.11-.15a2.4,2.4,0,0,1-.13,1.76,7,7,0,0,1-1.07,1.57,5.25,5.25,0,0,1-.7.72,2.27,2.27,0,0,1-3-.37l.23-.06a4.8,4.8,0,0,1-2,3.3,3.43,3.43,0,0,1-2.05.68,6.14,6.14,0,0,1-2-.46l.17-.08a5,5,0,0,1-1.48,2,2.55,2.55,0,0,1-2.17.6,3.48,3.48,0,0,1-2.64-2.75l.15.07a3.17,3.17,0,0,1-2.15.31,3.5,3.5,0,0,1-1.49-.69,3,3,0,0,1-.69-.78,1.68,1.68,0,0,1-.16-.33,3.72,3.72,0,0,0,.92,1,3.35,3.35,0,0,0,1.45.62,3,3,0,0,0,2-.33l.12-.07,0,.13a3.27,3.27,0,0,0,2.5,2.55,2.31,2.31,0,0,0,2-.56,4.93,4.93,0,0,0,1.39-1.86l.05-.12.12,0a5.77,5.77,0,0,0,1.92.44,3.07,3.07,0,0,0,1.89-.63A4.55,4.55,0,0,0,228.63,72l0-.3.19.23a2,2,0,0,0,1.77.66,1.88,1.88,0,0,0,.87-.33,3.88,3.88,0,0,0,.66-.68,6.53,6.53,0,0,0,1.05-1.49,2.14,2.14,0,0,0,.14-1.6l0-.15h.16a3.92,3.92,0,0,0,2.44-.66,4.59,4.59,0,0,0,1.38-1.42A4.94,4.94,0,0,0,237.88,64.61Z" transform="translate(0 0)"/><path class="cls-7" d="M236.82,98.19c0-.24-1.56.15-3-.91s-1.64-2.75-1.85-2.71-.21.45-.06,1.15A4,4,0,0,0,233.41,98a3.36,3.36,0,0,0,2.47.67C236.53,98.56,236.86,98.29,236.82,98.19Z" transform="translate(0 0)"/><path class="cls-6" d="M283.78,340.36l6,20.94s22.84.78,24.32,4.54l-39.3,13.39L264.14,347Z" transform="translate(0 0)"/><path class="cls-2" d="M277.08,363.7a1.76,1.76,0,0,0-.5,2.25,1.61,1.61,0,0,0,2.18.52,1.84,1.84,0,0,0,.51-2.38,1.66,1.66,0,0,0-2.32-.29" transform="translate(0 0)"/><path class="cls-7" d="M311.91,364.33s2,.19,2.21,1.51l-39.3,13.39-.95-3.3,38-11.6" transform="translate(0 0)"/><path class="cls-5" d="M290.37,360.88c.06.2-.87.61-1.61,1.57s-1,1.94-1.18,1.93-.28-1.25.63-2.39S290.35,360.69,290.37,360.88Z" transform="translate(0 0)"/><path class="cls-5" d="M295.06,361.22c.1.17-.62.79-1,1.84s-.28,2-.48,2.05-.67-1-.18-2.31S295,361,295.06,361.22Z" transform="translate(0 0)"/><path class="cls-5" d="M299,365.47c-.16.1-.74-.79-.6-2s.9-2,1-1.84-.23.9-.33,1.92S299.23,365.38,299,365.47Z" transform="translate(0 0)"/><path class="cls-5" d="M288.48,356.26c0,.21-1,.24-2.05.68s-1.79,1.09-1.95.95.43-1.11,1.69-1.62S288.52,356.08,288.48,356.26Z" transform="translate(0 0)"/><path class="cls-6" d="M192.06,340.54l-8.56,20s17,15.61,15.78,19.46l-38.53-15.57,12.09-31.72Z" transform="translate(0 0)"/><path class="cls-2" d="M172.25,354a1.69,1.69,0,0,0-1.8,1.39,1.66,1.66,0,0,0,1.34,1.84,1.79,1.79,0,0,0,1.89-1.49c0-.85-.77-1.85-1.6-1.75" transform="translate(0 0)"/><path class="cls-7" d="M198.53,377.39s1.42,1.45.75,2.61l-38.53-15.57,1.35-3.15,36.43,16.11" transform="translate(0 0)"/><path class="cls-5" d="M184.2,360.59c-.08.19-1-.1-2.22.14s-2,.86-2.11.71.56-1.14,2-1.41S184.31,360.43,184.2,360.59Z" transform="translate(0 0)"/><path class="cls-5" d="M187.58,363.93c0,.21-1,.2-1.92.76S184.19,366,184,366s.12-1.22,1.32-1.89S187.65,363.75,187.58,363.93Z" transform="translate(0 0)"/><path class="cls-5" d="M188,369.8c-.18,0-.07-1.09.82-1.95s1.93-.92,1.95-.73-.75.54-1.47,1.25S188.16,369.86,188,369.8Z" transform="translate(0 0)"/><path class="cls-5" d="M185.66,355.81c-.15.15-.91-.47-2-.82s-2.06-.35-2.09-.56,1-.56,2.31-.13S185.81,355.7,185.66,355.81Z" transform="translate(0 0)"/><path class="cls-7" d="M206.48,230.7l-13.5,56s-24.35,41.9-28.47,62.86l22.27,9s16.2-40.38,20.95-47.79a59.14,59.14,0,0,1,7.33-9.23,14.66,14.66,0,0,0,3.7-6.55L229,255Z" transform="translate(0 0)"/><path class="cls-7" d="M200.73,221.76s1.88,15,16,21.63l29.73,49.51a203.89,203.89,0,0,0,6.83,29.66c4.45,13.47,13.42,39.7,13.42,39.7l24.46-9.34-15.59-54.49L273,279.54l-24.27-63.15-20.84-12.77Z" transform="translate(0 0)"/><path class="cls-6" d="M200.73,221.76s.14-.11.45-.32l1.34-.91,5.29-3.57,20-13.45.06,0,.07,0,20.86,12.75,0,0,0,.05,24.31,63.13v.05c.8,6,1.67,12.36,2.55,18.89v0c4.21,14.72,8.72,30.46,13.36,46.69l2.23,7.79.06.2-.19.08-24.46,9.34-.21.08-.07-.22c-4.25-12.56-8.33-24.65-12.21-36.12-1-2.86-1.93-5.7-2.72-8.54s-1.52-5.66-2.17-8.45q-1.92-8.36-3.13-16.3l0,.07c-12.17-20.3-22.29-37.21-29.68-49.54l0,0a27.77,27.77,0,0,1-9.34-7.25,30.09,30.09,0,0,1-4.57-7.5,30.56,30.56,0,0,1-1.7-5.15c-.14-.6-.22-1.06-.27-1.37s-.06-.46-.06-.46l.09.46c.06.3.15.76.3,1.35a32.32,32.32,0,0,0,1.75,5.12,29.92,29.92,0,0,0,4.59,7.43,27.6,27.6,0,0,0,9.3,7.16l0,0,0,0c7.42,12.31,17.59,29.19,29.8,49.47l0,0v0c.82,5.26,1.86,10.7,3.15,16.26q1,4.17,2.17,8.42c.8,2.83,1.75,5.66,2.73,8.53l12.22,36.11-.28-.14,24.46-9.35L291,353l-2.23-7.8-13.35-46.69h0v0c-.88-6.53-1.74-12.92-2.54-18.89v.05c-9.2-24-17.46-45.53-24.23-63.17l.07.08-20.83-12.81H228L207.92,217l-5.34,3.52-1.37.9Z" transform="translate(0 0)"/><path class="cls-6" d="M213.79,114.8s-7.13,5.61-10.59,11.87c-4.15,7.5-4.6,18.63-4.73,35.91-.12,16,2.22,20.42,1.31,26.44-1.76,11.76-3.08,51.24-3.08,51.24s22.84-9,27.3-12.94l4.46-4L257.07,233l-5.77-35.93-4-44.8-5.08-23.76-.88-9.32-24.51-10.14Z" transform="translate(0 0)"/><path class="cls-7" d="M240.52,118.7c.3.06-.7,2.11-2.47,5.12l-.07.12-.13,0c-2.49-1-5.77-2.22-9.36-3.56-4.05-1.51-7.71-2.91-10.32-4-1.31-.55-2.36-1-3.08-1.34a5.71,5.71,0,0,1-1.1-.56,7,7,0,0,1,1.16.4l3.13,1.2,10.36,3.88c3.59,1.34,6.87,2.61,9.33,3.66l-.2.07C239.6,120.67,240.69,118.72,240.52,118.7Z" transform="translate(0 0)"/><path class="cls-8" d="M270.08,100s-1.8-2.88-3.52-5.54-4.3-4-4.71-5.35-2.69-7.55-3.06-9.08a20,20,0,0,1-.44-4.52s1.87-.82,2.77,1.92c.54,1.65,2.27,7.23,2.64,7.5s.89-.12.89-.12a64.68,64.68,0,0,1-2-6.39c-.08-1,.27-7.72.27-7.72s1.36-.43,2.25,1.28.92,6.07.92,6.07l1.34,4.83L267,78.11l.67-8.78a3.25,3.25,0,0,1,2.71,2.58c.57,2.37-.18,5.67.2,6.38a31.34,31.34,0,0,1,.79,4.94s.47-10.3,1.54-10.6,2,.8,1.81,2.88-.2,6.47.36,8.41,6.29,9.49,5.82,12.84a58,58,0,0,0-.53,6h-9.85Z" transform="translate(0 0)"/><path class="cls-8" d="M235.64,126c.55.21,24,6.15,24,6.15s5.24-8.69,6-11.17,4.87-19.23,4.87-19.23l9.92-1s-2.51,43.19-6.13,45.52a25.83,25.83,0,0,1-9.69,3.38c-.4-.13-25.35,1.64-38.52-9S235.64,126,235.64,126Z" transform="translate(0 0)"/><g class="cls-11"><path d="M218.82,148.82a17.87,17.87,0,0,0,9.59,5.76c6.23,1.41,19.47,3.88,19.47,3.88l-.64-6.64-28.83-3.16" transform="translate(0 0)"/></g><path class="cls-6" d="M208.37,139.68c2.14,4.6,6.87,9.53,17.3,10.63,20.63,2.18,36.25,3.34,43,2.3S278.1,137,278.8,136.53c2.1-1.36,2-6,.16-7.38-5.15-3.94-15.48-7-16.17-6.61-4.11,2.09-2.77,7-2.77,7l-26.13-5.9a43.2,43.2,0,0,0-9.37-2.79" transform="translate(0 0)"/><path class="cls-7" d="M224.52,120.82s.22,0,.64.09,1.06.19,1.87.37a42.64,42.64,0,0,1,6.91,2.23h0l26.14,5.82-.22.24a7.33,7.33,0,0,1,.34-4.61,5.08,5.08,0,0,1,1.48-1.9,6.87,6.87,0,0,1,1-.68,1.32,1.32,0,0,1,.39-.06l.31,0c.21,0,.4.07.6.1a52,52,0,0,1,9.38,3.25,33.47,33.47,0,0,1,4.59,2.47c.37.24.73.51,1.1.77a3.3,3.3,0,0,1,.9,1.1,6.31,6.31,0,0,1,.62,2.74,6,6,0,0,1-.61,2.77,3.3,3.3,0,0,1-1,1.11c-.1.05-.17.28-.26.49l-.22.65c-.56,1.77-1.11,3.58-1.79,5.36a24.49,24.49,0,0,1-3.85,7.07,6.8,6.8,0,0,1-5.09,2.72c-.63.09-1.26.1-1.89.16-2.52.15-5,.11-7.4,0s-4.77-.2-7.07-.34c-9.2-.61-17.45-1.47-24.38-2.2a44.49,44.49,0,0,1-4.93-.73,26,26,0,0,1-4.26-1.32,18.4,18.4,0,0,1-6-3.86,16.71,16.71,0,0,1-2.78-3.6,11.08,11.08,0,0,1-.7-1.43s.24.49.78,1.38a16.68,16.68,0,0,0,2.82,3.52,18.36,18.36,0,0,0,6,3.76,25.93,25.93,0,0,0,4.23,1.27,45.9,45.9,0,0,0,4.9.69c6.93.69,15.19,1.52,24.38,2.1,2.29.14,4.65.26,7.06.33s4.86.09,7.35-.06c.62-.06,1.25-.07,1.87-.16a6.36,6.36,0,0,0,4.81-2.58A23.79,23.79,0,0,0,276.3,143c.68-1.77,1.23-3.56,1.79-5.34l.23-.67a3.45,3.45,0,0,1,.14-.34.93.93,0,0,1,.11-.19.43.43,0,0,1,.11-.12l.06-.05a2.86,2.86,0,0,0,.83-1,5.55,5.55,0,0,0,.55-2.55,5.71,5.71,0,0,0-.56-2.53,2.94,2.94,0,0,0-.78-1c-.36-.25-.71-.51-1.07-.75a33.81,33.81,0,0,0-4.54-2.45,51.5,51.5,0,0,0-9.28-3.23,5.72,5.72,0,0,0-.57-.11l-.27,0a1.23,1.23,0,0,0-.2,0,6.74,6.74,0,0,0-1,.62,4.72,4.72,0,0,0-1.37,1.76,7,7,0,0,0-.33,4.34l.07.3-.29-.06-26.11-6h0A44.42,44.42,0,0,0,227,121.4c-.8-.21-1.43-.35-1.85-.43S224.52,120.82,224.52,120.82Z" transform="translate(0 0)"/><path class="cls-7" d="M268.67,137.86a5.33,5.33,0,0,1-1.69-.75,16.44,16.44,0,0,1-3.56-2.72,18.13,18.13,0,0,1-2.78-3.55,6.54,6.54,0,0,1-.8-1.69,39.23,39.23,0,0,0,3.89,4.92A32.74,32.74,0,0,0,268.67,137.86Z" transform="translate(0 0)"/></svg>