<svg id="Layer_1" data-name="Layer 1" xmlns="http://www.w3.org/2000/svg" viewBox="0 0 186.05 361.23"><defs><style>.cls-1{fill:#ebebeb;}.cls-2{fill:#ff725e;}.cls-3,.cls-4{fill:#fff;}.cls-3{fill-rule:evenodd;}.cls-5{fill:#455a64;}.cls-6{fill:#263238;}.cls-7{fill:#aa6550;}.cls-8{fill:#724940;}.cls-9{opacity:0.3;}.cls-10{fill:#fafafa;}.cls-11{fill:none;stroke:#4e585d;stroke-miterlimit:10;stroke-width:0.05px;}</style></defs><path class="cls-1" d="M41.05,254.26l-1.72.49-5.21-4.32-.95-3.54s-2.71.6-1.14,5.14.9,3.47.9,3.47-5.64,1.64-6,2.28c-.24.47,1.17,6.29,2,9.45A3.44,3.44,0,0,0,32.17,270a2.59,2.59,0,0,0,.63-.09c1.41-.41,8.29-3.65,8.29-3.65l3-.86Z" transform="translate(-3.99 -8)"/><polygon class="cls-1" points="41.72 243.87 43.94 256.31 40.99 257.15 37.78 245.26 41.72 243.87"/><path class="cls-1" d="M25.85,139.87l-2.64,1.49-10.16-5-2.89-5.44s-4.21,2,.05,8.89S13,145.12,13,145.12,4.34,150.05,4,151.23c-.23.86,4.25,9.87,6.72,14.73a5.71,5.71,0,0,0,6.37,3.23,4.86,4.86,0,0,0,1-.4c2.16-1.22,12.23-9.27,12.23-9.27l4.56-2.58Z" transform="translate(-3.99 -8)"/><polygon class="cls-1" points="28.62 126.11 36.89 145.64 32.37 148.19 22.67 129.95 28.62 126.11"/><path class="cls-1" d="M30.25,200.38l-1.71-.29-2.88-6,.55-3.52s-2.61-.61-3,4-.57,3.43-.57,3.43-5.61-.92-6.16-.49c-.4.3-1.46,6-2,9.14a3.46,3.46,0,0,0,1.78,3.79,2.22,2.22,0,0,0,.59.18c1.4.24,8.74.27,8.74.27l3,.49Z" transform="translate(-3.99 -8)"/><polygon class="cls-1" points="31.31 192.24 28.35 204.12 25.42 203.63 27.29 191.81 31.31 192.24"/><path class="cls-2" d="M28.19,310.94h0C17.52,310.94,8.88,302,8.88,291h0c0-11,8.64-19.91,19.31-19.91h0c10.66,0,19.3,8.91,19.3,19.91h0C47.49,302,38.85,310.94,28.19,310.94Z" transform="translate(-3.99 -8)"/><path class="cls-3" d="M38.77,290.47A10.39,10.39,0,0,0,18,290.28c0,.15,0,.31,0,.47a10.82,10.82,0,0,0,1.49,5.49L17.6,302l5.75-1.89a10.13,10.13,0,0,0,5,1.33,10.52,10.52,0,0,0,10.39-10.64Zm-10.39,9.22a8.5,8.5,0,0,1-4.81-1.48l-3.36,1.1L21.3,296a9,9,0,0,1-1.66-5.24,8.19,8.19,0,0,1,0-.87,8.72,8.72,0,0,1,17.41.17c0,.23,0,.46,0,.7A8.85,8.85,0,0,1,28.38,299.69Z" transform="translate(-3.99 -8)"/><path class="cls-3" d="M33.14,292.89c-.26-.13-1.51-.76-1.74-.84s-.4-.13-.57.13-.67.84-.81,1-.3.19-.56.06A7,7,0,0,1,27.41,292,7.69,7.69,0,0,1,26,290.16a.38.38,0,0,1,.11-.53c.12-.12.25-.3.38-.46l.1-.12.16-.31a.52.52,0,0,0,0-.46c-.07-.13-.58-1.41-.79-1.94s-.42-.43-.58-.43l-.48,0a.91.91,0,0,0-.68.32,3,3,0,0,0-.89,2.18,3.36,3.36,0,0,0,.13.89,6,6,0,0,0,.91,1.81A10.55,10.55,0,0,0,28.7,295c2.59,1,2.59.69,3.06.65a2.58,2.58,0,0,0,1.72-1.24,2.3,2.3,0,0,0,.15-1.24C33.57,293.09,33.4,293,33.14,292.89Z" transform="translate(-3.99 -8)"/><path class="cls-2" d="M56.5,187.29h0a15.12,15.12,0,0,1-14.88-15.35h0A15.12,15.12,0,0,1,56.5,156.6h0a15.11,15.11,0,0,1,14.87,15.34h0A15.12,15.12,0,0,1,56.5,187.29Z" transform="translate(-3.99 -8)"/><path class="cls-4" d="M51.74,173.37a.34.34,0,0,0,.5-.26c0-.19.16-.65.21-.84a.52.52,0,0,0-.15-.59,3.11,3.11,0,0,1-.67-2.05,4.88,4.88,0,0,1,5-5c2.73,0,4.22,1.71,4.22,4,0,3-1.29,5.56-3.21,5.56a1.61,1.61,0,0,1-1.61-2,22.66,22.66,0,0,0,.9-3.72,1.39,1.39,0,0,0-1.37-1.57c-1.08,0-2,1.16-2,2.71a4.08,4.08,0,0,0,.33,1.66s-1.11,4.85-1.31,5.7a12,12,0,0,0,0,4,.13.13,0,0,0,.24.06,11.28,11.28,0,0,0,1.84-3.43c.12-.46.71-2.87.71-2.87a2.88,2.88,0,0,0,2.48,1.3c3.26,0,5.48-3.07,5.48-7.17a6.15,6.15,0,0,0-6.43-6c-4.82,0-7.25,3.57-7.25,6.54C49.66,171.17,50.32,172.77,51.74,173.37Z" transform="translate(-3.99 -8)"/><path class="cls-5" d="M70.63,40.58h0c-8.49,0-15.38-7.29-15.38-16.29h0c0-9,6.89-16.29,15.38-16.29h0C79.12,8,86,15.29,86,24.29h0C86,33.29,79.12,40.58,70.63,40.58Z" transform="translate(-3.99 -8)"/><path class="cls-4" d="M70.63,17c2.25,0,2.51,0,3.4.05a4.31,4.31,0,0,1,1.57.31,2.66,2.66,0,0,1,1,.66,3,3,0,0,1,.63,1,5.5,5.5,0,0,1,.29,1.66c0,.94.05,1.22.05,3.61s0,2.67-.05,3.61a5.5,5.5,0,0,1-.29,1.66,3,3,0,0,1-.63,1,2.57,2.57,0,0,1-1,.67,4.54,4.54,0,0,1-1.57.31c-.89,0-1.15.05-3.4.05s-2.52,0-3.41-.05a4.41,4.41,0,0,1-1.56-.31,2.42,2.42,0,0,1-1-.67,2.69,2.69,0,0,1-.63-1,4.92,4.92,0,0,1-.29-1.66c-.05-.94-.05-1.23-.05-3.61s0-2.67.05-3.61A4.92,4.92,0,0,1,64.06,19a2.73,2.73,0,0,1,.63-1,2.5,2.5,0,0,1,1-.66A4.19,4.19,0,0,1,67.22,17c.89,0,1.16-.05,3.41-.05m0-1.61c-2.29,0-2.58,0-3.48.05a5.73,5.73,0,0,0-2,.42,4,4,0,0,0-1.5,1,4.37,4.37,0,0,0-1,1.58,6.86,6.86,0,0,0-.39,2.17c0,.95,0,1.25,0,3.68s0,2.73,0,3.68a6.86,6.86,0,0,0,.39,2.17,4.45,4.45,0,0,0,1,1.58,4.08,4.08,0,0,0,1.5,1,6,6,0,0,0,2,.42c.9,0,1.19,0,3.48,0s2.57,0,3.47,0a6.08,6.08,0,0,0,2.05-.42,4.13,4.13,0,0,0,1.49-1,4.31,4.31,0,0,0,1-1.58A7.12,7.12,0,0,0,79,28c0-.95,0-1.26,0-3.68s0-2.73,0-3.68a7.12,7.12,0,0,0-.4-2.17,4.23,4.23,0,0,0-1-1.58,4,4,0,0,0-1.49-1,5.84,5.84,0,0,0-2.05-.42c-.9,0-1.18-.05-3.47-.05" transform="translate(-3.99 -8)"/><path class="cls-4" d="M70.63,19.7a4.47,4.47,0,0,0-4.33,4.59,4.34,4.34,0,1,0,8.66,0,4.47,4.47,0,0,0-4.33-4.59m0,7.57a3,3,0,1,1,2.81-3,2.9,2.9,0,0,1-2.81,3" transform="translate(-3.99 -8)"/><path class="cls-4" d="M76.14,19.52a1,1,0,1,1-1-1.07,1,1,0,0,1,1,1.07" transform="translate(-3.99 -8)"/><path class="cls-5" d="M16.26,121.94h0A12.47,12.47,0,0,1,4,109.29H4A12.48,12.48,0,0,1,16.26,96.63h0a12.47,12.47,0,0,1,12.27,12.66h0A12.46,12.46,0,0,1,16.26,121.94Z" transform="translate(-3.99 -8)"/><path class="cls-4" d="M14.39,116.94h3v-7.72h2.08l.23-2.58H17.38v-1.47c0-.61.12-.85.69-.85h1.62v-2.68H17.62c-2.22,0-3.23,1-3.23,2.94v2.06H12.84v2.62h1.55Z" transform="translate(-3.99 -8)"/><path class="cls-4" d="M76.31,346.18a1.27,1.27,0,0,1,.66,1.54,1.17,1.17,0,0,1-1.47.69,1.34,1.34,0,0,1-.69-1.63,1.2,1.2,0,0,1,1.61-.54" transform="translate(-3.99 -8)"/><path class="cls-4" d="M78.85,353.55l.21-2.46-28.48-2.87s-1.39.42-1.36,1.4Z" transform="translate(-3.99 -8)"/><path class="cls-6" d="M65.36,342.67c0,.13.68.25,1.31.72s.9,1.05,1,1,.07-.8-.7-1.37S65.35,342.55,65.36,342.67Z" transform="translate(-3.99 -8)"/><path class="cls-6" d="M62.08,343.59c0,.14.55.48,1,1.17s.47,1.39.62,1.4.34-.82-.19-1.68S62.11,343.45,62.08,343.59Z" transform="translate(-3.99 -8)"/><path class="cls-6" d="M59.84,347.19c.13.05.42-.67.15-1.53s-.9-1.29-1-1.17.29.61.5,1.32S59.7,347.16,59.84,347.19Z" transform="translate(-3.99 -8)"/><path class="cls-6" d="M134.56,194c0,.09,0,.21.05.31C134.58,194,134.54,193.69,134.56,194Z" transform="translate(-3.99 -8)"/><path class="cls-5" d="M85.91,79.58a16.08,16.08,0,0,1-3.5-1.4,15.58,15.58,0,0,1-3.31-1.82,16.24,16.24,0,0,1,3.5,1.41A15.83,15.83,0,0,1,85.91,79.58Z" transform="translate(-3.99 -8)"/><polygon class="cls-7" points="145.85 301.43 171.18 322.23 180.09 312.24 156.62 287.49 145.85 301.43"/><path class="cls-2" d="M172.55,328.5l.64.65s-6.39,14.93-4.43,17.14l21.29-21-7.54-7A16.66,16.66,0,0,1,172.55,328.5Z" transform="translate(-3.99 -8)"/><polygon class="cls-7" points="52.44 318.76 49.44 354.22 65.5 355.92 73.7 319.65 52.44 318.76"/><path class="cls-2" d="M54.23,356.37l-.15,1s-19,4.47-19.63,7.61l35.79,4.27,1.05-11.09A22.09,22.09,0,0,1,54.23,356.37Z" transform="translate(-3.99 -8)"/><path class="cls-6" d="M121.16,50.07c.4-2.37,2.7-4.2,5.22-4.77A14.5,14.5,0,0,1,134,46a18.45,18.45,0,0,1,7.33,4.23,9.85,9.85,0,0,1,3.1,7.32c-.15,2.52-1.5,5-.75,7.47.58,1.84,2.26,3.19,3.95,4.3s3.51,2.15,4.65,3.75,1.32,4-.22,5.28c-1.36,1.14-3.81,1.28-4.38,2.9-.36,1,.25,2,.58,3.06a7.5,7.5,0,0,1-1.12,6.43,14.19,14.19,0,0,1-5.31,4.46c-3.69,1.93-8.29,2.83-12.18,1.29a11.54,11.54,0,0,1-4.8-3.65,16.37,16.37,0,0,1-3.18-9.1,47.44,47.44,0,0,1,.67-9.66" transform="translate(-3.99 -8)"/><path class="cls-6" d="M119.81,88.45a11.6,11.6,0,0,0,9.44-1.74,9.82,9.82,0,0,0,4.13-8.07c-.07-2.87-1.47-5.81-.51-8.55.67-1.88,2.37-3.34,2.94-5.25.85-2.84-1-5.72-2.78-8.17a19.47,19.47,0,0,0-3.88-4.37,7.38,7.38,0,0,0-5.69-1.56" transform="translate(-3.99 -8)"/><path class="cls-6" d="M91.15,51c.17,2.18-1.38,4.12-2.94,5.75s-3.3,3.33-3.64,5.49C84,66.05,88,69.6,87.18,73.39c-.44,2-2.24,3.65-2.56,5.7s.84,3.93,2.26,5.43,3.15,2.77,4.41,4.4c0,0,2.62,4,10.67,1.43" transform="translate(-3.99 -8)"/><path class="cls-6" d="M127.21,54.32c.06-2-1.91-3.5-3.89-4.22s-4.18-1-5.95-2.09c-1.56-1-2.61-2.5-3.94-3.74a14.09,14.09,0,0,0-12.77-3.19,12.88,12.88,0,0,0-9.26,8.76c-.76,2.8-.24,6.12,2.14,8,2.78,2.17,6.89,1.68,10.44,1s7.57-1.34,10.54.6c1.79,1.16,2.81,3.06,3.91,4.81s2.46,3.55,4.53,4.21,4.87-.48,5-2.51" transform="translate(-3.99 -8)"/><path class="cls-7" d="M118.82,54.72A3.39,3.39,0,0,1,122,58.08h0l-2.12,44.55c-.09,5.26-8.39,8.22-14.47,8.09h0c-6.14-.14-6.34-2.93-6.42-7.93-.12-8.37-.11-11.5-.12-11.46s-7.75-1.21-9.34-10.59c-.79-4.67-.52-12.31-.08-18.56.4-5.63,4.44-12.53,10.49-11.92Z" transform="translate(-3.99 -8)"/><path class="cls-6" d="M91.24,68.35a1.24,1.24,0,0,0,1.25,1.22,1.22,1.22,0,0,0,1.34-1.09,1.26,1.26,0,0,0-1.25-1.21A1.21,1.21,0,0,0,91.24,68.35Z" transform="translate(-3.99 -8)"/><path class="cls-6" d="M90.9,65.14c.16.16,1.15-.51,2.55-.5s2.42.65,2.57.49-.09-.35-.54-.65a3.67,3.67,0,0,0-2-.59,3.55,3.55,0,0,0-2,.6C91,64.79,90.82,65.07,90.9,65.14Z" transform="translate(-3.99 -8)"/><path class="cls-6" d="M104.21,68.58a1.26,1.26,0,0,0,1.25,1.22,1.21,1.21,0,0,0,1.34-1.09,1.24,1.24,0,0,0-1.25-1.21A1.21,1.21,0,0,0,104.21,68.58Z" transform="translate(-3.99 -8)"/><path class="cls-6" d="M105,65.79c.16.15,1.15-.52,2.54-.51s2.42.65,2.57.5-.08-.36-.53-.66a3.79,3.79,0,0,0-2.06-.59,3.51,3.51,0,0,0-2,.6C105,65.43,104.88,65.72,105,65.79Z" transform="translate(-3.99 -8)"/><path class="cls-6" d="M99.86,76a9.2,9.2,0,0,0-2.26-.39c-.36,0-.7-.1-.76-.32a1.63,1.63,0,0,1,.24-1l1.06-2.52c1.48-3.58,2.55-6.52,2.39-6.58a41.46,41.46,0,0,0-3,6.39c-.36.88-.7,1.72-1,2.53a1.82,1.82,0,0,0-.19,1.3.91.91,0,0,0,.59.48,2.36,2.36,0,0,0,.6.08A10.39,10.39,0,0,0,99.86,76Z" transform="translate(-3.99 -8)"/><path class="cls-8" d="M98.86,91.33A27.48,27.48,0,0,0,112.43,88S109,94.45,98.86,93.55Z" transform="translate(-3.99 -8)"/><path class="cls-6" d="M104.35,62.64c.13.35,1.53.19,3.17.37s3,.61,3.18.29c.1-.15-.13-.48-.67-.82a5.41,5.41,0,0,0-2.35-.77,5.67,5.67,0,0,0-2.49.26C104.59,62.19,104.29,62.47,104.35,62.64Z" transform="translate(-3.99 -8)"/><path class="cls-6" d="M91.11,62.27c.28.3,1.37,0,2.68,0s2.43.21,2.68-.1c.12-.15-.06-.44-.54-.72a4.34,4.34,0,0,0-2.18-.49,4.23,4.23,0,0,0-2.14.59C91.14,61.83,91,62.13,91.11,62.27Z" transform="translate(-3.99 -8)"/><path class="cls-6" d="M125.89,85.58a9.65,9.65,0,0,1-7.9-2.06,8.13,8.13,0,0,1-2.8-7.15c.32-2.3,1.66-4.65.79-6.83-1.14-2.88-5.5-3.77-6.65-6.64-.68-1.67-.07-3.63-.84-5.27s-2.46-2.43-4.16-3a18,18,0,0,1-5-2c-1.43-1-2.32-3-1.4-4.42a102.76,102.76,0,0,1,22.12,5c1.65.57,3.39,1.26,4.36,2.62s1,3.3.9,5q-.63,12.63-1.27,25.26" transform="translate(-3.99 -8)"/><path class="cls-5" d="M131.24,55.11a.69.69,0,0,1,.16.38,1.35,1.35,0,0,1-.39,1.13,2.61,2.61,0,0,1-1.81.85,6.34,6.34,0,0,1-2.56-.71,7.45,7.45,0,0,0-3-.81,16.09,16.09,0,0,0-3.57.3,26.3,26.3,0,0,1-4,.48,6.1,6.1,0,0,1-4.15-1.4,11.16,11.16,0,0,1-2.39-3.43,16.85,16.85,0,0,0-1.93-3.22,5.88,5.88,0,0,0-9.37.44,15.4,15.4,0,0,0-.74,1.39,1.53,1.53,0,0,1,.08-.4A4.89,4.89,0,0,1,98.06,49a5.87,5.87,0,0,1,3.61-2.65,6.42,6.42,0,0,1,3.25.06,6.09,6.09,0,0,1,3.06,2,17.37,17.37,0,0,1,2,3.29A10.53,10.53,0,0,0,112.28,55a5.54,5.54,0,0,0,3.79,1.28,26.8,26.8,0,0,0,4-.44,16.73,16.73,0,0,1,3.68-.27,7.73,7.73,0,0,1,3.09.91,5.94,5.94,0,0,0,2.39.74,2.42,2.42,0,0,0,1.67-.7,1.34,1.34,0,0,0,.44-1C131.29,55.24,131.21,55.12,131.24,55.11Z" transform="translate(-3.99 -8)"/><path class="cls-5" d="M132.37,56a19.08,19.08,0,0,0-4.79-3.91,21.19,21.19,0,0,0-6.07-1.87,5.25,5.25,0,0,1,1.93,0,13.33,13.33,0,0,1,4.4,1.42,12.16,12.16,0,0,1,3.54,2.81A4.07,4.07,0,0,1,132.37,56Z" transform="translate(-3.99 -8)"/><path class="cls-5" d="M121,49.74s0,.1-.14.28a3.27,3.27,0,0,1-.65.63,4.66,4.66,0,0,1-3.35.69,8.58,8.58,0,0,1-4.38-2.42c-1.37-1.23-2.64-2.83-4.51-3.81a8.5,8.5,0,0,0-5.81-.68,7.73,7.73,0,0,0-4,2.43,7.66,7.66,0,0,0-1.55,2.73c-.22.71-.26,1.12-.31,1.12a.89.89,0,0,1,0-.3,4.59,4.59,0,0,1,.13-.86,7,7,0,0,1,1.45-2.9A7.93,7.93,0,0,1,102.05,44a8.91,8.91,0,0,1,6.19.7c2,1,3.26,2.69,4.58,3.91a8.45,8.45,0,0,0,4.11,2.4,4.63,4.63,0,0,0,3.17-.51A6.06,6.06,0,0,0,121,49.74Z" transform="translate(-3.99 -8)"/><path class="cls-5" d="M120.55,89.61s.15.06.45.11a8.68,8.68,0,0,0,1.33.13,11.19,11.19,0,0,0,4.79-1,10.74,10.74,0,0,0,5.1-4.78,11.08,11.08,0,0,0,.86-8.18,22.41,22.41,0,0,1-.89-4.1,6.14,6.14,0,0,1,1-3.65,12.69,12.69,0,0,0,1.57-3.32,7.19,7.19,0,0,0,.1-3.18,8.14,8.14,0,0,0-2.09-4.11,6.84,6.84,0,0,0-1-.86c-.25-.17-.38-.25-.4-.23s.48.4,1.19,1.23a8.32,8.32,0,0,1,1.85,4,6.92,6.92,0,0,1-.16,3,12.94,12.94,0,0,1-1.58,3.19,9.31,9.31,0,0,0-.85,1.83,6.29,6.29,0,0,0-.25,2.08,21.37,21.37,0,0,0,.9,4.21,10.68,10.68,0,0,1-.78,7.82,10.43,10.43,0,0,1-4.8,4.66,11.45,11.45,0,0,1-4.59,1.13C121.19,89.66,120.56,89.56,120.55,89.61Z" transform="translate(-3.99 -8)"/><path class="cls-5" d="M138.48,48.07a3.42,3.42,0,0,0-1.73-.83,7.4,7.4,0,0,0-4.68.33,6.61,6.61,0,0,0-3.33,3.08,2.85,2.85,0,0,0-.45,1.75c.09,0,.25-.65.82-1.57a7.06,7.06,0,0,1,3.21-2.75,7.83,7.83,0,0,1,4.33-.46C137.78,47.82,138.43,48.15,138.48,48.07Z" transform="translate(-3.99 -8)"/><path class="cls-5" d="M131,54a3.89,3.89,0,0,0,0-.61,3,3,0,0,1,.45-1.65,4.8,4.8,0,0,1,5.8-1.91,6.65,6.65,0,0,1,3.31,2.94,8.89,8.89,0,0,1,1,4.86,30.4,30.4,0,0,1-.95,5.56,22.11,22.11,0,0,0-.78,6.11,17.3,17.3,0,0,0,1.72,5.95,50.33,50.33,0,0,1,2.2,5.27,10.79,10.79,0,0,1,.46,5,13.67,13.67,0,0,1-1.41,4.2,32.53,32.53,0,0,1-3.71,5.45l-1.14,1.41a2.26,2.26,0,0,0-.37.51,3.37,3.37,0,0,0,.46-.44c.29-.3.71-.75,1.24-1.35a30.81,30.81,0,0,0,3.91-5.41,14,14,0,0,0,1.51-4.3,11.09,11.09,0,0,0-.42-5.19A47.22,47.22,0,0,0,142.07,75a17.24,17.24,0,0,1-1.66-5.78c-.18-4.12,1.62-7.93,1.68-11.63A9.27,9.27,0,0,0,141,52.54a7.1,7.1,0,0,0-3.59-3.09,5.07,5.07,0,0,0-4,.18,4.85,4.85,0,0,0-2.15,2,2.9,2.9,0,0,0-.36,1.76A2.19,2.19,0,0,0,131,54Z" transform="translate(-3.99 -8)"/><path class="cls-8" d="M100.39,79.16a6.07,6.07,0,0,0,.87,1.58,2.32,2.32,0,0,0,1.61.87,2.06,2.06,0,0,0,1.72-.87,2.83,2.83,0,0,0,.48-1.81c0-.57-.31-1.25-.92-1.32a1.59,1.59,0,0,0-.74.15L100.19,79" transform="translate(-3.99 -8)"/><path class="cls-6" d="M101.68,81.62a5,5,0,0,0,1.72-.2,2.39,2.39,0,0,0,1.3-1.09,2.21,2.21,0,0,0-.24-2.4c-.13-.12-.11-.12-.25-.1l-.51.19-.53.2-1.84.67a6.92,6.92,0,0,1-1.75.49,5.54,5.54,0,0,1,1.59-.84c.51-.23,1.11-.49,1.79-.77l.52-.22a5.38,5.38,0,0,1,.59-.22.88.88,0,0,1,.48,0,.82.82,0,0,1,.35.26,2.56,2.56,0,0,1,.27,3,2.75,2.75,0,0,1-1.64,1.23,2.91,2.91,0,0,1-1.39,0C101.82,81.75,101.67,81.65,101.68,81.62Z" transform="translate(-3.99 -8)"/><path class="cls-7" d="M147,204.15l1.43,11.7L160,225.63a3.26,3.26,0,0,0,.45-2.69c-.53-1.23,2.64,1.58,2.64,1.58v6.73s2,.73,2.64-.86,1.05-7.33,1.05-7.33l-.92-.61a3,3,0,0,0,.92-2.69,8.9,8.9,0,0,0,.66-4.89,13.63,13.63,0,0,0-1.19-4.28l-9.46-9.78Z" transform="translate(-3.99 -8)"/><path class="cls-8" d="M152.81,215.41a18.51,18.51,0,0,0,3.41,3.93,19.5,19.5,0,0,0,4.15,3.27c.09-.1-1.72-1.6-3.8-3.58S152.92,215.33,152.81,215.41Z" transform="translate(-3.99 -8)"/><path class="cls-8" d="M160.92,217.55a17.64,17.64,0,0,0,2.75,2.93,17.41,17.41,0,0,0,3.1,2.62,35,35,0,0,0-5.85-5.55Z" transform="translate(-3.99 -8)"/><path class="cls-8" d="M162.48,214.87a28.94,28.94,0,0,0,2.19,2.4,26.57,26.57,0,0,0,2.11,2.47,7.1,7.1,0,0,0-1.73-2.75A7.41,7.41,0,0,0,162.48,214.87Z" transform="translate(-3.99 -8)"/><path class="cls-8" d="M163.82,212.1c-.1.1.74.9,1.71,1.94a11.94,11.94,0,0,0,1.82,1.85,5.41,5.41,0,0,0-1.45-2.15A5.85,5.85,0,0,0,163.82,212.1Z" transform="translate(-3.99 -8)"/><path class="cls-7" d="M65.42,89.92c-1,0-3.27,1.24-5.12,3.61l-.1.1c-1.32,1.59-2.56-2.95-2.78-4.64a1.94,1.94,0,0,0-2.59-1.38L48.7,90.27l-1.79.06a1.67,1.67,0,0,0-1.17,2l2.93,9,.07,2.45L61,105.29l.19-6.13c.19-.71.43-1.55.76-2.5a7.52,7.52,0,0,1,1.35-2.4A15.63,15.63,0,0,1,65.52,92l.2-.12a1.13,1.13,0,0,0,.35-.29A1,1,0,0,0,65.42,89.92Z" transform="translate(-3.99 -8)"/><path class="cls-2" d="M65.18,62.27S58,61,47.71,52.34,32.35,31.94,31.12,32,24.47,30,14.91,50.75s-5.4,25.46-3.37,25.37,15.68-4,24.3-3.32,19.81,4.54,19.81,4.54Z" transform="translate(-3.99 -8)"/><path class="cls-6" d="M80.65,73.07l-2.3,4.34-1,2A6.25,6.25,0,0,1,69.54,82L54.12,77.51l8.32-19L77.92,65.6A5.41,5.41,0,0,1,80.65,73.07Z" transform="translate(-3.99 -8)"/><path class="cls-6" d="M72.06,80.15l-4.6,9L65,88.55,49.49,100.94,44.81,93s9.27-4,10.91-7.14-.39-3.79-.39-3.79l4.28-4.77Z" transform="translate(-3.99 -8)"/><path class="cls-6" d="M15.75,51.11c-5.08,11.26-7,21.23-4.37,22.26s9-7.25,14-18.52,7-21.23,4.36-22.27S20.83,39.84,15.75,51.11Z" transform="translate(-3.99 -8)"/><polygon class="cls-5" points="78.15 71.22 73.98 70.12 76.4 65.54 79.56 67.25 78.15 71.22"/><g class="cls-9"><polygon points="54.15 70.93 65.47 77.21 66.78 74.66 54.15 70.93"/></g><path class="cls-5" d="M77.58,74.66a23.72,23.72,0,0,1-4.67-1.54,24.49,24.49,0,0,1-4.45-2,24,24,0,0,1,4.66,1.54A23.62,23.62,0,0,1,77.58,74.66Z" transform="translate(-3.99 -8)"/><path class="cls-5" d="M76.06,77.52a3.56,3.56,0,0,1-1.31-.23l-1.38-.38c-.52-.16-1.05-.4-1.63-.62a17.93,17.93,0,0,1-4-1.93A21.57,21.57,0,0,1,72,75.84c.57.22,1.1.47,1.6.64l1.32.48C75.62,77.24,76.08,77.45,76.06,77.52Z" transform="translate(-3.99 -8)"/><path class="cls-10" d="M26.72,48.34s-6.3-3.39-9.44,4.45,3.4,8.94,3.4,8.94A49.41,49.41,0,0,0,26.72,48.34Z" transform="translate(-3.99 -8)"/><path class="cls-6" d="M33,38.93a7.32,7.32,0,0,1-.19,1.49c-.17.95-.4,2.33-.75,4-.24.84-.49,1.76-.77,2.74l-.44,1.52c-.07.26-.15.53-.22.8s-.2.53-.3.8c-.41,1.07-.85,2.2-1.3,3.38-.11.29-.22.58-.34.88s-.27.58-.41.88c-.28.59-.57,1.18-.86,1.78s-.59,1.2-.87,1.78c-.15.29-.27.59-.44.87s-.33.55-.49.82l-1.88,3.14c-.15.25-.29.5-.45.73s-.33.47-.5.69l-.94,1.31c-.61.85-1.18,1.63-1.71,2.35-1.14,1.36-2.1,2.44-2.76,3.18a8.92,8.92,0,0,1-1.07,1.12A8.12,8.12,0,0,1,17.24,72l2.63-3.27,1.63-2.37L22.42,65l.48-.68c.15-.24.29-.49.44-.74l1.83-3.13.49-.82c.16-.28.28-.57.43-.86.29-.58.57-1.17.86-1.77l.86-1.77c.14-.29.3-.57.41-.87s.23-.59.35-.88l1.31-3.35c.11-.26.22-.52.31-.79l.24-.79c.15-.51.31-1,.45-1.5.3-1,.58-1.88.83-2.71l.91-4A10.67,10.67,0,0,1,33,38.93Z" transform="translate(-3.99 -8)"/><path class="cls-7" d="M52.69,85.9A1.27,1.27,0,0,0,52,87.53c.47,1.23,1.24,3.17,1.81,4.35a3.22,3.22,0,0,0,.7,1.05,1.25,1.25,0,0,0,1.19.3,1.17,1.17,0,0,0,.71-1,3.22,3.22,0,0,0-.25-1.29c-.4-1.15-1.1-2.88-1.69-4.29a1.34,1.34,0,0,0-1.73-.7Z" transform="translate(-3.99 -8)"/><path class="cls-7" d="M50.83,88.18a1.26,1.26,0,0,0-.74,1.63c.47,1.23,1.23,3.17,1.8,4.35a3.57,3.57,0,0,0,.7,1,1.27,1.27,0,0,0,1.2.3,1.16,1.16,0,0,0,.71-1,3.25,3.25,0,0,0-.26-1.3c-.4-1.15-1.09-2.88-1.68-4.29a1.34,1.34,0,0,0-1.73-.7Z" transform="translate(-3.99 -8)"/><path class="cls-7" d="M49,89.63A1.08,1.08,0,0,0,48.36,91c.43,1.07,1.12,2.75,1.63,3.77a2.85,2.85,0,0,0,.64.9,1.16,1.16,0,0,0,1.08.27,1,1,0,0,0,.64-.91A2.74,2.74,0,0,0,52.12,94c-.36-1-1-2.5-1.53-3.72a1.22,1.22,0,0,0-1.56-.6Z" transform="translate(-3.99 -8)"/><path class="cls-7" d="M46.66,90.11A1.1,1.1,0,0,0,46,91.53c.43,1.07,1.12,2.76,1.64,3.79a2.89,2.89,0,0,0,.64.91,1.16,1.16,0,0,0,1.08.26,1,1,0,0,0,.65-.91,2.74,2.74,0,0,0-.23-1.12c-.37-1-1-2.51-1.54-3.74a1.24,1.24,0,0,0-1.57-.61Z" transform="translate(-3.99 -8)"/><path class="cls-8" d="M54.33,93a7,7,0,0,1-1.24-2.17,6.16,6.16,0,0,1-.79-2.34,6.71,6.71,0,0,1,1.24,2.16A6.13,6.13,0,0,1,54.33,93Z" transform="translate(-3.99 -8)"/><path class="cls-8" d="M52.3,94.87A8.19,8.19,0,0,1,51,92.37a8,8,0,0,1-.87-2.67,8.56,8.56,0,0,1,1.33,2.5A8.15,8.15,0,0,1,52.3,94.87Z" transform="translate(-3.99 -8)"/><path class="cls-8" d="M50.18,95.12A5.6,5.6,0,0,1,48.83,93a5.36,5.36,0,0,1-.7-2.4,8.71,8.71,0,0,1,1.16,2.22A8.27,8.27,0,0,1,50.18,95.12Z" transform="translate(-3.99 -8)"/><path class="cls-11" d="M51,88.18" transform="translate(-3.99 -8)"/><path class="cls-11" d="M51,75.88" transform="translate(-3.99 -8)"/><path class="cls-6" d="M139.55,268.43l-6.47-48.1c4.21-9.12,5.74-18.23,4.51-23.89.07.6.11,1.33-.07-.33-1-10-10.38-17.38-10.38-17.38L124,166.57l-40,5.21,1.51,20.35L59.67,276.54,55,347.89l20.89,2.27s8.19-35.68,10.4-50.59a192.06,192.06,0,0,0,2.07-24.4L108,248c2.33,11.23,5,25.09,6.31,32.33a18.33,18.33,0,0,0,4.35,8.8L170,326.56V304C165.11,293.19,139.55,268.43,139.55,268.43Z" transform="translate(-3.99 -8)"/><path class="cls-5" d="M89.17,186.88a8,8,0,0,1-.84-2,35.68,35.68,0,0,1-1.24-5.08,33,33,0,0,1-.43-5.19,8.1,8.1,0,0,1,.15-2.16,11.89,11.89,0,0,1,.2,2.15,50.82,50.82,0,0,0,.58,5.13c.32,2,.74,3.78,1.08,5.07A11.49,11.49,0,0,1,89.17,186.88Z" transform="translate(-3.99 -8)"/><path class="cls-5" d="M91,173s.15-.14.51-.22a2.58,2.58,0,0,1,1.54.21,2.22,2.22,0,0,1,1.36,1.73,2.45,2.45,0,0,1-1.28,2.33,2.66,2.66,0,0,1-2.8-.23,2.19,2.19,0,0,1-.95-2,3.41,3.41,0,0,1,.45-1.36c.17-.3.29-.44.32-.43s0,.19-.14.5a3.89,3.89,0,0,0-.28,1.3,1.88,1.88,0,0,0,.88,1.6,2.18,2.18,0,0,0,2.26.18A2.07,2.07,0,0,0,94,174.8a1.91,1.91,0,0,0-1.07-1.49A3.17,3.17,0,0,0,91,173Z" transform="translate(-3.99 -8)"/><path class="cls-5" d="M117.3,182.85a2.53,2.53,0,0,1-.71.27,12.34,12.34,0,0,1-2,.42,15.06,15.06,0,0,1-3.08.1,18.11,18.11,0,0,1-3.71-.65,18.33,18.33,0,0,1-3.43-1.45,14.52,14.52,0,0,1-2.46-1.73,10.41,10.41,0,0,1-1.39-1.42c-.28-.37-.43-.58-.4-.6s.72.75,2,1.78a17.35,17.35,0,0,0,2.45,1.61,19.17,19.17,0,0,0,3.35,1.37,20.15,20.15,0,0,0,3.6.67,18.69,18.69,0,0,0,3,0C116.24,183.07,117.27,182.77,117.3,182.85Z" transform="translate(-3.99 -8)"/><path class="cls-5" d="M130.15,219.16a3.07,3.07,0,0,1-.43.56l-1.32,1.56c-1.11,1.39-2.71,3.39-4.64,5.9-3.86,5-9.07,12-14.77,19.81L94.43,267,90,273l-1.22,1.63a3.28,3.28,0,0,1-.45.55,4.93,4.93,0,0,1,.37-.6l1.14-1.68,4.29-6.12c3.65-5.16,8.73-12.25,14.44-20s11-14.77,14.9-19.74c2-2.49,3.61-4.47,4.77-5.82l1.39-1.51A3.94,3.94,0,0,1,130.15,219.16Z" transform="translate(-3.99 -8)"/><path class="cls-6" d="M123.1,111.36c.08,0,.08-.93.35-2.39a15.94,15.94,0,0,1,2.09-5.4,9.48,9.48,0,0,1,4.25-4,6.34,6.34,0,0,1,2.5-.37,1.41,1.41,0,0,0-.69-.17,4.5,4.5,0,0,0-1.93.24,9.23,9.23,0,0,0-4.55,4.08,14.33,14.33,0,0,0-2,5.58A6.72,6.72,0,0,0,123.1,111.36Z" transform="translate(-3.99 -8)"/><path class="cls-2" d="M119.81,97.06l-21,3-3.73,3S82,126.85,81.71,131.65c-.27,5.3,2.8,14.41,2.8,14.41l-3,21c-.45,2.41,1.24,4.73,2.38,4.73l36.18-4.5c4.72-.85,6.66-3.14,6.36-5.67l-.53-4.68L141.34,109c.91,2.83-.52-7.64-7.42-10C131,98,124.25,96.2,119.81,97.06Z" transform="translate(-3.99 -8)"/><path class="cls-2" d="M97.06,101.65s-6.44,4.6-12.55,9.84S62.14,127.2,62.14,127.2L61,105.29l-12.27-1.54s-6,27.32-2.2,34.85,8.36,7.86,21,4.09,16.27-5.44,16.27-5.44Z" transform="translate(-3.99 -8)"/><path class="cls-6" d="M93.83,104.9s-.12.11-.29.34l-.76,1c-.64.9-1.56,2.2-2.65,3.83a59.25,59.25,0,0,0-7,13.51A27.77,27.77,0,0,0,82,138.49a19.12,19.12,0,0,0,1.52,4.33c.22.5.47.86.6,1.11a2.14,2.14,0,0,0,.25.37,14.22,14.22,0,0,0-.68-1.54,21.79,21.79,0,0,1-1.35-4.33,28.61,28.61,0,0,1,1.21-14.7,64,64,0,0,1,6.86-13.48l2.51-3.89.68-1.07A1.85,1.85,0,0,0,93.83,104.9Z" transform="translate(-3.99 -8)"/><path class="cls-2" d="M130,99s-6.52,7.91-6.88,15.17S134.81,165,134.81,165l10.57,39.73,13.16-4.5s-3.06-28.28-3.64-31.8c-1.21-7.32-6.42-21.58-7.13-29.83s-4-24.13-5.65-27.85S140.43,98.8,130,99Z" transform="translate(-3.99 -8)"/><path class="cls-6" d="M123.65,118.19a1.29,1.29,0,0,0,0,.43l.15,1.21c.16,1,.42,2.57.78,4.43.72,3.73,1.87,8.85,3.24,14.48s2.71,10.71,3.74,14.38c.51,1.83.94,3.31,1.25,4.33.15.46.28.85.38,1.17a1.54,1.54,0,0,0,.16.4,1.38,1.38,0,0,0-.07-.43L133,157.4c-.28-1.09-.66-2.57-1.11-4.36-.94-3.75-2.2-8.81-3.6-14.4s-2.57-10.73-3.38-14.44c-.37-1.8-.69-3.29-.92-4.4-.1-.47-.18-.87-.24-1.19A1.28,1.28,0,0,0,123.65,118.19Z" transform="translate(-3.99 -8)"/><g class="cls-9"><path d="M122.71,166.64c-2.08-1.93-2.51-4.85-2.84-7.56q-1.55-12.93-3.1-25.84c-.65-5.38-1.26-11,.93-16a2.81,2.81,0,0,1,1.65-1.78,2.22,2.22,0,0,1,2.18.84c.5.61,1.91,1.5,2.12,2.25,2.11,7.68,3,15.24,5.14,22.92.56,2,1.28,2,.8,4-.7,3-3.7,11.5-3.7,11.5s.42,3.1.55,4.91a4.71,4.71,0,0,1-3.73,4.78" transform="translate(-3.99 -8)"/></g><path class="cls-10" d="M124.65,122.48a3.49,3.49,0,0,0,.72.48,16.62,16.62,0,0,0,2.12,1.05,8,8,0,0,0,3.54.66,8.89,8.89,0,0,0,4.11-1.49,30.51,30.51,0,0,1,3.65-2.13,5.74,5.74,0,0,1,3.33-.5,3.84,3.84,0,0,1,2,.94c.38.37.5.64.54.62s0-.3-.4-.73a3.79,3.79,0,0,0-2.11-1.15,6,6,0,0,0-3.57.44,26.82,26.82,0,0,0-3.73,2.13,8.88,8.88,0,0,1-3.88,1.46,8.17,8.17,0,0,1-3.38-.54C125.77,123,124.7,122.4,124.65,122.48Z" transform="translate(-3.99 -8)"/><path class="cls-10" d="M83.84,121.55a1.23,1.23,0,0,0,.19.33,5.17,5.17,0,0,0,.71.83,8.14,8.14,0,0,0,3.65,1.91,14,14,0,0,0,6.22.08,65.09,65.09,0,0,0,7.23-2.16,25.84,25.84,0,0,1,13.43-.83,37,37,0,0,1,5.37,1.66s-.1-.09-.33-.2-.56-.3-1-.49a22.21,22.21,0,0,0-4-1.28,24.63,24.63,0,0,0-6.18-.62,25.7,25.7,0,0,0-7.48,1.34,74.67,74.67,0,0,1-7.17,2.18,13.89,13.89,0,0,1-6,0,8.29,8.29,0,0,1-3.61-1.73C84.17,122,83.89,121.52,83.84,121.55Z" transform="translate(-3.99 -8)"/><path class="cls-10" d="M76.15,117.7a4.38,4.38,0,0,0-.1,1.82,10.44,10.44,0,0,0,1.34,4.22,11.27,11.27,0,0,0,3,3.4,4.88,4.88,0,0,0,1.67,1c0-.06-.58-.44-1.45-1.19a13,13,0,0,1-2.79-3.37,12.22,12.22,0,0,1-1.43-4A16,16,0,0,0,76.15,117.7Z" transform="translate(-3.99 -8)"/><g class="cls-9"><path d="M89.6,110.72c-9.89,9.2-18.4,19.43-22,32,5.65-1.71,11-3.38,14.52-4.74,0,0-1.06-5.16-.42-8.21.79-3.72.79-6.84,7.94-19" transform="translate(-3.99 -8)"/></g><path class="cls-6" d="M62.32,127.25a27.54,27.54,0,0,0-2,2.84,28.21,28.21,0,0,0-1.16,3.21,5.18,5.18,0,0,1,.71-3.41A5.68,5.68,0,0,1,62.32,127.25Z" transform="translate(-3.99 -8)"/></svg>