<svg id="Layer_1" data-name="Layer 1" xmlns="http://www.w3.org/2000/svg" viewBox="0 0 192.12 374.6"><defs><style>.cls-1{fill:#f5f5f5;}.cls-2{fill:#e0e0e0;}.cls-3{fill:#ebebeb;}.cls-4{fill:#fafafa;}.cls-5{fill:#fff;}.cls-6{fill:#263238;}.cls-7{fill:none;}.cls-8{fill:#ff725e;}.cls-9{fill:#ffbe9d;}.cls-10{fill:#eb996e;}.cls-11{fill:#455a64;}.cls-12{opacity:0.6;}.cls-13{opacity:0.3;}</style></defs><path class="cls-1" d="M94.31,345.3v16.91H91.6V364h2.71v11.32h50.61v-10.3h-3.75v-2.24h3.75v-3.37h1.67v-1.53h-2V345.3Z" transform="translate(-2.32 -4.22)"/><polygon class="cls-2" points="129.16 341.13 129.16 370.95 142.6 370.95 142.6 360.66 138.85 360.66 138.85 358.6 142.6 358.67 142.6 355.31 144.3 355.31 144.27 353.57 142.29 353.52 142.29 341.08 129.16 341.13"/><path class="cls-2" d="M132.44,363.8c0,.1-9.16.18-20.45.18s-20.46-.08-20.46-.18,9.16-.19,20.46-.19S132.44,363.69,132.44,363.8Z" transform="translate(-2.32 -4.22)"/><path class="cls-2" d="M132.44,362.08c0,.1-9.16.19-20.45.19s-20.46-.09-20.46-.19,9.16-.19,20.46-.19S132.44,362,132.44,362.08Z" transform="translate(-2.32 -4.22)"/><path class="cls-2" d="M135.07,357.46c0,.1-9.16.18-20.46.18s-20.45-.08-20.45-.18,9.16-.19,20.45-.19S135.07,357.35,135.07,357.46Z" transform="translate(-2.32 -4.22)"/><path class="cls-2" d="M135.32,370.05c0,.11-9.16.19-20.45.19s-20.46-.08-20.46-.19,9.16-.18,20.46-.18S135.32,370,135.32,370.05Z" transform="translate(-2.32 -4.22)"/><rect class="cls-1" x="173.75" y="320.99" width="11.28" height="13.99"/><rect class="cls-2" x="123.14" y="320.08" width="51" height="15.78"/><path class="cls-2" d="M187.7,325.62H175.09v-1.33H187.7a.65.65,0,0,1,.63.67h0A.65.65,0,0,1,187.7,325.62Z" transform="translate(-2.32 -4.22)"/><path class="cls-2" d="M187.7,340.07H175.09v-1.32H187.7a.64.64,0,0,1,.63.66h0A.64.64,0,0,1,187.7,340.07Z" transform="translate(-2.32 -4.22)"/><rect class="cls-3" x="164.1" y="320.08" width="6.02" height="15.78"/><rect class="cls-3" x="127.99" y="320.25" width="6.03" height="15.78"/><path class="cls-2" d="M187.36,327.52s-2.45.07-5.46.07-5.45,0-5.45-.07,2.44-.07,5.45-.07S187.36,327.48,187.36,327.52Z" transform="translate(-2.32 -4.22)"/><path class="cls-2" d="M187.36,329.62s-2.45.07-5.46.07-5.45,0-5.45-.07,2.44-.07,5.45-.07S187.36,329.58,187.36,329.62Z" transform="translate(-2.32 -4.22)"/><path class="cls-2" d="M187.36,332.2s-2.45.07-5.46.07-5.45,0-5.45-.07,2.44-.07,5.45-.07S187.36,332.16,187.36,332.2Z" transform="translate(-2.32 -4.22)"/><path class="cls-2" d="M187.36,334.78s-2.45.07-5.46.07-5.45,0-5.45-.07,2.44-.07,5.45-.07S187.36,334.74,187.36,334.78Z" transform="translate(-2.32 -4.22)"/><path class="cls-2" d="M187.36,337.37s-2.45.07-5.46.07-5.45,0-5.45-.07,2.44-.07,5.45-.07S187.36,337.33,187.36,337.37Z" transform="translate(-2.32 -4.22)"/><rect class="cls-3" x="137.92" y="326.56" width="22.94" height="2.84"/><rect class="cls-4" x="173.46" y="336.17" width="11.46" height="8.52"/><rect class="cls-1" x="124.83" y="335.86" width="48.76" height="9.14"/><path class="cls-1" d="M175.56,340.69h12.31a.3.3,0,0,0,.3-.31h0a.3.3,0,0,0-.3-.31H175.56Z" transform="translate(-2.32 -4.22)"/><path class="cls-1" d="M175.56,349.21h12.31a.29.29,0,0,0,.3-.3h0a.3.3,0,0,0-.3-.31H175.56Z" transform="translate(-2.32 -4.22)"/><path class="cls-2" d="M187.24,342s-2.54.07-5.66.07-5.67,0-5.67-.07,2.54-.07,5.67-.07S187.24,342,187.24,342Z" transform="translate(-2.32 -4.22)"/><path class="cls-2" d="M187.24,343.61s-2.54.07-5.66.07-5.67,0-5.67-.07,2.54-.07,5.67-.07S187.24,343.58,187.24,343.61Z" transform="translate(-2.32 -4.22)"/><path class="cls-2" d="M187.24,345.23s-2.54.07-5.66.07-5.67,0-5.67-.07,2.54-.07,5.67-.07S187.24,345.19,187.24,345.23Z" transform="translate(-2.32 -4.22)"/><path class="cls-2" d="M187.24,346.84s-2.54.07-5.66.07-5.67,0-5.67-.07,2.54-.07,5.67-.07S187.24,346.8,187.24,346.84Z" transform="translate(-2.32 -4.22)"/><rect class="cls-3" x="174.96" y="345.81" width="11.69" height="23.1"/><rect class="cls-2" x="120.07" y="345" width="54.89" height="25.05"/><path class="cls-2" d="M189.89,374.27H175.78v-1.63h14.11a.8.8,0,0,1,.78.81h0A.8.8,0,0,1,189.89,374.27Z" transform="translate(-2.32 -4.22)"/><path class="cls-2" d="M189.89,350.84H175.78v-1.63h14.11a.8.8,0,0,1,.78.82h0A.79.79,0,0,1,189.89,350.84Z" transform="translate(-2.32 -4.22)"/><path class="cls-2" d="M189,353.12s-2.62.07-5.85.07-5.85,0-5.85-.07,2.62-.07,5.85-.07S189,353.09,189,353.12Z" transform="translate(-2.32 -4.22)"/><path class="cls-2" d="M189,356.09s-2.62.07-5.85.07-5.85,0-5.85-.07,2.62-.07,5.85-.07S189,356.05,189,356.09Z" transform="translate(-2.32 -4.22)"/><path class="cls-2" d="M189,359.05s-2.62.07-5.85.07-5.85,0-5.85-.07,2.62-.07,5.85-.07S189,359,189,359.05Z" transform="translate(-2.32 -4.22)"/><path class="cls-2" d="M189,362s-2.62.07-5.85.07-5.85,0-5.85-.07,2.62-.07,5.85-.07S189,362,189,362Z" transform="translate(-2.32 -4.22)"/><path class="cls-2" d="M189,365s-2.62.07-5.85.07-5.85,0-5.85-.07,2.62-.07,5.85-.07S189,364.94,189,365Z" transform="translate(-2.32 -4.22)"/><path class="cls-2" d="M189,367.94s-2.62.07-5.85.07-5.85,0-5.85-.07,2.62-.07,5.85-.07S189,367.9,189,367.94Z" transform="translate(-2.32 -4.22)"/><path class="cls-2" d="M189,370.9s-2.62.07-5.85.07-5.85,0-5.85-.07,2.62-.07,5.85-.07S189,370.87,189,370.9Z" transform="translate(-2.32 -4.22)"/><path class="cls-3" d="M141.17,363.11v1.4c0,1.67-.8,2.63-2.35,2.63s-2.36-1-2.36-2.63v-5.46c0-1.68.8-2.64,2.36-2.64s2.35,1,2.35,2.64v1h-1.49v-1.13c0-.74-.32-1-.82-1s-.82.29-.82,1v5.67c0,.75.32,1,.82,1s.82-.27.82-1v-1.5Z" transform="translate(-2.32 -4.22)"/><path class="cls-3" d="M142,359.05c0-1.68.84-2.64,2.4-2.64s2.4,1,2.4,2.64v5.46c0,1.67-.85,2.63-2.4,2.63s-2.4-1-2.4-2.63Zm1.58,5.56c0,.75.31,1,.82,1s.82-.28.82-1v-5.67c0-.74-.32-1-.82-1s-.82.29-.82,1Z" transform="translate(-2.32 -4.22)"/><path class="cls-3" d="M147.83,356.53h1.58v9H152V367h-4.18Z" transform="translate(-2.32 -4.22)"/><path class="cls-3" d="M152.57,359.05c0-1.68.85-2.64,2.4-2.64s2.4,1,2.4,2.64v5.46c0,1.67-.85,2.63-2.4,2.63s-2.4-1-2.4-2.63Zm1.58,5.56c0,.75.32,1,.82,1s.82-.28.82-1v-5.67c0-.74-.32-1-.82-1s-.82.29-.82,1Z" transform="translate(-2.32 -4.22)"/><path class="cls-3" d="M159.9,356.53v8.1c0,.74.32,1,.82,1s.82-.27.82-1v-8.1H163v8c0,1.68-.8,2.64-2.35,2.64s-2.36-1-2.36-2.64v-8Z" transform="translate(-2.32 -4.22)"/><path class="cls-3" d="M167.42,367a3.21,3.21,0,0,1-.15-1.29v-1.64c0-1-.31-1.34-1-1.34h-.55V367h-1.58V356.53h2.39c1.63,0,2.34.8,2.34,2.41v.83a2.11,2.11,0,0,1-1,2.13c.79.34,1,1.14,1,2.23v1.62A3.15,3.15,0,0,0,169,367Zm-1.73-9v3.22h.62c.59,0,.95-.27.95-1.11v-1c0-.75-.25-1.08-.81-1.08Z" transform="translate(-2.32 -4.22)"/><path class="cls-2" d="M140.83,343.67h-1.15l.06-.31h2.65l-.07.31h-1.15l-.59,3.1h-.34Z" transform="translate(-2.32 -4.22)"/><path class="cls-2" d="M144.61,344.21l-1.8,2.89c-.3.49-.53.64-.88.64a.81.81,0,0,1-.59-.23l.18-.25a.59.59,0,0,0,.44.18c.21,0,.37-.1.56-.41l.17-.28-.61-2.54h.34l.51,2.18,1.34-2.18Z" transform="translate(-2.32 -4.22)"/><path class="cls-2" d="M147.34,345.27a1.42,1.42,0,0,1-1.4,1.52.92.92,0,0,1-.93-.56l-.28,1.48h-.33l.67-3.5h.31l-.07.41a1.22,1.22,0,0,1,.95-.43A1,1,0,0,1,147.34,345.27Zm-.34,0a.73.73,0,0,0-.81-.8,1.1,1.1,0,0,0-1.06,1.2.73.73,0,0,0,.81.8A1.1,1.1,0,0,0,147,345.29Z" transform="translate(-2.32 -4.22)"/><path class="cls-2" d="M147.72,345.71a1.43,1.43,0,0,1,1.42-1.52,1,1,0,0,1,1.12,1.08,1.43,1.43,0,0,1-1.42,1.52A1,1,0,0,1,147.72,345.71Zm2.21-.42a.74.74,0,0,0-.81-.8,1.11,1.11,0,0,0-1.07,1.2.73.73,0,0,0,.81.8A1.11,1.11,0,0,0,149.93,345.29Z" transform="translate(-2.32 -4.22)"/><path class="cls-2" d="M153.43,344.21l-.43,2.25c-.17.9-.63,1.28-1.42,1.28a1.53,1.53,0,0,1-1.1-.39l.2-.26a1.26,1.26,0,0,0,.92.34,1,1,0,0,0,1.06-.91l.06-.29a1.23,1.23,0,0,1-1,.44,1,1,0,0,1-1.08-1,1.39,1.39,0,0,1,1.4-1.45.93.93,0,0,1,.95.58l.11-.56Zm-.56,1a.72.72,0,0,0-.81-.75,1.07,1.07,0,0,0-1.07,1.13.72.72,0,0,0,.81.75A1.07,1.07,0,0,0,152.87,345.24Z" transform="translate(-2.32 -4.22)"/><path class="cls-2" d="M155.6,344.19l-.06.34h-.1c-.52,0-.87.31-1,1l-.25,1.3h-.33l.49-2.56h.31l-.08.47A1.09,1.09,0,0,1,155.6,344.19Z" transform="translate(-2.32 -4.22)"/><path class="cls-2" d="M158.41,344.21l-.49,2.56h-.32l.08-.4a1.24,1.24,0,0,1-1,.42,1,1,0,0,1-1.07-1.08,1.41,1.41,0,0,1,1.38-1.52.93.93,0,0,1,.94.55l.1-.53Zm-.55,1.08a.73.73,0,0,0-.81-.8,1.1,1.1,0,0,0-1.06,1.2.73.73,0,0,0,.81.8A1.1,1.1,0,0,0,157.86,345.29Z" transform="translate(-2.32 -4.22)"/><path class="cls-2" d="M161.6,345.27a1.41,1.41,0,0,1-1.39,1.52.92.92,0,0,1-.94-.56l-.28,1.48h-.33l.67-3.5h.32l-.08.41a1.22,1.22,0,0,1,1-.43A1,1,0,0,1,161.6,345.27Zm-.34,0a.73.73,0,0,0-.81-.8,1.09,1.09,0,0,0-1,1.2.73.73,0,0,0,.8.8A1.1,1.1,0,0,0,161.26,345.29Z" transform="translate(-2.32 -4.22)"/><path class="cls-2" d="M164.57,345a1.5,1.5,0,0,1,0,.29l-.28,1.46h-.33l.28-1.46a2,2,0,0,0,0-.23c0-.37-.21-.58-.63-.58a1,1,0,0,0-1,.9l-.26,1.37H162l.69-3.61H163l-.28,1.43a1.2,1.2,0,0,1,.94-.4A.78.78,0,0,1,164.57,345Z" transform="translate(-2.32 -4.22)"/><path class="cls-2" d="M167.67,344.21l-1.79,2.89c-.3.49-.53.64-.89.64a.79.79,0,0,1-.58-.23l.18-.25a.56.56,0,0,0,.43.18c.21,0,.37-.1.57-.41l.17-.28-.61-2.54h.33l.51,2.18,1.34-2.18Z" transform="translate(-2.32 -4.22)"/><ellipse class="cls-1" cx="164.11" cy="280.39" rx="19.7" ry="18.89" transform="matrix(0.66, -0.75, 0.75, 0.66, -157.26, 214.86)"/><path class="cls-2" d="M162.47,272.36c.58.43.53,1.47-.12,2.34s-1.64,1.22-2.22.8-.52-1.48.12-2.34S161.89,271.93,162.47,272.36Z" transform="translate(-2.32 -4.22)"/><path class="cls-2" d="M167,269.7a21.72,21.72,0,0,0-3-1.68,23,23,0,0,0-3.4-.67,4.77,4.77,0,0,1,3.61.15A4.59,4.59,0,0,1,167,269.7Z" transform="translate(-2.32 -4.22)"/><path class="cls-2" d="M171.68,280.08c-.52-.5-1.54-.26-2.29.52s-.92,1.83-.4,2.32,1.54.26,2.28-.52S172.2,280.58,171.68,280.08Z" transform="translate(-2.32 -4.22)"/><path class="cls-2" d="M173.52,275.16a4.61,4.61,0,0,1,2.66,2.37,4.85,4.85,0,0,1,.77,3.52,22.94,22.94,0,0,0-1.25-3.23A22.88,22.88,0,0,0,173.52,275.16Z" transform="translate(-2.32 -4.22)"/><path class="cls-2" d="M171.25,286.38a3.2,3.2,0,0,1-.79.71,9.24,9.24,0,0,1-2.59,1.28,10,10,0,0,1-4.22.44,8.81,8.81,0,0,1-7.68-6,10.23,10.23,0,0,1-.56-4.19,9.09,9.09,0,0,1,.65-2.8,3.16,3.16,0,0,1,.51-.94,15.52,15.52,0,0,0-.77,3.75,10.25,10.25,0,0,0,.65,4,8.57,8.57,0,0,0,7.28,5.71,10.25,10.25,0,0,0,4-.3A15.23,15.23,0,0,0,171.25,286.38Z" transform="translate(-2.32 -4.22)"/><path class="cls-3" d="M188.51,15.89l-2-.34-3.39-7.12.65-4.18s-3.07-.73-3.56,4.81-.67,4.07-.67,4.07-6.6-1.09-7.24-.58c-.47.36-1.71,7.16-2.36,10.85A4.13,4.13,0,0,0,172,27.91a3,3,0,0,0,.7.22c1.64.28,10.26.31,10.26.31l3.47.59Z" transform="translate(-2.32 -4.22)"/><polygon class="cls-3" points="192.12 11.5 188.64 25.62 185.2 25.03 187.39 10.99 192.12 11.5"/><ellipse class="cls-5" cx="106.77" cy="21.88" rx="19.23" ry="21.02"/><path class="cls-6" d="M128.32,26.1s0-.46-.09-1.34a10.73,10.73,0,0,0-.16-1.61,16.38,16.38,0,0,0-.4-2.17,21.18,21.18,0,0,0-2.13-5.58,20.47,20.47,0,0,0-4.87-5.94,18.23,18.23,0,0,0-8-3.9A18,18,0,0,0,97.73,9.31a22.69,22.69,0,0,0-2.16,2,22.62,22.62,0,0,0-1.88,2.42,22.36,22.36,0,0,0,0,24.7,25.07,25.07,0,0,0,1.87,2.42,25.59,25.59,0,0,0,2.17,2,18,18,0,0,0,14.89,3.75,18.19,18.19,0,0,0,8-3.91,20.15,20.15,0,0,0,4.87-5.93,21.18,21.18,0,0,0,2.13-5.58,16.67,16.67,0,0,0,.4-2.17,10.73,10.73,0,0,0,.16-1.61c.05-.88.09-1.34.09-1.34s0,.46,0,1.34a11.94,11.94,0,0,1-.14,1.62,17.94,17.94,0,0,1-.38,2.18,21,21,0,0,1-2.11,5.63,20.39,20.39,0,0,1-4.88,6,18.33,18.33,0,0,1-8.12,4A18.16,18.16,0,0,1,97.6,43.08a23.22,23.22,0,0,1-2.19-2,22.17,22.17,0,0,1-1.9-2.45,22.59,22.59,0,0,1,0-25,23,23,0,0,1,1.9-2.44,23.22,23.22,0,0,1,2.19-2,18.16,18.16,0,0,1,15.05-3.77,18.48,18.48,0,0,1,8.12,4,20.58,20.58,0,0,1,4.88,6A21,21,0,0,1,127.76,21a17.94,17.94,0,0,1,.38,2.18,11.94,11.94,0,0,1,.14,1.62C128.31,25.64,128.32,26.1,128.32,26.1Z" transform="translate(-2.32 -4.22)"/><path class="cls-7" d="M109.09,12.37c-6.93,0-12.56,6.16-12.56,13.73s5.63,13.73,12.56,13.73,12.56-6.16,12.56-13.73S116,12.37,109.09,12.37Z" transform="translate(-2.32 -4.22)"/><path class="cls-8" d="M109.09,12.37a9.16,9.16,0,0,1,3.09.31,12.48,12.48,0,0,1,7,5,14.42,14.42,0,0,1,2.43,5.86,15.13,15.13,0,0,1-.53,7.35,13.67,13.67,0,0,1-1.74,3.56,12.56,12.56,0,0,1-2.72,3,11.87,11.87,0,0,1-15.17,0,13,13,0,0,1-2.72-3A14,14,0,0,1,97,30.87a15.12,15.12,0,0,1-.52-7.35A14.42,14.42,0,0,1,99,17.66a12.46,12.46,0,0,1,7-5,9.22,9.22,0,0,1,3.1-.31,24.33,24.33,0,0,0-3,.55,12.48,12.48,0,0,0-6.78,5A14.06,14.06,0,0,0,97,23.61a14.74,14.74,0,0,0,.56,7.07,13.08,13.08,0,0,0,1.68,3.39,12.14,12.14,0,0,0,2.61,2.84,11.37,11.37,0,0,0,14.51,0A11.91,11.91,0,0,0,119,34.07a13.11,13.11,0,0,0,1.69-3.39,14.86,14.86,0,0,0,.55-7.07,14.05,14.05,0,0,0-2.28-5.68,12.52,12.52,0,0,0-6.78-5A24.69,24.69,0,0,0,109.09,12.37Z" transform="translate(-2.32 -4.22)"/><path class="cls-7" d="M109.09,21.74a4.19,4.19,0,0,0-4,4.36,4,4,0,1,0,8,0A4.19,4.19,0,0,0,109.09,21.74Z" transform="translate(-2.32 -4.22)"/><path class="cls-8" d="M109.09,21.74a1.76,1.76,0,0,1,1,0,4,4,0,0,1,2.33,1.57,4.88,4.88,0,0,1,.66,4.35,4.12,4.12,0,0,1-8,0,4.88,4.88,0,0,1,.66-4.35,3.91,3.91,0,0,1,2.33-1.57,1.78,1.78,0,0,1,1,0c0,.06-.36.06-1,.26a4,4,0,0,0-2.06,1.6,4.48,4.48,0,0,0-.49,3.89,3.63,3.63,0,0,0,7,0,4.42,4.42,0,0,0-.49-3.89A4,4,0,0,0,110,22C109.44,21.8,109.09,21.8,109.09,21.74Z" transform="translate(-2.32 -4.22)"/><path class="cls-1" d="M88.6,41.25c6.64-5.07,13.84-10.09,20.49-15.15" transform="translate(-2.32 -4.22)"/><path class="cls-6" d="M109.09,26.1c0,.06-4.53,3.49-10.18,7.68S88.63,41.3,88.6,41.25s4.52-3.5,10.18-7.68S109.05,26,109.09,26.1Z" transform="translate(-2.32 -4.22)"/><path class="cls-6" d="M90.85,39.78a11.4,11.4,0,0,1-2.37,0,11.17,11.17,0,0,1-2.37-.22,11.52,11.52,0,0,1,2.38,0A11.13,11.13,0,0,1,90.85,39.78Z" transform="translate(-2.32 -4.22)"/><path class="cls-6" d="M90.05,43.19a6.65,6.65,0,0,1,.23-1.78,6.9,6.9,0,0,1,.46-1.72,7.51,7.51,0,0,1-.24,1.78A7.17,7.17,0,0,1,90.05,43.19Z" transform="translate(-2.32 -4.22)"/><path class="cls-6" d="M91.21,42.79a7.6,7.6,0,0,1,.19-1.85,7.51,7.51,0,0,1,.41-1.82A7.64,7.64,0,0,1,91.62,41,7.5,7.5,0,0,1,91.21,42.79Z" transform="translate(-2.32 -4.22)"/><path class="cls-6" d="M88.48,38.29a5.47,5.47,0,0,1,1.65.29,6.14,6.14,0,0,1,1.6.54,5.47,5.47,0,0,1-1.65-.29A6.61,6.61,0,0,1,88.48,38.29Z" transform="translate(-2.32 -4.22)"/><path class="cls-8" d="M168.75,137.6a1.24,1.24,0,0,1,.06.22,4.16,4.16,0,0,1,.07.67,6.09,6.09,0,0,1-.49,2.47,12.92,12.92,0,0,1-2,3.06l-2.85,3.64-.09.12-.1-.1-3.06-3a10.66,10.66,0,0,1-2.94-3.93,4.94,4.94,0,0,1-.07-3.43,3.51,3.51,0,0,1,2-2.11,2.52,2.52,0,0,1,2.48.55,4,4,0,0,1,1.3,2.37l-.26,0a3.79,3.79,0,0,1,2.07-3.19,2.45,2.45,0,0,1,2.56.41,3.56,3.56,0,0,1,1.11,1.54,2.69,2.69,0,0,1,.14.51.84.84,0,0,1,0,.18s-.07-.24-.25-.65a3.52,3.52,0,0,0-1.11-1.42,2.32,2.32,0,0,0-2.4-.32,3.55,3.55,0,0,0-1.88,3L163,139.3l-.18-1.1a3.65,3.65,0,0,0-1.2-2.14,2.29,2.29,0,0,0-2.23-.49,3.22,3.22,0,0,0-1.85,1.92,4.42,4.42,0,0,0,.08,3.1,10.42,10.42,0,0,0,2.84,3.78l3,3h-.2l2.89-3.59a13.11,13.11,0,0,0,2-3,6.23,6.23,0,0,0,.56-2.37C168.8,137.91,168.72,137.61,168.75,137.6Z" transform="translate(-2.32 -4.22)"/><path class="cls-8" d="M152.71,127.64s0,.17,0,.48,0,.78.07,1.37c.05,1.22.14,3,.24,5.24.2,4.53.49,11.06.85,19.11l-.13-.14,13.78-.87h.14V153c.1,2.53.22,5.23.33,8l-.26-.11,6.21-8.41.05-.06h.06l15.1-.93,4.63-.28-.15.21c-.38-9.27-.74-18.09-1.06-26.21l.15.18L164,127.05l-8.27.45-2.2.12-.57,0c-.13,0-.2,0-.2,0l.18,0,.55,0,2.18-.16,8.22-.55L192.75,125h.15v.18c.34,8.12.71,16.94,1.09,26.21v.2h-.16l-4.63.28-15.1.92.11-.07L168,161.12l-.24.34,0-.45c-.11-2.77-.22-5.47-.32-8l.15.17-13.77.81h-.12v-.15c-.3-8.08-.55-14.65-.72-19.2-.08-2.25-.14-4-.19-5.21l0-1.35C152.7,127.79,152.71,127.64,152.71,127.64Z" transform="translate(-2.32 -4.22)"/><path class="cls-6" d="M175.32,139.86l-1.69.11.09,2-.4,0-.09-2-1.69.1v-.46l1.68-.11-.08-2,.4,0,.09,2,1.68-.1Z" transform="translate(-2.32 -4.22)"/><path class="cls-6" d="M177.71,135.67l.31,7.6-.45,0-.29-7.11-1.52.1,0-.5Z" transform="translate(-2.32 -4.22)"/><path class="cls-6" d="M179.44,139.37c-.1-2.38.85-3.91,2.28-4s2.5,1.33,2.59,3.7-.84,3.92-2.27,4S179.54,141.75,179.44,139.37Zm4.42-.27c-.09-2.12-1-3.29-2.12-3.22s-1.93,1.35-1.84,3.46.94,3.3,2.11,3.23S184,141.22,183.86,139.1Z" transform="translate(-2.32 -4.22)"/><path class="cls-6" d="M185.29,139c-.09-2.37.85-3.91,2.28-4s2.5,1.33,2.6,3.71-.85,3.91-2.28,4S185.39,141.39,185.29,139Zm4.42-.27c-.09-2.11-.94-3.29-2.12-3.22s-1.93,1.35-1.84,3.47.94,3.29,2.12,3.22S189.8,140.86,189.71,138.74Z" transform="translate(-2.32 -4.22)"/><rect class="cls-8" x="173.52" y="52.09" width="5.81" height="25.27"/><rect class="cls-8" x="163.98" y="50.17" width="5.81" height="27.18"/><rect class="cls-8" x="154.72" y="53.54" width="5.81" height="23.81"/><rect class="cls-8" x="145.32" y="57.26" width="5.81" height="20.1"/><path class="cls-6" d="M186.05,81.66c0,.14-9.54.25-21.31.25s-21.31-.11-21.31-.25,9.54-.24,21.31-.24S186.05,81.53,186.05,81.66Z" transform="translate(-2.32 -4.22)"/><path class="cls-6" d="M183.63,57.87c0,.05-.67-.08-1.86,0A10.36,10.36,0,0,0,177,59.43a10.67,10.67,0,0,0-2.66,2.39c-.82,1-1.56,2.25-2.45,3.49a9.5,9.5,0,0,1-3.44,3.18,11.65,11.65,0,0,1-4.75,1c-1.65.06-3.25,0-4.78,0a20.18,20.18,0,0,0-4.37.65,10.79,10.79,0,0,0-6.2,4.16,9.43,9.43,0,0,0-1.73,5,15.2,15.2,0,0,0,.17,2,6,6,0,0,1-.35-2,9.36,9.36,0,0,1,1.66-5.25,9.75,9.75,0,0,1,2.6-2.65,12.81,12.81,0,0,1,3.75-1.75,20.39,20.39,0,0,1,4.45-.69c1.56-.08,3.16,0,4.78-.06a11.3,11.3,0,0,0,4.59-1,9.13,9.13,0,0,0,3.3-3c.88-1.21,1.64-2.44,2.5-3.48a10.67,10.67,0,0,1,2.78-2.42,10,10,0,0,1,4.92-1.46,9.32,9.32,0,0,1,1.39.09A1.46,1.46,0,0,1,183.63,57.87Z" transform="translate(-2.32 -4.22)"/><path class="cls-6" d="M144.2,51.87c.12,0,.22,6.78.22,15.14s-.1,15.14-.22,15.14S144,75.37,144,67,144.07,51.87,144.2,51.87Z" transform="translate(-2.32 -4.22)"/><path class="cls-6" d="M92.89,113.25a5.75,5.75,0,0,1-2,.79,5.65,5.65,0,0,1-2.1.47,4.52,4.52,0,0,1,2-.94A4.33,4.33,0,0,1,92.89,113.25Z" transform="translate(-2.32 -4.22)"/><path class="cls-6" d="M101.41,112.47a6.09,6.09,0,0,1-2.14.23,5.77,5.77,0,0,1-2.14-.12,4.37,4.37,0,0,1,2.13-.37A4.29,4.29,0,0,1,101.41,112.47Z" transform="translate(-2.32 -4.22)"/><path class="cls-6" d="M109.87,113.87a5.8,5.8,0,0,1-2.13-.31,5.68,5.68,0,0,1-2.06-.66,4.34,4.34,0,0,1,2.15.18A4.5,4.5,0,0,1,109.87,113.87Z" transform="translate(-2.32 -4.22)"/><path class="cls-6" d="M117.82,117.32a5.67,5.67,0,0,1-2-.83c-1.06-.54-1.92-1-1.87-1.15a4.53,4.53,0,0,1,2.06.71A4.8,4.8,0,0,1,117.82,117.32Z" transform="translate(-2.32 -4.22)"/><path class="cls-6" d="M124.8,122.72c-.08.1-.85-.53-1.76-1.33s-1.65-1.49-1.58-1.6.93.4,1.86,1.22S124.89,122.62,124.8,122.72Z" transform="translate(-2.32 -4.22)"/><path class="cls-8" d="M168.76,223.23a4,4,0,0,1-5.3,2.54,4.62,4.62,0,0,1-2.32-5.79,4,4,0,0,1,5.3-2.53A4.61,4.61,0,0,1,168.76,223.23Z" transform="translate(-2.32 -4.22)"/><path class="cls-8" d="M182.4,219.47a4,4,0,0,1-5.3,2.53,4.59,4.59,0,0,1-2.31-5.78,4,4,0,0,1,5.29-2.54A4.62,4.62,0,0,1,182.4,219.47Z" transform="translate(-2.32 -4.22)"/><path class="cls-8" d="M176.09,237.11c-.89,2.5-3.32,3.8-5.42,2.9s-3.09-3.66-2.19-6.16,3.32-3.8,5.42-2.9S177,234.61,176.09,237.11Z" transform="translate(-2.32 -4.22)"/><path class="cls-8" d="M171.35,234.46c-.25.2-2.22-2.46-4.39-5.93s-3.72-6.43-3.46-6.62,2.22,2.46,4.39,5.93S171.61,234.27,171.35,234.46Z" transform="translate(-2.32 -4.22)"/><path class="cls-8" d="M177.9,217.21c.09.33-2.58,1.47-6,2.55s-6.18,1.69-6.27,1.37,2.58-1.47,5.95-2.55S177.81,216.89,177.9,217.21Z" transform="translate(-2.32 -4.22)"/><path class="cls-8" d="M118.56,264.31a5.33,5.33,0,0,1-.12-1.09,8.86,8.86,0,0,0-.13-1.3,14,14,0,0,0-.31-1.76,17.68,17.68,0,0,0-1.67-4.51,16.47,16.47,0,0,0-3.84-4.84,14.82,14.82,0,0,0-6.39-3.26,14.23,14.23,0,0,0-8,.55,14,14,0,0,0-3.9,2.18,18.36,18.36,0,0,0-1.76,1.56,17.58,17.58,0,0,0-4.71,11.65,17.84,17.84,0,0,0,2.74,9.91,19.29,19.29,0,0,0,1.44,2A20.15,20.15,0,0,0,93.56,277a14,14,0,0,0,3.81,2.38,14.15,14.15,0,0,0,8,1,14.63,14.63,0,0,0,6.53-2.92,16.34,16.34,0,0,0,4-4.63,17.17,17.17,0,0,0,1.86-4.42,13.08,13.08,0,0,0,.4-1.73,9.94,9.94,0,0,0,.19-1.3,4.72,4.72,0,0,1,.16-1.08,5.43,5.43,0,0,1,0,1.1,8.74,8.74,0,0,1-.11,1.32,12.87,12.87,0,0,1-.32,1.79,17,17,0,0,1-1.78,4.6,16.62,16.62,0,0,1-4.11,4.89,15.11,15.11,0,0,1-6.77,3.15,14.82,14.82,0,0,1-8.4-.94,14.63,14.63,0,0,1-4-2.48A19.39,19.39,0,0,1,91.27,276a19.89,19.89,0,0,1-1.53-2.08,18.73,18.73,0,0,1,.46-20.76,19.77,19.77,0,0,1,1.62-2,19.09,19.09,0,0,1,1.87-1.64,15,15,0,0,1,12.55-2.75,15.25,15.25,0,0,1,6.63,3.5,17.07,17.07,0,0,1,3.88,5.1,16.63,16.63,0,0,1,1.57,4.69,12.42,12.42,0,0,1,.25,1.8,9.3,9.3,0,0,1,.05,1.34A5.07,5.07,0,0,1,118.56,264.31Z" transform="translate(-2.32 -4.22)"/><path class="cls-8" d="M115.43,253.62c0,.06-.25.32-.8.77l-1,.79c-.2.15-.41.32-.64.47l-.78.45a16.53,16.53,0,0,1-9.2,2.53l-1.39-.07-1.34-.23-.65-.12L99,258c-.41-.12-.82-.23-1.2-.36a19.74,19.74,0,0,1-3.91-2c-2.1-1.39-3.12-2.65-3-2.73s1.23.95,3.34,2.15A22.84,22.84,0,0,0,98,256.84c.38.12.77.21,1.16.32l.6.16.63.1,1.27.21,1.33.06a17.81,17.81,0,0,0,8.91-2.19l.78-.37.66-.41,1.07-.64C115,253.74,115.39,253.57,115.43,253.62Z" transform="translate(-2.32 -4.22)"/><path class="cls-8" d="M90.39,274.42c0-.05.24-.32.79-.76l1-.79c.2-.15.4-.32.64-.48l.77-.44a16.53,16.53,0,0,1,9.2-2.53l1.39.06,1.34.23.65.12.62.18c.41.13.82.23,1.21.37a18.87,18.87,0,0,1,3.9,2c2.1,1.38,3.12,2.64,3,2.72s-1.23-.95-3.34-2.14a21.73,21.73,0,0,0-3.84-1.72c-.38-.12-.77-.21-1.16-.32l-.6-.17-.62-.1-1.28-.2-1.33-.06a17.74,17.74,0,0,0-8.91,2.18l-.78.37c-.24.14-.45.29-.66.41l-1.07.64C90.77,274.31,90.42,274.47,90.39,274.42Z" transform="translate(-2.32 -4.22)"/><path class="cls-8" d="M118.55,264.71c0,.26-7,.28-15.66.05s-15.64-.62-15.64-.88,7-.29,15.66-.06S118.55,264.45,118.55,264.71Z" transform="translate(-2.32 -4.22)"/><path class="cls-8" d="M102.18,281c-.24,0-.26-7.66-.05-17.11s.57-17.09.81-17.08.26,7.66,0,17.11S102.42,281,102.18,281Z" transform="translate(-2.32 -4.22)"/><path class="cls-8" d="M102.18,281c-.06.1-1.78-1.18-3.77-4.08a23.29,23.29,0,0,1-2.8-5.55,22.31,22.31,0,0,1-1.21-7.66A20.93,20.93,0,0,1,96,256.08a24.24,24.24,0,0,1,3-5.38c2.11-2.78,3.85-4,3.91-3.92s-1.49,1.51-3.43,4.33a26.19,26.19,0,0,0-2.8,5.32,21.17,21.17,0,0,0-1.45,7.26A22.82,22.82,0,0,0,96.35,271a26.07,26.07,0,0,0,2.55,5.46C100.71,279.42,102.27,280.85,102.18,281Z" transform="translate(-2.32 -4.22)"/><path class="cls-8" d="M103.29,246.79c.06-.1,1.78,1.18,3.77,4.07a23.57,23.57,0,0,1,2.8,5.56,22.31,22.31,0,0,1,1.21,7.66,21.14,21.14,0,0,1-1.58,7.59,24.08,24.08,0,0,1-3.06,5.38c-2.1,2.78-3.84,4-3.9,3.92s1.49-1.51,3.42-4.33a26.18,26.18,0,0,0,2.81-5.32,21.17,21.17,0,0,0,1.45-7.26,22.5,22.5,0,0,0-1.1-7.35,25.36,25.36,0,0,0-2.54-5.46C104.75,248.33,103.2,246.9,103.29,246.79Z" transform="translate(-2.32 -4.22)"/><path class="cls-6" d="M102.55,62.3c-.12,0-.18-.55-.13-1.19s.18-1.16.31-1.15.18.55.13,1.19S102.67,62.31,102.55,62.3Z" transform="translate(-2.32 -4.22)"/><path class="cls-6" d="M101.81,72a6.91,6.91,0,0,1,0-2.44,7,7,0,0,1,.41-2.39,6.87,6.87,0,0,1,0,2.43A6.73,6.73,0,0,1,101.81,72Z" transform="translate(-2.32 -4.22)"/><path class="cls-6" d="M101.06,81.6a7,7,0,0,1,0-2.43,6.73,6.73,0,0,1,.41-2.4,6.83,6.83,0,0,1,0,2.44A6.45,6.45,0,0,1,101.06,81.6Z" transform="translate(-2.32 -4.22)"/><path class="cls-6" d="M100.3,91.26a7.11,7.11,0,0,1,0-2.44,6.58,6.58,0,0,1,.42-2.39,7,7,0,0,1,0,2.43A6.6,6.6,0,0,1,100.3,91.26Z" transform="translate(-2.32 -4.22)"/><path class="cls-6" d="M99.52,100.91a6.57,6.57,0,0,1,0-2.44,6.45,6.45,0,0,1,.43-2.39,6.93,6.93,0,0,1,0,2.44A6.83,6.83,0,0,1,99.52,100.91Z" transform="translate(-2.32 -4.22)"/><path class="cls-6" d="M98.84,108.05c-.12,0-.16-.57-.09-1.2s.22-1.14.35-1.13.16.55.09,1.2S99,108.08,98.84,108.05Z" transform="translate(-2.32 -4.22)"/><path class="cls-6" d="M125.27,112a5.9,5.9,0,0,1-1.12,2c-.72,1-1.38,1.8-1.48,1.71a6.12,6.12,0,0,1,1.12-2C124.51,112.7,125.17,111.94,125.27,112Z" transform="translate(-2.32 -4.22)"/><path class="cls-6" d="M130.47,104.57a6.12,6.12,0,0,1-1.12,2c-.72,1-1.38,1.79-1.48,1.71a5.9,5.9,0,0,1,1.12-2C129.71,105.25,130.37,104.48,130.47,104.57Z" transform="translate(-2.32 -4.22)"/><path class="cls-6" d="M135.66,97.11a5.9,5.9,0,0,1-1.12,2c-.71,1-1.38,1.8-1.47,1.72a5.9,5.9,0,0,1,1.12-2C134.91,97.8,135.57,97,135.66,97.11Z" transform="translate(-2.32 -4.22)"/><path class="cls-6" d="M140.86,89.66a5.9,5.9,0,0,1-1.12,2c-.72,1-1.38,1.8-1.48,1.72a6.13,6.13,0,0,1,1.12-2C140.1,90.35,140.76,89.58,140.86,89.66Z" transform="translate(-2.32 -4.22)"/><path class="cls-6" d="M141.26,142.68a6.89,6.89,0,0,1-1.07-2,7.37,7.37,0,0,1-.8-2.18c.11-.07.68.79,1.2,2A5.54,5.54,0,0,1,141.26,142.68Z" transform="translate(-2.32 -4.22)"/><path class="cls-6" d="M143.47,151.71a6.9,6.9,0,0,1-.58-2.26,7.14,7.14,0,0,1-.27-2.33,5.51,5.51,0,0,1,.7,2.23A5.65,5.65,0,0,1,143.47,151.71Z" transform="translate(-2.32 -4.22)"/><path class="cls-6" d="M143.75,161.06a6.1,6.1,0,0,1-.18-2.35,6.42,6.42,0,0,1,.26-2.33,5.92,5.92,0,0,1,.18,2.34A6.35,6.35,0,0,1,143.75,161.06Z" transform="translate(-2.32 -4.22)"/><path class="cls-6" d="M142.34,170.29a12.19,12.19,0,0,1,.9-4.58,6.2,6.2,0,0,1-.24,2.34A6.43,6.43,0,0,1,142.34,170.29Z" transform="translate(-2.32 -4.22)"/><path class="cls-6" d="M139.45,179.1a12,12,0,0,1,1.61-4.33,6.12,6.12,0,0,1-.6,2.26A6,6,0,0,1,139.45,179.1Z" transform="translate(-2.32 -4.22)"/><path class="cls-6" d="M135.22,187.25a11.77,11.77,0,0,1,2.27-4,11.34,11.34,0,0,1-2.27,4Z" transform="translate(-2.32 -4.22)"/><path class="cls-6" d="M129.7,194.39a6,6,0,0,1,1.3-1.87c.8-.94,1.53-1.62,1.63-1.54a5.79,5.79,0,0,1-1.3,1.87C130.51,193.8,129.78,194.49,129.7,194.39Z" transform="translate(-2.32 -4.22)"/><path class="cls-6" d="M122.93,200.12c-.07-.11.66-.8,1.63-1.53s1.81-1.25,1.89-1.14-.66.79-1.64,1.54S123,200.24,122.93,200.12Z" transform="translate(-2.32 -4.22)"/><path class="cls-6" d="M115.25,204.28a5.27,5.27,0,0,1,1.88-1.16,5.06,5.06,0,0,1,2.05-.72c.06.12-.78.64-1.88,1.16A5.16,5.16,0,0,1,115.25,204.28Z" transform="translate(-2.32 -4.22)"/><path class="cls-6" d="M107,206.74a5.19,5.19,0,0,1,2-.74,4.94,4.94,0,0,1,2.14-.27,5,5,0,0,1-2,.74A4.61,4.61,0,0,1,107,206.74Z" transform="translate(-2.32 -4.22)"/><path class="cls-6" d="M98.45,207.42a4.84,4.84,0,0,1,2.13-.3,5,5,0,0,1,2.15.19,4.78,4.78,0,0,1-2.14.3A4.88,4.88,0,0,1,98.45,207.42Z" transform="translate(-2.32 -4.22)"/><path class="cls-6" d="M90,206.17a4.86,4.86,0,0,1,2.14.19,4.87,4.87,0,0,1,2.06.68,5,5,0,0,1-2.14-.2A5,5,0,0,1,90,206.17Z" transform="translate(-2.32 -4.22)"/><path class="cls-6" d="M147.05,150.4a9.66,9.66,0,0,1-4.28,0,9.66,9.66,0,0,1,4.28,0Z" transform="translate(-2.32 -4.22)"/><path class="cls-6" d="M155.63,150.4a9.71,9.71,0,0,1-4.29,0,9.71,9.71,0,0,1,4.29,0Z" transform="translate(-2.32 -4.22)"/><path class="cls-6" d="M162.93,150.4c0,.14-.68.24-1.51.24s-1.51-.1-1.51-.24.68-.24,1.51-.24S162.93,150.27,162.93,150.4Z" transform="translate(-2.32 -4.22)"/><path class="cls-6" d="M134.88,195.28c-.08.1-.88-.49-1.79-1.31s-1.58-1.59-1.5-1.69.88.48,1.78,1.31S135,195.17,134.88,195.28Z" transform="translate(-2.32 -4.22)"/><path class="cls-6" d="M141.46,201.28c-.08.1-.88-.48-1.79-1.31s-1.58-1.59-1.5-1.69.88.48,1.79,1.31S141.54,201.18,141.46,201.28Z" transform="translate(-2.32 -4.22)"/><path class="cls-6" d="M148,207.28c-.07.11-.88-.48-1.78-1.31s-1.59-1.58-1.51-1.69.88.49,1.79,1.32S148.12,207.18,148,207.28Z" transform="translate(-2.32 -4.22)"/><path class="cls-6" d="M153.88,212.6c-.08.11-.71-.33-1.42-1s-1.2-1.24-1.12-1.35.71.34,1.41,1S154,212.5,153.88,212.6Z" transform="translate(-2.32 -4.22)"/><path class="cls-6" d="M100.88,211.64a12,12,0,0,1,0-4.68,12.55,12.55,0,0,1,0,4.68Z" transform="translate(-2.32 -4.22)"/><path class="cls-6" d="M100.88,221a12,12,0,0,1,0-4.68,12.55,12.55,0,0,1,0,4.68Z" transform="translate(-2.32 -4.22)"/><path class="cls-6" d="M100.88,230.38a12,12,0,0,1,0-4.68,12.55,12.55,0,0,1,0,4.68Z" transform="translate(-2.32 -4.22)"/><path class="cls-6" d="M100.88,236.7c-.13,0-.23-.37-.23-.82s.1-.81.23-.81.22.36.22.81S101,236.7,100.88,236.7Z" transform="translate(-2.32 -4.22)"/><path class="cls-6" d="M31.76,58.22a75.28,75.28,0,0,1-3.7-12,26.5,26.5,0,0,1,.28-12.46c.17-.61,1.77-4.71,2.37-4.68.44,0-.47,3.81-.23,4.19a22.34,22.34,0,0,1,3,12.42,59.29,59.29,0,0,1-1.74,12.5" transform="translate(-2.32 -4.22)"/><path class="cls-9" d="M53.63,105.46c-6.24.23-20.61-17.61-21-24.11l-2.17-39.1c-.9-10.48,4.19-19.77,14.27-20.42h.94c9.4,0,17.26,7.46,18,17.23.73,9.09,1.43,19.15,1.39,24-.09,10.1-9.77,11.7-9.77,11.7s.07,2.34.21,5.3c.3,6.66,4.05,25.12-2.33,25.36Z" transform="translate(-2.32 -4.22)"/><path class="cls-10" d="M55.37,74.79A22.6,22.6,0,0,1,42.75,71s3.06,7.58,12.72,6.64Z" transform="translate(-2.32 -4.22)"/><path class="cls-6" d="M61,46.84a1.42,1.42,0,0,1-1.33,1.46A1.35,1.35,0,0,1,58.22,47a1.42,1.42,0,0,1,1.33-1.46A1.35,1.35,0,0,1,61,46.84Z" transform="translate(-2.32 -4.22)"/><path class="cls-6" d="M61.7,43.53c-.17.19-1.22-.62-2.71-.61s-2.58.79-2.74.6.1-.42.57-.78A3.73,3.73,0,0,1,59,42a3.62,3.62,0,0,1,2.16.72C61.63,43.11,61.79,43.44,61.7,43.53Z" transform="translate(-2.32 -4.22)"/><path class="cls-6" d="M47.31,47.48A1.42,1.42,0,0,1,46,48.94a1.35,1.35,0,0,1-1.43-1.3,1.42,1.42,0,0,1,1.33-1.46A1.35,1.35,0,0,1,47.31,47.48Z" transform="translate(-2.32 -4.22)"/><path class="cls-6" d="M47.11,43.94c-.17.19-1.22-.61-2.71-.6s-2.58.79-2.74.6.09-.43.57-.79a3.7,3.7,0,0,1,2.19-.71,3.55,3.55,0,0,1,2.16.71C47,43.52,47.19,43.86,47.11,43.94Z" transform="translate(-2.32 -4.22)"/><path class="cls-6" d="M52.49,55.85a9.24,9.24,0,0,1,2.42-.46c.38,0,.74-.13.8-.4a2,2,0,0,0-.26-1.17c-.36-1-.74-2-1.13-3-1.58-4.3-2.72-7.82-2.55-7.89s1.58,3.36,3.15,7.65c.38,1.06.74,2.07,1.09,3a2.44,2.44,0,0,1,.2,1.56,1,1,0,0,1-.62.58,2.87,2.87,0,0,1-.65.1A9.13,9.13,0,0,1,52.49,55.85Z" transform="translate(-2.32 -4.22)"/><path class="cls-6" d="M47,38.14c-.2.4-1.65,0-3.41,0s-3.22.25-3.4-.16c-.08-.19.22-.55.83-.87a5.53,5.53,0,0,1,2.61-.55,5.42,5.42,0,0,1,2.58.7C46.77,37.58,47.05,38,47,38.14Z" transform="translate(-2.32 -4.22)"/><path class="cls-6" d="M61.34,39.9c-.31.36-1.52,0-3,0s-2.69.29-3-.08c-.13-.17.06-.53.59-.87a4.57,4.57,0,0,1,2.42-.63,4.37,4.37,0,0,1,2.38.67C61.3,39.37,61.47,39.73,61.34,39.9Z" transform="translate(-2.32 -4.22)"/><path class="cls-9" d="M31.31,49.73c-.17-.08-6.67-2-6.43,4.87s6.83,5.24,6.84,5S31.31,49.73,31.31,49.73Z" transform="translate(-2.32 -4.22)"/><path class="cls-10" d="M29.61,57.1s-.12.09-.31.19a1.11,1.11,0,0,1-.86.05A3,3,0,0,1,27,54.72,4.25,4.25,0,0,1,27.29,53a1.38,1.38,0,0,1,.84-.95.57.57,0,0,1,.69.3c.1.19.06.33.09.34s.14-.12.08-.4a.78.78,0,0,0-.28-.43.91.91,0,0,0-.64-.15,1.68,1.68,0,0,0-1.17,1.12,4.18,4.18,0,0,0-.33,1.94c.09,1.39.81,2.66,1.78,2.92a1.19,1.19,0,0,0,1-.23C29.6,57.27,29.63,57.11,29.61,57.1Z" transform="translate(-2.32 -4.22)"/><path class="cls-6" d="M59,27.83c1-.67-2.33-4.14-5-5.26-4.06-1.7-10.19-2.58-13.81-1.32-4.36,1.51-7.93,4-10,8.26a28.13,28.13,0,0,0-2.33,14A8.52,8.52,0,0,0,29,47.68c1,1.48,2.8,2.36,2.81,4.47a3,3,0,0,0,.78,2.08c1.27,1.28,2.7,0,3.32-1.34,1.34-2.77,1.37-6,1.37-9.11a21.43,21.43,0,0,0-.7-6.55c-.38-1.13-.94-2.2-1.25-3.35a4.27,4.27,0,0,1,.32-3.47,4.44,4.44,0,0,1,.51-.59,6.73,6.73,0,0,1,6.79-1.68c3.79,1.21,10.24,3,11.85,1.57a10.6,10.6,0,0,0,2.83-3.27Z" transform="translate(-2.32 -4.22)"/><path class="cls-6" d="M48.44,56.87c-.09,0-.13.4,0,1a3.84,3.84,0,0,0,1.28,2,6.16,6.16,0,0,0,2,1.08c.54.17.89.22.92.12s-.25-.3-.72-.59a15.15,15.15,0,0,1-1.74-1.17C48.94,58.26,48.65,56.81,48.44,56.87Z" transform="translate(-2.32 -4.22)"/><polygon class="cls-9" points="112.81 162.39 66.4 165.66 64.87 149.53 121.03 151.68 112.81 162.39"/><path class="cls-11" d="M148.1,113.92c0,.06.56,1.17.56,1.17-3.71,8.25-17.18,38.13-17.18,38.13l-17.7,10-43.29.23L70.38,161l21.84-10.23L120,150.2l13.61-31.52a2.72,2.72,0,0,1,1.85-1.6Z" transform="translate(-2.32 -4.22)"/><path class="cls-6" d="M113.78,163.22a10.22,10.22,0,0,0,1.08-1.89c.61-1.19,1.42-2.85,2.29-4.69s1.64-3.52,2.18-4.75a11.25,11.25,0,0,0,.78-2,9.82,9.82,0,0,0-1.07,1.88c-.61,1.19-1.43,2.85-2.3,4.7s-1.64,3.53-2.18,4.75A11.25,11.25,0,0,0,113.78,163.22Z" transform="translate(-2.32 -4.22)"/><polygon class="cls-6" points="107.26 155.21 88.74 155.44 102.37 147.19 117.32 146.85 107.26 155.21"/><path class="cls-6" d="M70.38,161a1.43,1.43,0,0,0,.46,0h1.29l4.76-.09c4-.07,9.58-.12,15.72-.17s11.69-.14,15.71-.3c2-.08,3.64-.16,4.76-.24l1.3-.1a2.37,2.37,0,0,0,.44-.06,1.29,1.29,0,0,0-.45,0h-1.29l-4.77.08c-4,.08-9.57.12-15.71.17s-11.69.15-15.71.31c-2,.07-3.64.16-4.76.23l-1.3.1A1.55,1.55,0,0,0,70.38,161Z" transform="translate(-2.32 -4.22)"/><path class="cls-6" d="M116.37,161.75a2.21,2.21,0,0,0,.29-.55c.2-.41.45-.95.76-1.63.65-1.47,1.57-3.51,2.69-6,2.25-5.14,5.32-12.17,8.72-19.93l6.49-15-.13.11,9.79-2.56,2.72-.74a7.35,7.35,0,0,0,1-.3,5.62,5.62,0,0,0-1,.18l-2.75.64-9.83,2.39-.09,0,0,.09-6.55,15-8.6,20c-1.07,2.53-1.94,4.59-2.56,6.08l-.68,1.66A4.25,4.25,0,0,0,116.37,161.75Z" transform="translate(-2.32 -4.22)"/><path class="cls-9" d="M126.93,150.46s-.8-.76-2.25,1.36-3.76,8.21-3.76,8.21l-2.76,1.46s2.35-3.14,2.29-4.39-1.93-1.16-2.88.67a52.55,52.55,0,0,1-3.79,5.45s1.1,3.56,1.35,3.39,4.93-.65,4.93-.65l1.26-.69s3.16-.14,3.29-1,5.18-4.89,5.15-5.69-.22-5.16-.22-5.16,2.13-6.17,1.59-6.77S128.4,144.77,126.93,150.46Z" transform="translate(-2.32 -4.22)"/><path class="cls-10" d="M126.59,150.39s.09,0,.22.06a.5.5,0,0,1,.31.49v0c-.17.66-.36,1.69-.57,2.94s-.42,2.74-.8,4.27a7.81,7.81,0,0,1-1.38,2.8l-1.47,2.17a12.4,12.4,0,0,0-1.26,2.08,12.15,12.15,0,0,0,1.52-1.88l1.54-2.11a12.58,12.58,0,0,0,.87-1.32,7.08,7.08,0,0,0,.62-1.61,39.91,39.91,0,0,0,.74-4.34c.15-1.12.28-2.11.4-3v0h0a.62.62,0,0,0-.49-.59C126.66,150.32,126.58,150.37,126.59,150.39Z" transform="translate(-2.32 -4.22)"/><path class="cls-10" d="M127.8,160.82a16.3,16.3,0,0,0,1.09-3.66,16.54,16.54,0,0,0,.65-3.78,15.71,15.71,0,0,0-1.09,3.66A16.54,16.54,0,0,0,127.8,160.82Z" transform="translate(-2.32 -4.22)"/><path class="cls-10" d="M118.84,156.47s.13,0,.34.05a1.12,1.12,0,0,1,.77.28c.22.24.15.69,0,1.17s-.44,1.08-.66,1.65l-.68,1.61c-.23.48-.49.89-.69,1.26-.41.72-.58,1.22-.52,1.25a7.15,7.15,0,0,0,.79-1.07c.23-.34.52-.74.79-1.23s.48-1.06.73-1.64.42-1.12.62-1.67a2.32,2.32,0,0,0,.18-.82,1,1,0,0,0-.28-.75,1.18,1.18,0,0,0-1-.22C119,156.38,118.83,156.44,118.84,156.47Z" transform="translate(-2.32 -4.22)"/><path class="cls-11" d="M53.51,342.65l-4.4,19s17.09,11.05,16.6,14.65L30,368.78l5.68-30Z" transform="translate(-2.32 -4.22)"/><path class="cls-2" d="M38.38,357.74A1.52,1.52,0,0,0,37,359.26a1.45,1.45,0,0,0,1.43,1.4A1.61,1.61,0,0,0,39.89,359c-.1-.75-1-1.5-1.65-1.28" transform="translate(-2.32 -4.22)"/><g class="cls-12"><path class="cls-5" d="M30,368.78l.69-3,34,8.36s1.45,1.06,1,2.19Z" transform="translate(-2.32 -4.22)"/></g><path class="cls-6" d="M49.73,361.62c0,.18-.93.08-1.9.48s-1.58,1.07-1.73,1,.32-1.1,1.51-1.57S49.8,361.46,49.73,361.62Z" transform="translate(-2.32 -4.22)"/><path class="cls-6" d="M53.16,364c0,.18-.81.33-1.55,1s-1.07,1.42-1.25,1.37-.08-1.09.86-1.88S53.19,363.85,53.16,364Z" transform="translate(-2.32 -4.22)"/><path class="cls-6" d="M54.38,369.15c-.17,0-.23-.95.41-1.85s1.53-1.13,1.58-1-.57.59-1.08,1.34S54.55,369.17,54.38,369.15Z" transform="translate(-2.32 -4.22)"/><path class="cls-6" d="M50.27,357.17c-.11.15-.86-.27-1.86-.41s-1.83,0-1.89-.16.81-.66,2-.48S50.38,357,50.27,357.17Z" transform="translate(-2.32 -4.22)"/><path class="cls-11" d="M41.32,347.65l0,19.59s19.1,6.55,19.44,10.17l-36.42,1.41L23.13,348.3Z" transform="translate(-2.32 -4.22)"/><path class="cls-2" d="M30,366a1.55,1.55,0,0,0-1,1.81,1.43,1.43,0,0,0,1.71,1,1.65,1.65,0,0,0,1-1.92,1.46,1.46,0,0,0-1.89-.85" transform="translate(-2.32 -4.22)"/><g class="cls-12"><path class="cls-5" d="M24.36,378.82v-3.08l34.91-.2s1.65.67,1.51,1.87Z" transform="translate(-2.32 -4.22)"/></g><path class="cls-6" d="M41.92,367c0,.19-.88.3-1.74.93s-1.29,1.43-1.45,1.36.06-1.14,1.1-1.89S42,366.85,41.92,367Z" transform="translate(-2.32 -4.22)"/><path class="cls-6" d="M45.8,368.52c.05.18-.71.52-1.29,1.33s-.72,1.64-.9,1.64-.32-1,.41-2S45.79,368.34,45.8,368.52Z" transform="translate(-2.32 -4.22)"/><path class="cls-6" d="M48.14,373.2c-.16.05-.44-.87,0-1.9s1.24-1.47,1.32-1.32-.42.71-.75,1.57S48.32,373.18,48.14,373.2Z" transform="translate(-2.32 -4.22)"/><path class="cls-6" d="M41.44,362.56c-.07.17-.89-.05-1.89.06s-1.78.47-1.88.31.64-.85,1.82-1S41.53,362.41,41.44,362.56Z" transform="translate(-2.32 -4.22)"/><path class="cls-6" d="M12.64,205.69l.67,15.45,6.57,60s-1.22,29.32-2,45.88c-.71,14.38,2.53,39.22,2.53,39.22l23.17-1.09,4.71-83.54,2.91-52.11,7.94-24Z" transform="translate(-2.32 -4.22)"/><polygon class="cls-6" points="72.67 201.31 70.63 285.51 49.9 349.5 48.98 353.34 34.99 350.5 38.88 201.19 72.67 201.31"/><path class="cls-11" d="M51.13,230.15a1.44,1.44,0,0,1,0,.34c0,.26,0,.6,0,1,0,.93,0,2.25.06,3.94,0,3.43,0,8.38,0,14.51-.18,12.24-.76,29.15-2,47.79s-2.69,35.5-3.79,47.69c-.56,6.08-1,11-1.33,14.43-.16,1.69-.29,3-.38,3.93-.05.43-.08.76-.11,1s-.05.34-.05.34a1.55,1.55,0,0,1,0-.35c0-.25,0-.59.07-1,.07-.92.17-2.24.3-3.93.29-3.44.7-8.37,1.2-14.45,1-12.19,2.46-29,3.66-47.69S50.64,262.2,50.89,250c.11-6.12.18-11.07.18-14.5,0-1.69,0-3,0-3.94,0-.43,0-.77,0-1S51.13,230.15,51.13,230.15Z" transform="translate(-2.32 -4.22)"/><path class="cls-11" d="M30.2,206.4a4,4,0,0,1-.06.89,15,15,0,0,1-.56,2.37,15.69,15.69,0,0,1-4.25,6.66,14.81,14.81,0,0,1-6.87,3.55,12.07,12.07,0,0,1-2.33.27,2.59,2.59,0,0,1-.85,0c0-.09,1.22-.06,3.11-.53A15.53,15.53,0,0,0,25,216a16.33,16.33,0,0,0,4.25-6.43C30,207.66,30.11,206.39,30.2,206.4Z" transform="translate(-2.32 -4.22)"/><path class="cls-11" d="M51.7,209.06a1.2,1.2,0,1,1-1.25-1.18A1.22,1.22,0,0,1,51.7,209.06Z" transform="translate(-2.32 -4.22)"/><path class="cls-11" d="M72.57,219.84a7.64,7.64,0,0,1-1.7-1.52,19,19,0,0,1-3.12-4.61,19.9,19.9,0,0,1-1.69-5.37A8.37,8.37,0,0,1,65.9,206c.07,0,.16.88.46,2.27a23.53,23.53,0,0,0,1.78,5.22,23.05,23.05,0,0,0,3,4.61C72,219.19,72.62,219.79,72.57,219.84Z" transform="translate(-2.32 -4.22)"/><path class="cls-8" d="M51.61,85.33l-20-16L27.84,76S11.6,89.62,8.57,93.39l6.7,58.09s-3.17,30.87-3.35,33.3S10,208.48,10,208.48c-.18,4,3.2,8.74,3.84,8.71,0,0,3.08-4.2,6.57-4.06s27.38,5.68,27.38,5.68l28.39-8-5.58-58.75-2.71-39.36-3.15-15-5.92-5.62L55.7,82.31s-.79,12.45-1,12Z" transform="translate(-2.32 -4.22)"/><path class="cls-6" d="M28.4,77a7.81,7.81,0,0,0,.82,1.06c.56.65,1.38,1.58,2.43,2.69,2.09,2.24,5.14,5.15,8.45,8.43,1.63,1.62,3.16,3.19,4.49,4.67l.16.18.16-.18c2-2.31,3.48-4.5,4.6-6l1.3-1.7a3.27,3.27,0,0,0,.46-.63,3.65,3.65,0,0,0-.56.53c-.34.36-.82.91-1.41,1.62-1.18,1.42-2.68,3.57-4.7,5.82h.31c-1.33-1.51-2.86-3.1-4.49-4.73-3.32-3.28-6.39-6.15-8.54-8.31-1.08-1.08-1.93-2-2.53-2.58A7,7,0,0,0,28.4,77Z" transform="translate(-2.32 -4.22)"/><path class="cls-6" d="M65.52,181.49a.68.68,0,0,0,0-.23l-.06-.67q-.09-.93-.24-2.55c-.24-2.26-.58-5.46-1-9.39-.87-7.92-2.11-18.86-3.55-30.93s-2.83-23-3.93-30.9c-.54-3.94-1-7.13-1.38-9.33-.19-1.07-.33-1.91-.44-2.53l-.13-.65a.66.66,0,0,0-.06-.22,1,1,0,0,0,0,.23l.08.66c.09.62.21,1.47.36,2.54.3,2.25.72,5.43,1.23,9.35,1,7.9,2.35,18.83,3.79,30.91s2.75,23,3.69,30.91c.48,3.93.87,7.12,1.15,9.37l.33,2.54.1.66A.65.65,0,0,0,65.52,181.49Z" transform="translate(-2.32 -4.22)"/><g class="cls-13"><path d="M71.13,157.52c-2.13,1.24-4.61,1.75-6.7,3.06a24.55,24.55,0,0,0-4,3.49c-8.79,8.63-20,15.05-32.08,15.84-4.14.27-8.59-.24-11.8-3-1.76-1.51-3.07-3.92-2.52-6.22.68-2.81,3.64-4.18,6.25-5.17l24.37-9.2a108.52,108.52,0,0,1,15.63-5,54,54,0,0,1,10.91-1.19" transform="translate(-2.32 -4.22)"/></g><path class="cls-6" d="M45.28,194.73c.06.12,5.88-3.51,13-8.11s12.81-8.41,12.75-8.53-5.89,3.52-13,8.12S45.21,194.62,45.28,194.73Z" transform="translate(-2.32 -4.22)"/><path class="cls-6" d="M65,214A6.4,6.4,0,0,0,65,212.8c-.09-.88-.19-2-.31-3.29-.24-2.78-.43-6.62-.56-10.88s-.29-8.11-.42-10.9c-.07-1.32-.13-2.43-.18-3.31a6.45,6.45,0,0,0-.12-1.2,5.5,5.5,0,0,0-.06,1.21c0,.88,0,2,0,3.31.05,2.79.14,6.65.28,10.91s.37,8.12.7,10.89c.16,1.39.32,2.51.46,3.28A5.76,5.76,0,0,0,65,214Z" transform="translate(-2.32 -4.22)"/><g class="cls-13"><path d="M34.52,148.28c-2.44-8.24-2.65-17.82-2.8-26.39-1.22,6-2.48,15-3.42,21.25L30.89,149Z" transform="translate(-2.32 -4.22)"/></g><g class="cls-13"><path d="M54.74,94.32a3.66,3.66,0,0,1-1-.68c-.86-1.18-1.37-2.61-2.21-3.8a67.76,67.76,0,0,0-6,7.2c-3-3-6-6-8.78-9.27a70.85,70.85,0,0,1-6-8.31l14,14.25,6.86-8.38Z" transform="translate(-2.32 -4.22)"/></g><path class="cls-6" d="M55.42,86.63a20.29,20.29,0,0,0,1.4,3.1,6.64,6.64,0,0,0,2,2.74c.08-.08-.81-1.27-1.63-3A9.61,9.61,0,0,0,55.42,86.63Z" transform="translate(-2.32 -4.22)"/><path class="cls-6" d="M35.27,97.74a3.62,3.62,0,0,0-.5-.88A14.69,14.69,0,0,0,33,94.75a31.64,31.64,0,0,0-3-2.68A13.6,13.6,0,0,0,25.8,89.5a11.25,11.25,0,0,0-4.88-.29A33.17,33.17,0,0,0,17,90l-2.59.66a4.4,4.4,0,0,0-.93.31,4.62,4.62,0,0,0,1-.12c.62-.11,1.51-.29,2.61-.51s2.4-.54,3.86-.69a11.26,11.26,0,0,1,4.69.3,14,14,0,0,1,4.09,2.46c1.19.92,2.23,1.79,3,2.57A35.79,35.79,0,0,1,35.27,97.74Z" transform="translate(-2.32 -4.22)"/><path class="cls-9" d="M64.05,143.28,63.93,155S47.6,164,36.8,167.39,13.14,171,13.14,171l3.77-19.28Z" transform="translate(-2.32 -4.22)"/><path class="cls-9" d="M96.43,144.17a2.55,2.55,0,0,0-1.32-2.35C93.62,141,90.49,139,90.49,139l-9.25-.44-17.19,4.68L63.93,155s8.87.09,10.92-.08,7.68-2.35,7.68-2.35,9.64.82,10.08.25,1-1.24.38-1.61-8.09-2-8.09-2l4.93-.63s7.3,1.25,7.82,1,1.17-1.25.68-1.94l-.49-.7s.4-1.45-.84-1.94l-.7-.21Z" transform="translate(-2.32 -4.22)"/><path class="cls-10" d="M83.29,144.64a5.76,5.76,0,0,0,2.24.28,22.25,22.25,0,0,1,5.32.23,26.89,26.89,0,0,1,2.76,1.07,19.42,19.42,0,0,0,2.33.76,7.75,7.75,0,0,0,2.23.37,22,22,0,0,0-2.14-.67c-.66-.22-1.43-.49-2.27-.85a22.66,22.66,0,0,0-2.8-1.12,10.36,10.36,0,0,0-3-.26c-.92,0-1.73.12-2.42.15C84.15,144.69,83.3,144.57,83.29,144.64Z" transform="translate(-2.32 -4.22)"/><path class="cls-10" d="M84,141.9a4.53,4.53,0,0,0,2,.18,10.18,10.18,0,0,1,4.67.41c1.75.67,3.33,1.32,4.49,1.74a8.62,8.62,0,0,0,1.92.61,9.18,9.18,0,0,0-1.8-.91c-1.14-.5-2.7-1.19-4.47-1.87a7.16,7.16,0,0,0-2.66-.49c-.83,0-1.56.13-2.17.19C84.74,141.9,84,141.84,84,141.9Z" transform="translate(-2.32 -4.22)"/><path class="cls-8" d="M8.57,93.39S4,101.86,3.36,105.91s-.69,46.47.11,47.24a21.3,21.3,0,0,0,2.19,1.7s-4.38,1.21-2.93,3.56a41.89,41.89,0,0,0,2.88,4.08s1,7.8,1.83,8a59.67,59.67,0,0,1,5.62,2.7s13.15-8.2,14.2-12.27,3.59-12.23,3.59-12.23l-2.55-5.51,5.46-34.43S37,97.62,30.12,93.47,10.89,88.78,8.57,93.39Z" transform="translate(-2.32 -4.22)"/><path class="cls-6" d="M32.72,115.24a3.53,3.53,0,0,0-.12.52c-.06.37-.16.87-.27,1.51-.23,1.36-.56,3.29-1,5.72-.8,5-1.94,11.91-3.27,20.11v.07l0,.06c.8,1.76,1.66,3.61,2.54,5.52v-.17C29.48,152.46,28.27,156.7,27,161l-.23.55-.33.51a6.91,6.91,0,0,1-.74,1,11.67,11.67,0,0,1-.82.9c-.28.3-.58.58-.88.85a45.28,45.28,0,0,1-3.66,3.06c-2.47,1.9-5,3.59-7.34,5.12h.2c-1.2-.63-2.37-1.22-3.52-1.78-.58-.28-1.14-.55-1.73-.78l-.23-.08c-.06,0-.2-.05-.2-.07A.72.72,0,0,1,7.3,170a6.92,6.92,0,0,1-.3-.84,59.28,59.28,0,0,1-1.23-6.67v-.05l0,0c-.72-.9-1.37-1.79-2-2.63q-.43-.63-.81-1.23a3.83,3.83,0,0,1-.32-.59,1.62,1.62,0,0,1-.07-.61A2.57,2.57,0,0,1,4,155.66a8.91,8.91,0,0,1,1.68-.73l.17-.05-.14-.1c-.77-.51-1.33-.93-1.69-1.21a6,6,0,0,0-.55-.42.78.78,0,0,0,.11.13l.39.36c.35.3.89.74,1.65,1.28l0-.15a8.45,8.45,0,0,0-1.73.71,4.35,4.35,0,0,0-.94.66,2.07,2.07,0,0,0-.63,1.15,1.87,1.87,0,0,0,.07.74,5.67,5.67,0,0,0,.33.65c.25.4.52.82.81,1.25.57.86,1.21,1.75,1.93,2.67l0-.08a54.82,54.82,0,0,0,1.19,6.73,5.14,5.14,0,0,0,.31.91.93.93,0,0,0,.38.46,2.2,2.2,0,0,0,.23.08l.21.08c.56.22,1.13.49,1.7.77,1.14.56,2.31,1.17,3.5,1.8l.1.05.1-.06c2.41-1.53,4.91-3.21,7.4-5.12a47.52,47.52,0,0,0,3.7-3.08c.31-.28.61-.56.89-.86a10.78,10.78,0,0,0,.85-.93,7.85,7.85,0,0,0,.78-1c.12-.18.24-.36.35-.55l.26-.63c1.32-4.35,2.51-8.54,3.66-12.43l0-.09,0-.08L28.49,143l0,.13C29.78,135,30.85,128,31.62,123c.36-2.43.64-4.37.84-5.74.09-.64.16-1.14.21-1.52A2.65,2.65,0,0,0,32.72,115.24Z" transform="translate(-2.32 -4.22)"/><path class="cls-6" d="M5.44,154.7a2.07,2.07,0,0,0,.7.26,6.29,6.29,0,0,0,2,.22,3.29,3.29,0,0,0,1.38-.43,11.39,11.39,0,0,0,1.36-.9c.91-.7,1.83-1.53,2.85-2.33,2-1.62,4-3,5.33-4a15.66,15.66,0,0,0,2.18-1.71,14.89,14.89,0,0,0-2.37,1.42c-1.42.94-3.37,2.28-5.42,3.91-1,.8-2,1.66-2.83,2.35a5.33,5.33,0,0,1-2.51,1.35,7.26,7.26,0,0,1-1.95-.07C5.71,154.7,5.45,154.66,5.44,154.7Z" transform="translate(-2.32 -4.22)"/><path class="cls-6" d="M5.61,162.49a1.79,1.79,0,0,0,.87.17,4.39,4.39,0,0,0,2.35-.56,38.89,38.89,0,0,0,6.48-4.69,67.4,67.4,0,0,0,5.62-5.76c.68-.78,1.21-1.42,1.58-1.86a3.84,3.84,0,0,0,.53-.73,22.77,22.77,0,0,0-2.35,2.35C19.27,152.9,17.33,155,15,157a48.8,48.8,0,0,1-6.33,4.76,4.64,4.64,0,0,1-2.2.67A8.48,8.48,0,0,0,5.61,162.49Z" transform="translate(-2.32 -4.22)"/><g class="cls-13"><path d="M21.07,146A16.49,16.49,0,0,1,18,149.8l-5.51,5.48c-1.06,1.05-2.31,2.17-3.76,2a4.69,4.69,0,0,1-2-.88c-.58-.38-1.22-1-1.09-1.65a5.45,5.45,0,0,0,4.86-.76,16.43,16.43,0,0,0,1.68-1.56A43.89,43.89,0,0,1,21,146.15" transform="translate(-2.32 -4.22)"/></g><path class="cls-10" d="M63.13,155.15a5.75,5.75,0,0,0,1.14.09l3.1,0,4.6,0h2.72a7.31,7.31,0,0,0,1.45-.32l1.43-.43c2-.61,3.84-1.22,5.52-1.79H83c2.56.13,4.73.22,6.27.26l1.78,0a2,2,0,0,0,.65,0,2.6,2.6,0,0,0-.64-.11l-1.78-.16c-1.53-.12-3.7-.27-6.26-.43H83l-5.52,1.75-1.42.42a7.49,7.49,0,0,1-1.35.32l-2.71,0-4.6.09-3.1.1A5.14,5.14,0,0,0,63.13,155.15Z" transform="translate(-2.32 -4.22)"/></svg>