<svg id="Layer_1" data-name="Layer 1" xmlns="http://www.w3.org/2000/svg" viewBox="0 0 200 345"><defs><style>.cls-1{fill:#f5f5f5;}.cls-2{fill:#ececec;}.cls-3{fill:#e1e1e1;}.cls-4{fill:#fff;}.cls-5{opacity:0.5;}.cls-6{fill:#375a64;}.cls-7{opacity:0.3;}.cls-8{fill:#1a2e35;}.cls-9{fill:#ff735d;}.cls-10{opacity:0.1;}.cls-11{opacity:0.2;}.cls-12{fill:#ffc19d;}.cls-13{fill:#ff9c6a;}.cls-14{opacity:0.6;}</style></defs><path class="cls-1" d="M104.85,25.78C106.77,40.4,98,54,85.2,56.25S60.52,48.4,58.6,33.78,65.48,5.51,78.25,3.3,102.93,11.16,104.85,25.78Z" transform="translate(0 -3)"/><path class="cls-2" d="M99.35,26.73c1.46,11.14-5.24,21.54-15,23.22S65.57,44,64.11,32.83s5.24-21.54,15-23.23S97.88,15.59,99.35,26.73Z" transform="translate(0 -3)"/><path class="cls-3" d="M99.26,26.1a12.48,12.48,0,0,1-.78-2.35,23,23,0,0,0-2.85-5.85,19.56,19.56,0,0,0-2.82-3.27,17.67,17.67,0,0,0-3.9-2.74,15.45,15.45,0,0,0-2.33-1,14.82,14.82,0,0,0-2.53-.6,14.63,14.63,0,0,0-2.66-.16,16.11,16.11,0,0,0-2.74.32,17.38,17.38,0,0,0-2.66.81,18,18,0,0,0-2.44,1.23,17.39,17.39,0,0,0-2.18,1.59A16.43,16.43,0,0,0,69.5,16a20.24,20.24,0,0,0-2.81,4.15,21.78,21.78,0,0,0-1.62,4.2,24.4,24.4,0,0,0-.86,6.62,13.1,13.1,0,0,1,0,2.52A6.55,6.55,0,0,1,63.68,31a21.83,21.83,0,0,1,.46-7,22.38,22.38,0,0,1,1.56-4.53A21.26,21.26,0,0,1,68.6,15a18.12,18.12,0,0,1,2-2,17.33,17.33,0,0,1,2.32-1.74,16.77,16.77,0,0,1,2.63-1.36,17.35,17.35,0,0,1,2.87-.88,17.55,17.55,0,0,1,3-.34,16.15,16.15,0,0,1,2.88.2A15.38,15.38,0,0,1,87,9.49a15.79,15.79,0,0,1,2.48,1.09,18.3,18.3,0,0,1,4.11,3.05,20.1,20.1,0,0,1,2.86,3.61A20.31,20.31,0,0,1,99,23.56,6.71,6.71,0,0,1,99.26,26.1Z" transform="translate(0 -3)"/><path class="cls-3" d="M85.3,41.5,85.81,45l-2.73.52-.5-3.42a11.65,11.65,0,0,1-7.17-1.22l1-4.11A10,10,0,0,0,82,38l-.76-5.24c-3.15-.27-6.71-.79-7.36-5.28-.48-3.32,1.22-6.58,5.45-8L78.82,16l2.74-.52.49,3.42a11.12,11.12,0,0,1,5.83.86l-.81,4.12a10.14,10.14,0,0,0-4.42-.83l.77,5.33c3.15.24,6.65.77,7.29,5.19C91.18,36.87,89.51,40.08,85.3,41.5ZM80.57,28.15l-.64-4.46a2.5,2.5,0,0,0-1.69,2.71C78.4,27.49,79.3,27.94,80.57,28.15Zm5.79,6.66c-.15-1.09-1-1.54-2.28-1.79l.63,4.33A2.36,2.36,0,0,0,86.36,34.81Z" transform="translate(0 -3)"/><path class="cls-1" d="M152.75,48c1.18,9-4.22,17.35-12.06,18.7s-15.15-4.82-16.32-13.79,4.22-17.35,12-18.7S151.57,39,152.75,48Z" transform="translate(0 -3)"/><path class="cls-2" d="M149.37,48.59c.9,6.83-3.22,13.21-9.19,14.25s-11.54-3.67-12.44-10.51,3.22-13.22,9.19-14.25S148.47,41.75,149.37,48.59Z" transform="translate(0 -3)"/><path class="cls-3" d="M149.32,48.2a7.66,7.66,0,0,1-.49-1.45,13.78,13.78,0,0,0-1.74-3.58,12.18,12.18,0,0,0-1.73-2,10.82,10.82,0,0,0-2.4-1.68,9.66,9.66,0,0,0-3-1,9.78,9.78,0,0,0-1.63-.1,10.69,10.69,0,0,0-1.68.2,9.93,9.93,0,0,0-1.63.5,9.59,9.59,0,0,0-1.5.76,9.94,9.94,0,0,0-1.34,1A10.32,10.32,0,0,0,131.05,42a12.16,12.16,0,0,0-1.72,2.55,13.41,13.41,0,0,0-1,2.58,15.26,15.26,0,0,0-.52,4.06,8.07,8.07,0,0,1,0,1.54,4,4,0,0,1-.32-1.52,13.43,13.43,0,0,1,.28-4.27,13.93,13.93,0,0,1,1-2.78,13.07,13.07,0,0,1,1.78-2.78,11,11,0,0,1,1.22-1.25A10.87,10.87,0,0,1,133.15,39a10.19,10.19,0,0,1,1.61-.83,10.55,10.55,0,0,1,1.76-.54,10.26,10.26,0,0,1,1.81-.21,9.46,9.46,0,0,1,1.77.12,10.09,10.09,0,0,1,1.66.42,11.06,11.06,0,0,1,1.53.67,11.5,11.5,0,0,1,2.52,1.88,12.37,12.37,0,0,1,1.75,2.21,12.7,12.7,0,0,1,1.59,3.88A4.2,4.2,0,0,1,149.32,48.2Z" transform="translate(0 -3)"/><path class="cls-3" d="M140.75,57.65l.31,2.15-1.68.32-.3-2.1a7.16,7.16,0,0,1-4.4-.74l.59-2.53a6,6,0,0,0,3.45.75l-.47-3.22c-1.93-.16-4.12-.48-4.51-3.23-.3-2,.74-4,3.34-4.89L136.77,42l1.68-.32.3,2.1a6.82,6.82,0,0,1,3.58.53l-.5,2.53a6.13,6.13,0,0,0-2.71-.52l.47,3.28c1.94.14,4.09.47,4.48,3.18C144.36,54.81,143.33,56.78,140.75,57.65Zm-2.9-8.2-.4-2.73a1.53,1.53,0,0,0-1,1.66C136.51,49.05,137.07,49.33,137.85,49.45Zm3.55,4.1c-.1-.68-.63-.95-1.4-1.1l.39,2.66A1.47,1.47,0,0,0,141.4,53.55Z" transform="translate(0 -3)"/><path class="cls-1" d="M41.31,182.43C42.91,194.6,35.59,206,25,207.8S4.41,201.26,2.81,189.09s5.72-23.53,16.36-25.37S39.71,170.25,41.31,182.43Z" transform="translate(0 -3)"/><path class="cls-2" d="M36.73,183.22c1.22,9.28-4.36,17.93-12.46,19.34s-15.66-5-16.88-14.26S11.75,170.36,19.85,169,35.51,173.94,36.73,183.22Z" transform="translate(0 -3)"/><path class="cls-3" d="M36.66,182.69a10.52,10.52,0,0,1-.65-1.95,19.09,19.09,0,0,0-2.37-4.87,16.68,16.68,0,0,0-2.35-2.72A14.53,14.53,0,0,0,28,170.87a11.84,11.84,0,0,0-1.94-.81,12.13,12.13,0,0,0-2.1-.5,11.67,11.67,0,0,0-2.22-.14,13.06,13.06,0,0,0-4.49.94,14.43,14.43,0,0,0-2,1,15.82,15.82,0,0,0-1.81,1.32,15.23,15.23,0,0,0-1.56,1.55,16.81,16.81,0,0,0-2.34,3.45,19.14,19.14,0,0,0-1.35,3.5,20.48,20.48,0,0,0-.71,5.52,11.81,11.81,0,0,1,0,2.09A5.34,5.34,0,0,1,7,186.76a17.93,17.93,0,0,1,.38-5.8,18.26,18.26,0,0,1,1.3-3.78,17.08,17.08,0,0,1,2.41-3.76,15.55,15.55,0,0,1,1.65-1.7,16.32,16.32,0,0,1,1.94-1.45,14.15,14.15,0,0,1,2.19-1.13,15,15,0,0,1,2.39-.73,13.74,13.74,0,0,1,2.46-.28,12.64,12.64,0,0,1,2.39.16,12.89,12.89,0,0,1,2.26.57,14.26,14.26,0,0,1,2.07.91,15.32,15.32,0,0,1,3.42,2.55,16.89,16.89,0,0,1,4.53,8.26A6,6,0,0,1,36.66,182.69Z" transform="translate(0 -3)"/><path class="cls-3" d="M25,195.51l.42,2.93-2.27.43L22.77,196a9.62,9.62,0,0,1-6-1l.8-3.42a8.26,8.26,0,0,0,4.68,1l-.63-4.36c-2.63-.23-5.59-.66-6.13-4.39-.4-2.77,1-5.48,4.54-6.64l-.42-2.9,2.28-.43.41,2.85a9.14,9.14,0,0,1,4.85.72l-.67,3.43a8.31,8.31,0,0,0-3.68-.7l.64,4.44c2.62.2,5.54.64,6.07,4.32C29.93,191.66,28.54,194.34,25,195.51ZM21.1,184.4l-.54-3.71a2.07,2.07,0,0,0-1.4,2.25C19.29,183.86,20,184.22,21.1,184.4ZM25.92,190c-.13-.91-.86-1.28-1.9-1.49l.52,3.6A2,2,0,0,0,25.92,190Z" transform="translate(0 -3)"/><path class="cls-3" d="M169.62,219.5,50.74,177c-3.06-1.09-4.76-4.81-3.81-8.32L69.79,84.43C70.74,80.92,74,79,77,80.06l118.89,42.47c3,1.09,4.76,4.82,3.81,8.32l-22.86,84.28C175.93,218.64,172.68,220.59,169.62,219.5Z" transform="translate(0 -3)"/><path class="cls-4" d="M66.19,144.24,64,152.52l-.75-.27,2-7.52-1.7-.6.21-.76Z" transform="translate(0 -3)"/><path class="cls-4" d="M71.57,154.41l-.21.76-5.06-1.81.17-.6,3.91-2.3a2.74,2.74,0,0,0,1.53-1.7,1.69,1.69,0,0,0-1.27-2.15,2.25,2.25,0,0,0-2.22.22l-.39-.71a3,3,0,0,1,2.88-.27,2.47,2.47,0,0,1,1.78,3.09,3.38,3.38,0,0,1-1.88,2.16L67.6,153Z" transform="translate(0 -3)"/><path class="cls-4" d="M79.55,155.71l-1.44-.52-.59,2.18-.75-.27.59-2.18-4.07-1.45.17-.61,5.31-4.13.83.3-5.14,4,3.13,1.12.52-1.92.72.26-.52,1.91,1.44.52Z" transform="translate(0 -3)"/><path class="cls-4" d="M90.6,159.65l-1.44-.51-.59,2.18-.74-.27.59-2.18-4.07-1.45.17-.61,5.31-4.13.82.3-5.14,4,3.14,1.11.51-1.91.73.26-.52,1.91,1.44.52Z" transform="translate(0 -3)"/><path class="cls-4" d="M97,161.65a2.28,2.28,0,0,1-3.3,1.57,4,4,0,0,1-2.3-2l.55-.54a3.39,3.39,0,0,0,1.95,1.74c1.23.44,2.06,0,2.34-1s-.11-1.93-2-2.58l-1.53-.55,1.5-4,3.94,1.41-.2.76-3.3-1.18-1,2.55.92.33C96.82,158.9,97.38,160.18,97,161.65Z" transform="translate(0 -3)"/><path class="cls-4" d="M104.12,164.16a2.29,2.29,0,0,1-3.15,1.66c-1.92-.68-2.55-2.58-1.84-5.2.77-2.81,2.5-3.8,4.46-3.1a3.41,3.41,0,0,1,1.59,1.06l-.49.58a2.64,2.64,0,0,0-1.29-.89c-1.56-.55-2.87.24-3.48,2.48,0,.19-.1.43-.15.69a2.2,2.2,0,0,1,2.59-.63A2.67,2.67,0,0,1,104.12,164.16Zm-.74-.24a1.92,1.92,0,0,0-1.33-2.43,1.68,1.68,0,0,0-2.34,1.14,2,2,0,0,0,1.42,2.46A1.61,1.61,0,0,0,103.38,163.92Z" transform="translate(0 -3)"/><path class="cls-4" d="M114,167.78c-.37,1.38-1.54,2.13-3.28,1.51a4,4,0,0,1-2.31-2l.55-.55a3.39,3.39,0,0,0,2,1.76c1.2.43,2,0,2.31-1s-.16-1.86-1.5-2.34l-.52-.19.17-.62,2.78-2.16-3.69-1.32.21-.76,4.64,1.66-.17.6-2.84,2.22A2.54,2.54,0,0,1,114,167.78Z" transform="translate(0 -3)"/><path class="cls-4" d="M121.22,170.27a2.29,2.29,0,0,1-3.15,1.66c-1.92-.68-2.54-2.58-1.84-5.2.77-2.81,2.51-3.8,4.46-3.1a3.36,3.36,0,0,1,1.59,1.06l-.48.58a2.67,2.67,0,0,0-1.3-.89c-1.55-.56-2.86.23-3.47,2.48a6.52,6.52,0,0,0-.16.69,2.2,2.2,0,0,1,2.59-.63A2.66,2.66,0,0,1,121.22,170.27Zm-.74-.24a1.91,1.91,0,0,0-1.33-2.43,1.68,1.68,0,0,0-2.34,1.14,2,2,0,0,0,1.42,2.46A1.61,1.61,0,0,0,120.48,170Z" transform="translate(0 -3)"/><path class="cls-4" d="M129.43,166.83l-.16.6-5.1,6.6-.81-.29,5-6.46L124.66,166l-.42,1.55-.73-.27.63-2.3Z" transform="translate(0 -3)"/><path class="cls-4" d="M139.75,170.51l-.17.61-5.1,6.59-.8-.28,5-6.46L135,169.64l-.42,1.55-.73-.26.63-2.31Z" transform="translate(0 -3)"/><path class="cls-4" d="M145.22,179c-.39,1.47-1.72,2-3.44,1.38s-2.54-1.91-2.14-3.37a1.91,1.91,0,0,1,1.94-1.54,2.14,2.14,0,0,1-.64-2.23c.37-1.34,1.6-1.83,3.12-1.28s2.32,1.75,1.95,3.1a1.74,1.74,0,0,1-1.65,1.4A2.33,2.33,0,0,1,145.22,179Zm-.75-.28c.27-1-.32-1.93-1.6-2.39s-2.2-.08-2.48.93.3,1.94,1.58,2.4S144.19,179.77,144.47,178.74Zm-1.41-3.06c1.12.4,1.95.06,2.19-.84a1.79,1.79,0,0,0-1.39-2.14c-1.09-.39-1.93-.07-2.18.85S141.93,175.28,143.06,175.68Z" transform="translate(0 -3)"/><path class="cls-4" d="M152.75,179.62c-.77,2.82-2.51,3.8-4.46,3.11a3.43,3.43,0,0,1-1.59-1.07l.48-.57a2.73,2.73,0,0,0,1.3.89c1.56.55,2.87-.24,3.48-2.49,0-.18.1-.42.15-.68a2.2,2.2,0,0,1-2.59.63,2.67,2.67,0,0,1-1.76-3.35,2.29,2.29,0,0,1,3.15-1.66C152.83,175.11,153.46,177,152.75,179.62Zm-.58-2a2,2,0,0,0-1.42-2.45,1.61,1.61,0,0,0-2.25,1.17,1.92,1.92,0,0,0,1.33,2.43A1.69,1.69,0,0,0,152.17,177.61Z" transform="translate(0 -3)"/><path class="cls-4" d="M161.16,178.17l-2.24,8.27-.74-.26,2-7.52-1.7-.61.2-.76Z" transform="translate(0 -3)"/><path class="cls-4" d="M166.54,188.34l-.2.76-5.06-1.81.16-.61,3.91-2.3a2.76,2.76,0,0,0,1.53-1.69,1.71,1.71,0,0,0-1.27-2.16,2.28,2.28,0,0,0-2.22.22L163,180a3.06,3.06,0,0,1,2.88-.27,2.49,2.49,0,0,1,1.79,3.09,3.42,3.42,0,0,1-1.89,2.17l-3.2,1.89Z" transform="translate(0 -3)"/><path class="cls-4" d="M173.45,189c-.37,1.38-1.54,2.13-3.28,1.51a4,4,0,0,1-2.31-2l.55-.54a3.41,3.41,0,0,0,2,1.75c1.2.43,2,0,2.31-1s-.16-1.86-1.5-2.34l-.52-.19.17-.62,2.78-2.16-3.69-1.32.21-.76,4.64,1.66-.17.6-2.84,2.22A2.54,2.54,0,0,1,173.45,189Z" transform="translate(0 -3)"/><polygon class="cls-4" points="115.75 174.74 114.77 178.34 172.55 198.98 173.53 195.38 115.75 174.74"/><polygon class="cls-4" points="141.95 191.97 140.97 195.57 170.61 206.16 171.58 202.56 141.95 191.97"/><g class="cls-5"><path class="cls-2" d="M84.74,143,67,136.69a4,4,0,0,1-2.23-4.87l3.63-13.36a3.33,3.33,0,0,1,4.24-2.56l17.77,6.35a4,4,0,0,1,2.23,4.87L89,140.48A3.34,3.34,0,0,1,84.74,143Z" transform="translate(0 -3)"/></g><path class="cls-3" d="M65.29,129.78l.36-1.34,12.48,4.46a2.69,2.69,0,0,0,3.43-2.06,3.24,3.24,0,0,0-1.8-3.93l-12.48-4.46.36-1.34,12.48,4.46a4.7,4.7,0,0,1,2.6,5.68c-.65,2.39-2.87,3.73-5,3Z" transform="translate(0 -3)"/><polygon class="cls-3" points="81.96 128.71 82.32 127.38 90.89 130.44 90.53 131.77 81.96 128.71"/><polygon class="cls-4" points="137.55 124.08 75.2 101.81 76.87 95.67 139.22 117.94 137.55 124.08"/><path class="cls-4" d="M179.05,146.44l-8.45-3a2.54,2.54,0,0,1-1.41-3.09l2.63-9.69a2.11,2.11,0,0,1,2.69-1.62l8.44,3a2.55,2.55,0,0,1,1.42,3.09l-2.63,9.69A2.12,2.12,0,0,1,179.05,146.44Z" transform="translate(0 -3)"/><rect class="cls-6" x="3.05" y="223.88" width="107.3" height="107.93" rx="8.76"/><g class="cls-7"><path d="M3.05,297.66H42.14a2.94,2.94,0,0,0,2.72-3.12H3.16Z" transform="translate(0 -3)"/></g><path class="cls-6" d="M43.07,294.92H3.58A3.67,3.67,0,0,1,.18,291v-20.2a3.68,3.68,0,0,1,3.4-3.91H43.07a3.69,3.69,0,0,1,3.4,3.91V291A3.68,3.68,0,0,1,43.07,294.92Z" transform="translate(0 -3)"/><path class="cls-8" d="M43.07,294.92a3.57,3.57,0,0,0,1.32-.35,3.62,3.62,0,0,0,1.29-1.15A4.23,4.23,0,0,0,46.4,291c0-4,0-9.65-.06-16.67v-2.7c0-.46,0-.93,0-1.38a4.25,4.25,0,0,0-.38-1.29,3.42,3.42,0,0,0-1.85-1.74,3.29,3.29,0,0,0-1.26-.18H41.47L30,267.1l-26.38,0A3.15,3.15,0,0,0,.83,268.9a4,4,0,0,0-.47,1.78c0,.64,0,1.31,0,2v15.17c0,1.21,0,2.45,0,3.6a3.84,3.84,0,0,0,1.5,2.75,2.9,2.9,0,0,0,1.34.55c.47.05,1,0,1.47,0h8.52l10,0,14.52.06,3.95,0,1,0,.35,0a2.37,2.37,0,0,1-.35,0l-1,0-3.95,0-14.52.07-10,0H4.67c-.5,0-1,0-1.5,0a3.33,3.33,0,0,1-1.49-.6,4.21,4.21,0,0,1-1.65-3c0-1.23,0-2.41,0-3.64,0-2.43,0-4.92,0-7.45v-7.72c0-.66,0-1.31,0-2a4.43,4.43,0,0,1,.51-2,3.52,3.52,0,0,1,3.06-2H30l11.51,0h1.34a3.49,3.49,0,0,1,1.35.2,3.68,3.68,0,0,1,2,1.9,4.32,4.32,0,0,1,.4,1.4,13.7,13.7,0,0,1,0,1.42c0,.92,0,1.82,0,2.7,0,7,0,12.71-.05,16.67a4.32,4.32,0,0,1-.78,2.45,3.64,3.64,0,0,1-1.34,1.16,3.06,3.06,0,0,1-1,.27Z" transform="translate(0 -3)"/><g class="cls-7"><ellipse cx="35.06" cy="280.95" rx="6.85" ry="7.86"/></g><ellipse class="cls-2" cx="35.06" cy="278.21" rx="6.85" ry="7.86"/><path class="cls-8" d="M41.91,281.21s0-.7-.28-1.9a8,8,0,0,0-2.5-4.23,6.37,6.37,0,0,0-2.83-1.42,5.86,5.86,0,0,0-3.52.35,6,6,0,0,0-1.69,1,7.2,7.2,0,0,0-1.41,1.63,8.54,8.54,0,0,0,0,9.06,7,7,0,0,0,1.41,1.64,6.17,6.17,0,0,0,5.21,1.39,6.37,6.37,0,0,0,2.83-1.42,8,8,0,0,0,2.5-4.23c.27-1.2.23-1.91.28-1.91a6.77,6.77,0,0,1-.15,1.94,8,8,0,0,1-2.48,4.43,6.59,6.59,0,0,1-2.93,1.53,6.21,6.21,0,0,1-3.68-.33,6.37,6.37,0,0,1-1.78-1.09A7.08,7.08,0,0,1,29.4,286a9,9,0,0,1,0-9.53,7.08,7.08,0,0,1,1.49-1.71,6.37,6.37,0,0,1,1.78-1.09,6.21,6.21,0,0,1,3.68-.33,6.59,6.59,0,0,1,2.93,1.53,8,8,0,0,1,2.48,4.43A6.7,6.7,0,0,1,41.91,281.21Z" transform="translate(0 -3)"/><ellipse class="cls-9" cx="152.24" cy="227.8" rx="23.8" ry="27.31"/><g class="cls-10"><path class="cls-4" d="M143.7,205.31c-12.27,5.41-18.39,21.21-13.68,35.3,0,0,15.88-6.09,17.22-15S143.7,205.31,143.7,205.31Z" transform="translate(0 -3)"/></g><ellipse class="cls-9" cx="151.75" cy="227.55" rx="18.09" ry="20.76"/><g class="cls-11"><ellipse cx="151.75" cy="227.55" rx="18.09" ry="20.76"/></g><path class="cls-9" d="M169.39,223.7c3.54,10.56-1,22.41-10.26,26.47S139.6,249,136.06,238.4s1.06-22.41,10.26-26.47S165.85,213.14,169.39,223.7Z" transform="translate(0 -3)"/><g class="cls-11"><path class="cls-4" d="M169.39,223.7c3.54,10.56-1,22.41-10.26,26.47S139.6,249,136.06,238.4s1.06-22.41,10.26-26.47S165.85,213.14,169.39,223.7Z" transform="translate(0 -3)"/></g><path class="cls-9" d="M152.83,229.1l-1.63-4.89h0a8.06,8.06,0,0,1,2.49-.32,6.25,6.25,0,0,1,1.32.3V224l.07-2.05,0-.47-1.07-.58-.3.35a7.34,7.34,0,0,0-3.43.34l-.9-2.69-1-.36.23.68-1,.44.92,2.74c-3.17,1.82-4,4.66-3.18,7.14,1.13,3.36,3.93,3.13,6.49,2.75l1.63,4.85a7.7,7.7,0,0,1-4.84,0l-.13,2.87a8.73,8.73,0,0,0,5.85-.28l.68,2-.82.38,1,.27,1.73-.76-.91-2.71c3.19-1.86,4.05-4.69,3.23-7.16C158.24,228.44,155.4,228.72,152.83,229.1Zm-1.9.26c-1.36.12-2.45,0-2.84-1.17s0-2.22,1.4-3.15Zm.26-5.16Zm4.06,12.12L153.82,232c1.4-.14,2.52,0,2.92,1.19C157.09,234.26,156.71,235.38,155.25,236.32Z" transform="translate(0 -3)"/><g class="cls-7"><path d="M152.83,229.1l-1.63-4.89h0a8.06,8.06,0,0,1,2.49-.32,6.25,6.25,0,0,1,1.32.3V224l.07-2.05,0-.47-1.07-.58-.3.35a7.34,7.34,0,0,0-3.43.34l-.9-2.69-1-.36.23.68-1,.44.92,2.74c-3.17,1.82-4,4.66-3.18,7.14,1.13,3.36,3.93,3.13,6.49,2.75l1.63,4.85a7.7,7.7,0,0,1-4.84,0l-.13,2.87a8.73,8.73,0,0,0,5.85-.28l.68,2-.82.38,1,.27,1.73-.76-.91-2.71c3.19-1.86,4.05-4.69,3.23-7.16C158.24,228.44,155.4,228.72,152.83,229.1Zm-1.9.26c-1.36.12-2.45,0-2.84-1.17s0-2.22,1.4-3.15Zm.26-5.16Zm4.06,12.12L153.82,232c1.4-.14,2.52,0,2.92,1.19C157.09,234.26,156.71,235.38,155.25,236.32Z" transform="translate(0 -3)"/></g><path class="cls-9" d="M155.2,238.62l.91,2.71-1.73.77-.9-2.69a8.79,8.79,0,0,1-5.85.27l.13-2.87a7.63,7.63,0,0,0,4.84,0L151,231.94c-2.56.38-5.36.62-6.49-2.75-.83-2.48,0-5.32,3.18-7.14l-.92-2.74,1.74-.76.9,2.69a8.49,8.49,0,0,1,4.78-.42l0,2.83a8.41,8.41,0,0,0-3.86.2l1.65,4.9c2.56-.38,5.4-.66,6.53,2.71C159.26,233.93,158.39,236.77,155.2,238.62ZM150,229l-1.44-4.32c-1.41.93-1.75,2.08-1.4,3.15S148.63,229.13,150,229Zm5.81,3.86c-.4-1.19-1.52-1.33-2.92-1.19l1.44,4.29C155.77,235,156.15,233.91,155.8,232.87Z" transform="translate(0 -3)"/><path class="cls-4" d="M137.33,251.11s-.07-.05-.17-.15l-.47-.46c-.2-.2-.44-.46-.7-.77s-.58-.66-.89-1.08l-.49-.65c-.18-.23-.33-.48-.51-.73-.36-.5-.69-1.08-1-1.68a29.25,29.25,0,0,1-3.24-8.65c-.13-.71-.27-1.38-.34-2,0-.32-.09-.63-.12-.93s0-.58-.07-.85c-.06-.55-.06-1-.07-1.48a10.38,10.38,0,0,1,0-1.12l0-.71a1.1,1.1,0,0,1,0-.24,1.1,1.1,0,0,1,0,.24v.71c0,.31,0,.68,0,1.11s0,.93.09,1.47l.09.85c0,.3.08.61.12.92.08.64.22,1.31.36,2a33.62,33.62,0,0,0,1.3,4.45,32.72,32.72,0,0,0,1.92,4.14c.35.59.68,1.17,1,1.67.17.26.32.51.49.74l.48.66c.3.42.61.77.87,1.09s.49.58.68.79l.44.49A2.21,2.21,0,0,1,137.33,251.11Z" transform="translate(0 -3)"/><path class="cls-4" d="M146.6,230.58a1.4,1.4,0,0,1-.68-.35,3.24,3.24,0,0,1-1.09-1.62,3.73,3.73,0,0,1,0-2.05,1.92,1.92,0,0,1,.35-.75s-.12.3-.23.79a3.92,3.92,0,0,0,.06,1.94,3.58,3.58,0,0,0,1,1.58C146.35,230.43,146.61,230.54,146.6,230.58Z" transform="translate(0 -3)"/><path class="cls-4" d="M147.88,221.49a3.87,3.87,0,0,1-.53-1.59c.05,0,.2.32.35.76A1.93,1.93,0,0,1,147.88,221.49Z" transform="translate(0 -3)"/><path class="cls-4" d="M146.62,210l-.55.22c-.18.06-.4.13-.65.24s-.54.21-.84.36-.65.3-1,.49-.73.42-1.12.65a19.73,19.73,0,0,0-2.4,1.8,22.88,22.88,0,0,0-2.13,2.19c-.29.37-.58.72-.83,1.07s-.47.68-.67,1-.37.59-.52.84a7.06,7.06,0,0,0-.37.65,3.67,3.67,0,0,1-.33.56,5.23,5.23,0,0,1,.27-.6c.09-.19.2-.42.34-.67s.3-.56.51-.87a11.41,11.41,0,0,1,.66-1c.24-.36.53-.72.82-1.1a22.12,22.12,0,0,1,2.14-2.23,18.8,18.8,0,0,1,2.43-1.79c.4-.24.77-.46,1.13-.64s.71-.34,1-.48.61-.24.86-.33a5.4,5.4,0,0,1,.66-.21A3.85,3.85,0,0,1,146.62,210Z" transform="translate(0 -3)"/><path class="cls-4" d="M163,253.79a1.82,1.82,0,0,1-.35.29,10.09,10.09,0,0,1-1,.71,16.09,16.09,0,0,1-3.67,1.68,15.14,15.14,0,0,1-3.9.67,11.22,11.22,0,0,1-1.2,0,2.19,2.19,0,0,1-.44-.05,1.3,1.3,0,0,1,.44,0c.28,0,.69,0,1.19-.05a17.54,17.54,0,0,0,3.87-.73,18,18,0,0,0,3.65-1.61c.45-.26.81-.48,1.05-.64A1.82,1.82,0,0,1,163,253.79Z" transform="translate(0 -3)"/><rect class="cls-9" x="100.48" y="266.44" width="50.39" height="11.66" transform="translate(251.34 541.55) rotate(180)"/><path class="cls-8" d="M147.63,266.64a36.7,36.7,0,0,0-.22,5.65,36.7,36.7,0,0,0,.22,5.65,36.7,36.7,0,0,0,.22-5.65A36.7,36.7,0,0,0,147.63,266.64Z" transform="translate(0 -3)"/><path class="cls-8" d="M143,266.64a35.25,35.25,0,0,0-.22,5.65,35.25,35.25,0,0,0,.22,5.65,37.54,37.54,0,0,0,.21-5.65A37.54,37.54,0,0,0,143,266.64Z" transform="translate(0 -3)"/><path class="cls-8" d="M138.34,266.64a36.7,36.7,0,0,0-.22,5.65,36.7,36.7,0,0,0,.22,5.65,36.7,36.7,0,0,0,.22-5.65A36.7,36.7,0,0,0,138.34,266.64Z" transform="translate(0 -3)"/><path class="cls-8" d="M133.74,266.64a37.54,37.54,0,0,0-.21,5.65,37.54,37.54,0,0,0,.21,5.65,35.25,35.25,0,0,0,.22-5.65A35.25,35.25,0,0,0,133.74,266.64Z" transform="translate(0 -3)"/><path class="cls-8" d="M129.15,266.64a36.7,36.7,0,0,0-.22,5.65,36.7,36.7,0,0,0,.22,5.65,36.7,36.7,0,0,0,.22-5.65A36.7,36.7,0,0,0,129.15,266.64Z" transform="translate(0 -3)"/><path class="cls-8" d="M124.56,266.64a36.7,36.7,0,0,0-.22,5.65,36.7,36.7,0,0,0,.22,5.65,36.7,36.7,0,0,0,.22-5.65A36.7,36.7,0,0,0,124.56,266.64Z" transform="translate(0 -3)"/><path class="cls-8" d="M120,266.64a36.7,36.7,0,0,0-.22,5.65,36.7,36.7,0,0,0,.22,5.65,36.7,36.7,0,0,0,.22-5.65A36.7,36.7,0,0,0,120,266.64Z" transform="translate(0 -3)"/><path class="cls-8" d="M115.37,266.64a37.54,37.54,0,0,0-.21,5.65,37.54,37.54,0,0,0,.21,5.65,36.7,36.7,0,0,0,.22-5.65A36.7,36.7,0,0,0,115.37,266.64Z" transform="translate(0 -3)"/><path class="cls-8" d="M110.78,266.64a36.7,36.7,0,0,0-.22,5.65,36.7,36.7,0,0,0,.22,5.65,36.7,36.7,0,0,0,.22-5.65A36.7,36.7,0,0,0,110.78,266.64Z" transform="translate(0 -3)"/><path class="cls-8" d="M106.19,266.64a36.7,36.7,0,0,0-.22,5.65,36.7,36.7,0,0,0,.22,5.65,36.7,36.7,0,0,0,.22-5.65A36.7,36.7,0,0,0,106.19,266.64Z" transform="translate(0 -3)"/><path class="cls-8" d="M101.6,266.64a36.7,36.7,0,0,0-.22,5.65,36.7,36.7,0,0,0,.22,5.65,37.54,37.54,0,0,0,.21-5.65A37.54,37.54,0,0,0,101.6,266.64Z" transform="translate(0 -3)"/><g class="cls-7"><path d="M150.06,266.45a160.2,160.2,0,0,1-48.78,0Z" transform="translate(0 -3)"/></g><path class="cls-8" d="M100.46,266.48c0,.14,11.27.25,25.15.25s25.15-.11,25.15-.25-11.25-.25-25.15-.25S100.46,266.34,100.46,266.48Z" transform="translate(0 -3)"/><rect class="cls-9" x="99.35" y="277.91" width="50.39" height="11.66" transform="translate(249.08 564.48) rotate(180)"/><path class="cls-8" d="M146.5,278.1a35.32,35.32,0,0,0-.22,5.66,35.25,35.25,0,0,0,.22,5.65,37.54,37.54,0,0,0,.21-5.65A37.63,37.63,0,0,0,146.5,278.1Z" transform="translate(0 -3)"/><path class="cls-8" d="M141.82,278.1a72.79,72.79,0,0,0,0,11.31,72.79,72.79,0,0,0,0-11.31Z" transform="translate(0 -3)"/><path class="cls-8" d="M137.21,278.1a35.32,35.32,0,0,0-.22,5.66,35.25,35.25,0,0,0,.22,5.65,37.54,37.54,0,0,0,.21-5.65A37.63,37.63,0,0,0,137.21,278.1Z" transform="translate(0 -3)"/><path class="cls-8" d="M132.61,278.1a72.79,72.79,0,0,0,0,11.31,72.79,72.79,0,0,0,0-11.31Z" transform="translate(0 -3)"/><path class="cls-8" d="M128,278.1a72.79,72.79,0,0,0,0,11.31,72.79,72.79,0,0,0,0-11.31Z" transform="translate(0 -3)"/><path class="cls-8" d="M123.43,278.1a72.79,72.79,0,0,0,0,11.31,72.79,72.79,0,0,0,0-11.31Z" transform="translate(0 -3)"/><path class="cls-8" d="M118.83,278.1a37.63,37.63,0,0,0-.21,5.66,37.54,37.54,0,0,0,.21,5.65,35.25,35.25,0,0,0,.22-5.65A35.32,35.32,0,0,0,118.83,278.1Z" transform="translate(0 -3)"/><path class="cls-8" d="M114.24,278.1a72.79,72.79,0,0,0,0,11.31,72.79,72.79,0,0,0,0-11.31Z" transform="translate(0 -3)"/><path class="cls-8" d="M109.65,278.1a72.79,72.79,0,0,0,0,11.31,72.79,72.79,0,0,0,0-11.31Z" transform="translate(0 -3)"/><path class="cls-8" d="M105.06,278.1a72.79,72.79,0,0,0,0,11.31,72.79,72.79,0,0,0,0-11.31Z" transform="translate(0 -3)"/><path class="cls-8" d="M100.46,278.1a37.63,37.63,0,0,0-.21,5.66,37.54,37.54,0,0,0,.21,5.65,72.79,72.79,0,0,0,0-11.31Z" transform="translate(0 -3)"/><g class="cls-7"><path d="M148.92,277.92a160.14,160.14,0,0,1-48.77,0Z" transform="translate(0 -3)"/></g><path class="cls-8" d="M99.33,278c0,.13,11.26.25,25.15.25s25.15-.12,25.15-.25-11.26-.26-25.15-.26S99.33,277.81,99.33,278Z" transform="translate(0 -3)"/><rect class="cls-9" x="104.13" y="289.19" width="50.39" height="11.66" transform="translate(258.65 587.05) rotate(180)"/><path class="cls-8" d="M151.28,289.39a72.66,72.66,0,0,0,0,11.3,72.66,72.66,0,0,0,0-11.3Z" transform="translate(0 -3)"/><path class="cls-8" d="M146.61,289.39a72.66,72.66,0,0,0,0,11.3,72.66,72.66,0,0,0,0-11.3Z" transform="translate(0 -3)"/><path class="cls-8" d="M142,289.39a72.66,72.66,0,0,0,0,11.3,72.66,72.66,0,0,0,0-11.3Z" transform="translate(0 -3)"/><path class="cls-8" d="M137.4,289.39a72.66,72.66,0,0,0,0,11.3,72.66,72.66,0,0,0,0-11.3Z" transform="translate(0 -3)"/><path class="cls-8" d="M132.8,289.39a76.11,76.11,0,0,0,0,11.3,72.66,72.66,0,0,0,0-11.3Z" transform="translate(0 -3)"/><path class="cls-8" d="M128.21,289.39a72.66,72.66,0,0,0,0,11.3,72.66,72.66,0,0,0,0-11.3Z" transform="translate(0 -3)"/><path class="cls-8" d="M123.62,289.39a72.66,72.66,0,0,0,0,11.3,72.66,72.66,0,0,0,0-11.3Z" transform="translate(0 -3)"/><path class="cls-8" d="M119,289.39a72.66,72.66,0,0,0,0,11.3,72.66,72.66,0,0,0,0-11.3Z" transform="translate(0 -3)"/><path class="cls-8" d="M114.43,289.39a72.66,72.66,0,0,0,0,11.3,72.66,72.66,0,0,0,0-11.3Z" transform="translate(0 -3)"/><path class="cls-8" d="M109.84,289.39a72.66,72.66,0,0,0,0,11.3,72.66,72.66,0,0,0,0-11.3Z" transform="translate(0 -3)"/><path class="cls-8" d="M105.25,289.39a72.66,72.66,0,0,0,0,11.3,72.66,72.66,0,0,0,0-11.3Z" transform="translate(0 -3)"/><g class="cls-7"><path d="M153.71,289.21a160.52,160.52,0,0,1-48.78,0Z" transform="translate(0 -3)"/></g><path class="cls-8" d="M104.12,289.23c0,.14,11.26.25,25.15.25s25.15-.11,25.15-.25-11.26-.25-25.15-.25S104.12,289.09,104.12,289.23Z" transform="translate(0 -3)"/><rect class="cls-9" x="98.23" y="300.77" width="50.39" height="11.21" transform="translate(246.84 609.75) rotate(180)"/><path class="cls-8" d="M145.38,301a67.37,67.37,0,0,0,0,10.88,67.37,67.37,0,0,0,0-10.88Z" transform="translate(0 -3)"/><path class="cls-8" d="M140.7,301a70.57,70.57,0,0,0,0,10.88,67.37,67.37,0,0,0,0-10.88Z" transform="translate(0 -3)"/><path class="cls-8" d="M136.09,301a67.37,67.37,0,0,0,0,10.88,67.37,67.37,0,0,0,0-10.88Z" transform="translate(0 -3)"/><path class="cls-8" d="M131.49,301a70.57,70.57,0,0,0,0,10.88,67.37,67.37,0,0,0,0-10.88Z" transform="translate(0 -3)"/><path class="cls-8" d="M126.9,301a67.37,67.37,0,0,0,0,10.88,67.37,67.37,0,0,0,0-10.88Z" transform="translate(0 -3)"/><path class="cls-8" d="M122.31,301a67.37,67.37,0,0,0,0,10.88,67.37,67.37,0,0,0,0-10.88Z" transform="translate(0 -3)"/><path class="cls-8" d="M117.72,301a67.37,67.37,0,0,0,0,10.88,70.57,70.57,0,0,0,0-10.88Z" transform="translate(0 -3)"/><path class="cls-8" d="M113.12,301a67.37,67.37,0,0,0,0,10.88,67.37,67.37,0,0,0,0-10.88Z" transform="translate(0 -3)"/><path class="cls-8" d="M108.53,301a67.37,67.37,0,0,0,0,10.88,67.37,67.37,0,0,0,0-10.88Z" transform="translate(0 -3)"/><path class="cls-8" d="M103.94,301a67.37,67.37,0,0,0,0,10.88,67.37,67.37,0,0,0,0-10.88Z" transform="translate(0 -3)"/><path class="cls-8" d="M99.35,301a67.37,67.37,0,0,0,0,10.88,70.57,70.57,0,0,0,0-10.88Z" transform="translate(0 -3)"/><g class="cls-7"><path d="M147.81,300.78a125.9,125.9,0,0,1-48.78,0Z" transform="translate(0 -3)"/></g><path class="cls-8" d="M98.21,300.8c0,.14,11.26.25,25.15.25s25.15-.11,25.15-.25-11.25-.25-25.15-.25S98.21,300.66,98.21,300.8Z" transform="translate(0 -3)"/><rect class="cls-9" x="101.47" y="311.99" width="50.39" height="11.21" transform="translate(253.32 632.19) rotate(180)"/><path class="cls-8" d="M148.62,312.18a67.24,67.24,0,0,0,0,10.87,67.24,67.24,0,0,0,0-10.87Z" transform="translate(0 -3)"/><path class="cls-8" d="M143.94,312.18a70.44,70.44,0,0,0,0,10.87,67.24,67.24,0,0,0,0-10.87Z" transform="translate(0 -3)"/><path class="cls-8" d="M139.33,312.18a67.24,67.24,0,0,0,0,10.87,67.24,67.24,0,0,0,0-10.87Z" transform="translate(0 -3)"/><path class="cls-8" d="M134.73,312.18a70.44,70.44,0,0,0,0,10.87,67.24,67.24,0,0,0,0-10.87Z" transform="translate(0 -3)"/><path class="cls-8" d="M130.14,312.18a67.24,67.24,0,0,0,0,10.87,67.24,67.24,0,0,0,0-10.87Z" transform="translate(0 -3)"/><path class="cls-8" d="M125.55,312.18a67.24,67.24,0,0,0,0,10.87,67.24,67.24,0,0,0,0-10.87Z" transform="translate(0 -3)"/><path class="cls-8" d="M121,312.18a67.24,67.24,0,0,0,0,10.87,70.44,70.44,0,0,0,0-10.87Z" transform="translate(0 -3)"/><path class="cls-8" d="M116.36,312.18a67.24,67.24,0,0,0,0,10.87,67.24,67.24,0,0,0,0-10.87Z" transform="translate(0 -3)"/><path class="cls-8" d="M111.77,312.18a67.24,67.24,0,0,0,0,10.87,67.24,67.24,0,0,0,0-10.87Z" transform="translate(0 -3)"/><path class="cls-8" d="M107.18,312.18a67.24,67.24,0,0,0,0,10.87,67.24,67.24,0,0,0,0-10.87Z" transform="translate(0 -3)"/><path class="cls-8" d="M102.59,312.18a67.24,67.24,0,0,0,0,10.87,70.44,70.44,0,0,0,0-10.87Z" transform="translate(0 -3)"/><g class="cls-7"><path d="M151.05,312a111.51,111.51,0,0,1-48.78,0Z" transform="translate(0 -3)"/></g><path class="cls-8" d="M101.45,312c0,.14,11.26.25,25.15.25s25.15-.11,25.15-.25-11.25-.25-25.15-.25S101.45,311.89,101.45,312Z" transform="translate(0 -3)"/><rect class="cls-9" x="98.59" y="323.05" width="50.39" height="11.21" transform="translate(247.57 654.32) rotate(180)"/><path class="cls-8" d="M145.74,323.24a67.24,67.24,0,0,0,0,10.87,67.24,67.24,0,0,0,0-10.87Z" transform="translate(0 -3)"/><path class="cls-8" d="M141.07,323.24a67.24,67.24,0,0,0,0,10.87,70.44,70.44,0,0,0,0-10.87Z" transform="translate(0 -3)"/><path class="cls-8" d="M136.45,323.24a67.24,67.24,0,0,0,0,10.87,67.24,67.24,0,0,0,0-10.87Z" transform="translate(0 -3)"/><path class="cls-8" d="M131.86,323.24a67.24,67.24,0,0,0,0,10.87,70.44,70.44,0,0,0,0-10.87Z" transform="translate(0 -3)"/><path class="cls-8" d="M127.26,323.24a67.24,67.24,0,0,0,0,10.87,67.24,67.24,0,0,0,0-10.87Z" transform="translate(0 -3)"/><path class="cls-8" d="M122.67,323.24a67.24,67.24,0,0,0,0,10.87,67.24,67.24,0,0,0,0-10.87Z" transform="translate(0 -3)"/><path class="cls-8" d="M118.08,323.24a67.24,67.24,0,0,0,0,10.87,67.24,67.24,0,0,0,0-10.87Z" transform="translate(0 -3)"/><path class="cls-8" d="M113.48,323.24a70.44,70.44,0,0,0,0,10.87,67.24,67.24,0,0,0,0-10.87Z" transform="translate(0 -3)"/><path class="cls-8" d="M108.89,323.24a67.24,67.24,0,0,0,0,10.87,67.24,67.24,0,0,0,0-10.87Z" transform="translate(0 -3)"/><path class="cls-8" d="M104.3,323.24a67.24,67.24,0,0,0,0,10.87,67.24,67.24,0,0,0,0-10.87Z" transform="translate(0 -3)"/><path class="cls-8" d="M99.71,323.24a67.24,67.24,0,0,0,0,10.87,67.24,67.24,0,0,0,0-10.87Z" transform="translate(0 -3)"/><g class="cls-7"><path d="M148.17,323.06a126.1,126.1,0,0,1-48.78,0Z" transform="translate(0 -3)"/></g><path class="cls-8" d="M98.57,323.09c0,.13,11.27.25,25.15.25s25.16-.12,25.16-.25-11.26-.26-25.16-.26S98.57,323,98.57,323.09Z" transform="translate(0 -3)"/><path class="cls-8" d="M149,334.27a.8.8,0,0,1,0-.2c0-.14,0-.33,0-.56,0-.52,0-1.25,0-2.18,0-1.93,0-4.69,0-8.13v-.12H149l2.77,0-.12.14c0-3.27,0-7.07,0-11.22l.15.17h-3.39V312c0-3.46,0-7.22,0-11.13v-.19h6.07l-.17.19c0-4.15,0-8.13,0-11.87l.16.18h-4.93V289c0-4.06,0-7.72,0-10.88V278h1.35l-.11.12c0-3.61,0-6.51,0-8.53,0-1,0-1.75,0-2.3,0-.24,0-.44,0-.59a1.57,1.57,0,0,1,0-.2s0,.07,0,.2,0,.35,0,.59c0,.55,0,1.32,0,2.3,0,2,.08,4.92.13,8.53v.13h-1.35l.12-.14c0,3.16,0,6.82,0,10.88l-.15-.17h4.94V289c0,3.74,0,7.72,0,11.87V301h-6.07l.17-.19c0,3.91,0,7.67,0,11.13l-.16-.18h3.39V312c0,4.15,0,7.95,0,11.22v.14H149l.11-.13c0,3.44,0,6.2-.05,8.13,0,.93,0,1.66,0,2.18,0,.23,0,.42,0,.56A1.57,1.57,0,0,1,149,334.27Z" transform="translate(0 -3)"/><path class="cls-9" d="M177.58,116.34c.4,13.13-8.56,24.15-20,24.6s-21-9.81-21.44-22.94,8.55-24.15,20-24.61S177.17,103.21,177.58,116.34Z" transform="translate(0 -3)"/><g class="cls-10"><path class="cls-4" d="M156.13,93.39c-11.44.46-20.39,11.48-20,24.61,0,0,14.58.16,17.88-6.71S156.13,93.39,156.13,93.39Z" transform="translate(0 -3)"/></g><path class="cls-9" d="M172.27,116.17c.3,10-6.5,18.36-15.2,18.71s-16-7.46-16.3-17.44,6.5-18.36,15.2-18.71S172,106.19,172.27,116.17Z" transform="translate(0 -3)"/><g class="cls-11"><path d="M172.27,116.17c.3,10-6.5,18.36-15.2,18.71s-16-7.46-16.3-17.44,6.5-18.36,15.2-18.71S172,106.19,172.27,116.17Z" transform="translate(0 -3)"/></g><path class="cls-9" d="M172.74,116.91c.3,9.85-6.42,18.11-15,18.45S142,128,141.66,118.16s6.41-18.12,15-18.46S172.43,107.06,172.74,116.91Z" transform="translate(0 -3)"/><g class="cls-11"><path class="cls-4" d="M172.74,116.91c.3,9.85-6.42,18.11-15,18.45S142,128,141.66,118.16s6.41-18.12,15-18.46S172.43,107.06,172.74,116.91Z" transform="translate(0 -3)"/></g><path class="cls-9" d="M157.77,116l-.14-4.56h0a6.91,6.91,0,0,1,2.13.55,6.23,6.23,0,0,1,1,.67l.05-.14.56-1.67.13-.38-.73-.83-.34.19a6.81,6.81,0,0,0-2.9-.84l-.08-2.5-.7-.61,0,.63-.94,0,.08,2.55c-3.06.47-4.46,2.54-4.39,4.84.1,3.14,2.47,3.86,4.67,4.39l.14,4.52a7,7,0,0,1-4-1.56l-.82,2.32a7.94,7.94,0,0,0,4.88,1.68l.06,1.89-.77,0,.79.57,1.62-.07-.08-2.53c3.08-.49,4.5-2.53,4.43-4.84C162.38,117.18,160,116.48,157.77,116Zm-1.63-.41c-1.15-.34-2-.8-2-1.89s.54-1.83,1.93-2.13Zm1.49-4.15Zm.34,11.3-.12-4c1.2.33,2.08.82,2.11,1.93S159.4,122.39,158,122.7Z" transform="translate(0 -3)"/><g class="cls-7"><path d="M157.77,116l-.14-4.56h0a6.91,6.91,0,0,1,2.13.55,6.23,6.23,0,0,1,1,.67l.05-.14.56-1.67.13-.38-.73-.83-.34.19a6.81,6.81,0,0,0-2.9-.84l-.08-2.5-.7-.61,0,.63-.94,0,.08,2.55c-3.06.47-4.46,2.54-4.39,4.84.1,3.14,2.47,3.86,4.67,4.39l.14,4.52a7,7,0,0,1-4-1.56l-.82,2.32a7.94,7.94,0,0,0,4.88,1.68l.06,1.89-.77,0,.79.57,1.62-.07-.08-2.53c3.08-.49,4.5-2.53,4.43-4.84C162.38,117.18,160,116.48,157.77,116Zm-1.63-.41c-1.15-.34-2-.8-2-1.89s.54-1.83,1.93-2.13Zm1.49-4.15Zm.34,11.3-.12-4c1.2.33,2.08.82,2.11,1.93S159.4,122.39,158,122.7Z" transform="translate(0 -3)"/></g><path class="cls-9" d="M157.36,124.57l.08,2.53-1.62.06-.07-2.5a7.89,7.89,0,0,1-4.89-1.69l.82-2.32a6.87,6.87,0,0,0,4,1.56l-.13-4.52c-2.21-.52-4.58-1.24-4.67-4.38-.07-2.31,1.32-4.38,4.38-4.84l-.07-2.56,1.61-.06.08,2.51a7.6,7.6,0,0,1,4,1.22l-.74,2.31a7.3,7.3,0,0,0-3.23-1.09l.14,4.57c2.21.52,4.62,1.22,4.71,4.36C161.86,122,160.44,124.08,157.36,124.57ZM155.45,115l-.12-4c-1.39.31-2,1.15-1.93,2.14S154.3,114.62,155.45,115Zm3.83,5.07c0-1.11-.92-1.59-2.11-1.93l.12,4C158.72,121.8,159.31,121,159.28,120Z" transform="translate(0 -3)"/><path class="cls-8" d="M157.46,135.55l.13,0,.37-.05.61-.06a5.73,5.73,0,0,0,.82-.13l1-.23a3.33,3.33,0,0,0,.57-.17l.62-.21a6.77,6.77,0,0,0,.66-.25l.67-.31c.24-.12.48-.21.72-.35l.72-.44a16.87,16.87,0,0,0,3-2.39l.72-.8c.12-.14.24-.27.36-.42l.34-.45c.22-.31.46-.61.68-.94s.41-.69.63-1l.15-.27c.05-.09.1-.18.14-.27l.28-.57c.09-.19.18-.38.28-.57a6.25,6.25,0,0,0,.24-.6c.15-.41.32-.81.47-1.23s.24-.87.37-1.31a22.53,22.53,0,0,0,.62-5.64,22.23,22.23,0,0,0-1-5.57c-.16-.43-.31-.85-.46-1.27s-.36-.8-.53-1.2c-.1-.19-.17-.4-.28-.58l-.32-.54-.31-.54-.15-.27-.18-.25-.68-1c-.24-.31-.5-.59-.74-.88l-.36-.43-.39-.38-.77-.75a16.63,16.63,0,0,0-3.13-2.14l-.75-.38c-.24-.12-.5-.19-.73-.29l-.7-.26a5.61,5.61,0,0,0-.67-.19l-.63-.16a4.35,4.35,0,0,0-.58-.13l-1-.14a4.2,4.2,0,0,0-.83-.06l-.61,0-.37,0h1a5.09,5.09,0,0,1,.84,0l1,.13a3.43,3.43,0,0,1,.59.12l.63.15a5.61,5.61,0,0,1,.67.19l.71.25c.24.1.49.17.74.29l.75.38a15.93,15.93,0,0,1,3.17,2.14l.78.74c.13.13.26.25.39.39s.25.28.37.43.51.57.74.89l.7,1,.17.25c.06.09.11.18.16.27l.32.54.31.56a5.23,5.23,0,0,1,.29.58c.18.4.37.79.54,1.2l.46,1.29a21.75,21.75,0,0,1,1,5.63,22.07,22.07,0,0,1-.63,5.69c-.12.45-.25.88-.37,1.32s-.32.83-.47,1.24c-.09.2-.15.42-.25.61s-.19.38-.28.57l-.28.57a2.49,2.49,0,0,1-.15.28l-.16.27-.63,1c-.22.34-.46.64-.69,1l-.34.46-.37.41-.72.81a17.37,17.37,0,0,1-3,2.39l-.74.43a7.92,7.92,0,0,1-.72.35l-.68.31a6.64,6.64,0,0,1-.66.24L161,135a4.6,4.6,0,0,1-.58.16l-1,.22a5.43,5.43,0,0,1-.83.11l-.61.05-.37,0Z" transform="translate(0 -3)"/><path class="cls-4" d="M139.55,129a1.85,1.85,0,0,1-.1-.18c-.07-.14-.16-.31-.26-.53a9.49,9.49,0,0,1-.4-.87c-.14-.34-.31-.72-.46-1.17-.08-.22-.16-.46-.25-.7s-.15-.5-.23-.77c-.17-.53-.3-1.11-.45-1.72a26.68,26.68,0,0,1-.53-8.17c.07-.63.12-1.23.22-1.78,0-.28.08-.55.13-.8s.11-.5.15-.73c.09-.47.22-.88.31-1.24a8.07,8.07,0,0,1,.28-.92l.19-.58c0-.13.07-.2.08-.19a1.47,1.47,0,0,1,0,.2c0,.16-.1.35-.17.59s-.16.56-.25.92-.2.78-.28,1.25c0,.23-.09.47-.14.73s-.08.52-.12.79c-.1.55-.15,1.15-.21,1.77a28.08,28.08,0,0,0,.53,8.12c.14.61.27,1.19.43,1.72.08.26.14.52.22.76l.24.7c.14.45.31.83.44,1.18s.26.64.37.88l.24.54A.82.82,0,0,1,139.55,129Z" transform="translate(0 -3)"/><path class="cls-4" d="M152.27,115.14s-.23-.13-.47-.5a3.11,3.11,0,0,1,0-3.38,1.44,1.44,0,0,1,.47-.51s-.17.21-.38.58a3.33,3.33,0,0,0-.43,1.62,3.25,3.25,0,0,0,.43,1.62C152.1,114.94,152.29,115.12,152.27,115.14Z" transform="translate(0 -3)"/><path class="cls-4" d="M155.58,108.08a1.67,1.67,0,0,1-.1-.74,1.77,1.77,0,0,1,.05-.74,1.77,1.77,0,0,1,.1.74A2,2,0,0,1,155.58,108.08Z" transform="translate(0 -3)"/><path class="cls-4" d="M157.38,98.21a3.38,3.38,0,0,1-.51,0,5.44,5.44,0,0,0-.59,0,7.29,7.29,0,0,0-.79,0,8.32,8.32,0,0,0-.94.08c-.34,0-.7.1-1.08.17a16,16,0,0,0-2.42.69,17,17,0,0,0-2.3,1.12c-.33.21-.66.4-.95.61s-.56.4-.8.59-.45.37-.63.52l-.47.42a3,3,0,0,1-.4.35,3.94,3.94,0,0,1,.36-.4,5,5,0,0,1,.46-.44c.18-.17.38-.36.62-.55a9.27,9.27,0,0,1,.8-.61c.28-.22.61-.42.95-.64A16,16,0,0,1,151,99a13.54,13.54,0,0,1,2.44-.69c.39-.07.75-.13,1.09-.16s.67-.05,1-.06a6.75,6.75,0,0,1,.79,0,4.69,4.69,0,0,1,.59,0A2.72,2.72,0,0,1,157.38,98.21Z" transform="translate(0 -3)"/><path class="cls-4" d="M160.07,139.61a1.25,1.25,0,0,1-.37.13,9.52,9.52,0,0,1-1,.25,12.91,12.91,0,0,1-3.44.18,13.25,13.25,0,0,1-3.38-.71,9.5,9.5,0,0,1-1-.4,1.89,1.89,0,0,1-.35-.19,1.8,1.8,0,0,1,.37.12l1,.35a15.44,15.44,0,0,0,3.36.66,14.85,14.85,0,0,0,3.41-.14c.44-.06.79-.13,1-.18A1.51,1.51,0,0,1,160.07,139.61Z" transform="translate(0 -3)"/><path class="cls-12" d="M44.28,65.06c1-7.74,7.09-13.27,13.9-12.7l.67.06c7.27,1.1,10.51,8.79,9.35,17.09L65.68,99l-.13,6.08-17.29,1.81L48.63,94a9.35,9.35,0,0,1-6.51-9.89C42.32,80.23,43.31,72.26,44.28,65.06Z" transform="translate(0 -3)"/><path class="cls-13" d="M48.57,94A15.17,15.17,0,0,0,58,91.67a8.24,8.24,0,0,1-9.38,4.5Z" transform="translate(0 -3)"/><path class="cls-8" d="M47,73.08a1.12,1.12,0,0,0,.89,1.24,1,1,0,0,0,1.1-.95,1.12,1.12,0,0,0-.89-1.24A1,1,0,0,0,47,73.08Z" transform="translate(0 -3)"/><path class="cls-8" d="M45.54,69.12c.11.16.91-.42,2-.33s1.83.78,1.95.64,0-.34-.37-.66a2.58,2.58,0,0,0-1.55-.69,2.44,2.44,0,0,0-1.6.44C45.61,68.79,45.48,69.05,45.54,69.12Z" transform="translate(0 -3)"/><path class="cls-8" d="M57.09,74.19a1.14,1.14,0,0,0,.9,1.24,1,1,0,0,0,1.09-1,1.12,1.12,0,0,0-.89-1.24A1,1,0,0,0,57.09,74.19Z" transform="translate(0 -3)"/><path class="cls-8" d="M56.11,70.24c.12.16.92-.42,2-.33s1.82.78,2,.64-.05-.35-.37-.66a2.61,2.61,0,0,0-1.56-.7,2.39,2.39,0,0,0-1.59.45C56.19,69.9,56.06,70.17,56.11,70.24Z" transform="translate(0 -3)"/><path class="cls-8" d="M51.62,79.08a6.37,6.37,0,0,0-1.72-.51c-.28,0-.53-.14-.57-.36a1.79,1.79,0,0,1,.25-.92c.3-.74.63-1.52,1-2.33a44.63,44.63,0,0,0,2.23-6.14,44.27,44.27,0,0,0-2.65,5.92c-.33.82-.64,1.6-.93,2.35A2,2,0,0,0,49,78.32a.71.71,0,0,0,.43.49,1.49,1.49,0,0,0,.46.12A6,6,0,0,0,51.62,79.08Z" transform="translate(0 -3)"/><path class="cls-8" d="M54.74,80.2c-.18,0-.26,1.32-1.32,2.18s-2.3.62-2.32.81.26.28.78.34a2.61,2.61,0,0,0,1.93-.59,3,3,0,0,0,1-1.84C54.93,80.54,54.82,80.2,54.74,80.2Z" transform="translate(0 -3)"/><path class="cls-8" d="M56.14,65.37c.09.34,1.17.28,2.43.56s2.25.76,2.43.47-.07-.47-.46-.83a3.87,3.87,0,0,0-1.77-.88,3.54,3.54,0,0,0-1.93.1C56.36,65,56.11,65.21,56.14,65.37Z" transform="translate(0 -3)"/><path class="cls-8" d="M46.16,65.58c.17.29.94.06,1.83.13s1.63.32,1.83,0c.08-.13,0-.42-.33-.72A2.36,2.36,0,0,0,48,64.45a2.3,2.3,0,0,0-1.49.44C46.21,65.15,46.09,65.43,46.16,65.58Z" transform="translate(0 -3)"/><path class="cls-12" d="M66.58,77.25a2,2,0,0,1,2.19-1.93c1.3.25,2.7,1.22,2.41,4.31-.5,5.49-5.19,3.78-5.19,3.62S66.35,79.54,66.58,77.25Z" transform="translate(0 -3)"/><path class="cls-13" d="M67.22,81.31s.08.08.21.17a.73.73,0,0,0,.62.09c.53-.15,1-1,1.15-2a3.52,3.52,0,0,0-.11-1.39,1.08,1.08,0,0,0-.56-.81.39.39,0,0,0-.51.2c-.08.15-.06.26-.09.27s-.09-.11,0-.33a.6.6,0,0,1,.22-.32.58.58,0,0,1,.47-.09,1.3,1.3,0,0,1,.79,1,3.64,3.64,0,0,1,.15,1.56c-.13,1.11-.72,2.08-1.43,2.23a.83.83,0,0,1-.75-.24C67.22,81.45,67.2,81.32,67.22,81.31Z" transform="translate(0 -3)"/><path class="cls-8" d="M70.41,71.65c-.39,1.58-.25,4.19-1.48,3.83-2.43-.7-1.85,5-3,4.46s-2.17-2.18-2.24-5.7c-.09-4.47,1.47-7.69-.06-12.81a5.49,5.49,0,0,0-10.09-.37c-.22-1.56-.88-3.91-2.09-4.66a3.15,3.15,0,0,0-3.87.37,3.62,3.62,0,0,0-.5,4.27,1.29,1.29,0,0,1-1.53-.63,2.92,2.92,0,0,0,.6,2,2.18,2.18,0,0,1-1.23-1l.36,1.93c-2.05.07-4.05-2.21-4.62-4.24A11.74,11.74,0,0,1,42,50.21c1.49-2.73,4.17-4.66,7-4.63a6.49,6.49,0,0,1,6.26,4.54c1.83-1.48,5.52-2,7.56-.93a7.54,7.54,0,0,1,3.74,6,3.55,3.55,0,0,1,3.88.86l.26.26a7.37,7.37,0,0,1,1.7,6.19c-.15.9-.42,1.82-.58,2.54C71.28,67.15,70.41,71.65,70.41,71.65Z" transform="translate(0 -3)"/><path class="cls-6" d="M45.22,60.26s-.06,0-.17-.15a3.27,3.27,0,0,1-.4-.5,5.15,5.15,0,0,1-.8-2.34,4.92,4.92,0,0,1,.95-3.52,3.93,3.93,0,0,1,3.66-1.59A4.41,4.41,0,0,1,50.4,53a6.56,6.56,0,0,1,1.43,1.5,9.54,9.54,0,0,1,1.7,5.83c0,.3,0,.53-.05.68a1.16,1.16,0,0,1,0,.23,11.67,11.67,0,0,0-.28-3.37,9.15,9.15,0,0,0-1.47-3.23,5.33,5.33,0,0,0-3.25-2.28A3.78,3.78,0,0,0,45,53.9a4.71,4.71,0,0,0-1,3.35,5.18,5.18,0,0,0,.72,2.3C45,60,45.23,60.24,45.22,60.26Z" transform="translate(0 -3)"/><path class="cls-6" d="M44.28,62.72a1.41,1.41,0,0,1-.15-.27c-.09-.18-.21-.44-.37-.79a18.37,18.37,0,0,1-1.13-3.07,9.74,9.74,0,0,1-.31-2.28,7.36,7.36,0,0,1,.41-2.61A4.9,4.9,0,0,1,47,50.47a5.8,5.8,0,0,1,2.71.5,8.13,8.13,0,0,1,2.21,1.45,7.7,7.7,0,0,1,2.43,4,5.64,5.64,0,0,1-.5,4.11c-.11.17-.16.26-.17.25a8.14,8.14,0,0,0,.45-1.09,6.39,6.39,0,0,0,.07-3.23,7.58,7.58,0,0,0-2.4-3.9A6.75,6.75,0,0,0,47,50.71a4.74,4.74,0,0,0-4.08,3.08,7,7,0,0,0-.42,2.52,10.13,10.13,0,0,0,.29,2.24,19.64,19.64,0,0,0,1,3.07l.34.81C44.25,62.62,44.28,62.72,44.28,62.72Z" transform="translate(0 -3)"/><path class="cls-6" d="M68.72,68.1s.44-.41,1-1.21a8.8,8.8,0,0,0,1.52-3.58,9.3,9.3,0,0,0-.16-4c-.25-1-.55-1.56-.52-1.58a1.93,1.93,0,0,1,.23.38,7.21,7.21,0,0,1,.44,1.14,9,9,0,0,1,.22,4.09A8.44,8.44,0,0,1,69.86,67a6.09,6.09,0,0,1-.8.84A1.32,1.32,0,0,1,68.72,68.1Z" transform="translate(0 -3)"/><path class="cls-6" d="M64.36,67.94s.24-.12.62-.42a3.9,3.9,0,0,0,1.21-1.67l.2-.52,0,.57c-.06.77-.13,1.66-.2,2.63L66,68.42a6.6,6.6,0,0,0,1.57-1.76,7.77,7.77,0,0,0,1.07-2.89,8.48,8.48,0,0,0,0-2.58,11.63,11.63,0,0,0-.67-2.28l.09.14.21.42a7.33,7.33,0,0,1,.52,1.68,8.27,8.27,0,0,1,.06,2.66,7.85,7.85,0,0,1-1.09,3,6.81,6.81,0,0,1-1.63,1.8l-.18.14,0-.24c.09-1,.17-1.86.24-2.63l.16.05A3.76,3.76,0,0,1,65,67.61a2.54,2.54,0,0,1-.49.27C64.43,67.93,64.36,68,64.36,67.94Z" transform="translate(0 -3)"/><path class="cls-6" d="M63,56.37a5.15,5.15,0,0,0-1.11-1.59,3.84,3.84,0,0,0-1.72-.92,3.76,3.76,0,0,0-2.31.24A5,5,0,0,0,56,55.6a6.82,6.82,0,0,0-1,1.85,14.45,14.45,0,0,0-.52,2,2.63,2.63,0,0,1,0-.56,8.5,8.5,0,0,1,.35-1.47,6.84,6.84,0,0,1,1-1.94,5,5,0,0,1,2-1.58,3.88,3.88,0,0,1,2.42-.23,3.83,3.83,0,0,1,1.78,1,4.24,4.24,0,0,1,.84,1.19,2.35,2.35,0,0,1,.14.38Q63,56.36,63,56.37Z" transform="translate(0 -3)"/><path class="cls-6" d="M61.91,52.17a6.39,6.39,0,0,0-1.32-.58,4.22,4.22,0,0,0-3.29.53A6.61,6.61,0,0,0,55,54.9c-.41.89-.55,1.5-.58,1.49a1.13,1.13,0,0,1,.07-.44,6.45,6.45,0,0,1,.38-1.13,6.36,6.36,0,0,1,2.36-2.91,4.15,4.15,0,0,1,3.43-.49,3.35,3.35,0,0,1,1,.48A1.14,1.14,0,0,1,61.91,52.17Z" transform="translate(0 -3)"/><path class="cls-8" d="M46.51,311.49,47,326.55S33.81,332.17,33.67,335l25.47,0,.09-23.5Z" transform="translate(0 -3)"/><path class="cls-3" d="M54.87,325.28a1.22,1.22,0,0,1,.72,1.36,1,1,0,0,1-1.17.83,1.28,1.28,0,0,1-.76-1.45c.17-.55.85-1,1.3-.71" transform="translate(0 -3)"/><path class="cls-8" d="M59.14,334.94l-.07-2.37-24.4.91s-1.13.57-1,1.48Z" transform="translate(0 -3)"/><path class="cls-4" d="M46.58,326.4c0,.15.62.21,1.24.67s.94,1.06,1,1-.07-.88-.82-1.42S46.55,326.27,46.58,326.4Z" transform="translate(0 -3)"/><path class="cls-4" d="M43.91,327.67c0,.14.51.38.93,1s.55,1.24.67,1.23.2-.81-.34-1.55S43.91,327.54,43.91,327.67Z" transform="translate(0 -3)"/><path class="cls-4" d="M42.39,331.35c.11,0,.29-.69,0-1.47s-.91-1.09-1-1,.31.53.56,1.18S42.27,331.33,42.39,331.35Z" transform="translate(0 -3)"/><path class="cls-4" d="M46.8,323c.05.13.62-.07,1.33,0s1.25.31,1.31.19-.46-.63-1.29-.68S46.74,322.84,46.8,323Z" transform="translate(0 -3)"/><path class="cls-8" d="M75.75,312.87l1,18.19L74,345.72A1.85,1.85,0,0,0,75.29,348h0a1.5,1.5,0,0,0,1.42-.55C79,344.64,87.55,334.37,87.41,333c-.16-1.54,0-19.28,0-19.28Z" transform="translate(0 -3)"/><path class="cls-8" d="M75.29,348l12.08-16.16,0,.77a3,3,0,0,1-.51,1.85c-1,1.41-3.68,5.23-10.13,13a1.5,1.5,0,0,1-1.46.55Z" transform="translate(0 -3)"/><g class="cls-14"><path class="cls-4" d="M83.9,326.09a1.24,1.24,0,0,0-.22,1.48.86.86,0,0,0,1.28.26,1.3,1.3,0,0,0,.23-1.57.89.89,0,0,0-1.36-.1" transform="translate(0 -3)"/></g><path class="cls-4" d="M78.64,339.84c-.09.06-.48-.88-1.45-1.35a4.6,4.6,0,0,0-1.84-.32s.18-.19.55-.27a2.3,2.3,0,0,1,1.44.22,2.7,2.7,0,0,1,1.1,1.07C78.64,339.56,78.68,339.82,78.64,339.84Z" transform="translate(0 -3)"/><path class="cls-4" d="M77.59,342.33c-.07.09-.6-.48-1.43-.71a10.32,10.32,0,0,0-1.56-.16,1.64,1.64,0,0,1,1.65-.23C77.19,341.5,77.67,342.28,77.59,342.33Z" transform="translate(0 -3)"/><path class="cls-4" d="M80.63,336.62a15.24,15.24,0,0,0-2.15-1.28,13.6,13.6,0,0,0-2.37-.52,3.12,3.12,0,0,1,2.49.14A3.69,3.69,0,0,1,80.63,336.62Z" transform="translate(0 -3)"/><path class="cls-4" d="M80.72,331.05c0,.12-.93-.26-2.07-.26s-2,.37-2.07.26a2.83,2.83,0,0,1,2.07-.66A2.93,2.93,0,0,1,80.72,331.05Z" transform="translate(0 -3)"/><path class="cls-4" d="M80.55,325.7a7.32,7.32,0,0,0-2.16-.33,7.46,7.46,0,0,0-2.08.7s.14-.27.49-.53a3.17,3.17,0,0,1,1.57-.57,3.12,3.12,0,0,1,1.62.29C80.37,325.46,80.57,325.66,80.55,325.7Z" transform="translate(0 -3)"/><path class="cls-4" d="M78.38,324.35a1.87,1.87,0,0,1,0-.69,5.52,5.52,0,0,1,.41-1.83,2.09,2.09,0,0,1,.76-1.05.59.59,0,0,1,.74.13,1.29,1.29,0,0,1,.28.81,2.38,2.38,0,0,1-4.6,1.06,1.2,1.2,0,0,1-.08-.88.64.64,0,0,1,.66-.42,2.29,2.29,0,0,1,1.07.57,5.21,5.21,0,0,1,1.13,1.37A1.79,1.79,0,0,1,79,324a8.46,8.46,0,0,0-1.54-1.75,2,2,0,0,0-1-.48.35.35,0,0,0-.36.23.85.85,0,0,0,.08.57,2.28,2.28,0,0,0,2.34,1.25,2.2,2.2,0,0,0,1.66-2.12,1.11,1.11,0,0,0-.17-.58.34.34,0,0,0-.41-.08A1.86,1.86,0,0,0,79,322,8.4,8.4,0,0,0,78.38,324.35Z" transform="translate(0 -3)"/><path class="cls-8" d="M35.34,184.2a73.93,73.93,0,0,0-1.61,19c.19,4.05,11.53,121.15,11.53,121.15l14.43-1.49L57.2,213.38l.6.62s8.6,46.06,9.17,53.34c.51,6.55,7.37,59.12,7.37,59.12l14-.76-3.18-66.47-4.24-60.34-1.7-17.57Z" transform="translate(0 -3)"/><path class="cls-6" d="M60,203.94a2.68,2.68,0,0,1-.67.42,6.94,6.94,0,0,1-2,.74,3.7,3.7,0,0,1-1.48,0,3,3,0,0,1-1.53-.9,4.36,4.36,0,0,1-.9-1.9c-.17-.73-.27-1.47-.39-2.23-.45-3.05-.74-5.83-.9-7.85-.08-1-.13-1.83-.16-2.39a4.94,4.94,0,0,1,0-.88,4.21,4.21,0,0,1,.13.86c.08.65.16,1.44.27,2.38.22,2,.55,4.77,1,7.81.23,1.5.37,3,1.17,4a3,3,0,0,0,2.76.9,8.21,8.21,0,0,0,2-.61A3.83,3.83,0,0,1,60,203.94Z" transform="translate(0 -3)"/><path class="cls-6" d="M55.43,189.55s.1-.1.33-.11a1.36,1.36,0,0,1,.89.36,1.92,1.92,0,0,1,.65,1.44,1.71,1.71,0,0,1-1.06,1.56,1.39,1.39,0,0,1-1.68-.46,2,2,0,0,1-.27-1.59,1.67,1.67,0,0,1,.51-.92c.18-.15.31-.17.31-.16a2.2,2.2,0,0,0-.58,1.13,1.79,1.79,0,0,0,.27,1.31,1.11,1.11,0,0,0,1.33.32,1.38,1.38,0,0,0,.86-1.2A1.75,1.75,0,0,0,56.5,190,1.63,1.63,0,0,0,55.43,189.55Z" transform="translate(0 -3)"/><path class="cls-6" d="M80.73,197.81s-.2.05-.55.08a8.66,8.66,0,0,1-1.51,0,13.18,13.18,0,0,1-4.81-1.41,14.61,14.61,0,0,1-4.12-3.19,11.13,11.13,0,0,1-1-1.27,2.74,2.74,0,0,1-.32-.53s.55.65,1.49,1.6a16.32,16.32,0,0,0,4.1,3,14.82,14.82,0,0,0,4.69,1.5C79.94,197.77,80.72,197.74,80.73,197.81Z" transform="translate(0 -3)"/><path class="cls-6" d="M41.83,189.53a8.34,8.34,0,0,1-.87,1.85,20.92,20.92,0,0,1-2.87,3.9,19.29,19.29,0,0,1-3.59,3,6.83,6.83,0,0,1-1.68.86,16.61,16.61,0,0,1,1.56-1.1,24.69,24.69,0,0,0,3.48-3,26.29,26.29,0,0,0,2.9-3.76A17.92,17.92,0,0,1,41.83,189.53Z" transform="translate(0 -3)"/><path class="cls-12" d="M27.51,123.38c-2.15,7.18-1.91,6.57-5.92,28-.74,4,.57,10.14,3.68,12.05s8.64-.18,10.49-3.63l3-32.38Z" transform="translate(0 -3)"/><line class="cls-9" x1="38.74" y1="99.12" x2="38.74" y2="99.12"/><path class="cls-9" d="M79.24,162.3l-.09-17.07.06-1.67,15.09-4s-3-11.2-5.68-23.24a18.09,18.09,0,0,0-8.05-11.2h0l-.28-.15h0L65.77,97.87c-2.93,3.59-7.21,6.47-11.32,5.09a13,13,0,0,1-6-4.68l-9.78,3.86h0a13.2,13.2,0,0,0-6.77,6.3c-2.05,4.15-8.59,23.22-8.71,23.65l12.13,1.24S33.18,178.45,34,186.51c0,0,2.94,2.34,10.37,2.74,15.06.82,37.48-.41,37.48-.41-.35-2.6-.72-7-.93-9.15Z" transform="translate(0 -3)"/><path class="cls-8" d="M35.75,116.53c.06,0-.26,10.76-.72,24s-.88,24-.94,24,.26-10.76.72-24S35.69,116.53,35.75,116.53Z" transform="translate(0 -3)"/><path class="cls-8" d="M77.58,119.54c-.11,0,.2,9.55.68,21.32s1,21.31,1.07,21.31-.2-9.55-.68-21.33S77.69,119.53,77.58,119.54Z" transform="translate(0 -3)"/><path class="cls-12" d="M94.37,147.64c-.49-4.23-.9-8-.9-8L81.4,142.88l.52,2.23-9.33-10.88-1.47.15-4.7,5.6s4.09,9.92,6.47,13.79c3.1,5,8,12.68,14.64,12C93.69,165.21,95.25,155.24,94.37,147.64Z" transform="translate(0 -3)"/><path class="cls-13" d="M87.83,150.17a11.16,11.16,0,0,0-2.65-2.79,10,10,0,0,0-3.15-2c0,.11,1.33,1,2.92,2.36S87.76,150.27,87.83,150.17Z" transform="translate(0 -3)"/><path class="cls-12" d="M56.31,120l4.14-2.43,5.38,2,2.67,2.81,4.09,11.84L75.87,139l-5.79,8.66L66.42,140s-3.11-1.56-4.35-3.81-1.81-3.47-1.81-3.47-1.79-1-2.12-1.94a5.13,5.13,0,0,1-.32-1.69l.91-1.52a4.39,4.39,0,0,1,.27-2,1.72,1.72,0,0,1,.72-.65s-.27-1.28.15-1.74a12.19,12.19,0,0,1,2.48-1.31h0l-1.81-1.18S56.53,122.15,56.31,120Z" transform="translate(0 -3)"/><path class="cls-13" d="M62.46,124.34c0,.06-.63.08-1.39.27s-1.35.46-1.37.4a3.88,3.88,0,0,1,2.76-.67Z" transform="translate(0 -3)"/><path class="cls-13" d="M61.22,127a9.86,9.86,0,0,1-1.2.17,9.79,9.79,0,0,1-1.19.24A2.56,2.56,0,0,1,60,127,2.3,2.3,0,0,1,61.22,127Z" transform="translate(0 -3)"/><path class="cls-13" d="M59.47,131.16s-.09-.27-.08-.61,0-.6.1-.6.08.27.07.61A1.19,1.19,0,0,1,59.47,131.16Z" transform="translate(0 -3)"/><path class="cls-13" d="M60.26,132.44a3.21,3.21,0,0,0-.38-1.09,2.45,2.45,0,0,0-.84-.69s.13,0,.33,0a1.45,1.45,0,0,1,.65.53,1.79,1.79,0,0,1,.29.85C60.32,132.31,60.28,132.45,60.26,132.44Z" transform="translate(0 -3)"/><path class="cls-13" d="M63.5,128.65s-.22-.5-.72-.81a2.21,2.21,0,0,0-1-.28s.11-.09.31-.11a1.21,1.21,0,0,1,.76.21,1.55,1.55,0,0,1,.56.63C63.51,128.5,63.52,128.64,63.5,128.65Z" transform="translate(0 -3)"/><path class="cls-13" d="M65.39,126a3.6,3.6,0,0,0-.66-.8,3,3,0,0,0-.91-.35s.11-.08.3-.07a1.24,1.24,0,0,1,.7.25,1.5,1.5,0,0,1,.5.63C65.4,125.87,65.41,126,65.39,126Z" transform="translate(0 -3)"/><path class="cls-13" d="M66.65,124.73a3.77,3.77,0,0,1,0-.41,2.06,2.06,0,0,0-.3-.87,1.72,1.72,0,0,0-.64-.59c-.2-.1-.33-.13-.33-.16s.15,0,.37,0a1.48,1.48,0,0,1,.74.59,1.87,1.87,0,0,1,.29,1C66.73,124.58,66.68,124.73,66.65,124.73Z" transform="translate(0 -3)"/><path class="cls-13" d="M64.9,121.63c0,.07-.87.09-1.91.27s-1.84.61-1.86.55A3.91,3.91,0,0,1,63,121.7a7.45,7.45,0,0,1,1.37-.12A1.45,1.45,0,0,1,64.9,121.63Z" transform="translate(0 -3)"/><g class="cls-7"><path d="M53.09,148.37a9.39,9.39,0,0,0-1-3.94c-1.21-2-3.6-2.39-5.69-2.27s-4.26.59-6.24-.23l-5.87,20a8.89,8.89,0,0,0,5.3-4.43,11.26,11.26,0,0,1,2-3.22c1.25-1.11,3-.94,4.57-1a16,16,0,0,0,4.88-.83,3.13,3.13,0,0,0,1.79-1.17A4.61,4.61,0,0,0,53.09,148.37Z" transform="translate(0 -3)"/></g><path class="cls-8" d="M38,124.92l1.83,22.29a3.27,3.27,0,0,0,1.2,2.57l11.78-.29a5.88,5.88,0,0,0,.9-3.79l-1.3-21.34c-.08-1.28-.5-2.21-1-2.22L39,121.81C38.31,121.79,37.82,123.33,38,124.92Z" transform="translate(0 -3)"/><path class="cls-12" d="M36.24,129.4a2.2,2.2,0,0,1,0-2.42,2.5,2.5,0,0,1,2-1,5.17,5.17,0,0,1,2.21.59A14.5,14.5,0,0,1,43,128.05a2.73,2.73,0,0,1,1.22,1.72c.09.75-.64,1.59-1.21,1.2a3.11,3.11,0,0,1,1.58,2.26,1.44,1.44,0,0,1-1.16,1.71,1.51,1.51,0,0,1,.69,1.85,1.33,1.33,0,0,1-1.81.58,4.29,4.29,0,0,1-1.53-1.55,6.21,6.21,0,0,1,.21,3.4c-1.76-.74-3.49-3-3-5.11a3.21,3.21,0,0,1-.71-3.46,2.85,2.85,0,0,1-1.42-2.4" transform="translate(0 -3)"/><path class="cls-12" d="M36,127.46,35.9,137l-2.15,3.71-9.88,10.14s1.47,13.77,5.92,12.27,5.54-2.49,8.18-8c1.41-3,2.28-7.82,3.09-10.6.48-1.63.06-6.87.06-6.87Z" transform="translate(0 -3)"/><path class="cls-13" d="M43.42,135a6.85,6.85,0,0,1-.75-.69,5,5,0,0,0-2-1.24,2.35,2.35,0,0,0-1.23,0,2,2,0,0,0-.9.49,3.45,3.45,0,0,0-.61.83A1.09,1.09,0,0,1,38,134a2.06,2.06,0,0,1,.44-.65,2.09,2.09,0,0,1,.95-.57,2.47,2.47,0,0,1,1.32,0,4.63,4.63,0,0,1,2,1.34A3.7,3.7,0,0,1,43.42,135Z" transform="translate(0 -3)"/><path class="cls-13" d="M43.3,131.07a3.73,3.73,0,0,1-.92-.47,8.73,8.73,0,0,0-1-.52,7.27,7.27,0,0,0-1.27-.42,3.34,3.34,0,0,0-1.29,0,2.31,2.31,0,0,0-1,.46,2.55,2.55,0,0,0-.64.84.6.6,0,0,1,.08-.3,2,2,0,0,1,.48-.67,2.3,2.3,0,0,1,1-.53,3.3,3.3,0,0,1,1.36,0,6.84,6.84,0,0,1,1.3.45,7.73,7.73,0,0,1,1,.57A6.22,6.22,0,0,1,43.3,131.07Z" transform="translate(0 -3)"/><path class="cls-13" d="M24.94,156.32a10.49,10.49,0,0,1-.13-3.55A11.91,11.91,0,0,1,26,149.16a17.45,17.45,0,0,1,2.61-3.67c1.06-1.18,2.16-2.2,3.13-3.17a35.82,35.82,0,0,0,2.5-2.7,16.73,16.73,0,0,0,1.44-2.09,4.78,4.78,0,0,0,.41-.85,6.05,6.05,0,0,0-.52.77,18.08,18.08,0,0,1-1.5,2,35,35,0,0,1-2.53,2.62c-1,.95-2.08,2-3.16,3.17A16.84,16.84,0,0,0,25.72,149a11.93,11.93,0,0,0-1.14,3.74,8.77,8.77,0,0,0,.08,2.66,6.15,6.15,0,0,0,.18.7C24.89,156.24,24.92,156.32,24.94,156.32Z" transform="translate(0 -3)"/><path class="cls-9" d="M36.2,52.67C38.27,63,32.79,73.28,24,75.65S6.28,71.57,4.2,61.25s3.42-20.61,12.25-23S34.13,42.35,36.2,52.67Z" transform="translate(0 -3)"/><g class="cls-10"><path class="cls-4" d="M16.45,38.27C7.62,40.64,2.13,50.92,4.2,61.25c0,0,11.36-2.43,13-8.44S16.45,38.27,16.45,38.27Z" transform="translate(0 -3)"/></g><path class="cls-9" d="M32.05,53.47c1.58,7.85-2.59,15.67-9.31,17.47S9.3,67.84,7.73,60,10.32,44.32,17,42.52,30.48,45.62,32.05,53.47Z" transform="translate(0 -3)"/><g class="cls-11"><path d="M32.05,53.47c1.58,7.85-2.59,15.67-9.31,17.47S9.3,67.84,7.73,60,10.32,44.32,17,42.52,30.48,45.62,32.05,53.47Z" transform="translate(0 -3)"/></g><path class="cls-9" d="M32.51,54c1.56,7.74-2.55,15.46-9.18,17.24S10.07,68.15,8.52,60.4s2.55-15.46,9.18-17.23S31,46.23,32.51,54Z" transform="translate(0 -3)"/><g class="cls-11"><path class="cls-4" d="M32.51,54c1.56,7.74-2.55,15.46-9.18,17.24S10.07,68.15,8.52,60.4s2.55-15.46,9.18-17.23S31,46.23,32.51,54Z" transform="translate(0 -3)"/></g><path class="cls-9" d="M20.75,55.84,20,52.26h0a5.7,5.7,0,0,1,1.74.06,5.15,5.15,0,0,1,.87.36l0-.12.22-1.42.05-.33-.69-.52-.23.21a5.16,5.16,0,0,0-2.38-.16l-.39-2L18.62,48l.1.49-.72.2.4,2a4,4,0,0,0-2.76,4.6c.5,2.47,2.43,2.63,4.22,2.65l.71,3.56A5.28,5.28,0,0,1,17.26,61l-.33,2a6,6,0,0,0,4,.48l.3,1.49-.6.17.69.31,1.25-.33-.4-2A4,4,0,0,0,25,58.47C24.5,56,22.53,55.87,20.75,55.84Zm-1.32,0c-.95-.06-1.68-.28-1.85-1.13a1.78,1.78,0,0,1,1.21-2Zm.6-3.55Zm1.78,8.89L21.18,58c1,.06,1.73.29,1.9,1.16S22.88,60.65,21.81,61.14Z" transform="translate(0 -3)"/><g class="cls-7"><path d="M20.75,55.84,20,52.26h0a5.7,5.7,0,0,1,1.74.06,5.15,5.15,0,0,1,.87.36l0-.12.22-1.42.05-.33-.69-.52-.23.21a5.16,5.16,0,0,0-2.38-.16l-.39-2L18.62,48l.1.49-.72.2.4,2a4,4,0,0,0-2.76,4.6c.5,2.47,2.43,2.63,4.22,2.65l.71,3.56A5.28,5.28,0,0,1,17.26,61l-.33,2a6,6,0,0,0,4,.48l.3,1.49-.6.17.69.31,1.25-.33-.4-2A4,4,0,0,0,25,58.47C24.5,56,22.53,55.87,20.75,55.84Zm-1.32,0c-.95-.06-1.68-.28-1.85-1.13a1.78,1.78,0,0,1,1.21-2Zm.6-3.55Zm1.78,8.89L21.18,58c1,.06,1.73.29,1.9,1.16S22.88,60.65,21.81,61.14Z" transform="translate(0 -3)"/></g><path class="cls-9" d="M21.59,62.73l.4,2-1.25.33-.4-2a6,6,0,0,1-4-.48l.32-2a5.24,5.24,0,0,0,3.32.53l-.72-3.55c-1.78,0-3.72-.19-4.21-2.66a4,4,0,0,1,2.76-4.6l-.4-2L18.63,48l.4,2a5.83,5.83,0,0,1,3.31.26l-.27,2a5.62,5.62,0,0,0-2.65-.3l.72,3.59c1.78,0,3.75.16,4.24,2.63A4,4,0,0,1,21.59,62.73Zm-2.78-7.28-.63-3.16a1.78,1.78,0,0,0-1.21,2C17.14,55.17,17.87,55.39,18.81,55.45Zm3.66,3.35c-.18-.87-.93-1.1-1.9-1.16l.63,3.15C22.27,60.3,22.62,59.57,22.47,58.8Z" transform="translate(0 -3)"/><path class="cls-8" d="M23.14,71.4l.09,0,.29-.1L24,71.1a3.54,3.54,0,0,0,.62-.24l.77-.36a3,3,0,0,0,.42-.24l.46-.28c.15-.1.32-.18.47-.3l.49-.37c.16-.14.34-.25.51-.41l.5-.47a14,14,0,0,0,2-2.42l.45-.76c.08-.13.16-.25.23-.39l.2-.42c.13-.28.28-.56.4-.86l.35-.93.09-.23a1.82,1.82,0,0,0,.07-.25l.14-.49.14-.5c.05-.17.07-.35.11-.52.06-.35.14-.7.19-1.06l.12-1.09a17.84,17.84,0,0,0-.28-4.58A17.14,17.14,0,0,0,31,49.69l-.52-.93c-.19-.3-.39-.57-.58-.85a4.27,4.27,0,0,0-.29-.41l-.32-.38-.31-.37c-.06-.06-.11-.13-.16-.19l-.17-.16-.66-.66c-.23-.2-.47-.38-.7-.57l-.34-.27-.35-.24-.69-.45a12.4,12.4,0,0,0-2.73-1.15l-.63-.17c-.21,0-.42-.06-.61-.1l-.58-.08a5.28,5.28,0,0,0-.55,0h-.51a2.46,2.46,0,0,0-.47,0l-.82.07a3.9,3.9,0,0,0-.66.09l-.47.09-.3.06h-.1l.1,0,.29-.06.48-.11a3.65,3.65,0,0,1,.65-.11l.83-.08a3.65,3.65,0,0,1,.47,0h.52a5.36,5.36,0,0,1,.55,0l.58.08c.2,0,.4,0,.61.1l.64.17A11.77,11.77,0,0,1,25.9,44.1l.7.46.36.23.34.28c.23.19.48.37.7.57l.67.66.18.17.15.18.32.38c.11.12.21.25.32.38a4.33,4.33,0,0,1,.3.41c.19.28.4.56.58.86l.53.93a17.41,17.41,0,0,1,1.51,4.29,18.12,18.12,0,0,1,.28,4.62l-.12,1.11c0,.36-.13.71-.2,1.06a3.12,3.12,0,0,1-.11.53l-.14.5-.14.5a2.33,2.33,0,0,0-.07.25L32,62.7l-.36.94c-.12.3-.27.58-.41.86s-.13.29-.2.43-.15.26-.23.39l-.46.77a14.89,14.89,0,0,1-2,2.42l-.51.47c-.17.15-.35.27-.52.4l-.49.37a3.73,3.73,0,0,1-.48.3l-.46.28a3.55,3.55,0,0,1-.43.23l-.77.35a4.5,4.5,0,0,1-.63.23l-.47.15-.29.09Z" transform="translate(0 -3)"/><path class="cls-4" d="M8.34,69.38s0,0-.11-.12S8.07,69,8,68.88s-.26-.36-.42-.61-.34-.52-.51-.85c-.1-.16-.19-.33-.29-.51s-.19-.37-.28-.57c-.21-.39-.39-.83-.58-1.28a21.24,21.24,0,0,1-1.51-6.38c0-.51-.07-1-.07-1.45,0-.22,0-.44,0-.65s0-.41,0-.61a10,10,0,0,1,.07-1c0-.31.06-.57.09-.78l.07-.49c0-.11,0-.17,0-.17s0,.06,0,.18l-.05.49a7.05,7.05,0,0,0-.07.77c0,.31-.06.65-.06,1,0,.19,0,.39,0,.6s0,.43,0,.65c0,.45.05.93.08,1.44A26.12,26.12,0,0,0,5,61.91,23.94,23.94,0,0,0,6,65c.19.46.37.9.56,1.28l.28.57.28.51c.17.33.35.61.5.86s.29.46.4.63l.26.39Z" transform="translate(0 -3)"/><path class="cls-4" d="M16.36,56.16a1,1,0,0,1-.43-.31,2.4,2.4,0,0,1-.61-1.26,2.5,2.5,0,0,1,.16-1.42,1.11,1.11,0,0,1,.3-.48s-.11.19-.22.52a2.73,2.73,0,0,0-.12,1.36,2.49,2.49,0,0,0,.55,1.2C16.2,56,16.37,56.14,16.36,56.16Z" transform="translate(0 -3)"/><path class="cls-4" d="M18,50s-.11-.24-.18-.57a1.76,1.76,0,0,1-.06-.6s.12.25.18.57A1.51,1.51,0,0,1,18,50Z" transform="translate(0 -3)"/><path class="cls-4" d="M18.06,41.86l-.39.09-.46.09c-.18.05-.39.09-.61.16a6.57,6.57,0,0,0-.72.23c-.26.08-.53.2-.82.32a13.4,13.4,0,0,0-1.79,1A13.79,13.79,0,0,0,11.64,45c-.24.23-.46.43-.66.65s-.38.42-.54.61-.3.37-.43.52l-.3.42a3.66,3.66,0,0,1-.27.35,1.8,1.8,0,0,1,.23-.39,4.66,4.66,0,0,1,.29-.43c.12-.16.25-.35.41-.54s.34-.41.54-.63.42-.43.66-.66a13.08,13.08,0,0,1,1.64-1.31,12.94,12.94,0,0,1,1.81-1,8.75,8.75,0,0,1,.83-.32c.26-.09.5-.15.73-.21S17,42,17.2,42l.46-.07A2,2,0,0,1,18.06,41.86Z" transform="translate(0 -3)"/><path class="cls-4" d="M25.71,74.16a1.34,1.34,0,0,1-.27.17,6.85,6.85,0,0,1-.76.37,10.21,10.21,0,0,1-2.65.75,10.47,10.47,0,0,1-2.73,0,8.14,8.14,0,0,1-.81-.15,1.1,1.1,0,0,1-.3-.08,1.12,1.12,0,0,1,.3,0l.82.1A12.12,12.12,0,0,0,22,75.31a11.88,11.88,0,0,0,2.63-.7c.33-.13.59-.25.77-.33A1,1,0,0,1,25.71,74.16Z" transform="translate(0 -3)"/></svg>