<svg id="Layer_1" data-name="Layer 1" xmlns="http://www.w3.org/2000/svg" viewBox="0 0 463.95 288.26"><defs><style>.cls-1{fill:#263238;}.cls-2{fill:#e8505b;}.cls-3{opacity:0.4;}.cls-4{fill:#455a64;}.cls-5{opacity:0.6;}.cls-6{fill:#fff;}.cls-7{fill:#e0e0e0;}.cls-8{fill:#ffbe9d;}.cls-9{opacity:0.2;}.cls-10{fill:#eb996e;}.cls-11{fill:#fafafa;}</style></defs><path class="cls-1" d="M480.82,267.92c0,.14-103.86.26-232,.26s-232-.12-232-.26,103.85-.26,232-.26S480.82,267.78,480.82,267.92Z" transform="translate(-16.87 -9.13)"/><path class="cls-2" d="M439.71,267.92a19.34,19.34,0,0,0,19.15-15.6c3.18-16.14,7.28-38.72,7.41-64.08.08-15.55-3.4-35.24-8.21-50-7-21.6-22.06-40.63-43.91-46.86-28.36-8.1-38.63-5-58.75,5.56-21.88,11.47-27.8,33-50.58,42.58-22.11,9.29-48.78,6.12-68.94,19.12-17.74,11.44-26.38,33.41-27.09,54.5A117.47,117.47,0,0,0,212,246.44c2.75,11.51,13.14,21.38,25,21.48Z" transform="translate(-16.87 -9.13)"/><g class="cls-3"><path d="M439.71,267.92a19.34,19.34,0,0,0,19.15-15.6c3.18-16.14,7.28-38.72,7.41-64.08.08-15.55-3.4-35.24-8.21-50-7-21.6-22.06-40.63-43.91-46.86-28.36-8.1-38.63-5-58.75,5.56-21.88,11.47-27.8,33-50.58,42.58-22.11,9.29-48.78,6.12-68.94,19.12-17.74,11.44-26.38,33.41-27.09,54.5A117.47,117.47,0,0,0,212,246.44c2.75,11.51,13.14,21.38,25,21.48Z" transform="translate(-16.87 -9.13)"/></g><path class="cls-1" d="M425.12,95.2a2.14,2.14,0,0,1,.22.4l.57,1.21,2.17,4.67c.47,1,1,2.15,1.55,3.38s1,2.64,1.63,4.12l1.83,4.74c.68,1.67,1.25,3.49,1.85,5.39l1.91,6c.35,1,.62,2.12.9,3.22s.57,2.21.87,3.35l.89,3.48c.15.58.3,1.18.46,1.77s.25,1.22.37,1.83c.49,2.46,1,5,1.52,7.58a242.18,242.18,0,0,1,3.5,34.19A286.39,286.39,0,0,1,444,214.86c-.63,5.25-1.14,10.25-1.95,14.88-.37,2.32-.69,4.57-1.08,6.71s-.81,4.2-1.19,6.16c-.7,3.94-1.57,7.45-2.27,10.54-.36,1.55-.7,3-1,4.31s-.66,2.51-.95,3.6c-.58,2.13-1,3.8-1.34,5l-.37,1.29a1.93,1.93,0,0,1-.14.43,3.17,3.17,0,0,1,.08-.45c.08-.32.18-.75.31-1.3l1.24-5c.27-1.09.57-2.29.91-3.6s.61-2.77.95-4.32c.67-3.1,1.51-6.61,2.19-10.55q.56-2.94,1.15-6.15c.38-2.15.68-4.4,1-6.71.78-4.63,1.27-9.63,1.89-14.87a294.21,294.21,0,0,0,1.3-34.28,246.1,246.1,0,0,0-3.45-34.11c-.51-2.59-1-5.11-1.49-7.56l-.36-1.82-.45-1.78-.88-3.47-.85-3.35c-.27-1.1-.53-2.18-.88-3.21l-1.87-6c-.58-1.9-1.14-3.72-1.81-5.39L431,109.1c-.57-1.48-1-2.88-1.58-4.13s-1.05-2.37-1.5-3.4c-.88-2-1.58-3.6-2.06-4.71-.22-.52-.4-.93-.52-1.23A4.46,4.46,0,0,1,425.12,95.2Z" transform="translate(-16.87 -9.13)"/><path class="cls-4" d="M238.71,267.76l-18.92,29.63-37-23.36c2.45-3.39,26.06,1.6,26.06,1.6l11.34-19.48Z" transform="translate(-16.87 -9.13)"/><g class="cls-5"><path class="cls-6" d="M221.31,281.25a1.79,1.79,0,0,1,0,2.38,1.72,1.72,0,0,1-2.36,0,1.88,1.88,0,0,1,.06-2.53,1.78,1.78,0,0,1,2.45.3" transform="translate(-16.87 -9.13)"/></g><g class="cls-5"><path class="cls-6" d="M219.79,297.39l1.79-3.06-36.13-21.25s-2.09-.32-2.64.95Z" transform="translate(-16.87 -9.13)"/></g><path class="cls-1" d="M208.39,275.06c-.11.19.74.84,1.26,2s.52,2.2.73,2.23.6-1.18-.06-2.55S208.45,274.87,208.39,275.06Z" transform="translate(-16.87 -9.13)"/><path class="cls-1" d="M203.49,274.22c-.15.14.44.95.57,2.1s-.2,2.07,0,2.17,1-.84.76-2.27S203.61,274.05,203.49,274.22Z" transform="translate(-16.87 -9.13)"/><path class="cls-1" d="M198.36,277.47c.14.14,1-.61,1.12-1.89s-.43-2.21-.6-2.1,0,1-.14,2S198.19,277.34,198.36,277.47Z" transform="translate(-16.87 -9.13)"/><path class="cls-1" d="M211.46,270.91c0,.21,1,.49,1.94,1.2s1.57,1.54,1.76,1.44-.17-1.22-1.33-2S211.46,270.71,211.46,270.91Z" transform="translate(-16.87 -9.13)"/><path class="cls-1" d="M215.12,267.08c-.05.07.59.63,1.85,1.16a9.81,9.81,0,0,0,2.32.63,10.67,10.67,0,0,0,1.42.1,2.52,2.52,0,0,0,.83-.08.93.93,0,0,0,.69-.91,1.19,1.19,0,0,0-.53-.91,3,3,0,0,0-.75-.34,7.55,7.55,0,0,0-1.41-.33,7.64,7.64,0,0,0-2.41,0,3.69,3.69,0,0,0-2,.81c0,.12.82-.19,2.11-.29a8.8,8.8,0,0,1,2.24.11,8.06,8.06,0,0,1,1.27.35c.45.14.79.35.78.59s0,.11-.17.18a2.71,2.71,0,0,1-.62.06c-.46,0-.9,0-1.33-.06a12,12,0,0,1-2.22-.45A15.94,15.94,0,0,0,215.12,267.08Z" transform="translate(-16.87 -9.13)"/><path class="cls-1" d="M215.19,267.49c0,.06.81-.36,1.62-1.48a7.31,7.31,0,0,0,1-2.19,7,7,0,0,0,.24-1.42,1.81,1.81,0,0,0-.59-1.69,1,1,0,0,0-1.1,0,3.13,3.13,0,0,0-.62.56,5,5,0,0,0-1.2,3.66c.11,1.42.73,2.11.78,2.06a19.13,19.13,0,0,1-.26-2.07,5,5,0,0,1,.52-2.11,4.23,4.23,0,0,1,.71-1c.3-.36.65-.58.77-.45s.31.61.27,1a7.54,7.54,0,0,1-1,3.36C215.73,266.84,215.11,267.4,215.19,267.49Z" transform="translate(-16.87 -9.13)"/><path class="cls-4" d="M265.18,175.53l-11.33,33.28-41.48-13.9c1.57-3.88,25.69-4.64,25.69-4.64l6.39-21.62Z" transform="translate(-16.87 -9.13)"/><g class="cls-5"><path class="cls-6" d="M251.49,192.77a1.78,1.78,0,0,1,.52,2.32,1.71,1.71,0,0,1-2.3.54,1.87,1.87,0,0,1-.54-2.46,1.78,1.78,0,0,1,2.46-.3" transform="translate(-16.87 -9.13)"/></g><g class="cls-5"><path class="cls-6" d="M253.85,208.81l1-3.4-40.14-12s-2.12.18-2.35,1.55Z" transform="translate(-16.87 -9.13)"/></g><path class="cls-1" d="M237.46,189.83c-.06.21.92.64,1.7,1.62s1,2,1.24,2,.3-1.29-.66-2.47S237.48,189.63,237.46,189.83Z" transform="translate(-16.87 -9.13)"/><path class="cls-1" d="M232.51,190.17c-.11.18.65.82,1.05,1.91s.3,2.06.5,2.12.72-1,.19-2.39S232.58,190,232.51,190.17Z" transform="translate(-16.87 -9.13)"/><path class="cls-1" d="M228.29,194.55c.17.11.8-.81.65-2.09s-.95-2.05-1.09-1.91.24.93.35,2S228.1,194.46,228.29,194.55Z" transform="translate(-16.87 -9.13)"/><path class="cls-1" d="M239.46,185.07c0,.21,1,.24,2.17.7s1.89,1.12,2.05,1-.45-1.15-1.78-1.68S239.42,184.87,239.46,185.07Z" transform="translate(-16.87 -9.13)"/><path class="cls-1" d="M242.1,180.48a4.19,4.19,0,0,0,2.08.68,9.32,9.32,0,0,0,2.4.06A10.46,10.46,0,0,0,248,181a2.8,2.8,0,0,0,.79-.28.93.93,0,0,0,.46-1.05,1.19,1.19,0,0,0-.74-.76,2.92,2.92,0,0,0-.81-.15,8.62,8.62,0,0,0-1.44,0,8,8,0,0,0-2.34.62c-1.26.57-1.84,1.21-1.78,1.27s.75-.38,2-.78a9.22,9.22,0,0,1,2.2-.43,8.43,8.43,0,0,1,1.32,0c.48,0,.85.15.9.38s0,.12-.12.22a2.17,2.17,0,0,1-.58.2,11.22,11.22,0,0,1-1.31.26,12.17,12.17,0,0,1-2.27.1A14.41,14.41,0,0,0,242.1,180.48Z" transform="translate(-16.87 -9.13)"/><path class="cls-1" d="M242.27,180.86c.06,0,.7-.54,1.22-1.83a7.2,7.2,0,0,0,.48-2.37,7.11,7.11,0,0,0-.11-1.43,1.84,1.84,0,0,0-1-1.5,1,1,0,0,0-1.06.29,3.25,3.25,0,0,0-.47.69,5.15,5.15,0,0,0-.3,3.84c.45,1.35,1.22,1.87,1.26,1.81a15.74,15.74,0,0,1-.75-2,5.1,5.1,0,0,1,0-2.17,4.58,4.58,0,0,1,.44-1.18c.21-.42.49-.72.64-.62s.45.51.5.92a7.38,7.38,0,0,1,.14,1.3,8,8,0,0,1-.29,2.21C242.64,180.1,242.17,180.79,242.27,180.86Z" transform="translate(-16.87 -9.13)"/><path class="cls-1" d="M333.89,166s-31.21-50.09-39.78-64c-9.91-16.07-30.25-14-35.14.48,1.1-3.26-3.79,11.1-20.26,64.73l27.74,7.94L280,147.59l11.43,32.72Z" transform="translate(-16.87 -9.13)"/><path class="cls-1" d="M339.75,163.42H282.39A31.62,31.62,0,0,0,258.75,174a21.41,21.41,0,0,0-4.32,7.88l-42,78.36,26.84,14.82,50.14-71.58,28,.34,62.35-38.93Z" transform="translate(-16.87 -9.13)"/><path class="cls-4" d="M282.79,188.24a9,9,0,0,1,1.47,1.95,32.43,32.43,0,0,1,2.69,5.26,31.61,31.61,0,0,1,1.68,5.67,8.37,8.37,0,0,1,.28,2.43c-.16,0-.73-3.66-2.44-7.9S282.65,188.33,282.79,188.24Z" transform="translate(-16.87 -9.13)"/><path class="cls-7" d="M223.52,117.5l23.35,45.92h73.67l-3-6-21.34-.64-17.38-38.7a6.74,6.74,0,0,0-6.15-4H225.61A2.34,2.34,0,0,0,223.52,117.5Z" transform="translate(-16.87 -9.13)"/><path class="cls-1" d="M261.2,137.82a3,3,0,1,1-3-3A3,3,0,0,1,261.2,137.82Z" transform="translate(-16.87 -9.13)"/><polygon class="cls-8" points="312.88 101.1 301.52 139.96 259.48 144.47 259.48 151.93 321.25 152.78 329.66 102.18 312.88 101.1"/><path class="cls-2" d="M410.52,84.75c-2.45-11.09-19-15.3-26.47-15.32-10.41,0-9.46-.66-19.69,1.18l-1.35,0C331.9,69.3,328.33,112,328.33,112l14.17,1.15h0l-3.74,29.43L327.9,163.44l59.73-.09L391,114.72l25-.66S413,96,410.52,84.75Z" transform="translate(-16.87 -9.13)"/><path class="cls-1" d="M344.23,94c.15,0-.9,10.39-2.35,23.17s-2.76,23.11-2.92,23.1.89-10.39,2.34-23.17S344.07,94,344.23,94Z" transform="translate(-16.87 -9.13)"/><g class="cls-9"><path d="M389.88,94c-2.55,12.18-5.87,24.69-8.42,36.87-.54,2.59-1.12,5.26-2.7,7.38a17.26,17.26,0,0,1-3.63,3.35c-5,3.76-10.32,7.29-16.21,9.44a145.76,145.76,0,0,0,25.23-4.39,6.88,6.88,0,0,0,3.79-2,7,7,0,0,0,1.14-3.62c1.83-15.61,1.3-31.36.8-47.07" transform="translate(-16.87 -9.13)"/></g><path class="cls-8" d="M307.35,148.16l18.52-2.22,13.05,8.55,49.9-12,1.46-27.84,22.39-.56-.52,32.68a19,19,0,0,1-19.48,18.56l-73.09-2-3.1-6.22-15.68-.47Z" transform="translate(-16.87 -9.13)"/><path class="cls-10" d="M388.82,142.53a6.26,6.26,0,0,1-.94.29l-2.72.7-10,2.5-33.09,8-3.07.73-.13,0-.1-.07-13-8.57.18,0-18.53,2.14.12-.07-4.89,6.21-1.32,1.64a3.69,3.69,0,0,1-.48.54,3.68,3.68,0,0,1,.4-.6l1.25-1.7,4.76-6.31,0-.06h.08l18.51-2.31h.09l.09.05,13.06,8.54-.23,0,3.08-.74,33.12-7.85,10.06-2.32,2.74-.6A6.09,6.09,0,0,1,388.82,142.53Z" transform="translate(-16.87 -9.13)"/><path class="cls-10" d="M318.1,153.47a44.85,44.85,0,0,1-7.19.29h-1.32l.19-.07a34.15,34.15,0,0,1-4.67,3.59,33.85,33.85,0,0,1,4.3-4l.07-.07h1.43A44.85,44.85,0,0,1,318.1,153.47Z" transform="translate(-16.87 -9.13)"/><path class="cls-10" d="M397.54,147.19c-.16.09-1.12-2.25-3.64-3.8s-5-1.45-5-1.63a3,3,0,0,1,1.61-.13,8.54,8.54,0,0,1,6.43,4.05A3.17,3.17,0,0,1,397.54,147.19Z" transform="translate(-16.87 -9.13)"/><path class="cls-1" d="M416,114.29h0l-5.45.2c-4.61.14-11,.3-18,.44l-2.26,0H390v-.28c-.26-6.53-.14-12.33,0-16.5.07-2.09.15-3.76.22-4.92a13,13,0,0,1,.16-1.79,10.12,10.12,0,0,1,0,1.8c0,1.25,0,2.9,0,4.92,0,4.17-.07,10,.2,16.46l-.3-.27,2.26-.05c7-.14,13.39-.23,18-.27l5.46,0C417.28,114.07,414,114.21,416,114.29Z" transform="translate(-16.87 -9.13)"/><path class="cls-1" d="M377.51,114.46a9.94,9.94,0,0,1-.72,1.44c-.24.46-.55,1-.94,1.63s-.81,1.35-1.36,2.1a52.41,52.41,0,0,1-4,5.12,53.24,53.24,0,0,1-12.19,10.19,51.06,51.06,0,0,1-5.75,3c-.83.4-1.62.69-2.3,1s-1.28.49-1.77.64A9,9,0,0,1,347,140a9.34,9.34,0,0,1,1.47-.64c.48-.18,1.06-.41,1.73-.72s1.44-.6,2.26-1a59.34,59.34,0,0,0,5.65-3.1,61.38,61.38,0,0,0,6.39-4.63,62.51,62.51,0,0,0,5.69-5.47,58.79,58.79,0,0,0,4.05-5c.56-.74,1-1.44,1.41-2s.75-1.13,1-1.57A8.83,8.83,0,0,1,377.51,114.46Z" transform="translate(-16.87 -9.13)"/><path class="cls-11" d="M409.42,82.69a5.07,5.07,0,0,1-.73,0l-2.08-.08-7.67-.29c-6.48-.22-15.43-.39-25.32-.26s-18.83.57-25.29,1l-7.66.5-2.09.13a4.1,4.1,0,0,1-.73,0,3.29,3.29,0,0,1,.72-.11l2.08-.23c1.8-.19,4.42-.42,7.65-.67,6.47-.5,15.42-1,25.32-1.12s18.85.1,25.33.42c3.24.15,5.86.31,7.67.45l2.08.17A3.67,3.67,0,0,1,409.42,82.69Z" transform="translate(-16.87 -9.13)"/><path class="cls-11" d="M343,103a82.76,82.76,0,0,1-13.11,0A82.76,82.76,0,0,1,343,103Z" transform="translate(-16.87 -9.13)"/><path class="cls-11" d="M389.75,105.29a1.67,1.67,0,0,1-.46.1l-1.35.2c-1.17.16-2.87.36-5,.58-4.19.43-10,.9-16.45,1.15s-12.27.24-16.49.13c-2.11,0-3.82-.12-5-.19l-1.36-.09a1.62,1.62,0,0,1-.47-.07,1.68,1.68,0,0,1,.48,0H345l5,0c4.22,0,10,0,16.47-.28s12.24-.66,16.44-1l5-.41,1.35-.1A1.48,1.48,0,0,1,389.75,105.29Z" transform="translate(-16.87 -9.13)"/><path class="cls-11" d="M413.8,101.2c0,.14-5.32.74-11.91,1.32s-11.94,1-11.95.81,5.31-.74,11.91-1.32S413.79,101.06,413.8,101.2Z" transform="translate(-16.87 -9.13)"/><path class="cls-11" d="M361.94,131.64a17,17,0,0,1-3.15.25c-1.94.08-4.64.12-7.61.05s-5.66-.24-7.6-.41a17.67,17.67,0,0,1-3.13-.4,19.82,19.82,0,0,1,3.15,0c1.94.08,4.63.18,7.59.25s5.65.1,7.6.12A20.47,20.47,0,0,1,361.94,131.64Z" transform="translate(-16.87 -9.13)"/><path class="cls-11" d="M389.41,132.5a5.22,5.22,0,0,1-1.13.24c-.73.13-1.79.28-3.11.45-2.64.32-6.29.66-10.34.82s-7.72.1-10.37,0c-1.33-.06-2.4-.13-3.14-.2a4.83,4.83,0,0,1-1.15-.16,5.39,5.39,0,0,1,1.16,0l3.14,0c2.64,0,6.3,0,10.34-.13s7.68-.44,10.32-.67l3.13-.28A4.59,4.59,0,0,1,389.41,132.5Z" transform="translate(-16.87 -9.13)"/><path class="cls-11" d="M346.07,151.64a19,19,0,0,1-9.69-3.92c.09-.13,2.1,1.08,4.77,2.16S346.1,151.49,346.07,151.64Z" transform="translate(-16.87 -9.13)"/><path class="cls-8" d="M371,15.34h-.95A18.15,18.15,0,0,0,351.81,31.8c-.7,8.63-1.35,18.17-1.29,22.8.15,9.59,10,11.06,10,11.06l-.36,8.51a11.74,11.74,0,0,0,11,12.11h0a11.73,11.73,0,0,0,12.4-11.15l2-40.49C386.48,24.68,381.25,15.9,371,15.34Z" transform="translate(-16.87 -9.13)"/><path class="cls-10" d="M360.43,65.64a24.33,24.33,0,0,0,12.89-3.7s-3,6.91-12.84,6.06Z" transform="translate(-16.87 -9.13)"/><path class="cls-1" d="M355.3,37.75a1.38,1.38,0,0,0,1.36,1.38,1.32,1.32,0,0,0,1.44-1.24,1.38,1.38,0,0,0-1.35-1.38A1.33,1.33,0,0,0,355.3,37.75Z" transform="translate(-16.87 -9.13)"/><path class="cls-1" d="M353.93,36.48c.18.18,1.24-.59,2.75-.59s2.63.74,2.79.56-.1-.4-.58-.75a3.91,3.91,0,0,0-2.23-.66,3.84,3.84,0,0,0-2.19.69C354,36.08,353.85,36.4,353.93,36.48Z" transform="translate(-16.87 -9.13)"/><path class="cls-1" d="M369.42,38.2a1.39,1.39,0,0,0,1.36,1.38,1.34,1.34,0,0,0,1.45-1.24A1.4,1.4,0,0,0,370.87,37,1.34,1.34,0,0,0,369.42,38.2Z" transform="translate(-16.87 -9.13)"/><path class="cls-1" d="M368.06,36.73c.17.18,1.24-.59,2.75-.59s2.62.73,2.78.55-.09-.4-.58-.74a4,4,0,0,0-2.23-.67,3.79,3.79,0,0,0-2.19.7C368.13,36.33,368,36.65,368.06,36.73Z" transform="translate(-16.87 -9.13)"/><path class="cls-1" d="M363.34,47.66a10.51,10.51,0,0,0-2.46-.42c-.39,0-.75-.11-.82-.37a1.88,1.88,0,0,1,.26-1.12c.36-.91.74-1.86,1.13-2.86,1.58-4.08,2.72-7.44,2.55-7.5s-1.58,3.2-3.16,7.28l-1.09,2.88a2.22,2.22,0,0,0-.2,1.48,1,1,0,0,0,.64.55,3.56,3.56,0,0,0,.66.09A9.88,9.88,0,0,0,363.34,47.66Z" transform="translate(-16.87 -9.13)"/><path class="cls-1" d="M367.79,48.67c-.25,0-.25,1.59-1.65,2.73s-3.15,1-3.16,1.19.39.31,1.13.32a4.1,4.1,0,0,0,2.64-.9A3.51,3.51,0,0,0,368,49.73C368.09,49.06,367.9,48.66,367.79,48.67Z" transform="translate(-16.87 -9.13)"/><path class="cls-1" d="M368.4,31c.15.4,1.66.2,3.44.41s3.21.67,3.44.31c.11-.17-.14-.55-.72-.93a6.12,6.12,0,0,0-5.25-.55C368.66,30.45,368.34,30.77,368.4,31Z" transform="translate(-16.87 -9.13)"/><path class="cls-1" d="M354.48,32.22c.27.33,1.31,0,2.56,0s2.32.22,2.56-.13c.11-.17-.06-.51-.53-.83a3.79,3.79,0,0,0-4.12.14C354.51,31.71,354.36,32.06,354.48,32.22Z" transform="translate(-16.87 -9.13)"/><path class="cls-8" d="M384.15,41.74c.17-.07,6.76-2,6.56,4.59s-6.92,5-6.93,4.81S384.15,41.74,384.15,41.74Z" transform="translate(-16.87 -9.13)"/><path class="cls-10" d="M385.32,48.72s.12.09.31.18a1.21,1.21,0,0,0,.88,0,2.8,2.8,0,0,0,1.42-2.49,3.82,3.82,0,0,0-.28-1.65,1.34,1.34,0,0,0-.85-.9.61.61,0,0,0-.71.29c-.09.18,0,.32-.09.33s-.14-.12-.08-.39a.78.78,0,0,1,.28-.4,1,1,0,0,1,.65-.15,1.66,1.66,0,0,1,1.2,1.05,3.81,3.81,0,0,1,.35,1.84,3,3,0,0,1-1.8,2.78,1.28,1.28,0,0,1-1.07-.2C385.33,48.88,385.3,48.73,385.32,48.72Z" transform="translate(-16.87 -9.13)"/><path class="cls-1" d="M379.74,22.26l-28.07.6a12.59,12.59,0,0,1,4.12-4.65,22.36,22.36,0,0,1,12.71-4.45c4.58-.08,13.9,5.35,17.21,8.42,2.65,2.46,2.64,4.59,2.64,4.59.42,3.54-1.62,7.57-2.43,11.05-.41,1.8-1.22,7.22-1.22,7.22h0c-1.55,0-2.12-1.2-1.89-2.69l.29-5.84a8.7,8.7,0,0,1-2.77-10.3C380.74,25.68,381.59,23.25,379.74,22.26Z" transform="translate(-16.87 -9.13)"/><path class="cls-10" d="M373.84,43a.18.18,0,0,0,.07-.35.18.18,0,0,0-.2.15A.17.17,0,0,0,373.84,43Z" transform="translate(-16.87 -9.13)"/><path class="cls-10" d="M371,42.35c.09,0,.18-.06.21-.17A.19.19,0,0,0,371,42a.21.21,0,0,0-.08.4Z" transform="translate(-16.87 -9.13)"/><path class="cls-10" d="M369,42.31c.09,0,.18-.1.19-.25s0-.27-.13-.28-.18.1-.2.24S368.91,42.29,369,42.31Z" transform="translate(-16.87 -9.13)"/><path class="cls-10" d="M372.43,44.75c.09,0,.16,0,.16-.1s-.07-.11-.16-.11-.17.05-.17.11S372.33,44.75,372.43,44.75Z" transform="translate(-16.87 -9.13)"/><path class="cls-10" d="M369.77,44.16A.19.19,0,0,0,370,44a.19.19,0,0,0-.15-.2.19.19,0,0,0,0,.37Z" transform="translate(-16.87 -9.13)"/><path class="cls-10" d="M356,42.58a.18.18,0,1,0-.13-.21A.18.18,0,0,0,356,42.58Z" transform="translate(-16.87 -9.13)"/><path class="cls-10" d="M354,42.41c.09,0,.17-.08.18-.19a.17.17,0,1,0-.18.19Z" transform="translate(-16.87 -9.13)"/><path class="cls-10" d="M357.72,42.63a.17.17,0,0,0,.19-.11.16.16,0,0,0-.14-.17.16.16,0,0,0-.19.1A.16.16,0,0,0,357.72,42.63Z" transform="translate(-16.87 -9.13)"/><path class="cls-10" d="M356.26,44.55a.2.2,0,0,0,.23-.11.18.18,0,0,0-.08-.24.19.19,0,0,0-.15.35Z" transform="translate(-16.87 -9.13)"/><path class="cls-10" d="M354.58,44.22a.14.14,0,0,0,.12-.17.15.15,0,0,0-.2-.09.14.14,0,0,0-.12.17A.15.15,0,0,0,354.58,44.22Z" transform="translate(-16.87 -9.13)"/><path class="cls-1" d="M385.9,22.56a7.84,7.84,0,0,0-1.58-7,8.33,8.33,0,0,0-6.71-3,25.94,25.94,0,0,1-3.92.28c-2.43-.26-4.3-2.15-6.55-3.07a8.67,8.67,0,0,0-10.09,2.94c-.86,1.24-1.42,2.78-2.73,3.56-1.13.68-2.55.62-3.82,1a6.09,6.09,0,0,0-4.2,6,7.19,7.19,0,0,0,4.48,6,9.23,9.23,0,0,0,7.76-.53c2.12-1.15,4-3.11,6.43-3s4.7,2.38,7.17,1.9a7,7,0,0,0,3.23-2.11,5.62,5.62,0,0,1,3.34-1.87c1.32-.08,2,1.68,1.53,2.87l5.66-3.91" transform="translate(-16.87 -9.13)"/><path class="cls-4" d="M352.22,19.39s0,0,0,.09l.16.27a4.89,4.89,0,0,0,.81.89,5,5,0,0,0,1.67.94,4.94,4.94,0,0,0,2.54.15,5.05,5.05,0,0,0,2.69-1.49,33.59,33.59,0,0,0,1.94-2.88,4,4,0,0,1,1.35-1.2,4.19,4.19,0,0,1,1.87-.4,4.36,4.36,0,0,1,1.91.51,3.46,3.46,0,0,1,1.4,1.41c.34.6.59,1.26,1,1.84a2.32,2.32,0,0,0,1.8,1.06,3.56,3.56,0,0,0,2-.55,7.39,7.39,0,0,0,1.49-1.2,6.23,6.23,0,0,1,2.78-1.93,3.63,3.63,0,0,1,2.82.65A4.77,4.77,0,0,1,382,19.41a8.15,8.15,0,0,1,.58,1.76c.1.5.15.89.18,1.16s.05.41.06.41,0,0,0-.11,0-.17,0-.3a11.15,11.15,0,0,0-.14-1.18,7.84,7.84,0,0,0-.54-1.8,4.83,4.83,0,0,0-1.58-2,3.77,3.77,0,0,0-3-.71,6.42,6.42,0,0,0-2.91,2,7,7,0,0,1-1.44,1.16,3.42,3.42,0,0,1-1.81.51,2.06,2.06,0,0,1-1.59-1,19.48,19.48,0,0,1-1-1.82A3.78,3.78,0,0,0,367.33,16a4.49,4.49,0,0,0-2-.53,4.31,4.31,0,0,0-2,.43,4.19,4.19,0,0,0-1.45,1.28,32.49,32.49,0,0,1-1.9,2.87,4.92,4.92,0,0,1-2.56,1.46,4.74,4.74,0,0,1-2.45-.11,5,5,0,0,1-1.65-.88A6.24,6.24,0,0,1,352.22,19.39Z" transform="translate(-16.87 -9.13)"/><path class="cls-4" d="M347.13,19.49A1.37,1.37,0,0,0,347,20a3.9,3.9,0,0,0,.14,1.47,5.15,5.15,0,0,0,1,1.93A6.26,6.26,0,0,0,350.43,25a9.44,9.44,0,0,0,4.89.54,13.83,13.83,0,0,0,1.48-.29,2,2,0,0,0,.52-.17s-.77.14-2,.27a9.76,9.76,0,0,1-4.76-.59,6.07,6.07,0,0,1-2.14-1.49,5.17,5.17,0,0,1-1.06-1.82A5.54,5.54,0,0,1,347.13,19.49Z" transform="translate(-16.87 -9.13)"/><path class="cls-2" d="M420.34,116.55c-.18,12.87-8,24.72-18.24,32.53s-22.64,12.14-35,15.7-25,6.51-36.63,12c-16.11,7.62-31,18.07-40.12,33.39S278,245.63,279,263.41L415.8,249.74,423.29,172Z" transform="translate(-16.87 -9.13)"/><path class="cls-1" d="M297.76,199.27a3.27,3.27,0,0,1-.36.56c-.28.4-.64.9-1.08,1.54s-1.08,1.46-1.69,2.44-1.4,2.05-2.1,3.33-1.55,2.63-2.3,4.18-1.56,3.18-2.34,4.94a83.06,83.06,0,0,0-4,11.88,93.83,93.83,0,0,0-2.12,12.35c-.17,1.92-.33,3.75-.39,5.46s-.1,3.31-.11,4.77,0,2.78.05,3.94.08,2.16.12,3,.07,1.4.09,1.88a5.53,5.53,0,0,1,0,.66,2.42,2.42,0,0,1-.1-.65c0-.48-.11-1.1-.19-1.87s-.17-1.81-.21-3-.15-2.48-.13-3.95,0-3.07.05-4.79.18-3.56.35-5.49A88.53,88.53,0,0,1,283.41,228a81,81,0,0,1,4-11.94c.8-1.76,1.56-3.44,2.39-4.95s1.62-2.91,2.38-4.17,1.53-2.33,2.17-3.3,1.26-1.76,1.76-2.41l1.17-1.47A2.62,2.62,0,0,1,297.76,199.27Z" transform="translate(-16.87 -9.13)"/><g class="cls-3"><path d="M420.34,116.55c-.18,12.87-8,24.72-18.24,32.53s-22.64,12.14-35,15.7-25,6.51-36.63,12c-16.11,7.62-31,18.07-40.12,33.39S278,245.63,279,263.41L415.8,249.74,423.29,172Z" transform="translate(-16.87 -9.13)"/></g><path class="cls-2" d="M104.63,174.41A48.93,48.93,0,0,0,58,161.6a84.91,84.91,0,0,0,47.2,14.75" transform="translate(-16.87 -9.13)"/><path class="cls-2" d="M88.81,118.38c1.94-13.75-3.4-29.21-13.69-39.2-.34,13.62,5.41,28.95,13.69,39.2" transform="translate(-16.87 -9.13)"/><path class="cls-2" d="M97,144.35a73.37,73.37,0,0,0-33.71-32.22,46.32,46.32,0,0,0,33.84,32.36" transform="translate(-16.87 -9.13)"/><path class="cls-2" d="M98.74,149.36c-8.3.23-16.7-.06-24.73-2.19S58.29,141,53,134.6a82.64,82.64,0,0,1,45.67,14" transform="translate(-16.87 -9.13)"/><path class="cls-2" d="M94.53,132.85c4.21-15.79,11.17-26.72,23.58-35.57a32.82,32.82,0,0,1-23.58,35.57" transform="translate(-16.87 -9.13)"/><path class="cls-2" d="M125.87,160.09a23.37,23.37,0,0,0-14.2-21.65c.69,8.15,7.09,17.59,14.2,21.65" transform="translate(-16.87 -9.13)"/><path class="cls-2" d="M129.84,146.77a34.83,34.83,0,0,1,22.82-29.71c-2.87,13.2-10.5,24.18-22.82,29.71" transform="translate(-16.87 -9.13)"/><path class="cls-2" d="M123.86,170.41c2.93-4.19,7.71-6.79,12.65-8.09s10.11-1.41,15.22-1.51a35.58,35.58,0,0,1-27.48,11.44" transform="translate(-16.87 -9.13)"/><path class="cls-2" d="M117.93,204.08a39,39,0,0,1,47.6,22.55c-17.29-3.28-34.36-11-47.6-22.55" transform="translate(-16.87 -9.13)"/><path class="cls-2" d="M99,192.38c2.87,8.49,2.32,18.75-4.07,26.07A31.13,31.13,0,0,1,99,192.38" transform="translate(-16.87 -9.13)"/><path class="cls-2" d="M87.73,187.66a32,32,0,0,1-17.64,25.92,2,2,0,0,1-1.56.26c-.78-.32-.85-1.38-.76-2.22,1.25-10.88,9.31-21.4,20-24" transform="translate(-16.87 -9.13)"/><path class="cls-2" d="M80.4,186.56a26.2,26.2,0,0,1-38.27.19c12.17-1.33,26.2-2.22,38.27-.19" transform="translate(-16.87 -9.13)"/><path class="cls-1" d="M78.58,89.31a2,2,0,0,0,.11.35c.09.26.22.6.37,1l1.47,3.94c.66,1.71,1.41,3.81,2.29,6.25.44,1.22.91,2.52,1.4,3.9l1.52,4.4c2.16,6.16,4.55,13.56,7.14,21.79s5.2,17.35,7.82,26.95,4.88,18.83,6.83,27.24,3.52,16,4.7,22.43l.86,4.57c.25,1.45.48,2.82.7,4.1.44,2.55.82,4.75,1.07,6.56s.49,3.18.64,4.15q.1.69.18,1.08a2.41,2.41,0,0,0,.07.37,1.71,1.71,0,0,0,0-.37c0-.27-.07-.63-.13-1.09-.13-1-.31-2.38-.55-4.17s-.58-4-1-6.58c-.21-1.28-.43-2.65-.67-4.1s-.54-3-.83-4.58c-1.13-6.43-2.73-14-4.61-22.47s-4.21-17.63-6.79-27.26-5.3-18.71-7.87-27-5-15.62-7.23-21.77l-1.55-4.39-1.44-3.89c-.9-2.43-1.68-4.53-2.36-6.22s-1.19-3-1.55-3.91c-.17-.43-.31-.77-.41-1A1.68,1.68,0,0,0,78.58,89.31Z" transform="translate(-16.87 -9.13)"/><path class="cls-1" d="M145.4,124.1l-.21.2-.58.61c-.51.54-1.25,1.35-2.17,2.42a87.68,87.68,0,0,0-7.16,9.55,64.82,64.82,0,0,0-7.49,16c-2,6.38-3.25,13.63-4.49,21.21-2.47,15.17-5.51,28.75-7.7,38.58L113,224.32l-.7,3.17c-.07.34-.13.61-.17.82a.92.92,0,0,0,0,.29l.09-.27c0-.21.12-.48.21-.82l.79-3.15c.66-2.77,1.61-6.72,2.78-11.6,2.28-9.81,5.36-23.39,7.84-38.57,1.24-7.58,2.47-14.81,4.44-21.16a65,65,0,0,1,7.36-16,92.65,92.65,0,0,1,7-9.61c.9-1.09,1.61-1.91,2.1-2.47l.54-.65A1,1,0,0,0,145.4,124.1Z" transform="translate(-16.87 -9.13)"/><path class="cls-1" d="M76.77,186a2.28,2.28,0,0,0,.44.08l1.26.14.91.09,1.07.16c.77.11,1.65.23,2.61.44l1.51.3,1.62.41c1.13.25,2.29.67,3.53,1a52.09,52.09,0,0,1,7.7,3.39,43.94,43.94,0,0,1,6.91,4.8,34.22,34.22,0,0,1,2.65,2.55,26.92,26.92,0,0,1,2.09,2.41,26.28,26.28,0,0,1,1.56,2.14,17.34,17.34,0,0,1,1.06,1.69c.26.44.47.8.65,1.09s.23.38.25.37a2.1,2.1,0,0,0-.17-.41l-.57-1.13a14.87,14.87,0,0,0-1-1.75,25.08,25.08,0,0,0-1.51-2.2,27.1,27.1,0,0,0-2.08-2.48,34.55,34.55,0,0,0-2.65-2.6,41.91,41.91,0,0,0-7-4.88,50.42,50.42,0,0,0-7.79-3.4c-1.26-.36-2.44-.76-3.58-1l-1.63-.39-1.53-.27c-1-.2-1.86-.29-2.64-.38l-1.08-.12-.92,0L77.21,186A1.35,1.35,0,0,0,76.77,186Z" transform="translate(-16.87 -9.13)"/><path class="cls-1" d="M73.3,124.4a7.23,7.23,0,0,0,.88.84l2.5,2.17c2.13,1.82,5.09,4.31,8.38,7s6.28,5.18,8.46,6.93l2.6,2.06a5.37,5.37,0,0,0,1,.7,6.36,6.36,0,0,0-.88-.84l-2.5-2.18c-2.13-1.81-5.09-4.3-8.38-7s-6.27-5.17-8.45-6.92c-1.05-.82-1.92-1.52-2.6-2.06A5.2,5.2,0,0,0,73.3,124.4Z" transform="translate(-16.87 -9.13)"/><path class="cls-1" d="M70.31,140.49c0,.12,6.35,2.12,14.27,4.45s14.36,4.14,14.4,4-6.35-2.12-14.27-4.46S70.35,140.36,70.31,140.49Z" transform="translate(-16.87 -9.13)"/><path class="cls-1" d="M93.9,134.08a5,5,0,0,0,.66-.92l1.68-2.56c1.43-2.16,3.46-5.11,5.85-8.25s4.71-5.87,6.42-7.82l2-2.31a5.28,5.28,0,0,0,.71-.88,4.71,4.71,0,0,0-.84.76c-.52.5-1.25,1.26-2.14,2.21-1.77,1.9-4.13,4.61-6.54,7.76s-4.4,6.14-5.76,8.35c-.68,1.11-1.21,2-1.56,2.65A5,5,0,0,0,93.9,134.08Z" transform="translate(-16.87 -9.13)"/><path class="cls-1" d="M116.08,143a19.26,19.26,0,0,0,1.5,2.47c1,1.5,2.25,3.58,3.59,5.94s2.47,4.53,3.27,6.12a22.07,22.07,0,0,0,1.35,2.55,14.23,14.23,0,0,0-1.05-2.69c-.73-1.63-1.82-3.84-3.17-6.21s-2.69-4.44-3.72-5.9A15.69,15.69,0,0,0,116.08,143Z" transform="translate(-16.87 -9.13)"/><path class="cls-1" d="M123.67,170.85c0,.06,1.25-.53,3.24-1.43s4.78-2.07,7.93-3.18,6.06-1.92,8.18-2.46,3.44-.83,3.43-.9a3.14,3.14,0,0,0-1,.1c-.6.09-1.48.25-2.55.48a71.22,71.22,0,0,0-16.17,5.66c-1,.49-1.76.9-2.3,1.21A3.6,3.6,0,0,0,123.67,170.85Z" transform="translate(-16.87 -9.13)"/><path class="cls-1" d="M117.69,204.13a2,2,0,0,0,.4.13l1.15.29,4.25,1a142.09,142.09,0,0,1,13.87,3.67,61.24,61.24,0,0,1,12.95,6.08c1.54,1,2.75,1.85,3.56,2.48a12,12,0,0,0,1.29,1,1.7,1.7,0,0,0-.29-.3c-.2-.18-.48-.46-.88-.79a39.18,39.18,0,0,0-3.51-2.62,56.54,56.54,0,0,0-13-6.24,114.49,114.49,0,0,0-14-3.55l-4.27-.83A9.45,9.45,0,0,0,117.69,204.13Z" transform="translate(-16.87 -9.13)"/><path class="cls-1" d="M96.09,212.33c.13,0,.89-4.46,1.7-10s1.36-10,1.24-10.07-.89,4.46-1.7,10S96,212.31,96.09,212.33Z" transform="translate(-16.87 -9.13)"/><path class="cls-1" d="M73.59,204.16a20.83,20.83,0,0,0,2-2.41c1.22-1.51,2.9-3.59,4.81-5.86s3.67-4.29,4.95-5.74a24.19,24.19,0,0,0,2-2.41s-.25.17-.65.55-.94.93-1.62,1.63c-1.34,1.41-3.15,3.4-5.06,5.67s-3.56,4.4-4.71,6c-.57.79-1,1.43-1.33,1.88A3.11,3.11,0,0,0,73.59,204.16Z" transform="translate(-16.87 -9.13)"/><polygon class="cls-4" points="116.25 215.89 116.25 227.01 113.47 227.01 103.59 258.19 81.68 258.19 72.11 227.31 68.41 227.01 68.41 215.89 116.25 215.89"/><path class="cls-1" d="M87.13,236.45c0,.13,9.68.23,21.61.23s21.6-.1,21.6-.23-9.67-.24-21.6-.24S87.13,236.32,87.13,236.45Z" transform="translate(-16.87 -9.13)"/><path class="cls-1" d="M71.37,165a7.61,7.61,0,0,0,1.41.38l3.84.93c3.24.8,7.7,2,12.52,3.64s9.11,3.35,12.18,4.67l3.63,1.58a8.91,8.91,0,0,0,1.34.55A8.26,8.26,0,0,0,105,176c-.83-.43-2-1-3.57-1.72a124.93,124.93,0,0,0-12.16-4.81,127.08,127.08,0,0,0-12.59-3.52c-1.63-.36-3-.63-3.89-.78A9.62,9.62,0,0,0,71.37,165Z" transform="translate(-16.87 -9.13)"/><path class="cls-11" d="M94.41,253.76c0,.13,6.78.24,15.15.24s15.16-.11,15.16-.24-6.78-.23-15.16-.23S94.41,253.64,94.41,253.76Z" transform="translate(-16.87 -9.13)"/><path class="cls-11" d="M93.55,251.19c0,.12,7.2.23,16.07.23s16.06-.11,16.06-.23-7.19-.24-16.06-.24S93.55,251.06,93.55,251.19Z" transform="translate(-16.87 -9.13)"/></svg>