<svg id="Layer_1" data-name="Layer 1" xmlns="http://www.w3.org/2000/svg" viewBox="0 0 420.78 265.12"><defs><style>.cls-1{fill:#263238;}.cls-2{fill:#e8505b;}.cls-3{opacity:0.4;}.cls-4{fill:#455a64;}.cls-5{opacity:0.6;}.cls-6{fill:#fff;}.cls-7{fill:#e0e0e0;}.cls-8{fill:#ffbe9d;}.cls-9{opacity:0.2;}.cls-10{fill:#eb996e;}.cls-11{fill:#fafafa;}</style></defs><path class="cls-1" d="M439,342c0,.13-94.2.24-210.38.24s-210.4-.11-210.4-.24,94.18-.24,210.4-.24S439,341.89,439,342Z" transform="translate(-18.22 -104)"/><path class="cls-2" d="M401.71,342a17.61,17.61,0,0,0,17.37-14.35c2.89-14.85,6.6-35.61,6.72-58.93.07-14.31-3.08-32.42-7.45-46-6.37-19.87-20-37.37-39.82-43.1-25.72-7.45-35-4.59-53.28,5.11-19.85,10.56-25.22,30.36-45.88,39.16-20.05,8.55-44.24,5.63-62.52,17.59-16.09,10.52-23.93,30.73-24.57,50.13a109.18,109.18,0,0,0,2.94,30.66c2.49,10.58,11.91,19.66,22.64,19.75Z" transform="translate(-18.22 -104)"/><g class="cls-3"><path d="M401.71,342a17.61,17.61,0,0,0,17.37-14.35c2.89-14.85,6.6-35.61,6.72-58.93.07-14.31-3.08-32.42-7.45-46-6.37-19.87-20-37.37-39.82-43.1-25.72-7.45-35-4.59-53.28,5.11-19.85,10.56-25.22,30.36-45.88,39.16-20.05,8.55-44.24,5.63-62.52,17.59-16.09,10.52-23.93,30.73-24.57,50.13a109.18,109.18,0,0,0,2.94,30.66c2.49,10.58,11.91,19.66,22.64,19.75Z" transform="translate(-18.22 -104)"/></g><path class="cls-1" d="M388.48,183.16a2,2,0,0,1,.2.37l.52,1.11,2,4.3c.43.93.9,2,1.41,3.11s.94,2.43,1.48,3.78,1.07,2.82,1.66,4.37,1.13,3.2,1.68,5,1.13,3.58,1.73,5.5c.32,1,.56,1.94.82,3s.51,2,.78,3.09.54,2.11.81,3.19l.42,1.64q.17.83.33,1.68l1.38,7a226.82,226.82,0,0,1,3.18,31.45,266.71,266.71,0,0,1-1.23,31.6c-.57,4.82-1,9.42-1.76,13.68-.34,2.14-.63,4.2-1,6.18s-.74,3.86-1.08,5.66c-.64,3.62-1.43,6.85-2.07,9.7-.32,1.42-.63,2.74-.91,4s-.6,2.31-.86,3.31c-.53,2-.94,3.49-1.22,4.56l-.33,1.19a3.3,3.3,0,0,1-.13.4,2.36,2.36,0,0,1,.08-.42c.07-.29.16-.69.28-1.19.26-1.08.64-2.62,1.12-4.6.25-1,.52-2.1.82-3.31s.56-2.55.87-4c.6-2.85,1.37-6.08,2-9.7.34-1.8.68-3.69,1.05-5.66s.61-4,.94-6.17c.71-4.26,1.16-8.85,1.72-13.67a275,275,0,0,0,1.18-31.54,227.61,227.61,0,0,0-3.13-31.37q-.69-3.57-1.35-6.95-.16-.85-.33-1.68c-.14-.55-.27-1.09-.41-1.63-.27-1.08-.53-2.15-.79-3.19l-.77-3.09c-.25-1-.49-2-.8-2.95q-.89-2.86-1.7-5.5c-.53-1.75-1-3.42-1.64-5l-1.62-4.37c-.52-1.36-.94-2.65-1.43-3.79S391.39,190,391,189l-1.88-4.33-.47-1.13Z" transform="translate(-18.22 -104)"/><path class="cls-4" d="M219.42,341.88l-17.17,27.24-33.53-21.48c2.22-3.12,23.63,1.47,23.63,1.47l10.29-17.92Z" transform="translate(-18.22 -104)"/><g class="cls-5"><path class="cls-6" d="M203.64,354.28a1.67,1.67,0,0,1,0,2.19,1.56,1.56,0,0,1-2.15,0,1.75,1.75,0,0,1,.06-2.32,1.6,1.6,0,0,1,2.22.27" transform="translate(-18.22 -104)"/></g><g class="cls-5"><path class="cls-6" d="M202.25,369.12l1.63-2.81-32.77-19.55s-1.9-.29-2.39.88Z" transform="translate(-18.22 -104)"/></g><path class="cls-1" d="M191.91,348.59c-.1.17.68.77,1.15,1.82s.47,2,.66,2,.54-1.08-.05-2.35S192,348.41,191.91,348.59Z" transform="translate(-18.22 -104)"/><path class="cls-1" d="M187.48,347.81c-.14.14.39.87.51,1.93s-.18,1.91,0,2,.86-.77.69-2.08S187.58,347.65,187.48,347.81Z" transform="translate(-18.22 -104)"/><path class="cls-1" d="M182.82,350.8c.13.13.87-.55,1-1.73s-.4-2-.55-1.94,0,.88-.12,1.85S182.67,350.68,182.82,350.8Z" transform="translate(-18.22 -104)"/><path class="cls-1" d="M194.7,344.77c0,.19.87.45,1.76,1.1s1.42,1.42,1.6,1.33-.16-1.12-1.21-1.88S194.7,344.59,194.7,344.77Z" transform="translate(-18.22 -104)"/><path class="cls-1" d="M198,341.25c-.05.06.53.58,1.68,1.06a8.67,8.67,0,0,0,2.1.58,8.88,8.88,0,0,0,1.29.1,2.34,2.34,0,0,0,.75-.08.85.85,0,0,0,.63-.83,1.08,1.08,0,0,0-.48-.84,2.47,2.47,0,0,0-.69-.32,7.76,7.76,0,0,0-1.27-.3,6.57,6.57,0,0,0-2.19,0,3.31,3.31,0,0,0-1.85.75c0,.1.75-.18,1.91-.27a7.59,7.59,0,0,1,2,.1,6.49,6.49,0,0,1,1.16.32c.41.13.71.32.71.54s0,.11-.16.17a2.23,2.23,0,0,1-.56.05,10.3,10.3,0,0,1-3.22-.46A11.45,11.45,0,0,0,198,341.25Z" transform="translate(-18.22 -104)"/><path class="cls-1" d="M198.08,341.62c0,.06.74-.32,1.47-1.36a6.59,6.59,0,0,0,.93-2,6.76,6.76,0,0,0,.22-1.31,1.69,1.69,0,0,0-.54-1.55.92.92,0,0,0-1,0,3.12,3.12,0,0,0-.56.51,4.37,4.37,0,0,0-.71,1.15,4.63,4.63,0,0,0-.38,2.22c.11,1.3.66,1.93.71,1.89a18.33,18.33,0,0,1-.23-1.91,4.67,4.67,0,0,1,.46-1.94,4.46,4.46,0,0,1,.64-1c.28-.33.6-.53.71-.41a1.16,1.16,0,0,1,.24.93,7.27,7.27,0,0,1-.16,1.19,7.4,7.4,0,0,1-.73,1.91C198.57,341,198,341.54,198.08,341.62Z" transform="translate(-18.22 -104)"/><path class="cls-4" d="M243.42,257.05l-10.28,30.6-37.61-12.78c1.42-3.57,23.3-4.27,23.3-4.27l5.79-19.88Z" transform="translate(-18.22 -104)"/><g class="cls-5"><path class="cls-6" d="M231,272.9a1.66,1.66,0,0,1,.48,2.14,1.55,1.55,0,0,1-2.09.49,1.75,1.75,0,0,1-.49-2.27,1.62,1.62,0,0,1,2.23-.27" transform="translate(-18.22 -104)"/></g><g class="cls-5"><path class="cls-6" d="M233.14,287.65l.92-3.13-36.41-11.08s-1.91.17-2.12,1.43Z" transform="translate(-18.22 -104)"/></g><path class="cls-1" d="M218.28,270.2c-.05.19.84.58,1.54,1.49s.93,1.85,1.13,1.83.27-1.18-.6-2.26S218.3,270,218.28,270.2Z" transform="translate(-18.22 -104)"/><path class="cls-1" d="M213.79,270.51c-.1.17.59.76,1,1.76s.27,1.89.46,1.94.65-1,.17-2.19S213.85,270.34,213.79,270.51Z" transform="translate(-18.22 -104)"/><path class="cls-1" d="M210,274.54c.15.1.72-.75.58-1.93s-.86-1.88-1-1.75.22.86.32,1.83S209.79,274.46,210,274.54Z" transform="translate(-18.22 -104)"/><path class="cls-1" d="M220.1,265.82c0,.19,1,.22,2,.64s1.72,1,1.86.91-.41-1.06-1.61-1.54S220.06,265.64,220.1,265.82Z" transform="translate(-18.22 -104)"/><path class="cls-1" d="M222.49,261.59a3.62,3.62,0,0,0,1.89.63,8.45,8.45,0,0,0,2.17.06,9.88,9.88,0,0,0,1.27-.21,2.53,2.53,0,0,0,.72-.26.85.85,0,0,0,.41-1,1.05,1.05,0,0,0-.66-.7,2.17,2.17,0,0,0-.74-.14,6.36,6.36,0,0,0-1.31,0,6.61,6.61,0,0,0-2.11.56c-1.15.53-1.68,1.12-1.63,1.18s.69-.35,1.8-.73a7.4,7.4,0,0,1,3.19-.36c.43,0,.77.14.81.36s0,.11-.11.2a2.13,2.13,0,0,1-.53.19,11,11,0,0,1-3.24.32A14.09,14.09,0,0,0,222.49,261.59Z" transform="translate(-18.22 -104)"/><path class="cls-1" d="M222.64,261.94c.06.05.64-.49,1.11-1.67a6.74,6.74,0,0,0,.43-2.18,6.85,6.85,0,0,0-.1-1.33,1.64,1.64,0,0,0-.88-1.37.91.91,0,0,0-1,.27,2.83,2.83,0,0,0-.43.63,4.53,4.53,0,0,0-.42,1.29,4.63,4.63,0,0,0,.15,2.24c.41,1.24,1.1,1.73,1.14,1.67a15.89,15.89,0,0,1-.68-1.79,4.64,4.64,0,0,1,0-2,4.1,4.1,0,0,1,.4-1.09c.19-.39.45-.66.58-.57s.41.47.46.85a7,7,0,0,1-.15,3.22C223,261.25,222.55,261.88,222.64,261.94Z" transform="translate(-18.22 -104)"/><path class="cls-1" d="M305.73,248.32s-28.3-46.07-36.07-58.84c-9-14.78-27.43-12.9-31.87.44,1-3-3.44,10.21-18.37,59.53l25.16,7.31,12.24-25.41,10.37,30.09Z" transform="translate(-18.22 -104)"/><path class="cls-1" d="M311.06,245.9H259a28.5,28.5,0,0,0-21.44,9.78,19.62,19.62,0,0,0-3.92,7.24L195.6,335l24.34,13.62,45.48-65.83,25.42.31,56.55-35.81Z" transform="translate(-18.22 -104)"/><path class="cls-4" d="M259.39,268.73a8.17,8.17,0,0,1,1.34,1.8,29.52,29.52,0,0,1,2.44,4.84,28.82,28.82,0,0,1,1.52,5.21,8.87,8.87,0,0,1,.26,2.24c-.15,0-.67-3.37-2.22-7.27S259.27,268.82,259.39,268.73Z" transform="translate(-18.22 -104)"/><path class="cls-7" d="M205.64,203.67l21.18,42.23h66.81l-2.71-5.52-19.35-.58L255.8,204.2a6.1,6.1,0,0,0-5.57-3.66h-42.7A2.15,2.15,0,0,0,205.64,203.67Z" transform="translate(-18.22 -104)"/><path class="cls-1" d="M239.82,222.36a2.74,2.74,0,1,1-2.74-2.77A2.76,2.76,0,0,1,239.82,222.36Z" transform="translate(-18.22 -104)"/><polygon class="cls-8" points="283.76 92.98 273.46 128.73 235.34 132.87 235.34 139.74 291.36 140.52 298.99 93.98 283.76 92.98"/><path class="cls-2" d="M375.24,173.55c-2.23-10.2-17.24-14.08-24-14.09-9.44,0-8.58-.61-17.86,1.08l-1.22,0c-28.21-1.16-31.46,38.14-31.46,38.14l12.86,1.06h0l-3.39,27.07-9.85,19.16,54.17-.09,3-44.73,22.69-.6S377.49,183.86,375.24,173.55Z" transform="translate(-18.22 -104)"/><path class="cls-1" d="M315.11,182c.15,0-.81,9.56-2.12,21.31s-2.51,21.26-2.66,21.24.81-9.55,2.13-21.3S315,182,315.11,182Z" transform="translate(-18.22 -104)"/><g class="cls-9"><path d="M356.52,182c-2.31,11.2-5.33,22.71-7.64,33.91-.49,2.38-1,4.84-2.45,6.79a15.79,15.79,0,0,1-3.29,3.08c-4.55,3.46-9.36,6.7-14.7,8.68a129.79,129.79,0,0,0,22.88-4,6.22,6.22,0,0,0,3.44-1.8,6.47,6.47,0,0,0,1-3.33c1.66-14.35,1.18-28.84.73-43.29" transform="translate(-18.22 -104)"/></g><path class="cls-8" d="M281.67,231.87l16.79-2.05,11.84,7.87,45.25-11,1.33-25.61,20.31-.51-.47,30.06a17.3,17.3,0,0,1-17.67,17.07l-66.29-1.86L290,240.12l-14.22-.43Z" transform="translate(-18.22 -104)"/><path class="cls-10" d="M355.55,226.69a4.73,4.73,0,0,1-.85.27l-2.46.65-9.08,2.29-30,7.38-2.79.67-.11,0-.1-.06L298.33,230l.16,0-16.8,2,.11-.07-4.44,5.72c-.5.63-.9,1.12-1.19,1.5a3.91,3.91,0,0,1-.44.5,3.82,3.82,0,0,1,.36-.56l1.13-1.55,4.32-5.81,0-.06h.07l16.79-2.13h.08l.08.05,11.84,7.85-.2,0,2.79-.67,30-7.23,9.12-2.13,2.49-.55A8,8,0,0,1,355.55,226.69Z" transform="translate(-18.22 -104)"/><path class="cls-10" d="M291.42,236.75a39.57,39.57,0,0,1-6.53.27H283.7l.17-.07a30.72,30.72,0,0,1-4.23,3.3,32.58,32.58,0,0,1,3.89-3.7l.07-.06h1.29A41.71,41.71,0,0,1,291.42,236.75Z" transform="translate(-18.22 -104)"/><path class="cls-10" d="M363.46,231a9.8,9.8,0,0,0-7.82-5,2.8,2.8,0,0,1,1.46-.12,7.75,7.75,0,0,1,5.84,3.73A2.77,2.77,0,0,1,363.46,231Z" transform="translate(-18.22 -104)"/><path class="cls-1" d="M380.2,200.72h0l-4.95.18c-4.17.13-9.94.28-16.32.41l-2.05,0h-.25v-.25c-.23-6-.13-11.34,0-15.18.06-1.92.13-3.46.2-4.53a9.08,9.08,0,0,1,.15-1.64,10.65,10.65,0,0,1,0,1.65c0,1.15,0,2.67,0,4.53,0,3.83-.06,9.17.18,15.14l-.27-.25,2.05,0c6.38-.13,12.15-.21,16.33-.25h4.95C381.37,200.52,378.38,200.65,380.2,200.72Z" transform="translate(-18.22 -104)"/><path class="cls-1" d="M345.3,200.88a12,12,0,0,1-.65,1.32c-.22.42-.5.93-.86,1.5s-.73,1.24-1.23,1.93a47,47,0,0,1-3.62,4.71,53.42,53.42,0,0,1-5.18,5.1,52.74,52.74,0,0,1-5.87,4.27,45.65,45.65,0,0,1-5.22,2.78c-.75.37-1.47.63-2.09.89s-1.15.44-1.6.58a8.68,8.68,0,0,1-1.4.42,7.9,7.9,0,0,1,1.33-.59c.44-.17,1-.38,1.57-.66s1.31-.56,2-.95a50.31,50.31,0,0,0,5.13-2.85,56.7,56.7,0,0,0,5.8-4.25,59.13,59.13,0,0,0,5.16-5,54.75,54.75,0,0,0,3.67-4.62c.51-.67.91-1.32,1.28-1.87s.68-1.05.92-1.45A7.7,7.7,0,0,1,345.3,200.88Z" transform="translate(-18.22 -104)"/><path class="cls-11" d="M374.24,171.65a3,3,0,0,1-.66,0l-1.89-.07-7-.26c-5.87-.21-14-.37-23-.25s-17.08.52-22.95.89l-6.95.47-1.88.12a2.85,2.85,0,0,1-.67,0,4.58,4.58,0,0,1,.66-.1l1.88-.21c1.63-.18,4-.39,6.94-.61,5.86-.46,14-.91,23-1s17.1.09,23,.38c2.93.14,5.31.29,6.95.42l1.89.15A3.73,3.73,0,0,1,374.24,171.65Z" transform="translate(-18.22 -104)"/><path class="cls-11" d="M314,190.36a73.88,73.88,0,0,1-11.9,0,73.88,73.88,0,0,1,11.9,0Z" transform="translate(-18.22 -104)"/><path class="cls-11" d="M356.4,192.44a1.34,1.34,0,0,1-.42.1l-1.22.18c-1.06.14-2.6.33-4.5.53-3.81.4-9.09.83-14.93,1.06s-11.13.22-15,.12c-1.91-.05-3.46-.11-4.53-.18l-1.23-.08-.43-.06a1.44,1.44,0,0,1,.44,0h1.23l4.53,0c3.82,0,9.1,0,14.94-.26s11.09-.61,14.91-.92l4.51-.38,1.23-.09A1.57,1.57,0,0,1,356.4,192.44Z" transform="translate(-18.22 -104)"/><path class="cls-11" d="M378.21,188.68c0,.13-4.82.68-10.8,1.22s-10.83.87-10.84.74,4.82-.68,10.8-1.22S378.2,188.55,378.21,188.68Z" transform="translate(-18.22 -104)"/><path class="cls-11" d="M331.18,216.68a16.36,16.36,0,0,1-2.85.23c-1.77.07-4.21.1-6.91,0s-5.13-.22-6.9-.37a16.84,16.84,0,0,1-2.84-.37,17.83,17.83,0,0,1,2.87,0c1.76.07,4.19.16,6.88.23s5.13.08,6.89.1A18.33,18.33,0,0,1,331.18,216.68Z" transform="translate(-18.22 -104)"/><path class="cls-11" d="M356.09,217.47a4.43,4.43,0,0,1-1,.22c-.67.12-1.63.26-2.82.41-2.39.3-5.71.61-9.38.75s-7,.1-9.41,0c-1.2-.06-2.17-.12-2.84-.18a4.92,4.92,0,0,1-1-.15,4.24,4.24,0,0,1,1,0l2.85,0c2.4,0,5.72,0,9.38-.12s7-.4,9.36-.62l2.84-.25A3.74,3.74,0,0,1,356.09,217.47Z" transform="translate(-18.22 -104)"/><path class="cls-11" d="M316.79,235.07a17.16,17.16,0,0,1-8.79-3.6c.07-.12,1.9,1,4.32,2S316.81,234.93,316.79,235.07Z" transform="translate(-18.22 -104)"/><path class="cls-8" d="M339.4,109.71h-.86A16.55,16.55,0,0,0,322,124.85c-.63,7.93-1.23,16.71-1.17,21,.13,8.82,9.07,10.17,9.07,10.17l-.33,7.83a10.72,10.72,0,0,0,10,11.13h0A10.68,10.68,0,0,0,350.8,164.7l1.86-37.24C353.44,118.3,348.69,110.22,339.4,109.71Z" transform="translate(-18.22 -104)"/><path class="cls-10" d="M329.81,156a21.93,21.93,0,0,0,11.69-3.41s-2.74,6.35-11.65,5.58Z" transform="translate(-18.22 -104)"/><path class="cls-1" d="M325.15,130.32a1.27,1.27,0,0,0,1.24,1.27,1.21,1.21,0,0,0,1.31-1.14,1.28,1.28,0,0,0-1.23-1.27A1.24,1.24,0,0,0,325.15,130.32Z" transform="translate(-18.22 -104)"/><path class="cls-1" d="M323.92,129.16c.16.16,1.12-.55,2.49-.55s2.38.68,2.53.51-.09-.37-.53-.68a3.51,3.51,0,0,0-2-.61,3.36,3.36,0,0,0-2,.64C324,128.79,323.84,129.08,323.92,129.16Z" transform="translate(-18.22 -104)"/><path class="cls-1" d="M338,130.73A1.26,1.26,0,0,0,339.2,132a1.21,1.21,0,0,0,1.31-1.14,1.28,1.28,0,0,0-1.23-1.27A1.23,1.23,0,0,0,338,130.73Z" transform="translate(-18.22 -104)"/><path class="cls-1" d="M336.73,129.38c.15.17,1.12-.54,2.49-.54s2.38.68,2.53.51-.09-.37-.53-.68a3.51,3.51,0,0,0-2-.62,3.4,3.4,0,0,0-2,.64C336.79,129,336.65,129.31,336.73,129.38Z" transform="translate(-18.22 -104)"/><path class="cls-1" d="M332.45,139.44a9.12,9.12,0,0,0-2.23-.39c-.35,0-.69-.11-.75-.34a1.78,1.78,0,0,1,.24-1c.32-.84.67-1.71,1-2.63a45.3,45.3,0,0,0,2.31-6.9,44.92,44.92,0,0,0-2.87,6.7l-1,2.65a2,2,0,0,0-.18,1.36.92.92,0,0,0,.58.5,2.31,2.31,0,0,0,.6.08A9,9,0,0,0,332.45,139.44Z" transform="translate(-18.22 -104)"/><path class="cls-1" d="M336.48,140.37c-.22,0-.22,1.46-1.49,2.5s-2.86.89-2.87,1.1.35.28,1,.3a3.75,3.75,0,0,0,2.4-.83,3.17,3.17,0,0,0,1.16-2.1C336.75,140.72,336.59,140.36,336.48,140.37Z" transform="translate(-18.22 -104)"/><path class="cls-1" d="M337,124.07c.13.37,1.5.19,3.11.38s2.92.62,3.13.29c.09-.16-.13-.5-.66-.86a5.48,5.48,0,0,0-4.75-.51C337.28,123.61,337,123.9,337,124.07Z" transform="translate(-18.22 -104)"/><path class="cls-1" d="M324.41,125.23c.25.31,1.19,0,2.33,0s2.1.21,2.32-.12c.09-.15-.06-.46-.48-.75a3.2,3.2,0,0,0-1.89-.5,3.15,3.15,0,0,0-1.85.62C324.44,124.77,324.31,125.08,324.41,125.23Z" transform="translate(-18.22 -104)"/><path class="cls-8" d="M351.32,134c.15-.07,6.13-1.81,5.95,4.22s-6.28,4.6-6.28,4.43S351.32,134,351.32,134Z" transform="translate(-18.22 -104)"/><path class="cls-10" d="M352.39,140.41s.1.08.28.17a1.13,1.13,0,0,0,.79,0,2.6,2.6,0,0,0,1.29-2.3,3.51,3.51,0,0,0-.25-1.51,1.2,1.2,0,0,0-.78-.83.54.54,0,0,0-.63.27c-.09.16-.06.29-.09.29s-.13-.1-.07-.35a.65.65,0,0,1,.25-.37.78.78,0,0,1,.59-.13,1.49,1.49,0,0,1,1.09,1,3.6,3.6,0,0,1,.31,1.69,2.71,2.71,0,0,1-1.63,2.56,1.12,1.12,0,0,1-1-.19C352.39,140.56,352.36,140.42,352.39,140.41Z" transform="translate(-18.22 -104)"/><path class="cls-1" d="M347.32,116.07l-25.45.55a11.53,11.53,0,0,1,3.74-4.27,20,20,0,0,1,11.52-4.09c4.15-.07,12.6,4.92,15.61,7.74,2.4,2.27,2.39,4.22,2.39,4.22.38,3.26-1.47,7-2.2,10.17-.38,1.65-1.11,6.64-1.11,6.64h0c-1.4,0-1.92-1.11-1.71-2.48l.26-5.37a8.06,8.06,0,0,1-2.51-9.47C348.22,119.22,349,117,347.32,116.07Z" transform="translate(-18.22 -104)"/><path class="cls-10" d="M342,135.13a.15.15,0,0,0,.18-.13.15.15,0,0,0-.11-.19.16.16,0,0,0-.18.13A.15.15,0,0,0,342,135.13Z" transform="translate(-18.22 -104)"/><path class="cls-10" d="M339.35,134.55a.17.17,0,0,0,.19-.15.18.18,0,0,0-.12-.22.18.18,0,0,0-.18.16A.17.17,0,0,0,339.35,134.55Z" transform="translate(-18.22 -104)"/><path class="cls-10" d="M337.59,134.51c.08,0,.16-.09.18-.22s0-.25-.12-.26-.17.09-.18.22S337.5,134.5,337.59,134.51Z" transform="translate(-18.22 -104)"/><path class="cls-10" d="M340.69,136.76c.08,0,.15,0,.15-.1s-.07-.09-.15-.09-.15,0-.15.09S340.61,136.76,340.69,136.76Z" transform="translate(-18.22 -104)"/><path class="cls-10" d="M338.28,136.21a.16.16,0,0,0,.17-.15.15.15,0,0,0-.14-.18.16.16,0,0,0-.16.15A.15.15,0,0,0,338.28,136.21Z" transform="translate(-18.22 -104)"/><path class="cls-10" d="M325.77,134.76a.16.16,0,0,0,.18-.13.17.17,0,0,0-.11-.2.18.18,0,0,0-.19.14A.16.16,0,0,0,325.77,134.76Z" transform="translate(-18.22 -104)"/><path class="cls-10" d="M324,134.61a.18.18,0,0,0,.17-.18.17.17,0,0,0-.13-.2c-.08,0-.16.07-.17.17A.18.18,0,0,0,324,134.61Z" transform="translate(-18.22 -104)"/><path class="cls-10" d="M327.35,134.8a.13.13,0,0,0,.17-.09.13.13,0,0,0-.12-.16.15.15,0,0,0-.18.1A.14.14,0,0,0,327.35,134.8Z" transform="translate(-18.22 -104)"/><path class="cls-10" d="M326,136.57a.17.17,0,0,0,.21-.1.17.17,0,0,0-.07-.21.16.16,0,0,0-.21.09A.16.16,0,0,0,326,136.57Z" transform="translate(-18.22 -104)"/><path class="cls-10" d="M324.5,136.27a.13.13,0,0,0,.11-.16.15.15,0,0,0-.18-.08.14.14,0,0,0-.11.16A.13.13,0,0,0,324.5,136.27Z" transform="translate(-18.22 -104)"/><path class="cls-1" d="M352.91,116.35a7.3,7.3,0,0,0-1.43-6.46,7.51,7.51,0,0,0-6.09-2.78,23.68,23.68,0,0,1-3.56.25c-2.2-.23-3.9-2-5.94-2.82a7.81,7.81,0,0,0-9.15,2.71c-.77,1.14-1.28,2.55-2.47,3.27-1,.62-2.32.57-3.47.91A5.58,5.58,0,0,0,317,117a6.61,6.61,0,0,0,4.06,5.54,8.23,8.23,0,0,0,7-.5c1.92-1.05,3.64-2.85,5.84-2.79s4.26,2.19,6.5,1.75a6.33,6.33,0,0,0,2.93-1.94,5.1,5.1,0,0,1,3-1.73c1.19-.07,1.81,1.55,1.39,2.65l5.13-3.6" transform="translate(-18.22 -104)"/><path class="cls-4" d="M322.36,113.43a.25.25,0,0,0,0,.09,2.06,2.06,0,0,0,.15.24,4,4,0,0,0,.73.82,4.39,4.39,0,0,0,1.51.87,4.31,4.31,0,0,0,2.31.13,4.59,4.59,0,0,0,2.44-1.36,31.18,31.18,0,0,0,1.75-2.65,3.32,3.32,0,0,1,2.92-1.47,3.83,3.83,0,0,1,1.74.46,3.24,3.24,0,0,1,1.27,1.3c.31.55.53,1.16.9,1.69a2.08,2.08,0,0,0,1.63,1,3.21,3.21,0,0,0,1.78-.5,7,7,0,0,0,1.35-1.11,5.64,5.64,0,0,1,2.52-1.77,3.22,3.22,0,0,1,2.56.59,4.31,4.31,0,0,1,1.4,1.72,7.5,7.5,0,0,1,.53,1.61c.09.46.14.82.17,1.07a2.26,2.26,0,0,0,.05.37.21.21,0,0,0,0-.09c0-.07,0-.16,0-.28a8.31,8.31,0,0,0-.12-1.08,7.12,7.12,0,0,0-.49-1.66,4.47,4.47,0,0,0-1.43-1.8,3.4,3.4,0,0,0-2.7-.65,5.74,5.74,0,0,0-2.64,1.81,6.45,6.45,0,0,1-1.31,1.07,3.13,3.13,0,0,1-1.65.47,1.89,1.89,0,0,1-1.44-.88c-.34-.5-.56-1.11-.88-1.68a3.42,3.42,0,0,0-1.38-1.39,4.14,4.14,0,0,0-1.84-.49,3.92,3.92,0,0,0-1.8.4,3.74,3.74,0,0,0-1.31,1.18,28.13,28.13,0,0,1-1.73,2.64,4.36,4.36,0,0,1-2.32,1.34,4.31,4.31,0,0,1-2.22-.1,4.39,4.39,0,0,1-1.5-.81A5.41,5.41,0,0,1,322.36,113.43Z" transform="translate(-18.22 -104)"/><path class="cls-4" d="M317.75,113.52a1.6,1.6,0,0,0-.11.49,3.81,3.81,0,0,0,.13,1.34,4.81,4.81,0,0,0,1,1.78,5.66,5.66,0,0,0,2,1.45,8.39,8.39,0,0,0,4.44.49,12,12,0,0,0,1.33-.26,1.64,1.64,0,0,0,.48-.16s-.7.13-1.83.25a8.66,8.66,0,0,1-4.32-.55A5.51,5.51,0,0,1,318.9,117a4.74,4.74,0,0,1-1-1.67A5.22,5.22,0,0,1,317.75,113.52Z" transform="translate(-18.22 -104)"/><path class="cls-2" d="M384.14,202.8c-.15,11.83-7.26,22.73-16.54,29.91s-20.53,11.18-31.75,14.45-22.67,6-33.22,11c-14.61,7-28.14,16.62-36.39,30.72s-11.19,32.59-10.27,49L380,325.3l6.79-71.51Z" transform="translate(-18.22 -104)"/><path class="cls-1" d="M273,278.88a3.1,3.1,0,0,1-.32.51l-1,1.42c-.44.6-1,1.34-1.53,2.25s-1.27,1.88-1.9,3.06-1.41,2.42-2.09,3.84-1.41,2.93-2.12,4.55a78.53,78.53,0,0,0-3.61,10.92,87.47,87.47,0,0,0-1.91,11.36c-.16,1.77-.31,3.45-.36,5s-.09,3.05-.1,4.39,0,2.56,0,3.62.07,2,.11,2.74.06,1.28.08,1.73a2.52,2.52,0,0,1,0,.6,4.27,4.27,0,0,1-.09-.59c0-.45-.09-1-.16-1.73s-.16-1.67-.19-2.73-.14-2.29-.12-3.64,0-2.82,0-4.4.17-3.28.32-5.05A82,82,0,0,1,260,305.31a75.12,75.12,0,0,1,3.66-11c.72-1.62,1.41-3.17,2.17-4.55s1.47-2.68,2.15-3.83,1.39-2.15,2-3,1.14-1.62,1.6-2.22.79-1,1.06-1.36A2.74,2.74,0,0,1,273,278.88Z" transform="translate(-18.22 -104)"/><g class="cls-3"><path d="M384.14,202.8c-.15,11.83-7.26,22.73-16.54,29.91s-20.53,11.18-31.75,14.45-22.67,6-33.22,11c-14.61,7-28.14,16.62-36.39,30.72s-11.19,32.59-10.27,49L380,325.3l6.79-71.51Z" transform="translate(-18.22 -104)"/></g><path class="cls-2" d="M97.81,256A43.93,43.93,0,0,0,55.5,244.24,76.38,76.38,0,0,0,98.31,257.8" transform="translate(-18.22 -104)"/><path class="cls-2" d="M83.46,204.48c1.77-12.64-3.08-26.87-12.41-36.06C70.74,181,76,195.05,83.46,204.48" transform="translate(-18.22 -104)"/><path class="cls-2" d="M90.93,228.36a67,67,0,0,0-30.58-29.63C64.25,213.29,76.53,225.2,91,228.5" transform="translate(-18.22 -104)"/><path class="cls-2" d="M92.47,233c-7.53.21-15.15-.05-22.43-2s-14.26-5.71-19.1-11.56a74.19,74.19,0,0,1,41.42,12.83" transform="translate(-18.22 -104)"/><path class="cls-2" d="M88.65,217.79c3.82-14.53,10.13-24.58,21.39-32.72a30.85,30.85,0,0,1-4.74,20.36,30.13,30.13,0,0,1-16.65,12.36" transform="translate(-18.22 -104)"/><path class="cls-2" d="M117.07,242.85a21.5,21.5,0,0,0-12.88-19.92c.63,7.5,6.44,16.18,12.88,19.92" transform="translate(-18.22 -104)"/><path class="cls-2" d="M120.67,230.6c.86-12.14,9.36-23.37,20.7-27.34-2.6,12.14-9.52,22.25-20.7,27.34" transform="translate(-18.22 -104)"/><path class="cls-2" d="M115.25,252.33c2.66-3.85,7-6.24,11.47-7.43s9.17-1.3,13.81-1.4A32.06,32.06,0,0,1,115.6,254" transform="translate(-18.22 -104)"/><path class="cls-2" d="M109.87,283.3a35.22,35.22,0,0,1,25.56,1.86A36,36,0,0,1,153,304c-15.68-3-31.16-10.08-43.17-20.74" transform="translate(-18.22 -104)"/><path class="cls-2" d="M92.66,272.54c2.6,7.81,2.1,17.25-3.69,24a29,29,0,0,1,3.69-24" transform="translate(-18.22 -104)"/><path class="cls-2" d="M82.48,268.2a29.37,29.37,0,0,1-16,23.84,1.79,1.79,0,0,1-1.41.24c-.71-.3-.77-1.27-.69-2,1.14-10,8.45-19.68,18.1-22" transform="translate(-18.22 -104)"/><path class="cls-2" d="M75.84,267.18a23.53,23.53,0,0,1-34.71.18c11-1.22,23.76-2,34.71-.18" transform="translate(-18.22 -104)"/><path class="cls-1" d="M74.19,177.74a1.31,1.31,0,0,0,.1.33l.33,1L76,182.64c.6,1.56,1.28,3.5,2.08,5.74.39,1.12.82,2.32,1.27,3.59s.9,2.63,1.38,4.05c2,5.67,4.13,12.47,6.47,20s4.72,16,7.09,24.79,4.43,17.32,6.2,25,3.2,14.73,4.26,20.63c.28,1.47.54,2.88.79,4.21s.43,2.59.63,3.76c.4,2.35.74,4.38,1,6s.44,2.92.58,3.82c.07.42.12.75.16,1a2.07,2.07,0,0,0,.07.34,3,3,0,0,0,0-.35l-.12-1c-.12-.9-.28-2.19-.5-3.84s-.52-3.69-.9-6.05c-.19-1.18-.39-2.43-.6-3.77s-.49-2.74-.75-4.21c-1-5.92-2.48-12.92-4.18-20.67S97,249.59,94.65,240.74s-4.81-17.22-7.13-24.8S83,201.58,81,195.92c-.49-1.41-1-2.76-1.4-4s-.9-2.46-1.31-3.58c-.82-2.24-1.53-4.16-2.14-5.72L74.7,179c-.16-.39-.28-.7-.37-.93S74.19,177.74,74.19,177.74Z" transform="translate(-18.22 -104)"/><path class="cls-1" d="M134.79,209.74l-.19.19-.53.56c-.46.5-1.13,1.24-2,2.22a77.87,77.87,0,0,0-6.5,8.79,59.33,59.33,0,0,0-6.79,14.73,147,147,0,0,0-4.08,19.51c-2.24,13.95-5,26.44-7,35.48-1,4.5-1.82,8.15-2.39,10.7-.27,1.24-.49,2.22-.64,2.91-.06.32-.12.57-.15.76a.74.74,0,0,0,0,.26,2.27,2.27,0,0,0,.08-.25l.19-.75c.17-.69.41-1.66.72-2.89l2.52-10.67c2.06-9,4.87-21.52,7.11-35.48a150.34,150.34,0,0,1,4-19.46,60.09,60.09,0,0,1,6.67-14.69,86.06,86.06,0,0,1,6.37-8.84c.81-1,1.46-1.76,1.9-2.27l.5-.59A1.54,1.54,0,0,0,134.79,209.74Z" transform="translate(-18.22 -104)"/><path class="cls-1" d="M72.54,266.71a1.69,1.69,0,0,0,.4.07l1.14.13.83.08,1,.15c.7.11,1.5.21,2.37.41l1.37.27,1.47.38c1,.23,2.07.61,3.2,1a46.57,46.57,0,0,1,7,3.12,40.09,40.09,0,0,1,6.27,4.41,31.6,31.6,0,0,1,2.4,2.34,24.09,24.09,0,0,1,1.9,2.23,22.09,22.09,0,0,1,1.41,2,13.9,13.9,0,0,1,1,1.56l.59,1a2,2,0,0,0,.23.34,1.44,1.44,0,0,0-.16-.38l-.51-1a14.33,14.33,0,0,0-.91-1.61,23.43,23.43,0,0,0-1.37-2,24,24,0,0,0-1.88-2.28,32.15,32.15,0,0,0-2.41-2.4,38.57,38.57,0,0,0-6.31-4.49,45.41,45.41,0,0,0-7.07-3.12c-1.14-.33-2.2-.7-3.24-.92l-1.48-.36-1.39-.25c-.88-.18-1.68-.26-2.39-.35l-1-.11-.84-.05-1.15,0C72.68,266.69,72.54,266.69,72.54,266.71Z" transform="translate(-18.22 -104)"/><path class="cls-1" d="M69.4,210a4.81,4.81,0,0,0,.79.78l2.27,2c1.93,1.67,4.62,4,7.6,6.46s5.7,4.76,7.67,6.38c1,.75,1.74,1.39,2.36,1.89a5.6,5.6,0,0,0,.9.65,5.24,5.24,0,0,0-.8-.78l-2.27-2c-1.93-1.67-4.61-4-7.59-6.47s-5.69-4.75-7.67-6.36l-2.36-1.9A5.6,5.6,0,0,0,69.4,210Z" transform="translate(-18.22 -104)"/><path class="cls-1" d="M66.69,224.81c0,.12,5.76,1.95,12.93,4.1s13,3.81,13.06,3.69-5.76-1.95-12.94-4.1S66.72,224.7,66.69,224.81Z" transform="translate(-18.22 -104)"/><path class="cls-1" d="M88.08,218.92a5.46,5.46,0,0,0,.59-.84l1.53-2.36c1.3-2,3.14-4.7,5.31-7.59s4.27-5.4,5.82-7.19l1.83-2.12a5.55,5.55,0,0,0,.64-.81,4,4,0,0,0-.76.69c-.47.47-1.13,1.16-1.94,2-1.6,1.74-3.74,4.24-5.93,7.13s-4,5.65-5.22,7.68c-.62,1-1.1,1.85-1.42,2.44A5.1,5.1,0,0,0,88.08,218.92Z" transform="translate(-18.22 -104)"/><path class="cls-1" d="M108.19,227.14a21.83,21.83,0,0,0,1.36,2.26c.87,1.38,2,3.3,3.26,5.47s2.24,4.17,3,5.63a21.22,21.22,0,0,0,1.22,2.34,13.66,13.66,0,0,0-1-2.47c-.66-1.5-1.65-3.54-2.87-5.72s-2.45-4.08-3.38-5.42A12.6,12.6,0,0,0,108.19,227.14Z" transform="translate(-18.22 -104)"/><path class="cls-1" d="M115.08,252.74c0,.06,1.13-.49,2.94-1.32s4.34-1.9,7.19-2.92,5.49-1.76,7.42-2.26,3.12-.77,3.1-.83a3.09,3.09,0,0,0-.86.09c-.55.08-1.34.23-2.31.44a64.53,64.53,0,0,0-14.67,5.21c-.89.45-1.6.83-2.08,1.11S115.06,252.71,115.08,252.74Z" transform="translate(-18.22 -104)"/><path class="cls-1" d="M109.66,283.35l.36.12,1,.27,3.85.9A126.29,126.29,0,0,1,127.5,288a55.51,55.51,0,0,1,11.74,5.59c1.4.91,2.49,1.71,3.23,2.29a10.51,10.51,0,0,0,1.17.87s-.08-.11-.26-.28-.44-.42-.81-.72a33.09,33.09,0,0,0-3.17-2.41,51,51,0,0,0-11.77-5.75A103.49,103.49,0,0,0,115,284.34l-3.88-.76A8.4,8.4,0,0,0,109.66,283.35Z" transform="translate(-18.22 -104)"/><path class="cls-1" d="M90.06,290.89c.12,0,.81-4.1,1.54-9.2s1.24-9.25,1.13-9.27-.81,4.1-1.54,9.21S90,290.87,90.06,290.89Z" transform="translate(-18.22 -104)"/><path class="cls-1" d="M69.66,283.38a21,21,0,0,0,1.84-2.22c1.1-1.39,2.63-3.31,4.36-5.39s3.33-3.94,4.49-5.28a20.35,20.35,0,0,0,1.83-2.22,2.58,2.58,0,0,0-.58.51c-.36.34-.86.86-1.47,1.5-1.22,1.29-2.86,3.12-4.59,5.21s-3.23,4.05-4.27,5.49c-.53.72-.94,1.31-1.21,1.73A2.76,2.76,0,0,0,69.66,283.38Z" transform="translate(-18.22 -104)"/><polygon class="cls-4" points="105.43 198.57 105.43 208.79 102.91 208.79 93.95 237.47 74.08 237.47 65.4 209.07 62.04 208.79 62.04 198.57 105.43 198.57"/><path class="cls-1" d="M81.94,313.07c0,.12,8.77.22,19.6.22s19.59-.1,19.59-.22-8.77-.21-19.59-.21S81.94,313,81.94,313.07Z" transform="translate(-18.22 -104)"/><path class="cls-1" d="M67.65,247.32a7.87,7.87,0,0,0,1.27.35l3.49.85c2.94.74,7,1.86,11.35,3.35s8.27,3.07,11,4.29l3.29,1.46a10,10,0,0,0,1.22.5,7.44,7.44,0,0,0-1.15-.65c-.76-.4-1.86-1-3.24-1.59a113.33,113.33,0,0,0-11-4.42,116.73,116.73,0,0,0-11.42-3.24c-1.48-.33-2.69-.57-3.52-.72A8.26,8.26,0,0,0,67.65,247.32Z" transform="translate(-18.22 -104)"/><path class="cls-11" d="M88.54,329c0,.12,6.15.21,13.74.21S116,329.12,116,329s-6.15-.21-13.75-.21S88.54,328.88,88.54,329Z" transform="translate(-18.22 -104)"/><path class="cls-11" d="M87.76,326.63c0,.12,6.53.21,14.57.21s14.57-.09,14.57-.21-6.52-.22-14.57-.22S87.76,326.51,87.76,326.63Z" transform="translate(-18.22 -104)"/></svg>