<svg xmlns="http://www.w3.org/2000/svg" viewBox="0 0 463.95 288.26"><defs><style>.cls-1{fill:#263238;}.cls-2{fill:#e8505b;}.cls-3{opacity:0.4;}.cls-4{fill:#455a64;}.cls-5{opacity:0.6;}.cls-6{fill:#fff;}.cls-7{fill:#e0e0e0;}.cls-8{fill:#ffbe9d;}.cls-9{opacity:0.2;}.cls-10{fill:#eb996e;}.cls-11{fill:#fafafa;}</style></defs><g id="Floor"><path class="cls-1" d="M482,453.36c0,.14-103.87.26-232,.26s-232-.12-232-.26,103.85-.26,232-.26S482,453.22,482,453.36Z" transform="translate(-18.02 -194.57)"/></g><g id="Character"><path class="cls-2" d="M440.86,453.36A19.35,19.35,0,0,0,460,437.76c3.18-16.14,7.27-38.72,7.4-64.08.08-15.55-3.4-35.24-8.21-50-7-21.6-22.06-40.63-43.9-46.86-28.37-8.1-38.64-5-58.76,5.56-21.88,11.47-27.8,33-50.58,42.58-22.11,9.29-48.78,6.12-68.94,19.12-17.73,11.44-26.38,33.41-27.08,54.5a117.13,117.13,0,0,0,3.23,33.33c2.75,11.51,13.14,21.38,25,21.48Z" transform="translate(-18.02 -194.57)"/><g class="cls-3"><path d="M440.86,453.36A19.35,19.35,0,0,0,460,437.76c3.18-16.14,7.27-38.72,7.4-64.08.08-15.55-3.4-35.24-8.21-50-7-21.6-22.06-40.63-43.9-46.86-28.37-8.1-38.64-5-58.76,5.56-21.88,11.47-27.8,33-50.58,42.58-22.11,9.29-48.78,6.12-68.94,19.12-17.73,11.44-26.38,33.41-27.08,54.5a117.13,117.13,0,0,0,3.23,33.33c2.75,11.51,13.14,21.38,25,21.48Z" transform="translate(-18.02 -194.57)"/></g><path class="cls-1" d="M426.28,280.64a2.69,2.69,0,0,1,.21.4c.14.3.33.7.58,1.21.51,1.1,1.23,2.67,2.16,4.67l1.55,3.38c.56,1.25,1,2.64,1.63,4.12s1.18,3.07,1.83,4.74,1.25,3.49,1.86,5.39,1.24,3.91,1.9,6c.36,1,.63,2.12.91,3.22s.57,2.21.86,3.35l.89,3.48c.15.58.31,1.18.46,1.77s.25,1.22.37,1.83c.5,2.46,1,5,1.52,7.58A242.12,242.12,0,0,1,446.52,366a288.39,288.39,0,0,1-1.36,34.35c-.63,5.25-1.14,10.25-2,14.88-.37,2.32-.68,4.57-1.07,6.71s-.81,4.2-1.19,6.16c-.71,3.94-1.58,7.45-2.28,10.54-.36,1.55-.69,3-1,4.31l-1,3.6c-.58,2.13-1,3.8-1.34,5l-.37,1.29a1.93,1.93,0,0,1-.14.43,2.67,2.67,0,0,1,.09-.45c.07-.32.18-.75.31-1.3.29-1.17.7-2.85,1.23-5,.27-1.08.58-2.29.91-3.6s.61-2.77,1-4.32c.67-3.1,1.51-6.61,2.19-10.55q.56-2.94,1.16-6.15c.37-2.15.67-4.4,1-6.71.78-4.63,1.27-9.63,1.89-14.86a292.28,292.28,0,0,0,1.3-34.29,244.58,244.58,0,0,0-3.45-34.11q-.75-3.89-1.49-7.56l-.36-1.82-.45-1.78c-.3-1.17-.59-2.33-.88-3.47s-.57-2.25-.84-3.35-.54-2.18-.89-3.21l-1.87-6c-.58-1.9-1.13-3.72-1.81-5.39s-1.23-3.27-1.78-4.75-1.05-2.88-1.58-4.13L429,287c-.88-2-1.57-3.6-2.06-4.71l-.52-1.23A1.94,1.94,0,0,1,426.28,280.64Z" transform="translate(-18.02 -194.57)"/><path class="cls-4" d="M239.86,453.2l-18.92,29.63-37-23.36c2.45-3.39,26.06,1.6,26.06,1.6l11.35-19.48Z" transform="translate(-18.02 -194.57)"/><g class="cls-5"><path class="cls-6" d="M222.47,466.69a1.79,1.79,0,0,1-.05,2.38,1.71,1.71,0,0,1-2.36,0,1.89,1.89,0,0,1,.06-2.53,1.78,1.78,0,0,1,2.45.3" transform="translate(-18.02 -194.57)"/></g><g class="cls-5"><path class="cls-6" d="M220.94,482.83l1.79-3.06-36.12-21.25s-2.1-.32-2.65,1Z" transform="translate(-18.02 -194.57)"/></g><path class="cls-1" d="M209.54,460.5c-.11.19.74.84,1.26,2s.52,2.2.73,2.23.6-1.18-.05-2.55S209.6,460.31,209.54,460.5Z" transform="translate(-18.02 -194.57)"/><path class="cls-1" d="M204.65,459.66c-.15.15.43.95.56,2.1s-.2,2.07,0,2.17.94-.84.75-2.27S204.76,459.49,204.65,459.66Z" transform="translate(-18.02 -194.57)"/><path class="cls-1" d="M199.51,462.91c.14.14,1-.6,1.12-1.89s-.43-2.21-.6-2.1,0,1-.13,2S199.34,462.78,199.51,462.91Z" transform="translate(-18.02 -194.57)"/><path class="cls-1" d="M212.62,456.35c0,.21.95.49,1.93,1.2s1.57,1.54,1.76,1.44-.16-1.22-1.33-2S212.62,456.15,212.62,456.35Z" transform="translate(-18.02 -194.57)"/><path class="cls-1" d="M216.27,452.52c-.05.07.59.63,1.86,1.16a9.72,9.72,0,0,0,2.31.63,10.79,10.79,0,0,0,1.42.1,2.52,2.52,0,0,0,.83-.08.93.93,0,0,0,.69-.91,1.16,1.16,0,0,0-.53-.91,2.88,2.88,0,0,0-.75-.34,7.8,7.8,0,0,0-3.82-.29,3.69,3.69,0,0,0-2,.81c0,.12.82-.19,2.11-.29a8.8,8.8,0,0,1,2.24.11,8.06,8.06,0,0,1,1.27.35c.46.14.79.35.78.59s0,.12-.17.18a2.62,2.62,0,0,1-.61.06c-.46,0-.91,0-1.33-.06a12,12,0,0,1-2.23-.45A14.85,14.85,0,0,0,216.27,452.52Z" transform="translate(-18.02 -194.57)"/><path class="cls-1" d="M216.34,452.93c0,.06.81-.36,1.62-1.48a7.2,7.2,0,0,0,1-2.19,7.79,7.79,0,0,0,.24-1.42,1.82,1.82,0,0,0-.6-1.68,1,1,0,0,0-1.1,0,3.07,3.07,0,0,0-.61.56,5.06,5.06,0,0,0-1.21,3.66c.12,1.42.73,2.11.79,2.06a20.54,20.54,0,0,1-.27-2.07,5,5,0,0,1,.52-2.11,4.23,4.23,0,0,1,.71-1c.3-.36.65-.58.77-.45s.31.61.27,1a6.69,6.69,0,0,1-.18,1.29,7.64,7.64,0,0,1-.81,2.07C216.88,452.28,216.26,452.84,216.34,452.93Z" transform="translate(-18.02 -194.57)"/><path class="cls-4" d="M266.33,361,255,394.25l-41.47-13.89c1.57-3.88,25.69-4.65,25.69-4.65l6.38-21.62Z" transform="translate(-18.02 -194.57)"/><g class="cls-5"><path class="cls-6" d="M252.64,378.21a1.79,1.79,0,0,1,.53,2.32,1.71,1.71,0,0,1-2.3.54,1.88,1.88,0,0,1-.55-2.46,1.78,1.78,0,0,1,2.46-.3" transform="translate(-18.02 -194.57)"/></g><g class="cls-5"><path class="cls-6" d="M255,394.25l1-3.4L215.87,378.8s-2.12.18-2.34,1.56Z" transform="translate(-18.02 -194.57)"/></g><path class="cls-1" d="M238.61,375.27c-.06.21.93.64,1.7,1.62s1,2,1.24,2,.3-1.29-.66-2.47S238.63,375.07,238.61,375.27Z" transform="translate(-18.02 -194.57)"/><path class="cls-1" d="M233.66,375.61c-.11.18.65.82,1.05,1.91s.3,2.06.5,2.12.72-1.05.2-2.39S233.73,375.42,233.66,375.61Z" transform="translate(-18.02 -194.57)"/><path class="cls-1" d="M229.45,380c.17.11.79-.81.64-2.09s-1-2-1.09-1.91.25.93.35,2S229.25,379.91,229.45,380Z" transform="translate(-18.02 -194.57)"/><path class="cls-1" d="M240.62,370.51c0,.21,1,.24,2.16.7s1.89,1.12,2.05,1-.45-1.15-1.77-1.68S240.57,370.31,240.62,370.51Z" transform="translate(-18.02 -194.57)"/><path class="cls-1" d="M243.25,365.92a4.19,4.19,0,0,0,2.08.68,9.35,9.35,0,0,0,2.4.06,10.46,10.46,0,0,0,1.4-.23,2.74,2.74,0,0,0,.8-.28.93.93,0,0,0,.45-1,1.23,1.23,0,0,0-.73-.76,3,3,0,0,0-.82-.15,8.62,8.62,0,0,0-1.44,0,7.8,7.8,0,0,0-2.33.62c-1.26.57-1.85,1.21-1.79,1.28s.75-.38,2-.79a9.22,9.22,0,0,1,2.2-.43,8.3,8.3,0,0,1,1.31,0c.48,0,.86.15.9.38s0,.12-.12.22a2.17,2.17,0,0,1-.58.2,11.22,11.22,0,0,1-1.31.26,12.07,12.07,0,0,1-2.26.1A14.43,14.43,0,0,0,243.25,365.92Z" transform="translate(-18.02 -194.57)"/><path class="cls-1" d="M243.42,366.3c.06.05.71-.54,1.22-1.83a7.2,7.2,0,0,0,.48-2.37,7.11,7.11,0,0,0-.11-1.43,1.83,1.83,0,0,0-1-1.5,1,1,0,0,0-1.06.29,3.25,3.25,0,0,0-.47.69,4.82,4.82,0,0,0-.47,1.4,4.94,4.94,0,0,0,.17,2.44c.45,1.35,1.21,1.87,1.25,1.81a18.24,18.24,0,0,1-.75-1.94,5.15,5.15,0,0,1,0-2.18,4.58,4.58,0,0,1,.44-1.18c.21-.42.5-.72.65-.62s.44.51.5.92a7.34,7.34,0,0,1,.13,1.3,8,8,0,0,1-.29,2.21C243.79,365.54,243.32,366.23,243.42,366.3Z" transform="translate(-18.02 -194.57)"/><path class="cls-1" d="M335,351.48s-31.21-50.09-39.77-64c-9.92-16.07-30.26-14-35.14.48,1.09-3.26-3.8,11.1-20.27,64.73l27.75,7.94L281.1,333l11.44,32.72Z" transform="translate(-18.02 -194.57)"/><path class="cls-1" d="M340.91,348.86H283.54a31.57,31.57,0,0,0-23.63,10.63,21.15,21.15,0,0,0-4.32,7.87l-42,78.36,26.83,14.82L290.58,389l28,.34L381,350.37Z" transform="translate(-18.02 -194.57)"/><path class="cls-4" d="M283.94,373.68a8.84,8.84,0,0,1,1.48,1.95,32.17,32.17,0,0,1,2.69,5.27,33,33,0,0,1,1.68,5.66,9.36,9.36,0,0,1,.28,2.43c-.17,0-.73-3.66-2.45-7.9S283.8,373.77,283.94,373.68Z" transform="translate(-18.02 -194.57)"/><path class="cls-7" d="M224.67,302.94,248,348.86h73.66l-3-6-21.34-.64L280,303.52a6.73,6.73,0,0,0-6.14-4H226.76A2.34,2.34,0,0,0,224.67,302.94Z" transform="translate(-18.02 -194.57)"/><path class="cls-1" d="M262.36,323.26a3,3,0,1,1-3-3A3,3,0,0,1,262.36,323.26Z" transform="translate(-18.02 -194.57)"/><polygon class="cls-8" points="312.88 101.1 301.52 139.96 259.48 144.47 259.48 151.93 321.25 152.78 329.66 102.18 312.88 101.1"/><path class="cls-2" d="M411.67,270.19c-2.45-11.09-19-15.3-26.46-15.32-10.41,0-9.47-.66-19.7,1.18l-1.35,0c-31.1-1.26-34.68,41.46-34.68,41.46l14.18,1.15h0l-3.75,29.43-10.85,20.83,59.73-.09,3.34-48.63,25-.66S414.15,281.4,411.67,270.19Z" transform="translate(-18.02 -194.57)"/><path class="cls-1" d="M345.38,279.42c.16,0-.89,10.39-2.35,23.17s-2.76,23.11-2.92,23.1.89-10.39,2.35-23.17S345.22,279.4,345.38,279.42Z" transform="translate(-18.02 -194.57)"/><g class="cls-9"><path d="M391,279.42c-2.55,12.18-5.87,24.69-8.41,36.87-.55,2.59-1.13,5.27-2.71,7.38a17.26,17.26,0,0,1-3.63,3.35c-5,3.76-10.31,7.29-16.21,9.44a145.76,145.76,0,0,0,25.23-4.39,6.88,6.88,0,0,0,3.79-2,7,7,0,0,0,1.14-3.62c1.83-15.61,1.3-31.35.8-47.07" transform="translate(-18.02 -194.57)"/></g><path class="cls-8" d="M308.5,333.6,327,331.38l13.05,8.55L390,328l1.46-27.84,22.4-.56-.53,32.68a19,19,0,0,1-19.48,18.56l-73.08-2-3.11-6.22L302,342.1Z" transform="translate(-18.02 -194.57)"/><path class="cls-10" d="M390,328a6.26,6.26,0,0,1-.94.29l-2.71.7-10,2.5-33.08,8-3.08.73-.12,0-.11-.07-13-8.57.17,0-18.52,2.14.12-.07-4.89,6.21-1.32,1.64a3.33,3.33,0,0,1-.49.54,4.4,4.4,0,0,1,.41-.6l1.24-1.7,4.76-6.31.05-.06h.07L327,331.11h.1l.08,0,13.06,8.54-.23,0,3.08-.74,33.13-7.85,10.05-2.32,2.74-.6A6.09,6.09,0,0,1,390,328Z" transform="translate(-18.02 -194.57)"/><path class="cls-10" d="M319.25,338.91a44.85,44.85,0,0,1-7.19.29h-1.32l.19-.07a35.2,35.2,0,0,1-4.66,3.59,33.29,33.29,0,0,1,4.29-4l.08-.07h1.42A44.85,44.85,0,0,1,319.25,338.91Z" transform="translate(-18.02 -194.57)"/><path class="cls-10" d="M398.69,332.63a13.38,13.38,0,0,0-3.64-3.8c-2.48-1.6-5-1.45-5-1.63a3,3,0,0,1,1.61-.13,8.58,8.58,0,0,1,6.44,4.05A3.08,3.08,0,0,1,398.69,332.63Z" transform="translate(-18.02 -194.57)"/><path class="cls-1" d="M417.14,299.73h0l-5.45.2c-4.6.14-11,.3-18,.44l-2.25.05h-.29v-.28c-.25-6.52-.14-12.33,0-16.5.06-2.09.14-3.76.21-4.92a10.38,10.38,0,0,1,.17-1.79,11.51,11.51,0,0,1,.05,1.8c0,1.25,0,2.9,0,4.92,0,4.17-.07,10,.2,16.46l-.3-.27,2.26,0c7-.14,13.4-.23,18-.27l5.46,0C418.43,299.51,415.14,299.65,417.14,299.73Z" transform="translate(-18.02 -194.57)"/><path class="cls-1" d="M378.66,299.9a9.94,9.94,0,0,1-.72,1.44c-.24.46-.54,1-.94,1.63s-.81,1.35-1.35,2.1a52.66,52.66,0,0,1-4,5.12,58.31,58.31,0,0,1-5.71,5.55,59.32,59.32,0,0,1-6.47,4.64,51.93,51.93,0,0,1-5.75,3c-.84.4-1.63.69-2.31,1s-1.28.49-1.77.64a7.94,7.94,0,0,1-1.54.45,10,10,0,0,1,1.47-.64c.48-.18,1.07-.41,1.73-.71s1.44-.61,2.26-1a58.14,58.14,0,0,0,5.65-3.1,56.31,56.31,0,0,0,12.08-10.1,59.48,59.48,0,0,0,4.06-5c.55-.74,1-1.44,1.41-2.05s.74-1.13,1-1.57A9.88,9.88,0,0,1,378.66,299.9Z" transform="translate(-18.02 -194.57)"/><path class="cls-11" d="M410.58,268.13a3.75,3.75,0,0,1-.73,0l-2.09-.07-7.67-.3c-6.48-.22-15.43-.39-25.31-.26s-18.83.57-25.3,1l-7.66.5-2.08.13a4,4,0,0,1-.73,0,3,3,0,0,1,.72-.11l2.07-.23c1.81-.19,4.42-.42,7.65-.67,6.47-.5,15.42-1,25.32-1.12s18.86.1,25.34.42c3.23.15,5.85.31,7.66.45l2.08.17A3.9,3.9,0,0,1,410.58,268.13Z" transform="translate(-18.02 -194.57)"/><path class="cls-11" d="M344.12,288.47a82.89,82.89,0,0,1-13.12,0,82.89,82.89,0,0,1,13.12,0Z" transform="translate(-18.02 -194.57)"/><path class="cls-11" d="M390.9,290.73a1.54,1.54,0,0,1-.46.1l-1.35.2c-1.17.16-2.86.36-5,.58-4.2.43-10,.9-16.46,1.15s-12.27.24-16.49.13c-2.11-.05-3.82-.12-5-.19l-1.35-.09a1.62,1.62,0,0,1-.47-.07,1.57,1.57,0,0,1,.47,0h1.36l5,0c4.22,0,10.05,0,16.47-.28s12.24-.66,16.44-1l5-.41,1.36-.1A1.4,1.4,0,0,1,390.9,290.73Z" transform="translate(-18.02 -194.57)"/><path class="cls-11" d="M415,286.64c0,.14-5.32.74-11.91,1.33s-11.94.94-12,.8,5.32-.74,11.91-1.32S414.94,286.5,415,286.64Z" transform="translate(-18.02 -194.57)"/><path class="cls-11" d="M363.09,317.08a16.84,16.84,0,0,1-3.14.25c-1.95.08-4.64.12-7.62.05s-5.66-.24-7.6-.41a17.67,17.67,0,0,1-3.13-.4,19.86,19.86,0,0,1,3.15,0c1.95.08,4.63.18,7.6.25s5.65.1,7.59.12A20.35,20.35,0,0,1,363.09,317.08Z" transform="translate(-18.02 -194.57)"/><path class="cls-11" d="M390.56,317.94a5,5,0,0,1-1.13.24c-.73.13-1.79.28-3.11.45-2.63.32-6.29.66-10.34.82s-7.72.1-10.37,0c-1.33-.06-2.4-.13-3.14-.2a4.55,4.55,0,0,1-1.14-.16,5.18,5.18,0,0,1,1.15,0l3.14,0c2.65,0,6.31,0,10.34-.13s7.68-.44,10.32-.67l3.13-.28A4.57,4.57,0,0,1,390.56,317.94Z" transform="translate(-18.02 -194.57)"/><path class="cls-11" d="M347.22,337.08a14.18,14.18,0,0,1-5.11-1.28,14.42,14.42,0,0,1-4.58-2.64c.09-.13,2.1,1.09,4.77,2.16S347.25,336.93,347.22,337.08Z" transform="translate(-18.02 -194.57)"/><path class="cls-8" d="M372.16,200.78h-1A18.15,18.15,0,0,0,353,217.24c-.7,8.63-1.35,18.17-1.28,22.8.14,9.59,10,11.06,10,11.06l-.37,8.51a11.74,11.74,0,0,0,11,12.11h0a11.72,11.72,0,0,0,12.39-11.15l2-40.49C387.63,210.12,382.4,201.34,372.16,200.78Z" transform="translate(-18.02 -194.57)"/><path class="cls-10" d="M361.59,251.08a24.35,24.35,0,0,0,12.89-3.7s-3,6.91-12.85,6.06Z" transform="translate(-18.02 -194.57)"/><path class="cls-1" d="M356.45,223.19a1.39,1.39,0,0,0,1.36,1.38,1.34,1.34,0,0,0,1.45-1.24A1.4,1.4,0,0,0,357.9,222,1.34,1.34,0,0,0,356.45,223.19Z" transform="translate(-18.02 -194.57)"/><path class="cls-1" d="M355.09,221.92c.17.18,1.23-.59,2.75-.59s2.62.74,2.78.56-.09-.4-.58-.75a4,4,0,0,0-4.42,0C355.16,221.52,355,221.84,355.09,221.92Z" transform="translate(-18.02 -194.57)"/><path class="cls-1" d="M370.57,223.64a1.4,1.4,0,0,0,1.36,1.38,1.34,1.34,0,0,0,1.45-1.24A1.4,1.4,0,0,0,372,222.4,1.34,1.34,0,0,0,370.57,223.64Z" transform="translate(-18.02 -194.57)"/><path class="cls-1" d="M369.21,222.17c.17.18,1.24-.59,2.75-.59s2.62.73,2.79.55-.1-.4-.59-.74a3.86,3.86,0,0,0-2.23-.66,3.72,3.72,0,0,0-2.19.69C369.28,221.77,369.12,222.09,369.21,222.17Z" transform="translate(-18.02 -194.57)"/><path class="cls-1" d="M364.49,233.1a10.22,10.22,0,0,0-2.46-.42c-.38,0-.75-.11-.82-.37a1.88,1.88,0,0,1,.26-1.12l1.14-2.86c1.57-4.08,2.71-7.44,2.55-7.5s-1.59,3.2-3.17,7.28c-.38,1-.74,2-1.09,2.88a2.16,2.16,0,0,0-.19,1.48,1,1,0,0,0,.63.55,2.87,2.87,0,0,0,.66.09A9.88,9.88,0,0,0,364.49,233.1Z" transform="translate(-18.02 -194.57)"/><path class="cls-1" d="M368.94,234.11c-.24,0-.24,1.59-1.65,2.73s-3.15,1-3.16,1.19.39.31,1.13.32a4.1,4.1,0,0,0,2.64-.9,3.46,3.46,0,0,0,1.28-2.28C369.24,234.5,369.06,234.1,368.94,234.11Z" transform="translate(-18.02 -194.57)"/><path class="cls-1" d="M369.55,216.4c.15.4,1.66.21,3.44.41s3.21.67,3.44.31c.11-.17-.14-.54-.72-.93a6.1,6.1,0,0,0-5.24-.55C369.82,215.89,369.49,216.21,369.55,216.4Z" transform="translate(-18.02 -194.57)"/><path class="cls-1" d="M355.63,217.66c.27.33,1.31,0,2.56,0s2.32.22,2.56-.13c.11-.17-.06-.51-.52-.82a3.78,3.78,0,0,0-4.13.13C355.66,217.15,355.52,217.5,355.63,217.66Z" transform="translate(-18.02 -194.57)"/><path class="cls-8" d="M385.3,227.18c.17-.07,6.76-2,6.56,4.59s-6.92,5-6.92,4.82S385.3,227.18,385.3,227.18Z" transform="translate(-18.02 -194.57)"/><path class="cls-10" d="M386.48,234.16s.11.09.31.18a1.19,1.19,0,0,0,.87,0,2.8,2.8,0,0,0,1.42-2.49,3.55,3.55,0,0,0-.28-1.65,1.32,1.32,0,0,0-.85-.9.61.61,0,0,0-.7.29c-.1.18-.06.32-.1.33s-.14-.12-.07-.39a.7.7,0,0,1,.27-.4A1,1,0,0,1,388,229a1.64,1.64,0,0,1,1.19,1,3.81,3.81,0,0,1,.35,1.84,3,3,0,0,1-1.8,2.78,1.26,1.26,0,0,1-1.06-.2C386.48,234.32,386.45,234.17,386.48,234.16Z" transform="translate(-18.02 -194.57)"/><path class="cls-1" d="M380.89,207.7l-28.07.6a12.7,12.7,0,0,1,4.13-4.65,22.34,22.34,0,0,1,12.71-4.45c4.57-.08,13.89,5.35,17.2,8.42,2.66,2.46,2.64,4.59,2.64,4.59.42,3.55-1.61,7.57-2.42,11-.42,1.8-1.23,7.22-1.23,7.22h0c-1.55,0-2.12-1.2-1.88-2.69l.28-5.84a8.71,8.71,0,0,1-2.76-10.3C381.89,211.12,382.74,208.69,380.89,207.7Z" transform="translate(-18.02 -194.57)"/><path class="cls-10" d="M375,228.42a.16.16,0,0,0,.19-.14.17.17,0,0,0-.12-.21.18.18,0,0,0-.2.15A.17.17,0,0,0,375,228.42Z" transform="translate(-18.02 -194.57)"/><path class="cls-10" d="M372.1,227.79a.19.19,0,0,0,.21-.17.19.19,0,0,0-.12-.23.19.19,0,0,0-.21.17A.19.19,0,0,0,372.1,227.79Z" transform="translate(-18.02 -194.57)"/><path class="cls-10" d="M370.16,227.75c.09,0,.18-.1.2-.25s0-.27-.14-.28-.18.1-.19.24S370.07,227.74,370.16,227.75Z" transform="translate(-18.02 -194.57)"/><path class="cls-10" d="M373.58,230.19c.09,0,.17-.05.16-.1s-.07-.11-.16-.11-.17.05-.17.11S373.49,230.19,373.58,230.19Z" transform="translate(-18.02 -194.57)"/><path class="cls-10" d="M370.93,229.6a.18.18,0,0,0,.18-.17.18.18,0,0,0-.15-.2.18.18,0,0,0-.18.17A.17.17,0,0,0,370.93,229.6Z" transform="translate(-18.02 -194.57)"/><path class="cls-10" d="M357.13,228a.18.18,0,1,0-.13-.21A.18.18,0,0,0,357.13,228Z" transform="translate(-18.02 -194.57)"/><path class="cls-10" d="M355.16,227.85c.09,0,.17-.08.19-.19a.17.17,0,1,0-.19.19Z" transform="translate(-18.02 -194.57)"/><path class="cls-10" d="M358.87,228.07a.17.17,0,0,0,.19-.11.14.14,0,0,0-.13-.17.17.17,0,0,0-.2.1A.17.17,0,0,0,358.87,228.07Z" transform="translate(-18.02 -194.57)"/><path class="cls-10" d="M357.41,230a.19.19,0,0,0,.23-.11.17.17,0,0,0-.07-.24.18.18,0,0,0-.23.11A.18.18,0,0,0,357.41,230Z" transform="translate(-18.02 -194.57)"/><path class="cls-10" d="M355.73,229.66a.14.14,0,0,0,.12-.17.16.16,0,0,0-.2-.09.15.15,0,0,0-.12.17A.15.15,0,0,0,355.73,229.66Z" transform="translate(-18.02 -194.57)"/><path class="cls-1" d="M387.05,208a7.82,7.82,0,0,0-1.58-7,8.31,8.31,0,0,0-6.71-3,25.84,25.84,0,0,1-3.92.28c-2.43-.26-4.3-2.15-6.55-3.07a8.67,8.67,0,0,0-10.09,2.94c-.86,1.24-1.42,2.78-2.72,3.56-1.13.68-2.56.62-3.83,1a6.1,6.1,0,0,0-4.2,6,7.2,7.2,0,0,0,4.49,6,9.17,9.17,0,0,0,7.75-.53c2.12-1.15,4-3.1,6.44-3s4.7,2.38,7.16,1.9a7,7,0,0,0,3.23-2.11,5.62,5.62,0,0,1,3.34-1.87c1.32-.08,2,1.68,1.53,2.88l5.66-3.92" transform="translate(-18.02 -194.57)"/><path class="cls-4" d="M353.37,204.83l0,.1c0,.06.09.15.17.26a4.17,4.17,0,0,0,.8.89,5,5,0,0,0,6.9-.4,33.59,33.59,0,0,0,1.94-2.88,4,4,0,0,1,1.36-1.2,4.15,4.15,0,0,1,1.86-.4,4.32,4.32,0,0,1,1.91.51,3.48,3.48,0,0,1,1.41,1.41,20.47,20.47,0,0,0,1,1.84,2.31,2.31,0,0,0,1.79,1.06,3.53,3.53,0,0,0,2-.55,6.82,6.82,0,0,0,1.49-1.2,6.29,6.29,0,0,1,2.78-1.93,3.62,3.62,0,0,1,2.82.65,4.69,4.69,0,0,1,1.55,1.86,7.63,7.63,0,0,1,.58,1.76c.1.5.15.9.19,1.16a1.51,1.51,0,0,0,.06.41v-.11c0-.06,0-.17,0-.3a11.15,11.15,0,0,0-.14-1.18,7.37,7.37,0,0,0-.54-1.8,4.88,4.88,0,0,0-1.57-1.95,3.8,3.8,0,0,0-3-.71,6.34,6.34,0,0,0-2.9,2,7.11,7.11,0,0,1-1.45,1.16,3.39,3.39,0,0,1-1.81.51,2.06,2.06,0,0,1-1.59-1c-.38-.54-.63-1.2-1-1.82a3.78,3.78,0,0,0-1.51-1.51,4.46,4.46,0,0,0-2-.53,4.31,4.31,0,0,0-2,.43,4.16,4.16,0,0,0-1.44,1.28c-.74,1-1.18,2.09-1.9,2.87a5,5,0,0,1-2.56,1.46,4.78,4.78,0,0,1-2.46-.11,5.09,5.09,0,0,1-1.65-.88A6.24,6.24,0,0,1,353.37,204.83Z" transform="translate(-18.02 -194.57)"/><path class="cls-4" d="M348.28,204.93a1.37,1.37,0,0,0-.11.52,4.12,4.12,0,0,0,.14,1.47,5.15,5.15,0,0,0,1.05,1.93,6.22,6.22,0,0,0,2.22,1.57,9.47,9.47,0,0,0,4.9.54,13.07,13.07,0,0,0,1.47-.29,1.62,1.62,0,0,0,.52-.17s-.77.14-2,.27a9.8,9.8,0,0,1-4.77-.59,6.16,6.16,0,0,1-2.14-1.49,5.14,5.14,0,0,1-1.05-1.82A5.74,5.74,0,0,1,348.28,204.93Z" transform="translate(-18.02 -194.57)"/><path class="cls-2" d="M421.49,302c-.17,12.86-8,24.71-18.24,32.52s-22.64,12.14-35,15.7-25,6.51-36.64,12c-16.1,7.62-31,18.07-40.12,33.39s-12.34,35.45-11.32,53.23L417,435.18l7.49-77.75Z" transform="translate(-18.02 -194.57)"/><path class="cls-1" d="M298.91,384.71a3.54,3.54,0,0,1-.35.56l-1.09,1.54c-.48.66-1.08,1.46-1.69,2.44s-1.39,2.05-2.09,3.34-1.56,2.62-2.31,4.17-1.56,3.18-2.34,4.94a84.33,84.33,0,0,0-4,11.88A93.73,93.73,0,0,0,283,425.93c-.18,1.92-.34,3.75-.39,5.46s-.1,3.31-.12,4.77,0,2.78.06,3.94.07,2.16.12,3,.06,1.4.08,1.88a2.73,2.73,0,0,1,0,.66,2.91,2.91,0,0,1-.1-.65c-.05-.48-.11-1.1-.18-1.87s-.17-1.81-.21-3-.15-2.48-.14-3.95,0-3.06.05-4.79.19-3.55.35-5.49a90,90,0,0,1,2.08-12.43,82.18,82.18,0,0,1,4-11.94c.8-1.76,1.56-3.44,2.4-4.95s1.62-2.91,2.37-4.17,1.53-2.33,2.17-3.3,1.26-1.76,1.77-2.41l1.16-1.47A3.13,3.13,0,0,1,298.91,384.71Z" transform="translate(-18.02 -194.57)"/><g class="cls-3"><path d="M421.49,302c-.17,12.86-8,24.71-18.24,32.52s-22.64,12.14-35,15.7-25,6.51-36.64,12c-16.1,7.62-31,18.07-40.12,33.39s-12.34,35.45-11.32,53.23L417,435.18l7.49-77.75Z" transform="translate(-18.02 -194.57)"/></g></g><g id="Plant"><path class="cls-2" d="M105.79,359.85a48.91,48.91,0,0,0-46.65-12.8,84.93,84.93,0,0,0,47.2,14.74" transform="translate(-18.02 -194.57)"/><path class="cls-2" d="M90,303.82c2-13.75-3.4-29.21-13.69-39.2-.34,13.62,5.41,28.95,13.69,39.2" transform="translate(-18.02 -194.57)"/><path class="cls-2" d="M98.19,329.79a73.37,73.37,0,0,0-33.71-32.22,46.33,46.33,0,0,0,33.84,32.36" transform="translate(-18.02 -194.57)"/><path class="cls-2" d="M99.9,334.8c-8.31.23-16.71-.06-24.74-2.19S59.44,326.4,54.1,320.05A82.53,82.53,0,0,1,99.77,334" transform="translate(-18.02 -194.57)"/><path class="cls-2" d="M95.68,318.29c4.22-15.79,11.17-26.72,23.59-35.57a32.84,32.84,0,0,1-23.59,35.57" transform="translate(-18.02 -194.57)"/><path class="cls-2" d="M127,345.53a23.37,23.37,0,0,0-14.2-21.65c.69,8.15,7.1,17.59,14.2,21.65" transform="translate(-18.02 -194.57)"/><path class="cls-2" d="M131,332.22a34.83,34.83,0,0,1,22.82-29.72c-2.86,13.2-10.5,24.19-22.82,29.72" transform="translate(-18.02 -194.57)"/><path class="cls-2" d="M125,355.85c2.93-4.19,7.71-6.79,12.65-8.09s10.11-1.41,15.22-1.51a35.58,35.58,0,0,1-27.48,11.44" transform="translate(-18.02 -194.57)"/><path class="cls-2" d="M119.08,389.52a39,39,0,0,1,47.6,22.55c-17.29-3.28-34.35-11-47.6-22.55" transform="translate(-18.02 -194.57)"/><path class="cls-2" d="M100.1,377.82c2.87,8.49,2.32,18.75-4.07,26.07a31.16,31.16,0,0,1,4.07-26.07" transform="translate(-18.02 -194.57)"/><path class="cls-2" d="M88.88,373.1A32,32,0,0,1,71.24,399a2,2,0,0,1-1.56.26c-.78-.32-.85-1.38-.75-2.22,1.25-10.88,9.31-21.4,19.95-24" transform="translate(-18.02 -194.57)"/><path class="cls-2" d="M81.55,372a26.19,26.19,0,0,1-38.26.19c12.16-1.33,26.2-2.22,38.26-.19" transform="translate(-18.02 -194.57)"/><path class="cls-1" d="M79.73,274.75a3.25,3.25,0,0,0,.12.35c.09.26.21.6.37,1,.34.93.83,2.25,1.46,3.94s1.41,3.81,2.29,6.25l1.41,3.9c.48,1.39,1,2.86,1.52,4.4,2.15,6.16,4.54,13.56,7.13,21.79s5.2,17.35,7.82,26.95,4.88,18.83,6.83,27.24,3.53,16,4.7,22.43c.31,1.6.59,3.13.87,4.57s.47,2.82.69,4.1c.44,2.55.82,4.75,1.07,6.56s.49,3.18.64,4.15c.08.46.13.82.18,1.08s.07.37.07.37a2.06,2.06,0,0,0,0-.37c0-.27-.08-.63-.14-1.09-.13-1-.31-2.38-.55-4.17s-.58-4-1-6.58c-.21-1.28-.43-2.65-.66-4.1l-.83-4.58c-1.14-6.43-2.74-14-4.61-22.47s-4.21-17.63-6.8-27.26-5.3-18.71-7.86-27-5-15.62-7.23-21.76c-.55-1.54-1.06-3-1.55-4.4s-1-2.67-1.45-3.89c-.9-2.43-1.68-4.53-2.36-6.22s-1.18-3-1.55-3.91c-.17-.43-.31-.76-.41-1A2.17,2.17,0,0,0,79.73,274.75Z" transform="translate(-18.02 -194.57)"/><path class="cls-1" d="M146.55,309.54l-.21.2-.58.61c-.51.54-1.24,1.35-2.16,2.42a85.15,85.15,0,0,0-7.16,9.55,64,64,0,0,0-7.49,16c-2,6.37-3.26,13.62-4.5,21.2-2.47,15.17-5.5,28.75-7.7,38.58l-2.64,11.63c-.3,1.35-.53,2.42-.7,3.17-.07.34-.12.61-.17.83a1.44,1.44,0,0,0,0,.28,1.1,1.1,0,0,0,.09-.27c0-.21.12-.48.21-.82l.79-3.15c.66-2.77,1.61-6.72,2.78-11.6,2.28-9.81,5.37-23.39,7.84-38.57,1.24-7.58,2.47-14.81,4.45-21.16a64.6,64.6,0,0,1,7.35-16,92.47,92.47,0,0,1,7-9.61c.89-1.09,1.61-1.91,2.09-2.47l.55-.65C146.5,309.63,146.56,309.55,146.55,309.54Z" transform="translate(-18.02 -194.57)"/><path class="cls-1" d="M77.92,371.48a1.59,1.59,0,0,0,.44.08l1.26.14.91.09,1.07.16c.78.11,1.66.23,2.62.44l1.51.3,1.61.41c1.13.25,2.29.67,3.53,1a52.64,52.64,0,0,1,7.71,3.39,43.83,43.83,0,0,1,6.9,4.8,32.51,32.51,0,0,1,2.65,2.55,28.86,28.86,0,0,1,2.1,2.41c.64.74,1.09,1.51,1.55,2.14a16.24,16.24,0,0,1,1.06,1.7l.65,1.08a1.71,1.71,0,0,0,.25.37s0-.15-.17-.41-.34-.68-.57-1.13a14.87,14.87,0,0,0-1-1.75,25.08,25.08,0,0,0-1.51-2.2,26.84,26.84,0,0,0-2.08-2.48,32.82,32.82,0,0,0-2.65-2.6,41.91,41.91,0,0,0-7-4.88,50.42,50.42,0,0,0-7.79-3.4c-1.26-.36-2.43-.76-3.57-1l-1.64-.39-1.53-.27c-1-.2-1.85-.29-2.63-.38l-1.09-.12-.92-.05-1.27,0A1.35,1.35,0,0,0,77.92,371.48Z" transform="translate(-18.02 -194.57)"/><path class="cls-1" d="M74.46,309.84a6.57,6.57,0,0,0,.87.84l2.51,2.17c2.12,1.82,5.08,4.31,8.37,7s6.28,5.18,8.46,6.93l2.6,2.06a5.37,5.37,0,0,0,1,.7,6.36,6.36,0,0,0-.88-.84l-2.5-2.17c-2.13-1.82-5.09-4.31-8.37-7s-6.28-5.18-8.46-6.93l-2.6-2.06A5.37,5.37,0,0,0,74.46,309.84Z" transform="translate(-18.02 -194.57)"/><path class="cls-1" d="M71.47,325.93c0,.12,6.35,2.12,14.26,4.45s14.36,4.14,14.4,4-6.35-2.12-14.27-4.46S71.5,325.8,71.47,325.93Z" transform="translate(-18.02 -194.57)"/><path class="cls-1" d="M95.05,319.52a5,5,0,0,0,.66-.92L97.39,316c1.43-2.16,3.46-5.11,5.86-8.25s4.71-5.87,6.41-7.82l2-2.31a5.28,5.28,0,0,0,.71-.88,5.17,5.17,0,0,0-.84.76c-.52.5-1.25,1.26-2.14,2.21-1.76,1.9-4.12,4.61-6.53,7.76s-4.4,6.14-5.76,8.35c-.68,1.11-1.22,2-1.57,2.65A5,5,0,0,0,95.05,319.52Z" transform="translate(-18.02 -194.57)"/><path class="cls-1" d="M117.23,328.45a22.71,22.71,0,0,0,1.5,2.47c1,1.5,2.25,3.58,3.59,5.94s2.47,4.53,3.27,6.12a21,21,0,0,0,1.36,2.55,15.83,15.83,0,0,0-1.06-2.69c-.73-1.63-1.82-3.84-3.16-6.21s-2.7-4.44-3.73-5.9A14.88,14.88,0,0,0,117.23,328.45Z" transform="translate(-18.02 -194.57)"/><path class="cls-1" d="M124.82,356.29c0,.06,1.25-.53,3.25-1.43s4.78-2.07,7.92-3.18,6.06-1.92,8.18-2.46,3.44-.83,3.43-.9a3.07,3.07,0,0,0-.95.1c-.61.09-1.48.25-2.56.48a70.84,70.84,0,0,0-8.25,2.35,69.93,69.93,0,0,0-7.91,3.31c-1,.49-1.77.91-2.3,1.21A3.89,3.89,0,0,0,124.82,356.29Z" transform="translate(-18.02 -194.57)"/><path class="cls-1" d="M118.85,389.57a1.49,1.49,0,0,0,.39.13l1.15.29,4.25,1a142.09,142.09,0,0,1,13.87,3.67,61.24,61.24,0,0,1,13,6.08c1.55,1,2.75,1.85,3.56,2.48a13.42,13.42,0,0,0,1.29.95,1.83,1.83,0,0,0-.28-.3c-.21-.18-.49-.46-.89-.79a38.77,38.77,0,0,0-3.5-2.62,56.84,56.84,0,0,0-13-6.24,114.4,114.4,0,0,0-14-3.55l-4.28-.83A11,11,0,0,0,118.85,389.57Z" transform="translate(-18.02 -194.57)"/><path class="cls-1" d="M97.24,397.77c.13,0,.89-4.46,1.7-10s1.37-10.05,1.24-10.07-.89,4.46-1.7,10S97.11,397.75,97.24,397.77Z" transform="translate(-18.02 -194.57)"/><path class="cls-1" d="M74.75,389.6a22.94,22.94,0,0,0,2-2.41c1.22-1.51,2.9-3.59,4.81-5.86s3.67-4.28,5-5.74a24.19,24.19,0,0,0,2-2.41s-.25.17-.64.55-1,.93-1.62,1.63c-1.35,1.41-3.16,3.4-5.07,5.67s-3.55,4.4-4.71,6c-.57.79-1,1.43-1.33,1.88A2.82,2.82,0,0,0,74.75,389.6Z" transform="translate(-18.02 -194.57)"/><polygon class="cls-4" points="116.25 215.89 116.25 227.01 113.47 227.01 103.59 258.19 81.68 258.19 72.11 227.31 68.41 227.01 68.41 215.89 116.25 215.89"/><path class="cls-1" d="M88.28,421.89c0,.13,9.68.23,21.61.23s21.61-.1,21.61-.23-9.68-.23-21.61-.23S88.28,421.76,88.28,421.89Z" transform="translate(-18.02 -194.57)"/><path class="cls-1" d="M72.53,350.39a7,7,0,0,0,1.4.38l3.85.93c3.24.8,7.69,2,12.52,3.64s9.11,3.35,12.17,4.67l3.63,1.58a8.26,8.26,0,0,0,1.35.55,9,9,0,0,0-1.27-.71c-.83-.43-2.05-1-3.57-1.72a125.24,125.24,0,0,0-12.17-4.81,127.08,127.08,0,0,0-12.59-3.52c-1.63-.36-3-.63-3.88-.78A9.81,9.81,0,0,0,72.53,350.39Z" transform="translate(-18.02 -194.57)"/><path class="cls-11" d="M95.56,439.2c0,.13,6.79.24,15.16.24s15.16-.11,15.16-.24-6.79-.23-15.16-.23S95.56,439.08,95.56,439.2Z" transform="translate(-18.02 -194.57)"/><path class="cls-11" d="M94.71,436.63c0,.12,7.19.23,16.06.23s16.07-.11,16.07-.23-7.2-.24-16.07-.24S94.71,436.5,94.71,436.63Z" transform="translate(-18.02 -194.57)"/></g></svg>