<svg xmlns="http://www.w3.org/2000/svg" viewBox="0 0 453.84 463.76"><defs><style>.cls-1{fill:#ebebeb;}.cls-2{fill:#e0e0e0;}.cls-3{fill:#263238;}.cls-4,.cls-7{fill:#fff;}.cls-5{fill:#f5f5f5;}.cls-6{fill:#ff725e;}.cls-7{font-size:12px;font-family:MyriadPro-Regular, Myriad Pro;}.cls-8{letter-spacing:0em;}.cls-9{fill:#455a64;}.cls-10{fill:#ffbe9d;}.cls-11{fill:#eb996e;}.cls-12{opacity:0.6;}.cls-13{opacity:0.3;}</style></defs><g id="Background_Complete" data-name="Background Complete"><path class="cls-1" d="M117.28,119.93c.75-5.44-6.93-9.92-12.7-10.39-2.75-.22-5.61.2-8.22-.71-5.65-2-7.9-9.26-13.41-11.59-4.12-1.73-8.87-.19-12.86,1.82s-8,4.54-12.41,4.83c-3.88.25-8.1-1.19-11.49.71-2.53,1.41-3.86,4.32-6.19,6.05s-5.26,2-8.09,2.19-5.76.18-8.34,1.36-4.71,3.91-4.18,6.69Z" transform="translate(-19.31 -23.47)"/><path class="cls-2" d="M307.52,26.86c5.65-6.59,20.32-2.45,30.38,2.94,0,0,6.92,3.26,9.5,5l.08,0L371,31.84a9.64,9.64,0,0,1,5.56,1l1.92,1a1.29,1.29,0,0,1-.07,2.33l-17.32,7.4v.21L378.17,55l.25.17a15.22,15.22,0,0,0,10.89,2.16l9.15-1.63a2.44,2.44,0,0,1,1.39.11,2.32,2.32,0,0,1,.61,3.92l-10.6,8.86a5.62,5.62,0,0,1-5.94.8l-5-2.29-25.12-12,2.89,14.3a1,1,0,0,1-1,1.11l-1.19,0a4.71,4.71,0,0,1-3.9-2.35L340.54,48.78,310.91,34.67C307,32.85,305.55,29.46,307.52,26.86Z" transform="translate(-19.31 -23.47)"/><path class="cls-1" d="M161.14,46.33c.52-3.72-4.73-6.78-8.68-7.1-1.88-.15-3.84.14-5.62-.48-3.86-1.35-5.41-6.34-9.17-7.93-2.82-1.19-6.07-.13-8.8,1.25s-5.43,3.1-8.48,3.3c-2.65.17-5.54-.82-7.86.48-1.73,1-2.64,3-4.23,4.14a10.15,10.15,0,0,1-5.53,1.5,15.42,15.42,0,0,0-5.71.93c-1.76.81-3.22,2.67-2.85,4.58Z" transform="translate(-19.31 -23.47)"/><path class="cls-2" d="M356.19,381.43c-.1.13-1-.39-1.93-1.17s-1.66-1.5-1.56-1.63,1,.39,1.94,1.16S356.3,381.3,356.19,381.43Z" transform="translate(-19.31 -23.47)"/><path class="cls-1" d="M382.52,342.08c.16-3.67.26-7.44-.9-10.93s-3.85-6.71-7.46-7.45c-4.11-.85-8.32,1.74-10.63,5.25s-3.09,7.78-3.77,11.92a421,421,0,0,0-5.16,86.5l16.82,2.36C378.82,399.53,381.17,373.14,382.52,342.08Z" transform="translate(-19.31 -23.47)"/><path class="cls-2" d="M371.83,323.57a1.22,1.22,0,0,1-.08.27c-.07.2-.16.45-.28.76l-1.12,2.91c-.23.63-.54,1.32-.8,2.1l-.81,2.55c-.3.91-.61,1.89-.94,2.92s-.57,2.17-.87,3.34a144.44,144.44,0,0,0-3.25,16.65c-.91,6.33-1.51,13.34-2,20.7-.86,14.75-1,28.13-1.38,37.8-.17,4.84-.34,8.76-.53,11.46-.08,1.31-.15,2.35-.21,3.11,0,.33-.05.59-.07.81a1,1,0,0,1,0,.27.8.8,0,0,1,0-.27c0-.22,0-.49,0-.81,0-.77.06-1.81.1-3.12.11-2.7.21-6.62.34-11.46.27-9.67.34-23.06,1.2-37.82.47-7.38,1.08-14.4,2-20.75a138.79,138.79,0,0,1,3.39-16.68c.32-1.17.62-2.28.91-3.33l1-2.93.87-2.54c.26-.78.59-1.46.84-2.09l1.23-2.87.34-.74C371.77,323.65,371.82,323.56,371.83,323.57Z" transform="translate(-19.31 -23.47)"/><path class="cls-2" d="M373.39,323.58a12,12,0,0,1,2.05,3.48A25.84,25.84,0,0,1,377,337.94c-.45,9.3-1.28,22.11-2.39,36.26s-2.35,26.94-3.34,36.18c-.49,4.62-.93,8.36-1.24,10.94-.16,1.25-.29,2.24-.38,3l-.12.77a1,1,0,0,1-.06.26.92.92,0,0,1,0-.27c0-.21,0-.46.06-.77.06-.74.15-1.73.27-3,.25-2.65.61-6.38,1.05-11,.88-9.26,2.05-22,3.16-36.19s2-26.95,2.56-36.22a26.23,26.23,0,0,0-1.33-10.78A23.17,23.17,0,0,0,373.39,323.58Z" transform="translate(-19.31 -23.47)"/><path class="cls-2" d="M385.05,367.13a9.58,9.58,0,0,1-3.19-.83c-1.7-.61-3-1.23-3-1.39a9.3,9.3,0,0,1,3.19.83C383.77,366.35,385.11,367,385.05,367.13Z" transform="translate(-19.31 -23.47)"/><path class="cls-2" d="M387.08,350a19.63,19.63,0,0,1-6.31,2.82,20.22,20.22,0,0,1,6.31-2.82Z" transform="translate(-19.31 -23.47)"/><path class="cls-2" d="M386,336a5.28,5.28,0,0,1-2.51.13,5.5,5.5,0,0,1-2.47-.47,5.44,5.44,0,0,1,2.51-.13A5.61,5.61,0,0,1,386,336Z" transform="translate(-19.31 -23.47)"/><path class="cls-2" d="M368.66,327c-.14.09-.87-.83-1.64-2.05s-1.28-2.28-1.14-2.37.88.83,1.65,2.05S368.81,326.93,368.66,327Z" transform="translate(-19.31 -23.47)"/><path class="cls-2" d="M362.93,335.48a5.24,5.24,0,0,1-2.39.25,5.13,5.13,0,0,1-2.38-.35c0-.17,1.07-.28,2.39-.25S362.93,335.31,362.93,335.48Z" transform="translate(-19.31 -23.47)"/><path class="cls-2" d="M358.81,352.41a5.85,5.85,0,0,1-2.52-.69c-1.32-.53-2.35-1.09-2.29-1.25a6,6,0,0,1,2.52.69C357.84,351.7,358.87,352.26,358.81,352.41Z" transform="translate(-19.31 -23.47)"/><path class="cls-2" d="M358.37,366.65c0,.16-.93.5-2.14.76s-2.23.33-2.27.17.93-.51,2.14-.76S358.33,366.49,358.37,366.65Z" transform="translate(-19.31 -23.47)"/><path class="cls-2" d="M356.43,390c0,.16-1,.48-2.27.71a5,5,0,0,1-2.38.12c0-.16,1-.48,2.27-.71S356.4,389.78,356.43,390Z" transform="translate(-19.31 -23.47)"/><path class="cls-2" d="M355.14,402.8c.08.15-.77.75-1.89,1.35s-2.1,1-2.18.81.77-.75,1.89-1.34S355.06,402.66,355.14,402.8Z" transform="translate(-19.31 -23.47)"/><path class="cls-2" d="M365.64,417.4c-.14.08-.88-.94-1.65-2.28a6.83,6.83,0,0,1-1.13-2.58c.14-.08.88.94,1.65,2.28A6.64,6.64,0,0,1,365.64,417.4Z" transform="translate(-19.31 -23.47)"/><path class="cls-2" d="M368.67,393.15c.12.11-.71,1.11-1.84,2.22s-2.14,1.91-2.26,1.8.71-1.12,1.84-2.23S368.55,393,368.67,393.15Z" transform="translate(-19.31 -23.47)"/><path class="cls-2" d="M368,380.42c-.12.11-.89-.51-1.71-1.4s-1.38-1.7-1.26-1.81.88.52,1.7,1.4S368.12,380.31,368,380.42Z" transform="translate(-19.31 -23.47)"/><path class="cls-2" d="M370.08,364.16c.13.11-.56,1.08-1.53,2.16s-1.86,1.87-2,1.76.56-1.08,1.53-2.16S370,364.05,370.08,364.16Z" transform="translate(-19.31 -23.47)"/><path class="cls-2" d="M371.26,352.36c-.12.12-1.08-.64-2.14-1.68s-1.84-2-1.72-2.11,1.07.63,2.14,1.68S371.37,352.24,371.26,352.36Z" transform="translate(-19.31 -23.47)"/><path class="cls-2" d="M373.56,336.41a6.05,6.05,0,0,1-1.07,2.39c-.74,1.23-1.45,2.16-1.6,2.08a5.87,5.87,0,0,1,1.08-2.39C372.71,337.25,373.42,336.32,373.56,336.41Z" transform="translate(-19.31 -23.47)"/><path class="cls-2" d="M377.89,321.62c.15.08-.28,1.15-.95,2.4s-1.33,2.18-1.48,2.1a5.79,5.79,0,0,1,1-2.39C377.09,322.49,377.75,321.55,377.89,321.62Z" transform="translate(-19.31 -23.47)"/><path class="cls-2" d="M382.81,328.34c.07.15-.6.62-1.5,1.05s-1.69.66-1.77.51.61-.62,1.51-1S382.74,328.19,382.81,328.34Z" transform="translate(-19.31 -23.47)"/><path class="cls-2" d="M382.93,381.43a10.37,10.37,0,0,1-6.15-2.62c.1-.15,1.41.56,3.09,1.27A16.4,16.4,0,0,1,382.93,381.43Z" transform="translate(-19.31 -23.47)"/><path class="cls-2" d="M380.92,392.67c0,.17-1,.5-2.26.75a5,5,0,0,1-2.38.15c0-.16,1-.5,2.26-.74A5,5,0,0,1,380.92,392.67Z" transform="translate(-19.31 -23.47)"/><path class="cls-2" d="M378.45,412c-.1.13-1.38-.75-2.56-2.25a6.58,6.58,0,0,1-1.61-3,799.84,799.84,0,0,0,4.17,5.25Z" transform="translate(-19.31 -23.47)"/><path class="cls-2" d="M351.4,420.77c-.11-.13.58-.89,1.53-1.7s1.81-1.37,1.92-1.24-.58.88-1.53,1.7S351.51,420.9,351.4,420.77Z" transform="translate(-19.31 -23.47)"/><path class="cls-1" d="M343.63,378.69c-1.1-3.42-3.15-7.41-6.74-7.46a6,6,0,0,0-5.05,3.38,12.51,12.51,0,0,0-1.37,6.19,161.25,161.25,0,0,0,7.72,44.82h13.14A156.31,156.31,0,0,0,343.63,378.69Z" transform="translate(-19.31 -23.47)"/><path class="cls-1" d="M319.87,357.16c-1.84-7.34-7.32-11.31-13.68-11.68-5.81,1-8.06,6.74-8.75,12.59s1.13,11.69,2.92,17.3q8.65,27,17.3,54.09L334,427.68C328.83,403.52,325.86,381.13,319.87,357.16Z" transform="translate(-19.31 -23.47)"/><path class="cls-2" d="M336.89,371.23a13.63,13.63,0,0,0-1.12,1.86,12.25,12.25,0,0,0-.61,5.81c.25,2.5.54,5.5,1,8.8s1,6.92,1.76,10.69c1.48,7.55,3.16,14.32,4.22,19.26.54,2.46.94,4.47,1.2,5.85.11.64.2,1.17.27,1.61a2,2,0,0,1,.06.56,1.83,1.83,0,0,1-.17-.54c-.11-.43-.24-.95-.39-1.58-.35-1.46-.82-3.42-1.38-5.81-1.17-4.91-2.91-11.66-4.4-19.24-.74-3.78-1.32-7.41-1.72-10.73-.21-1.66-.35-3.24-.48-4.72s-.29-2.85-.36-4.12a12,12,0,0,1,.83-5.94A5.15,5.15,0,0,1,336.89,371.23Z" transform="translate(-19.31 -23.47)"/><path class="cls-2" d="M306.43,345a21.63,21.63,0,0,0-2,2.65,18.77,18.77,0,0,0-2.49,8.55c-.25,3.81.6,8.32,2,13.16s3,10.2,4.66,15.81L317,413.94c1,3.64,1.86,6.61,2.46,8.73.27,1,.48,1.79.65,2.39a4.18,4.18,0,0,1,.18.84,4.59,4.59,0,0,1-.3-.81l-.75-2.35c-.65-2.11-1.55-5.06-2.65-8.68-2.2-7.4-5.21-17.52-8.54-28.7-1.64-5.61-3.19-11-4.62-15.83s-2.22-9.46-1.91-13.33a18.26,18.26,0,0,1,2.71-8.65A10,10,0,0,1,306.43,345Z" transform="translate(-19.31 -23.47)"/><path class="cls-2" d="M330.44,425.93a4.08,4.08,0,0,1-.37-.78c-.22-.53-.56-1.29-.93-2.3-.78-2-1.78-5-2.81-8.68S324.27,406,323.28,401l-3.08-16.26c-1.13-5.75-2.4-11.2-3.87-16.06a89.45,89.45,0,0,0-4.76-12.59,67.49,67.49,0,0,0-4.41-7.94c-.56-.92-1.07-1.58-1.38-2.06a4.7,4.7,0,0,1-.45-.73,7,7,0,0,1,.55.66c.34.46.88,1.1,1.48,2a60.54,60.54,0,0,1,4.59,7.88,85.07,85.07,0,0,1,4.91,12.62,160.39,160.39,0,0,1,3.93,16.1c1.08,5.77,2.1,11.26,3,16.27s1.94,9.46,2.92,13.18,1.91,6.68,2.62,8.71c.33,1,.64,1.79.82,2.33A4.58,4.58,0,0,1,330.44,425.93Z" transform="translate(-19.31 -23.47)"/><path class="cls-2" d="M300.66,372.67c0,.16-.85.52-2,.79s-2.09.37-2.13.21.85-.51,2-.79S300.62,372.51,300.66,372.67Z" transform="translate(-19.31 -23.47)"/><path class="cls-2" d="M298.93,361.52a19.72,19.72,0,0,1-5.53.21,9.65,9.65,0,0,1,5.53-.21Z" transform="translate(-19.31 -23.47)"/><path class="cls-2" d="M300.77,351.33c-.11.13-1-.45-2-1.29s-1.7-1.62-1.59-1.74,1,.45,2,1.28S300.87,351.2,300.77,351.33Z" transform="translate(-19.31 -23.47)"/><path class="cls-2" d="M305.75,341.9c.17,0,.12.83.1,1.79s0,1.76-.2,1.79-.44-.78-.4-1.81S305.59,341.86,305.75,341.9Z" transform="translate(-19.31 -23.47)"/><path class="cls-2" d="M315.94,346.34c.14.1-.26.9-.89,1.8s-1.25,1.55-1.39,1.45.27-.9.9-1.79S315.81,346.25,315.94,346.34Z" transform="translate(-19.31 -23.47)"/><path class="cls-2" d="M322.55,357.83c.07.15-.78.64-1.89,1.09s-2.05.7-2.11.54.78-.64,1.89-1.09S322.49,357.68,322.55,357.83Z" transform="translate(-19.31 -23.47)"/><path class="cls-2" d="M326.56,369.65a7.56,7.56,0,0,1-5.41,1.23c0-.18,1.22-.35,2.69-.69A10.5,10.5,0,0,1,326.56,369.65Z" transform="translate(-19.31 -23.47)"/><path class="cls-2" d="M308.15,366.29c-.16-.05,0-.87.25-1.82s.68-1.7.83-1.65,0,.87-.25,1.83S308.31,366.34,308.15,366.29Z" transform="translate(-19.31 -23.47)"/><path class="cls-2" d="M310.72,381.13c-.16-.07.18-1.17.74-2.46s1.13-2.28,1.29-2.22a5.71,5.71,0,0,1-.74,2.46C311.45,380.2,310.87,381.19,310.72,381.13Z" transform="translate(-19.31 -23.47)"/><path class="cls-2" d="M304.37,385.19a6.08,6.08,0,0,1-2.35-.52c-1.26-.39-2.27-.75-2.23-.91a4.44,4.44,0,0,1,2.41.34C303.48,384.5,304.43,385,304.37,385.19Z" transform="translate(-19.31 -23.47)"/><path class="cls-2" d="M308,397.29c.1.13-.6.8-1.56,1.48s-1.82,1.13-1.92,1,.61-.8,1.57-1.49S307.93,397.15,308,397.29Z" transform="translate(-19.31 -23.47)"/><path class="cls-2" d="M311,409.35c0,.16-.82.51-1.93.78s-2,.35-2.08.19.83-.51,1.94-.78S310.92,409.19,311,409.35Z" transform="translate(-19.31 -23.47)"/><path class="cls-2" d="M326.89,379.72c.08.14-.66.73-1.74,1.14s-2,.45-2,.29.82-.47,1.84-.86S326.8,379.58,326.89,379.72Z" transform="translate(-19.31 -23.47)"/><path class="cls-2" d="M329.16,398.49c-.07.15-1-.12-2-.6s-1.78-1-1.71-1.14.95.12,2,.6S329.23,398.34,329.16,398.49Z" transform="translate(-19.31 -23.47)"/><path class="cls-2" d="M333.18,411.91a6,6,0,0,1-2.6-.69,6.32,6.32,0,0,1-2.39-1.26,12.19,12.19,0,0,1,5,2Z" transform="translate(-19.31 -23.47)"/><path class="cls-2" d="M311.61,422.43c-.08-.15,1-.87,2.22-1.85s2.2-1.84,2.33-1.72-.66,1.19-2,2.2S311.68,422.58,311.61,422.43Z" transform="translate(-19.31 -23.47)"/><path class="cls-2" d="M322.22,415.6c-.17,0-.4-.88-.81-1.93s-.83-1.87-.69-2,.82.62,1.25,1.76S322.38,415.59,322.22,415.6Z" transform="translate(-19.31 -23.47)"/><path class="cls-2" d="M319.41,399.46c-.1.13-.78-.2-1.53-.73s-1.28-1.09-1.18-1.22.78.19,1.53.73S319.51,399.32,319.41,399.46Z" transform="translate(-19.31 -23.47)"/><path class="cls-2" d="M344.16,374.15c.1.13-.57.79-1.49,1.47s-1.75,1.13-1.85,1,.57-.79,1.49-1.47S344.06,374,344.16,374.15Z" transform="translate(-19.31 -23.47)"/><path class="cls-2" d="M347.89,384.35c0,.16-1,.38-2.33.23s-2.27-.57-2.22-.72,1.06,0,2.29.13S347.87,384.18,347.89,384.35Z" transform="translate(-19.31 -23.47)"/><path class="cls-2" d="M331.86,386.63c0,.16-.94.51-2.19.59s-2.26-.13-2.24-.29,1-.23,2.2-.31A5.8,5.8,0,0,1,331.86,386.63Z" transform="translate(-19.31 -23.47)"/><path class="cls-2" d="M333.23,377c0,.16-1,.19-2.06-.31s-1.69-1.25-1.58-1.36.85.37,1.83.82S333.25,376.82,333.23,377Z" transform="translate(-19.31 -23.47)"/><path class="cls-2" d="M349.26,395.29c-.08.14-1.09-.33-2.23-1.05s-2-1.42-1.92-1.56,1.09.33,2.24,1.05S349.35,395.15,349.26,395.29Z" transform="translate(-19.31 -23.47)"/><rect class="cls-2" x="283.54" y="400.43" width="85.54" height="15.16"/><polygon class="cls-2" points="289.93 412.59 300.33 457.89 351.31 457.89 362.69 412.59 289.93 412.59"/><path class="cls-1" d="M388.34,439.09c0,.16-19.3.3-43.09.3s-43.1-.14-43.1-.3,19.29-.3,43.1-.3S388.34,438.92,388.34,439.09Z" transform="translate(-19.31 -23.47)"/><path class="cls-2" d="M340.77,387c-.14.09-.73-.59-1.31-1.52s-.94-1.75-.79-1.84.72.59,1.3,1.52S340.91,386.88,340.77,387Z" transform="translate(-19.31 -23.47)"/><path class="cls-2" d="M340.8,399.16c-.16-.05,0-1.08.45-2.3s.86-2.17,1-2.11,0,1.08-.44,2.3S341,399.21,340.8,399.16Z" transform="translate(-19.31 -23.47)"/><path class="cls-2" d="M345,412c-.15.07-.79-1-1.42-2.29a6.2,6.2,0,0,1-.89-2.55c.15-.07.79,1,1.43,2.29A6.1,6.1,0,0,1,345,412Z" transform="translate(-19.31 -23.47)"/><path class="cls-2" d="M335.94,422.27c-.13-.11.38-.9,1.14-1.77s1.47-1.49,1.59-1.38-.38.9-1.14,1.77S336.06,422.38,335.94,422.27Z" transform="translate(-19.31 -23.47)"/><path class="cls-2" d="M334,403.56c0,.17-.85.16-1.84,0s-1.76-.44-1.73-.61.85-.15,1.84,0S334.07,403.4,334,403.56Z" transform="translate(-19.31 -23.47)"/><path class="cls-1" d="M424.18,156.51c.74-5.44-6.93-9.92-12.71-10.38-2.75-.23-5.61.19-8.21-.71-5.65-2-7.91-9.27-13.42-11.59-4.12-1.74-8.86-.2-12.86,1.81s-7.94,4.55-12.4,4.83c-3.88.25-8.1-1.19-11.5.71-2.53,1.41-3.85,4.33-6.19,6s-5.26,2-8.09,2.19-5.76.18-8.34,1.36-4.71,3.91-4.17,6.69Z" transform="translate(-19.31 -23.47)"/><path class="cls-1" d="M398,219.4c.51-3.72-4.74-6.78-8.68-7.1-1.89-.15-3.84.14-5.62-.48-3.87-1.35-5.41-6.34-9.18-7.93-2.82-1.19-6.06-.13-8.79,1.24s-5.43,3.11-8.48,3.3c-2.66.17-5.54-.81-7.86.49-1.73,1-2.64,3-4.24,4.13a10,10,0,0,1-5.53,1.5,15.59,15.59,0,0,0-5.7.94c-1.77.8-3.22,2.67-2.86,4.57Z" transform="translate(-19.31 -23.47)"/><text x="-19.31" y="-23.47"/></g><g id="Floor"><path class="cls-3" d="M473.14,480.69c0,.14-100.8.26-225.13.26s-225.15-.12-225.15-.26,100.78-.26,225.15-.26S473.14,480.54,473.14,480.69Z" transform="translate(-19.31 -23.47)"/></g><g id="Device"><path class="cls-3" d="M302.62,378.07,189,378a24.58,24.58,0,0,1-24.73-24.44l0-281.28a24.59,24.59,0,0,1,24.76-24.43l113.6.06a24.6,24.6,0,0,1,24.73,24.45l-.06,281.27A24.59,24.59,0,0,1,302.62,378.07Z" transform="translate(-19.31 -23.47)"/><path class="cls-4" d="M302.59,57.86h-22a5.42,5.42,0,0,0-5.34,5.52v3.95a5.42,5.42,0,0,1-5.35,5.51l-42.93,0a5.44,5.44,0,0,1-5.34-5.53V63.34a5.45,5.45,0,0,0-5.35-5.53h-27a17.22,17.22,0,0,0-17.34,17.11l0,274.54a17.21,17.21,0,0,0,17.31,17.12l113.37.07a17.22,17.22,0,0,0,17.34-17.11L319.91,75A17.23,17.23,0,0,0,302.59,57.86Z" transform="translate(-19.31 -23.47)"/><path class="cls-5" d="M319.91,72.66a17.22,17.22,0,0,0-17.32-17.12h-22A5.42,5.42,0,0,0,275.22,61V65a5.43,5.43,0,0,1-5.35,5.52l-42.93,0A5.43,5.43,0,0,1,221.59,65V61a5.44,5.44,0,0,0-5.35-5.52h-27a17.23,17.23,0,0,0-17.34,17.12l0,26.25H319.91Z" transform="translate(-19.31 -23.47)"/><polygon class="cls-3" points="177.24 167.67 177.24 172.98 182.61 172.98 182.61 167.67 182.61 162.37 177.24 162.37 177.24 167.67"/><rect class="cls-3" x="177.24" y="135.82" width="5.37" height="5.31"/><rect class="cls-3" x="210.45" y="194.27" width="5.37" height="5.31"/><polygon class="cls-3" points="182.61 146.44 182.61 151.75 177.24 151.75 177.24 157.06 182.61 157.06 182.61 162.37 187.99 162.37 193.36 162.37 193.36 167.67 198.73 167.67 198.73 162.37 204.11 162.37 204.11 157.06 204.11 151.75 198.73 151.75 198.73 157.06 193.36 157.06 187.99 157.06 187.99 151.75 187.99 146.44 187.99 141.13 182.61 141.13 182.61 146.44"/><polygon class="cls-3" points="193.36 135.82 187.99 135.82 187.99 141.13 193.36 141.13 198.73 141.13 198.73 135.82 193.36 135.82"/><polygon class="cls-3" points="217.54 178.5 220.43 178.5 220.43 173.19 217.54 173.19 214.66 173.19 214.66 178.5 217.54 178.5"/><rect class="cls-3" x="198.73" y="141.13" width="5.37" height="5.31"/><rect class="cls-3" x="236.36" y="162.37" width="5.37" height="5.31"/><rect class="cls-3" x="241.73" y="103.98" width="5.37" height="5.31"/><polygon class="cls-3" points="214.86 146.44 214.86 141.13 220.23 141.13 220.23 135.82 214.86 135.82 214.86 130.52 209.48 130.52 209.48 135.82 204.11 135.82 204.11 141.13 209.48 141.13 209.48 146.44 209.48 151.75 209.48 157.06 209.48 162.37 214.86 162.37 214.86 157.06 214.86 151.75 220.23 151.75 220.23 146.44 214.86 146.44"/><polygon class="cls-3" points="241.73 199.52 247.1 199.52 247.1 194.22 241.73 194.22 236.36 194.22 236.36 199.52 241.73 199.52"/><rect class="cls-3" x="230.98" y="103.98" width="5.37" height="5.31"/><polygon class="cls-3" points="235.01 146.44 235.01 141.13 229.64 141.13 229.64 135.82 224.26 135.82 224.26 141.13 224.26 146.44 218.89 146.44 218.89 151.75 224.26 151.75 229.64 151.75 229.64 146.44 235.01 146.44"/><rect class="cls-3" x="259.97" y="135.82" width="5.37" height="5.31"/><rect class="cls-3" x="204.26" y="162.37" width="5.37" height="5.31"/><polygon class="cls-3" points="230.98 130.52 230.98 125.21 236.36 125.21 236.36 119.9 241.73 119.9 247.1 119.9 247.1 114.59 241.73 114.59 241.73 109.28 236.36 109.28 236.36 114.59 230.98 114.59 230.98 119.9 225.61 119.9 225.61 125.21 220.23 125.21 220.23 130.52 225.61 130.52 230.98 130.52"/><polygon class="cls-3" points="230.98 167.67 230.98 162.37 236.36 162.37 236.36 157.06 230.98 157.06 225.61 157.06 225.61 162.37 220.23 162.37 220.23 167.67 225.61 167.67 230.98 167.67"/><polygon class="cls-3" points="247.1 188.91 247.1 183.6 241.73 183.6 236.36 183.6 236.36 178.29 230.98 178.29 230.98 183.6 225.61 183.6 225.61 188.91 220.23 188.91 214.86 188.91 214.86 194.21 220.23 194.21 225.61 194.21 230.98 194.21 230.98 188.91 236.36 188.91 236.36 194.21 241.73 194.21 241.73 188.91 247.1 188.91"/><polygon class="cls-3" points="225.61 109.28 225.61 103.97 220.23 103.97 214.86 103.97 214.86 109.28 209.48 109.28 209.48 114.59 214.86 114.59 220.23 114.59 220.23 109.28 225.61 109.28"/><rect class="cls-3" x="220.23" y="114.59" width="5.37" height="5.31"/><polygon class="cls-3" points="239.04 135.82 233.67 135.82 233.67 141.13 233.67 146.44 233.67 151.75 239.04 151.75 244.42 151.75 244.42 146.44 239.04 146.44 239.04 141.13 244.42 141.13 244.42 135.82 249.79 135.82 249.79 130.52 244.42 130.52 244.42 125.21 239.04 125.21 239.04 130.52 239.04 135.82"/><rect class="cls-3" x="214.86" y="119.9" width="5.37" height="5.31"/><polygon class="cls-3" points="236.36 172.98 236.36 178.29 241.73 178.29 247.1 178.29 247.1 172.98 252.48 172.98 257.85 172.98 257.85 167.67 252.48 167.67 247.1 167.67 241.73 167.67 241.73 172.98 236.36 172.98"/><rect class="cls-3" x="259.97" y="151.75" width="5.37" height="5.31"/><rect class="cls-3" x="241.73" y="157.06" width="5.37" height="5.31"/><polygon class="cls-3" points="260.54 141.13 255.17 141.13 249.79 141.13 249.79 146.44 255.17 146.44 255.17 151.75 260.54 151.75 260.54 146.44 260.54 141.13"/><rect class="cls-3" x="252.48" y="157.06" width="5.37" height="5.31"/><path class="cls-3" d="M218,212.48h16.13V191.14h-21.6v5.32h-5.28v5.3h5.28v5.31h-5.28v5.31h5.28v.1h.1v5.21h-5.38v10.62h5.38V223H218V212.48Zm12-17.25V208.5H216.6V195.23Z" transform="translate(-19.31 -23.47)"/><polygon class="cls-3" points="268.6 167.67 273.98 167.67 273.98 162.37 268.6 162.37 263.23 162.37 257.85 162.37 257.85 167.67 263.23 167.67 268.6 167.67"/><polygon class="cls-3" points="268.6 146.44 273.98 146.44 273.98 141.13 273.98 135.82 268.6 135.82 268.6 141.13 268.6 146.44"/><polygon class="cls-3" points="225.81 173.19 220.43 173.19 220.43 178.5 220.43 183.81 225.81 183.81 225.81 178.5 225.81 173.19"/><rect class="cls-3" x="273.98" y="167.67" width="5.37" height="5.31"/><polygon class="cls-3" points="279.35 157.06 279.35 151.75 273.98 151.75 273.98 157.06 273.98 162.37 279.35 162.37 279.35 157.06"/><polygon class="cls-3" points="182.61 194.22 177.24 194.22 177.24 199.52 177.24 204.83 182.61 204.83 182.61 199.52 182.61 194.22"/><path class="cls-3" d="M298.66,154V127.45H271.79V154Zm-22.84-4V131.43h18.81V150Z" transform="translate(-19.31 -23.47)"/><rect class="cls-3" x="260.54" y="111.94" width="10.75" height="10.62"/><path class="cls-3" d="M298.66,201.76H271.79v26.55h26.87Zm-22.84,22.56V205.75h18.81v18.57Z" transform="translate(-19.31 -23.47)"/><rect class="cls-3" x="260.54" y="186.25" width="10.75" height="10.62"/><path class="cls-3" d="M196.48,127.45V154h26.87V127.45Zm22.84,4V150H200.51V131.43Z" transform="translate(-19.31 -23.47)"/><rect class="cls-3" x="185.23" y="111.94" width="10.75" height="10.62"/><path class="cls-6" d="M188.81,146V127.1a6.89,6.89,0,0,1,1.51-4.8,6.66,6.66,0,0,1,5.24-2.15h20.06a.59.59,0,0,0,0-1.18H195.78a8.55,8.55,0,0,0-4.79,1.19,7.47,7.47,0,0,0-3.38,6.19c-.05,3.1,0,6.21,0,9.31V146a.6.6,0,0,0,1.2,0Z" transform="translate(-19.31 -23.47)"/><path class="cls-6" d="M213.87,237.27H194.78a7.09,7.09,0,0,1-4.86-1.5,6.47,6.47,0,0,1-2.17-5.16V210.79a.6.6,0,0,0-1.2,0v19.6a8.22,8.22,0,0,0,1.21,4.73,7.59,7.59,0,0,0,6.26,3.33c3.14.06,6.29,0,9.43,0h10.42a.59.59,0,0,0,0-1.18Z" transform="translate(-19.31 -23.47)"/><path class="cls-6" d="M305.75,210.6v18.85a6.85,6.85,0,0,1-1.52,4.8A6.63,6.63,0,0,1,299,236.4H278.93a.59.59,0,0,0,0,1.18h19.85a8.55,8.55,0,0,0,4.79-1.19A7.47,7.47,0,0,0,307,230.2c.05-3.1,0-6.21,0-9.31V210.6a.6.6,0,0,0-1.2,0Z" transform="translate(-19.31 -23.47)"/><path class="cls-6" d="M279.28,120.15h19.09a7.09,7.09,0,0,1,4.86,1.5,6.48,6.48,0,0,1,2.17,5.16v19.83a.6.6,0,0,0,1.2,0V127a8.18,8.18,0,0,0-1.21-4.72,7.58,7.58,0,0,0-6.27-3.34c-3.14-.06-6.28,0-9.42,0H279.28a.59.59,0,0,0,0,1.18Z" transform="translate(-19.31 -23.47)"/><path class="cls-6" d="M293.74,282.44h-94a15.15,15.15,0,0,1-15.24-15.05h0a15.15,15.15,0,0,1,15.24-15h94a15.15,15.15,0,0,1,15.25,15h0A15.15,15.15,0,0,1,293.74,282.44Z" transform="translate(-19.31 -23.47)"/><path class="cls-6" d="M266.79,316a34.12,34.12,0,0,0-.76-5.3,21.94,21.94,0,0,0-7.57-11.86,20,20,0,0,0-8.66-4,19.69,19.69,0,0,0-10.78,1,18.78,18.78,0,0,0-5.19,2.93,22.57,22.57,0,0,0-2.32,2.08,23.26,23.26,0,0,0-2,2.49,22.24,22.24,0,0,0,0,25.42,24.3,24.3,0,0,0,2,2.49,23.81,23.81,0,0,0,2.32,2.08,19,19,0,0,0,5.19,2.93,19.68,19.68,0,0,0,10.78.95,20,20,0,0,0,8.66-4A21.85,21.85,0,0,0,266,321.26a34.1,34.1,0,0,0,.76-5.29,1.35,1.35,0,0,1,0,.35c0,.27,0,.61,0,1a11.45,11.45,0,0,1-.14,1.69,16.56,16.56,0,0,1-.4,2.27,21.1,21.1,0,0,1-2.25,5.87,21.53,21.53,0,0,1-5.29,6.28,20.13,20.13,0,0,1-19.87,3.24,19.37,19.37,0,0,1-5.34-3,24,24,0,0,1-2.39-2.13A23.38,23.38,0,0,1,229,329a22.82,22.82,0,0,1,0-26.13,25.72,25.72,0,0,1,2.07-2.56,22.66,22.66,0,0,1,2.39-2.12,19.12,19.12,0,0,1,5.34-3,20.08,20.08,0,0,1,11-.93,20.32,20.32,0,0,1,8.82,4.17,21.4,21.4,0,0,1,5.29,6.28,21.18,21.18,0,0,1,2.25,5.87,16.56,16.56,0,0,1,.4,2.27,11.45,11.45,0,0,1,.14,1.69c0,.42,0,.77,0,1A1.41,1.41,0,0,1,266.79,316Z" transform="translate(-19.31 -23.47)"/><polygon class="cls-6" points="225.92 301.55 215.9 292.51 218.91 288.84 225.63 294.91 236.19 283.44 239.51 286.8 225.92 301.55"/><path class="cls-3" d="M307.86,82.3a57.06,57.06,0,0,1-5.93.2,58.93,58.93,0,0,1-5.93-.1,59.14,59.14,0,0,1,5.93-.19C305.2,82.18,307.86,82.22,307.86,82.3Z" transform="translate(-19.31 -23.47)"/><path class="cls-3" d="M307.88,85.3c0,.08-2.65.17-5.92.2s-5.93,0-5.93-.1,2.65-.17,5.93-.2A58.66,58.66,0,0,1,307.88,85.3Z" transform="translate(-19.31 -23.47)"/><path class="cls-3" d="M307.91,88.3a59,59,0,0,1-5.93.19,58.93,58.93,0,0,1-5.93-.1A59.14,59.14,0,0,1,302,88.2,55.57,55.57,0,0,1,307.91,88.3Z" transform="translate(-19.31 -23.47)"/><text class="cls-7" transform="translate(194.11 248.28)">QR S<tspan class="cls-8" x="23.18" y="0">C</tspan><tspan x="30.19" y="0">ANNED</tspan></text></g><g id="Character"><rect class="cls-3" x="181.91" y="255.71" width="4" height="92.37"/><rect class="cls-3" x="148.7" y="259.05" width="4" height="92.37"/><path class="cls-9" d="M206.22,287.46h-6v-8.95a.51.51,0,0,0-.48-.53H173.48a.51.51,0,0,0-.48.53V286h-6v-7.44a6.51,6.51,0,0,1,6.48-6.53h26.26a6.51,6.51,0,0,1,6.48,6.53Z" transform="translate(-19.31 -23.47)"/><path class="cls-3" d="M167.67,480a6.22,6.22,0,1,1-6.21-6.22A6.21,6.21,0,0,1,167.67,480Z" transform="translate(-19.31 -23.47)"/><path class="cls-3" d="M221.32,480a6.22,6.22,0,1,1-6.22-6.22A6.21,6.21,0,0,1,221.32,480Z" transform="translate(-19.31 -23.47)"/><path class="cls-3" d="M230.59,433.22h0V387.48h0a4.78,4.78,0,0,1,4.78,4.79v36.17A4.78,4.78,0,0,1,230.59,433.22Z" transform="translate(-19.31 -23.47)"/><rect class="cls-9" x="123.05" y="325.77" width="90.41" height="127.73" rx="13.97"/><path class="cls-3" d="M232.69,365.24c0,.14-20.25.26-45.22.26s-45.22-.12-45.22-.26,20.25-.26,45.22-.26S232.69,365.09,232.69,365.24Z" transform="translate(-19.31 -23.47)"/><path class="cls-3" d="M232.69,378.73c0,.14-20.25.26-45.22.26s-45.22-.12-45.22-.26,20.25-.26,45.22-.26S232.69,378.58,232.69,378.73Z" transform="translate(-19.31 -23.47)"/><path class="cls-3" d="M232.69,392.22c0,.14-20.25.26-45.22.26s-45.22-.12-45.22-.26,20.25-.26,45.22-.26S232.69,392.07,232.69,392.22Z" transform="translate(-19.31 -23.47)"/><path class="cls-3" d="M232.69,405.71c0,.14-20.25.26-45.22.26s-45.22-.12-45.22-.26,20.25-.26,45.22-.26S232.69,405.56,232.69,405.71Z" transform="translate(-19.31 -23.47)"/><path class="cls-3" d="M232.69,419.19c0,.15-20.25.27-45.22.27s-45.22-.12-45.22-.27,20.25-.26,45.22-.26S232.69,419.05,232.69,419.19Z" transform="translate(-19.31 -23.47)"/><path class="cls-3" d="M232.69,432.68c0,.15-20.25.26-45.22.26s-45.22-.11-45.22-.26,20.25-.26,45.22-.26S232.69,432.54,232.69,432.68Z" transform="translate(-19.31 -23.47)"/><path class="cls-3" d="M232.69,446.17c0,.15-20.25.26-45.22.26s-45.22-.11-45.22-.26,20.25-.26,45.22-.26S232.69,446,232.69,446.17Z" transform="translate(-19.31 -23.47)"/><path class="cls-3" d="M232.69,459.66c0,.15-20.25.26-45.22.26s-45.22-.11-45.22-.26,20.25-.26,45.22-.26S232.69,459.52,232.69,459.66Z" transform="translate(-19.31 -23.47)"/><rect class="cls-4" x="158.15" y="361.16" width="20.21" height="3.66"/><path class="cls-3" d="M74.93,111.66a11.58,11.58,0,0,0-1.67,6.54c0,2.25,1.55,6.82,5.55,7-1.06,6.44,3.06,11.2,9.92,11.21s14.72-11.76,21.08-14.35l18.45-4.87c1.62-.38,2.29-2.35,2.26-4s-.46-3.39.13-4.95c.81-2.13,3.28-3.28,4.13-5.4,1-2.41-.53-5.08-2.25-7s-3.8-3.8-4.34-6.34c-.5-2.33.39-5-.77-7-1.43-2.57-5.19-2.89-6.93-5.25-.85-1.14-1.11-2.63-1.95-3.78-1.42-2-4.16-2.48-6.56-2.21s-4.73,1.13-7.14,1.31c-3.32.24-6.74-.83-9.92.13-3.51,1.06-5.65,4.17-7.93,7.19l-3,3.49A12.84,12.84,0,0,1,82,85a23.51,23.51,0,0,0-3.75,2.41,5.86,5.86,0,0,0,.41,8.45A6.28,6.28,0,0,0,74.48,102s-.33,3.06,1.62,4.42A4.21,4.21,0,0,0,74.93,111.66Z" transform="translate(-19.31 -23.47)"/><path class="cls-3" d="M87.3,117.91a85.33,85.33,0,0,1-3.72-14.27,29.86,29.86,0,0,1,1.17-14.57c.26-.7,2.48-5.39,3.22-5.32.53,0-.84,4.43-.57,4.89,2.56,4.4,3.26,9.69,2.85,14.77a66.54,66.54,0,0,1-3,14.5" transform="translate(-19.31 -23.47)"/><path class="cls-10" d="M99.46,160.86C88.56,159.49,87.31,142,87.31,142l-.5-42.86c-.4-12.34,6.45-22.86,18.8-22.92l1.14.06a22.08,22.08,0,0,1,20.88,21.45c.29,10.69.47,22.52.1,28.23C127,137.77,115,139,115,139a41.7,41.7,0,0,0-.1,6.22c.68,12.57-12.4,15.92-15.45,15.66Z" transform="translate(-19.31 -23.47)"/><path class="cls-11" d="M115,139a28.7,28.7,0,0,1-15.16-5.38s3.3,8.8,15.16,8.37Z" transform="translate(-19.31 -23.47)"/><path class="cls-3" d="M124.52,107.42A1.7,1.7,0,0,1,122.8,109a1.62,1.62,0,0,1-1.66-1.62,1.68,1.68,0,0,1,1.72-1.62A1.62,1.62,0,0,1,124.52,107.42Z" transform="translate(-19.31 -23.47)"/><path class="cls-3" d="M124.84,102.49c-.22.21-1.45-.81-3.27-.9s-3.2.75-3.38.51.14-.49.75-.88a4.59,4.59,0,0,1,2.72-.68,4.48,4.48,0,0,1,2.59,1C124.78,102,125,102.4,124.84,102.49Z" transform="translate(-19.31 -23.47)"/><path class="cls-3" d="M107.43,107.42a1.7,1.7,0,0,1-1.72,1.62,1.62,1.62,0,0,1-1.66-1.62,1.68,1.68,0,0,1,1.72-1.62A1.62,1.62,0,0,1,107.43,107.42Z" transform="translate(-19.31 -23.47)"/><path class="cls-3" d="M107,102.27c-.22.21-1.45-.8-3.26-.9s-3.2.75-3.39.51.14-.49.75-.88a4.64,4.64,0,0,1,5.31.31C106.93,101.77,107.1,102.18,107,102.27Z" transform="translate(-19.31 -23.47)"/><path class="cls-3" d="M112.77,116.59a11.91,11.91,0,0,1,3-.37c.47,0,.91-.1,1-.41a2.37,2.37,0,0,0-.23-1.39c-.38-1.15-.77-2.35-1.18-3.61-1.64-5.13-2.8-9.35-2.59-9.41s1.7,4,3.34,9.18l1.12,3.63a2.63,2.63,0,0,1,.14,1.83,1.14,1.14,0,0,1-.8.64,3.29,3.29,0,0,1-.79.07A11.9,11.9,0,0,1,112.77,116.59Z" transform="translate(-19.31 -23.47)"/><path class="cls-3" d="M107.35,117.56c.3,0,.19,2,1.81,3.47s3.72,1.38,3.72,1.66c0,.12-.48.36-1.37.33a4.88,4.88,0,0,1-3.12-1.27,4.31,4.31,0,0,1-1.39-2.9C107,118,107.22,117.54,107.35,117.56Z" transform="translate(-19.31 -23.47)"/><path class="cls-3" d="M107.29,94.89c-.21.48-2,.15-4.16.29s-3.9.64-4.16.18c-.11-.22.21-.67.93-1.11a7.26,7.26,0,0,1,6.34-.36C107,94.25,107.38,94.66,107.29,94.89Z" transform="translate(-19.31 -23.47)"/><path class="cls-3" d="M124.41,96.41c-.34.39-1.57-.1-3.07-.2s-2.8.13-3.07-.32c-.12-.22.11-.62.69-1a4.43,4.43,0,0,1,5,.42C124.41,95.78,124.57,96.21,124.41,96.41Z" transform="translate(-19.31 -23.47)"/><path class="cls-10" d="M87.31,107.94c-.2-.1-8-2.84-8.18,5.26s8,6.61,8,6.38S87.31,107.94,87.31,107.94Z" transform="translate(-19.31 -23.47)"/><path class="cls-11" d="M84.74,116.46s-.14.09-.39.2a1.4,1.4,0,0,1-1,0c-.85-.33-1.54-1.7-1.55-3.16a4.83,4.83,0,0,1,.44-2,1.65,1.65,0,0,1,1.08-1.06.72.72,0,0,1,.83.41c.1.23.05.39.09.4s.18-.13.12-.47a.89.89,0,0,0-.31-.51,1,1,0,0,0-.77-.22,2,2,0,0,0-1.51,1.22,4.82,4.82,0,0,0-.53,2.25c0,1.63.82,3.18,2,3.54a1.52,1.52,0,0,0,1.29-.18C84.72,116.65,84.77,116.47,84.74,116.46Z" transform="translate(-19.31 -23.47)"/><path class="cls-3" d="M122.56,84.23c1.32-.71-2.56-5-5.76-6.51C112,75.45,104.54,74,100,75.21c-5.43,1.46-10,4.09-12.73,9a31.91,31.91,0,0,0-3.79,16.23,9.68,9.68,0,0,0,1.08,5c1.11,1.81,3.27,3,3.14,5.43a3.39,3.39,0,0,0,.81,2.49c1.46,1.59,3.29.14,4.15-1.34,1.82-3.15,2.07-6.94,2.27-10.57a24,24,0,0,0-.41-7.71c-.38-1.36-1-2.64-1.31-4a4.88,4.88,0,0,1,.63-4,4.68,4.68,0,0,1,.67-.65,8.41,8.41,0,0,1,8.4-1.49c4.54,1.67,12.3,4.18,14.36,2.66,3-2.19,3.67-3.64,3.67-3.64Z" transform="translate(-19.31 -23.47)"/><path class="cls-3" d="M100.47,74.11a17.79,17.79,0,0,1,13.68.93A9.24,9.24,0,0,1,119,80.48c.65,2.41-.42,5.35-2.74,6.26l-.16.1c-3.47,1.12-5.71.62-9.14-.61-2.89-1-5.44-2.87-8.34-3.89A16.39,16.39,0,0,0,89,81.93,26.82,26.82,0,0,1,100.47,74.11Z" transform="translate(-19.31 -23.47)"/><path class="cls-9" d="M85.06,82.12c.07.06.72-.71,2-1.62a11.37,11.37,0,0,1,2.45-1.32,7.6,7.6,0,0,1,3.3-.55A11,11,0,0,1,98.5,81c1.25,1,1.83,1.83,1.91,1.77s-.09-.25-.35-.63a9.63,9.63,0,0,0-1.32-1.44,10.51,10.51,0,0,0-5.85-2.57,7.54,7.54,0,0,0-3.52.63,10.24,10.24,0,0,0-2.5,1.47A6,6,0,0,0,85.06,82.12Z" transform="translate(-19.31 -23.47)"/><path class="cls-9" d="M109.75,73.37a21.28,21.28,0,0,0,2.14.81A17.53,17.53,0,0,1,120.21,81c.76,1.18,1.12,2,1.2,2a6.19,6.19,0,0,0-.88-2.15,15.37,15.37,0,0,0-8.51-7A6.26,6.26,0,0,0,109.75,73.37Z" transform="translate(-19.31 -23.47)"/><path class="cls-6" d="M80.88,443.77l-19.6,15.77s10.81,24,7.47,27.27l-33.3-35.69L65,425.3Z" transform="translate(-19.31 -23.47)"/><g class="cls-12"><path class="cls-4" d="M53,446.74a2,2,0,0,0-2.62.45,1.91,1.91,0,0,0,.42,2.6,2.11,2.11,0,0,0,2.78-.49,2,2,0,0,0-.74-2.65" transform="translate(-19.31 -23.47)"/></g><g class="cls-12"><path class="cls-4" d="M35.45,451.12l3-2.61L69.38,484.1a3.38,3.38,0,0,1-.72,3.13Z" transform="translate(-19.31 -23.47)"/></g><path class="cls-3" d="M62,460c-.19.15-1.05-.68-2.4-1.06s-2.51-.2-2.58-.43,1.2-.86,2.82-.37S62.18,459.87,62,460Z" transform="translate(-19.31 -23.47)"/><path class="cls-3" d="M63.73,465.23c-.13.19-1.12-.32-2.41-.27s-2.25.56-2.4.38.78-1.19,2.38-1.21S63.9,465.08,63.73,465.23Z" transform="translate(-19.31 -23.47)"/><path class="cls-3" d="M61,471.44c-.18-.13.51-1.16,1.89-1.55s2.51.11,2.43.31-1.06.15-2.2.48S61.18,471.6,61,471.44Z" transform="translate(-19.31 -23.47)"/><path class="cls-3" d="M66.05,455.89c-.23.06-.69-1-1.64-1.94s-2-1.47-1.89-1.7,1.38,0,2.48,1.12S66.27,455.85,66.05,455.89Z" transform="translate(-19.31 -23.47)"/><g class="cls-13"><polygon points="57.69 423.42 54.2 426.23 37.46 409.01 41.7 405.28 57.69 423.42"/></g><path class="cls-3" d="M70,452.63c-.07.07-.8-.55-1.59-1.85a11.51,11.51,0,0,1-1.08-2.45,10.63,10.63,0,0,1-.35-1.55,2.8,2.8,0,0,1-.05-.94,1,1,0,0,1,.88-.91,1.32,1.32,0,0,1,1.1.44,3.13,3.13,0,0,1,.5.77,8,8,0,0,1,.6,1.49,8.72,8.72,0,0,1,.36,2.67,4,4,0,0,1-.56,2.39c-.13,0,.07-.94,0-2.37a9.89,9.89,0,0,0-.49-2.46,9.22,9.22,0,0,0-.6-1.34c-.23-.48-.52-.81-.78-.76-.09,0-.12,0-.17.22a2.38,2.38,0,0,0,0,.68,12.57,12.57,0,0,0,.29,1.46,13,13,0,0,0,.86,2.38A16.62,16.62,0,0,1,70,452.63Z" transform="translate(-19.31 -23.47)"/><path class="cls-3" d="M69.49,452.62c-.08,0,.25-1,1.36-2a7.88,7.88,0,0,1,3.77-2,2,2,0,0,1,2,.37,1.15,1.15,0,0,1,.15,1.22,3.12,3.12,0,0,1-.51.77A5.45,5.45,0,0,1,75,452a5.6,5.6,0,0,1-2.59.87c-1.58.1-2.45-.46-2.4-.53a19.54,19.54,0,0,0,2.33-.06,5.64,5.64,0,0,0,2.24-.91,5.2,5.2,0,0,0,1-1c.34-.4.53-.82.36-.93a1.37,1.37,0,0,0-1.16-.13,8.18,8.18,0,0,0-1.4.41A8.82,8.82,0,0,0,71.24,451C70.11,451.92,69.6,452.7,69.49,452.62Z" transform="translate(-19.31 -23.47)"/><path class="cls-6" d="M79.7,447l1.9,25.09s-24.9,8.52-25,13.19l48.81-.11L104.05,446Z" transform="translate(-19.31 -23.47)"/><g class="cls-12"><path class="cls-4" d="M96.6,469.35a2,2,0,0,1,1.46,2.22,1.92,1.92,0,0,1-2.18,1.48,2.11,2.11,0,0,1-1.54-2.36,2,2,0,0,1,2.44-1.28" transform="translate(-19.31 -23.47)"/></g><g class="cls-12"><path class="cls-4" d="M105.41,485.15l-.14-3.95L58.14,483a3.37,3.37,0,0,0-1.79,2.67Z" transform="translate(-19.31 -23.47)"/></g><path class="cls-3" d="M80.8,471.85c0,.24,1.21.3,2.41,1s1.87,1.69,2.09,1.59-.2-1.46-1.67-2.31S80.74,471.63,80.8,471.85Z" transform="translate(-19.31 -23.47)"/><path class="cls-3" d="M75.77,474.17c0,.23,1,.6,1.85,1.57s1.12,2,1.36,2,.34-1.37-.74-2.56S75.77,473.94,75.77,474.17Z" transform="translate(-19.31 -23.47)"/><path class="cls-3" d="M73.11,480.41c.22,0,.5-1.16-.16-2.44s-1.8-1.76-1.89-1.56.62.88,1.15,1.93S72.87,480.39,73.11,480.41Z" transform="translate(-19.31 -23.47)"/><path class="cls-3" d="M81,466.09c.11.21,1.19-.16,2.54-.13s2.41.42,2.53.22-.93-1-2.52-1.05S80.88,465.9,81,466.09Z" transform="translate(-19.31 -23.47)"/><g class="cls-13"><polygon points="61.49 437.88 61.82 442.35 85.42 441.94 85.25 437.15 61.49 437.88"/></g><path class="cls-3" d="M80.71,461a4.53,4.53,0,0,0,2.44-.11,10.86,10.86,0,0,0,2.53-.89,11.55,11.55,0,0,0,1.37-.8,2.87,2.87,0,0,0,.71-.6,1,1,0,0,0,.06-1.27,1.31,1.31,0,0,0-1.06-.51,3.28,3.28,0,0,0-.91.17,8.35,8.35,0,0,0-1.5.58,8.23,8.23,0,0,0-2.19,1.57c-1.09,1.09-1.44,2-1.36,2s.63-.7,1.75-1.61a9.45,9.45,0,0,1,3.51-1.8c.51-.16,1-.18,1.09,0s.06.12,0,.27a2.17,2.17,0,0,1-.52.44,12.55,12.55,0,0,1-1.27.79,12.87,12.87,0,0,1-2.32,1A17.14,17.14,0,0,0,80.71,461Z" transform="translate(-19.31 -23.47)"/><path class="cls-3" d="M81,461.35a3.84,3.84,0,0,0,.55-2.39,7.69,7.69,0,0,0-1.12-4.12,2,2,0,0,0-1.6-1.17,1.16,1.16,0,0,0-1,.72,3.38,3.38,0,0,0-.21.91,5.25,5.25,0,0,0,.06,1.64,5.71,5.71,0,0,0,1.15,2.49c1,1.22,2,1.47,2,1.38s-.77-.54-1.55-1.73a5.65,5.65,0,0,1-.86-2.26,4.82,4.82,0,0,1,0-1.42c.05-.52.23-.94.42-.9s.67.36.89.77a7.23,7.23,0,0,1,.66,1.3A8.68,8.68,0,0,1,81,459C81.12,460.41,80.9,461.32,81,461.35Z" transform="translate(-19.31 -23.47)"/><path class="cls-3" d="M61.54,266.38s5.29,75.12,7.35,92.35c1.31,10.95,7.63,103,7.63,103l31.85-1L103.24,315V270.21Z" transform="translate(-19.31 -23.47)"/><path class="cls-3" d="M57.27,427.14l21.07,21.37s63.84-62.2,66.43-66.87,1.82-62.19,1.82-62.19l-1.87-51.56-45.57,2.32,4.5,51.29,6.07,47.19Z" transform="translate(-19.31 -23.47)"/><path class="cls-9" d="M115.18,412.27s-.22.25-.66.69l-1.94,2-7.43,7.4L78.5,448.67l-.16.16-.15-.16-21.1-21.35-.17-.17.16-.18,17-19,35.46-39.46-.06.17c-1.9-16.09-3.49-29.53-4.6-39-.54-4.69-1-8.38-1.26-10.92-.13-1.25-.24-2.21-.31-2.89,0-.31,0-.55-.07-.74a.69.69,0,0,1,0-.25,2.24,2.24,0,0,1,0,.25l.11.73c.09.68.22,1.64.38,2.88.32,2.54.79,6.23,1.38,10.91l4.79,38.94,0,.1-.07.08L74.48,408.35l-17,19V427l21,21.39h-.31C89.27,437.5,98.5,428.47,105,422.14l7.51-7.31,2-1.92C114.93,412.48,115.18,412.27,115.18,412.27Z" transform="translate(-19.31 -23.47)"/><path class="cls-9" d="M119.7,373.18a24.22,24.22,0,0,1-4.64-2,24.28,24.28,0,0,1-4.41-2.46,25,25,0,0,1,4.64,2A24.28,24.28,0,0,1,119.7,373.18Z" transform="translate(-19.31 -23.47)"/><path class="cls-9" d="M107.13,312.44a12.06,12.06,0,0,1-1.93.19l-5.12.27h-.22v-.23c0-2.65,0-5.89-.09-9.39-.08-4.54-.26-8.64-.39-11.62l-.15-3.52a7.25,7.25,0,0,1,0-1.3,5.65,5.65,0,0,1,.2,1.28c.09.83.2,2,.32,3.52.23,3,.46,7.08.54,11.63.08,3.5,0,6.75,0,9.41l-.22-.22,5.14-.09A11,11,0,0,1,107.13,312.44Z" transform="translate(-19.31 -23.47)"/><path class="cls-9" d="M104.91,288.58s.17-.09.5-.06a2.26,2.26,0,0,1,1.25.63,2.47,2.47,0,0,1,.75,2,2.45,2.45,0,0,1-4.16,1.3,2.47,2.47,0,0,1-.5-2,2.25,2.25,0,0,1,.67-1.23c.25-.22.44-.26.45-.24a2.87,2.87,0,0,0-.75,1.52,2.17,2.17,0,0,0,.49,1.66,2,2,0,0,0,3.32-1,2.12,2.12,0,0,0-.54-1.64A2.88,2.88,0,0,0,104.91,288.58Z" transform="translate(-19.31 -23.47)"/><path class="cls-2" d="M86.62,142.88s8.28,9.06,30,1.84l13.71,20.05,14.09,114.15-46.19,7.45-36-5.71L73.69,164.77Z" transform="translate(-19.31 -23.47)"/><path class="cls-6" d="M88.58,144.08c1.76,3.86,6,12.94,6,12.94s-10.72,71.16-11.85,82.41c-1.24,12.39,6.43,56.27,6.43,56.27l-37.61-5.88,10.58-116L57,151.41a119.58,119.58,0,0,1,18.26-5.69l7.89-1.13,2.17-3.6,1.46-2.18Z" transform="translate(-19.31 -23.47)"/><g class="cls-13"><path d="M90.54,230.86c-4.6-.1-18,3.76-22.56,4.26-4.73.51-7.9,1.12-11.76,3.89l-.58,6.06c2.67,1.32,5.69,1.64,8.62,2.14a10.45,10.45,0,0,0,8.46-1.86c1.25-1,2.16-2.49,3.56-3.33s2.66-2,4.13-1.75C91.49,242.43,94.31,232.86,90.54,230.86Z" transform="translate(-19.31 -23.47)"/></g><path class="cls-3" d="M84.06,145.36a5.23,5.23,0,0,1,.35,1c.19.68.45,1.66.76,2.88.62,2.44,1.44,5.82,2.32,9.55.32,1.37.63,2.69.91,3.91h-.48A15.34,15.34,0,0,1,89.36,159a7.93,7.93,0,0,1,1.92-2.55,1.84,1.84,0,0,1,1.19-.36,1.54,1.54,0,0,1,.86.33c.4.35.36.69.35.67s-.07-.28-.45-.53a1.48,1.48,0,0,0-1.77.15,8,8,0,0,0-1.72,2.49,15.85,15.85,0,0,0-1.34,3.66l-.24,1-.24-1c-.3-1.23-.61-2.54-.93-3.91-.88-3.73-1.65-7.12-2.18-9.58-.26-1.23-.47-2.23-.6-2.92A4.19,4.19,0,0,1,84.06,145.36Z" transform="translate(-19.31 -23.47)"/><path class="cls-9" d="M61.16,241.35l9.53,2.77a53.62,53.62,0,0,1,3.64,15.52c.56,8.3-3.08,68.46-3.08,68.46l-30.54-1.32L39.78,324a11.3,11.3,0,0,1-.55-4.4c.77-9.89,2.13-44.2,9.55-64.17C52.32,245.91,61.16,241.35,61.16,241.35Z" transform="translate(-19.31 -23.47)"/><path class="cls-9" d="M71.83,145.9s2.9,5.47,2.56,17.52-17,95.88-17,95.88l10.65.93S78.81,190.6,79.38,183.6s4.48-32.55,0-38.13C79.38,145.47,74.94,143.52,71.83,145.9Z" transform="translate(-19.31 -23.47)"/><path class="cls-9" d="M53.48,247.65s-11.21,14-14.94,40.29l5,1.06Z" transform="translate(-19.31 -23.47)"/><path class="cls-3" d="M60,253.68a1.85,1.85,0,0,1,0,.52c-.06.39-.13.86-.23,1.45-.19,1.25-.49,3.07-.79,5.33-.66,4.5-1.26,10.78-2.55,17.63-.34,1.71-.67,3.37-1.07,5A12,12,0,0,1,53.34,288a4.9,4.9,0,0,1-3.85,2,21.45,21.45,0,0,1-3.73-.44c-2.26-.39-4-.92-5.28-1.14L39,288.07a2.73,2.73,0,0,1-.5-.13,1.88,1.88,0,0,1,.52,0c.33,0,.82.1,1.45.19,1.28.16,3.07.64,5.31,1a21.79,21.79,0,0,0,3.66.37A4.43,4.43,0,0,0,53,287.67a11.57,11.57,0,0,0,1.83-4.21c.38-1.58.71-3.25,1.05-4.95,1.28-6.82,1.94-13.09,2.69-17.59.36-2.25.71-4.06,1-5.31.14-.58.24-1.05.33-1.43A1.89,1.89,0,0,1,60,253.68Z" transform="translate(-19.31 -23.47)"/><path class="cls-3" d="M70.9,244.68a8.9,8.9,0,0,1-.08,1.65c-.11,1.15-.26,2.65-.43,4.47-.1.95-.21,2-.32,3.08a31.3,31.3,0,0,1-.5,3.56,5.78,5.78,0,0,1-2.16,3.38,5,5,0,0,1-4.21.91A4.83,4.83,0,0,1,59.89,259a8.25,8.25,0,0,1-.36-4c.25-2.51.6-4.74.95-6.61s.71-3.36,1-4.39a8,8,0,0,1,.49-1.58,12.63,12.63,0,0,1-.29,1.63c-.21,1-.51,2.54-.81,4.4s-.62,4.1-.84,6.59a7.85,7.85,0,0,0,.35,3.75,4.36,4.36,0,0,0,3,2.44,4.53,4.53,0,0,0,3.78-.81,5.22,5.22,0,0,0,2-3.09,30.58,30.58,0,0,0,.54-3.49c.13-1.09.26-2.12.38-3.07.24-1.81.44-3.31.6-4.45A11.83,11.83,0,0,1,70.9,244.68Z" transform="translate(-19.31 -23.47)"/><path class="cls-3" d="M71.32,328.18a12.31,12.31,0,0,1-1.12-1.1c-.7-.72-1.72-1.76-3-3s-2.85-2.72-4.64-4.28c-.9-.78-1.85-1.58-2.86-2.4a8.83,8.83,0,0,0-3.37-1.88,3.35,3.35,0,0,0-1.86.08,5.32,5.32,0,0,0-1.61,1L50,319l-4.81,4.11c-1.33,1.12-2.43,2-3.28,2.74a9,9,0,0,1-1.24.95,9.39,9.39,0,0,1,1.11-1.1L45,322.82l4.74-4.2,2.82-2.47a6.07,6.07,0,0,1,1.76-1.06,3.83,3.83,0,0,1,2.15-.1A9.25,9.25,0,0,1,60,317c1,.82,2,1.64,2.85,2.43,1.79,1.59,3.33,3.09,4.59,4.38s2.23,2.38,2.89,3.14A7.29,7.29,0,0,1,71.32,328.18Z" transform="translate(-19.31 -23.47)"/><path class="cls-3" d="M62.71,262.2c.15,0-1.38,11.84-3.41,26.4S55.51,315,55.36,314.94s1.39-11.84,3.42-26.41S62.57,262.18,62.71,262.2Z" transform="translate(-19.31 -23.47)"/><path class="cls-3" d="M67.31,256.46a5.85,5.85,0,0,1-.18-.66,2.83,2.83,0,0,0-1-1.4A2.57,2.57,0,0,0,62,256.46a2.54,2.54,0,0,0,1.65,2.37,2.58,2.58,0,0,0,2.43-.32,2.78,2.78,0,0,0,1-1.4c.13-.41.14-.66.18-.65s.09.24,0,.7a2.74,2.74,0,0,1-1,1.65,3,3,0,0,1-2.82.48,3,3,0,0,1,0-5.66,2.92,2.92,0,0,1,2.82.48,2.7,2.7,0,0,1,1,1.64C67.4,256.21,67.34,256.46,67.31,256.46Z" transform="translate(-19.31 -23.47)"/><path class="cls-10" d="M198.87,259.23l15.5,11.92-1.45,12.19-.31,1.86-5.21,3.23h-9.06s-1.45-3.75,1.88-3.44c0,0-1.64-2.5,3-3.12s5.54-2.19,5.54-2.19l-.41-2.18-1.67-2.08-1.57-1.59-8.74-9.76Z" transform="translate(-19.31 -23.47)"/><path class="cls-10" d="M170,245c0,.11,18,18.61,18,18.61l10.9-4.34-13.09-26.91-10.9-3.88L170,237.13Z" transform="translate(-19.31 -23.47)"/><path class="cls-10" d="M187.46,262.77a46.78,46.78,0,0,0,5.37,7,33.23,33.23,0,0,0,6.45,4.38s3.64,9.57,6,9.16,3.22-1.67,1.87-4.27-4.47-12.18-4.47-12.18L197,255.43Z" transform="translate(-19.31 -23.47)"/><path class="cls-6" d="M141.64,152s6.64,2,10.46,10.92,19.11,40.87,19.11,40.87L187.46,233s-7.33,0-12.74,4.14-4.78,9.56-4.78,9.56-4.72-1-5.39-3.83a12.63,12.63,0,0,1,0-5.41l-5.76-7.33-3.5-7-11-18.54-7.45-29.56Z" transform="translate(-19.31 -23.47)"/><path class="cls-6" d="M150.81,300.06s-5.9-61.06-5.62-61.79-.64-35.74,0-36.28-3.55-50-3.55-50l-21.76-6.73.29.05-5-5.27s-6.08,20.18-6,20.51c1.76,7,8.07,110.3,8.07,110.3,0,.73,2.48,29.16,2.48,29.16Z" transform="translate(-19.31 -23.47)"/><path class="cls-3" d="M144.22,205.18a5.29,5.29,0,0,1-.74.57l-2.19,1.55-.06,0-.07,0-11.55-5.59-.12-.06v-.14c-.28-3.75-.6-8-.94-12.5-.3-4.21-.59-8.22-.84-11.81l0-.21.2,0a29.59,29.59,0,0,1,12.36.08,27.81,27.81,0,0,1,3.4,1,4.62,4.62,0,0,1,1.15.51s-.42-.13-1.2-.37a34.36,34.36,0,0,0-3.41-.83,30.41,30.41,0,0,0-12.2.1l.19-.25c.27,3.6.57,7.6.89,11.82.32,4.49.62,8.75.89,12.5l-.13-.19,11.46,5.79h-.13l2.26-1.45A5,5,0,0,1,144.22,205.18Z" transform="translate(-19.31 -23.47)"/><path class="cls-3" d="M144.57,169.58a7.75,7.75,0,0,1,.16,1.48c.07.95.14,2.34.2,4.05.12,3.42.15,8.15.12,13.37s-.05,10,0,13.37c0,1.63,0,3,0,4.05a8.84,8.84,0,0,1,0,1.49,8,8,0,0,1-.16-1.49c-.07-1-.14-2.33-.19-4.05-.13-3.42-.16-8.15-.13-13.37s.06-9.94,0-13.36c0-1.64,0-3,0-4.05A8.66,8.66,0,0,1,144.57,169.58Z" transform="translate(-19.31 -23.47)"/><path class="cls-3" d="M178.52,224c0,.09-1.1.38-2.77,1.15a20.58,20.58,0,0,0-9.95,9.93c-.77,1.67-1.06,2.79-1.15,2.76s0-.29.13-.8a12.83,12.83,0,0,1,.69-2.11,18.73,18.73,0,0,1,4.06-6.06,19,19,0,0,1,6.07-4.06,12.61,12.61,0,0,1,2.11-.68A2.55,2.55,0,0,1,178.52,224Z" transform="translate(-19.31 -23.47)"/><path class="cls-3" d="M173.54,222.82a46.9,46.9,0,0,0-5.48,3.47,46.7,46.7,0,0,0-4.6,4.57,5.77,5.77,0,0,1,1-1.65,18.84,18.84,0,0,1,3.26-3.33,19.24,19.24,0,0,1,4-2.45A5.38,5.38,0,0,1,173.54,222.82Z" transform="translate(-19.31 -23.47)"/><path class="cls-3" d="M120.17,145.36a7.31,7.31,0,0,1-.07,1.36c-.07.86-.2,2.12-.38,3.67-.36,3.1-.89,7.38-1.63,12.08-.26,1.7-.54,3.33-.81,4.84l-.14.72-.33-.65a48.51,48.51,0,0,0-2.47-4.25c-.4-.62-.8-1.19-1.18-1.72a6.77,6.77,0,0,0-1.14-1.34,1.8,1.8,0,0,0-1.24-.46,1.5,1.5,0,0,0-.91.43,1.16,1.16,0,0,0-.31.79s-.23-.38.19-.91a1.67,1.67,0,0,1,1-.55,2,2,0,0,1,1.47.46,6.49,6.49,0,0,1,1.24,1.35c.4.53.81,1.1,1.24,1.72a42.2,42.2,0,0,1,2.55,4.25l-.46.07c.24-1.51.51-3.14.79-4.83.73-4.7,1.33-9,1.78-12,.21-1.46.4-2.69.54-3.65A6.3,6.3,0,0,1,120.17,145.36Z" transform="translate(-19.31 -23.47)"/><g class="cls-13"><path d="M116.87,167l-1.05,4.4q-1.57-4.38-3.13-8.77a6.27,6.27,0,0,0-.79-1.65,2,2,0,0,0-1.54-.86,1.34,1.34,0,0,1,2.23,0C113.86,161.43,116.87,167,116.87,167Z" transform="translate(-19.31 -23.47)"/></g><g class="cls-13"><path d="M145,205.51c2.72-9.78,2.16-22-.46-31.82Z" transform="translate(-19.31 -23.47)"/></g><path class="cls-3" d="M144.62,182.9a15.18,15.18,0,0,1-2.38-.28c-1.46-.21-3.48-.45-5.73-.57s-4.27-.11-5.75-.07a13.38,13.38,0,0,1-2.4,0,9.36,9.36,0,0,1,2.38-.38,41.53,41.53,0,0,1,11.56.65A9,9,0,0,1,144.62,182.9Z" transform="translate(-19.31 -23.47)"/><path class="cls-3" d="M145.58,254.33a4.78,4.78,0,0,1-1-.46c-.62-.32-1.5-.81-2.58-1.44A95.12,95.12,0,0,1,133.9,247c-3.05-2.27-5.68-4.51-7.52-6.19-.91-.85-1.64-1.55-2.12-2a4.3,4.3,0,0,1-.72-.81,4.46,4.46,0,0,1,.85.66l2.24,1.92c1.89,1.61,4.54,3.79,7.58,6.05s5.9,4.16,8,5.5l2.48,1.58A4,4,0,0,1,145.58,254.33Z" transform="translate(-19.31 -23.47)"/><path class="cls-6" d="M57.87,151.1s-4.68.86-9.12,10.19-15.86,40.32-16.6,42.39L55.48,219.2l13.18-39.06Z" transform="translate(-19.31 -23.47)"/><path class="cls-6" d="M70.05,235.26l.2-13.24-15.08-5.11L58,207.49,34.8,196.56s-10.4,27.19-10.33,32.18c0,1.84,4.16,11.22,12.81,12.06,5.63.55,18.36,1.29,26.93,1.6A5.71,5.71,0,0,0,70.05,235.26Z" transform="translate(-19.31 -23.47)"/><path class="cls-3" d="M65.79,186.64c.14.05-1.9,6.94-4.55,15.39s-4.91,15.27-5.05,15.23,1.9-6.93,4.55-15.39S65.65,186.6,65.79,186.64Z" transform="translate(-19.31 -23.47)"/><path class="cls-3" d="M62.51,219.39a4.24,4.24,0,0,1-1-.22c-.62-.18-1.52-.45-2.62-.8s-2.37-.86-3.83-1.25a27.94,27.94,0,0,0-4.82-.89,21.94,21.94,0,0,0-8.79,1c-2.16.75-3.37,1.52-3.42,1.43a3.42,3.42,0,0,1,.82-.58,16.1,16.1,0,0,1,2.48-1.2,20.39,20.39,0,0,1,9-1.13A30.14,30.14,0,0,1,59,218c1.08.39,2,.71,2.56.95A3.77,3.77,0,0,1,62.51,219.39Z" transform="translate(-19.31 -23.47)"/><path class="cls-3" d="M47.63,208.67a4.69,4.69,0,0,1,1.78.54,12.92,12.92,0,0,1,3.69,2.57,12.7,12.7,0,0,1,2.55,3.7,4.43,4.43,0,0,1,.54,1.78,21,21,0,0,0-3.46-5.11A21.12,21.12,0,0,0,47.63,208.67Z" transform="translate(-19.31 -23.47)"/><path class="cls-3" d="M65.57,173.66c-.1,0,.08-1.25,0-3.26a23.71,23.71,0,0,0-5.4-14.4c-1.28-1.55-2.24-2.37-2.18-2.44s.28.15.72.52a14.22,14.22,0,0,1,1.73,1.68,19.5,19.5,0,0,1,2.16,2.86,22,22,0,0,1,3.08,8.2,20.59,20.59,0,0,1,.26,3.57,16.5,16.5,0,0,1-.19,2.41A3.28,3.28,0,0,1,65.57,173.66Z" transform="translate(-19.31 -23.47)"/><g class="cls-13"><path d="M46.33,213.82a15.82,15.82,0,0,0-9.57,3.64,1.11,1.11,0,0,0-.49.73c0,.4.42.71.82.72a2.53,2.53,0,0,0,1.15-.38,22.81,22.81,0,0,1,17.54-1.38l.31-.29A15.74,15.74,0,0,0,46.33,213.82Z" transform="translate(-19.31 -23.47)"/></g><path class="cls-3" d="M70.25,237.94a1.25,1.25,0,0,1,0,.36,4.28,4.28,0,0,1-.29,1,5.43,5.43,0,0,1-5.17,3.33c-.94,0-1.94,0-3,0-2.11-.05-4.42-.15-6.84-.28-4.85-.27-9.23-.62-12.39-.91-1.58-.15-2.86-.28-3.75-.38a6.65,6.65,0,0,1-1.36-.22,6.63,6.63,0,0,1,1.38,0l3.76.22,12.39.76c2.42.13,4.72.24,6.82.32l3,.08a4.92,4.92,0,0,0,2.44-.47,5.24,5.24,0,0,0,2.56-2.51,6,6,0,0,0,.37-.94C70.18,238.05,70.23,237.93,70.25,237.94Z" transform="translate(-19.31 -23.47)"/><path class="cls-3" d="M73.38,237.16l13,.48c1.3.05,2.51-1.14,3.06-3l10.19-35.71c.65-2.46-.72-4.45-2.94-4.59l-17.2-1.08c-2.77,0-4.25,1.19-4.74,3.27l-6.71,28.26C66.64,230.79,69.32,237,73.38,237.16Z" transform="translate(-19.31 -23.47)"/><path class="cls-10" d="M62.25,220.31,65.71,213l5.69-1.9-1.74,7c2.23,1.08,5.58,1.64,7.51.57s9.48-8.57,10.9-7.85,2.7,2.44,1.4,4.09-8.39,6.76-6.92,8.27,9.61-5.11,12-4.62,3.85,1.89,2.52,2.91-4.62,4.31-5.2,5.75c.14,1.8,1,4.35.21,4.79a28.27,28.27,0,0,1-6,2.09,65.58,65.58,0,0,0-6.26,2.33,14,14,0,0,1-9.85.23l-1.63-.57a6.29,6.29,0,0,1-4.21-6l.06-5.4Z" transform="translate(-19.31 -23.47)"/><path class="cls-9" d="M71,218.62a11.22,11.22,0,0,0,.55-1.73l1.28-4.76c.53-2,1.15-4.44,1.84-7.07.34-1.34.69-2.74,1.06-4.19s.57-3.07,1.56-4.15,2.68-1.12,4.11-1.05l4.3.32,7.29.53,4.92.3a10.42,10.42,0,0,0,1.81,0,10.56,10.56,0,0,0-1.79-.26L93,196.1l-7.28-.65-4.31-.36a9.77,9.77,0,0,0-2.34.1,4.07,4.07,0,0,0-2.23,1.12,5.21,5.21,0,0,0-1.13,2.2c-.21.76-.38,1.49-.56,2.22-.36,1.45-.7,2.85-1,4.19-.64,2.65-1.22,5.05-1.71,7.11s-.82,3.57-1.11,4.81A9.66,9.66,0,0,0,71,218.62Z" transform="translate(-19.31 -23.47)"/><path class="cls-4" d="M86.62,201.35a1.28,1.28,0,1,0,1.27-1.28A1.27,1.27,0,0,0,86.62,201.35Z" transform="translate(-19.31 -23.47)"/></g></svg>